<svg xmlns="http://www.w3.org/2000/svg" width="20" height="20" viewBox="0 0 20 20">
  <g id="Group_13169" data-name="Group 13169" transform="translate(0.25 0)">
    <g id="Rectangle_5312" data-name="Rectangle 5312" transform="translate(-0.25 0)" fill="#fff" stroke="#707070" stroke-width="1" opacity="0">
      <rect width="20" height="20" stroke="none"/>
      <rect x="0.5" y="0.5" width="19" height="19" fill="none"/>
    </g>
    <g id="Union_149" data-name="Union 149" transform="translate(0.77 1)" fill="#b1b1b3">
      <path d="M 7.521909236907959 17.83806991577148 C 7.504279136657715 17.83806991577148 7.486309051513672 17.83686065673828 7.468499183654785 17.8344612121582 C 7.385329246520996 17.82400131225586 7.307299137115479 17.78542137145996 7.247468948364258 17.72565078735352 C 7.224449157714844 17.70204162597656 7.202649116516113 17.67315101623535 7.1857590675354 17.64345169067383 L 5.891279220581055 15.37413120269775 L 5.797929286956787 15.21048069000244 L 5.659358978271484 15.33812046051025 L 5.648579120635986 15.34805107116699 C 5.577929019927979 15.41390037536621 5.486189365386963 15.4498405456543 5.389629364013672 15.4498405456543 C 5.2864990234375 15.44985103607178 5.189449310302734 15.4096212387085 5.116349220275879 15.33658123016357 L 4.263089179992676 14.4837007522583 L 4.157049179077148 14.37771129608154 L 4.051009178161621 14.4837007522583 L 3.718309164047241 14.81625080108643 C 3.645379066467285 14.88914108276367 3.548219203948975 14.92929077148438 3.444709062576294 14.92930126190186 C 3.341459274291992 14.92930126190186 3.244419097900391 14.88915061950684 3.171449184417725 14.81624126434326 C 3.098139047622681 14.74295043945312 3.057759046554565 14.64591121673584 3.057759046554565 14.54301071166992 C 3.057759046554565 14.44011116027832 3.098139047622681 14.34309101104736 3.171459197998047 14.26980113983154 L 3.504159212112427 13.93728065490723 L 3.610299110412598 13.83120059967041 L 3.504159212112427 13.72510051727295 L 2.617789268493652 12.83912086486816 C 2.471089124679565 12.6924409866333 2.46549916267395 12.45789051055908 2.605099201202393 12.30517101287842 L 2.731719255447388 12.16664123535156 L 2.568689107894897 12.07367038726807 L 0.3448891639709473 10.8055305480957 L 0.3422991633415222 10.80405044555664 L 0.3396591544151306 10.80268096923828 C 0.315729171037674 10.79027080535889 0.2899791598320007 10.77050113677979 0.2609391510486603 10.74224090576172 C 0.2036691606044769 10.68497085571289 0.1649991571903229 10.60641098022461 0.1534991711378098 10.52248096466064 C 0.1373091638088226 10.40135097503662 0.1769691705703735 10.28263092041016 0.2623791694641113 10.19726085662842 L 1.621349215507507 8.838940620422363 C 1.694149136543274 8.766140937805176 1.791049122810364 8.72606086730957 1.894219160079956 8.72606086730957 C 1.91965913772583 8.72606086730957 1.945269107818604 8.728580474853516 1.970359206199646 8.733540534973145 L 5.196869373321533 9.379510879516602 L 5.279319286346436 9.396020889282227 L 5.336429119110107 9.334300994873047 C 5.797289371490479 8.836151123046875 6.2900390625 8.301580429077148 6.794878959655762 7.753880977630615 L 7.219439029693604 7.293320655822754 L 7.336059093475342 7.166831016540527 L 7.194859027862549 7.068531036376953 L 1.671369194984436 3.223530769348145 C 1.655599117279053 3.211700916290283 1.636969208717346 3.195730924606323 1.621349215507507 3.180120944976807 C 1.55786919593811 3.116680860519409 1.517969131469727 3.031620740890503 1.508979201316833 2.940600872039795 C 1.499589204788208 2.827780961990356 1.540479183197021 2.715370893478394 1.621379137039185 2.634460926055908 L 3.173159122467041 1.08254086971283 C 3.246259212493896 1.009920835494995 3.342929124832153 0.9697308540344238 3.445009231567383 0.9697308540344238 C 3.482209205627441 0.9697308540344238 3.5191490650177 0.9752208590507507 3.55479907989502 0.9860608577728271 L 10.93914890289307 3.16455078125 L 11.02789878845215 3.190730810165405 L 11.09111881256104 3.123170852661133 C 11.79199886322021 2.374120950698853 12.32803916931152 1.811590790748596 12.60051918029785 1.539220809936523 C 13.28889942169189 0.8511508703231812 14.15756893157959 0.3799008429050446 15.04648876190186 0.2122808545827866 C 15.2671594619751 0.1709508448839188 15.48495960235596 0.1499808430671692 15.69365882873535 0.1499808430671692 C 16.3330192565918 0.1499808430671692 16.88480949401855 0.3495608568191528 17.24737930297852 0.7119508385658264 C 17.73655891418457 1.201770901679993 17.91879844665527 2.003600835800171 17.74728965759277 2.911760807037354 C 17.58083915710449 3.798810958862305 17.1093692779541 4.66731071472168 16.41969871520996 5.35745096206665 C 16.15296936035156 5.624080657958984 15.60086917877197 6.145580768585205 14.85397911071777 6.84657096862793 L 14.78659915924072 6.909801006317139 L 14.81276893615723 6.998420715332031 L 17.00760841369629 14.43204116821289 C 17.04743003845215 14.56809043884277 17.01046943664551 14.7148904800415 16.91106986999512 14.81482124328613 L 15.35956954956055 16.36566162109375 C 15.28633880615234 16.4388599395752 15.18826961517334 16.47917175292969 15.08341884613037 16.47917175292969 C 15.07236957550049 16.47917175292969 15.061279296875 16.47871017456055 15.05017948150635 16.47779083251953 C 14.96191883087158 16.47017097473145 14.87801933288574 16.43093109130859 14.8143892288208 16.36733055114746 C 14.79748916625977 16.35046005249023 14.78145885467529 16.33185005187988 14.76668930053711 16.31197166442871 L 10.89444923400879 10.75327110290527 L 10.79615879058838 10.6121711730957 L 10.66970920562744 10.72871112823486 L 9.999229431152344 11.34703063964844 C 9.531068801879883 11.77888107299805 9.074889183044434 12.19968128204346 8.643889427185059 12.59564113616943 L 8.581648826599121 12.6528205871582 L 8.598319053649902 12.73568058013916 L 9.258739471435547 16.01905059814453 C 9.283469200134277 16.14389038085938 9.243088722229004 16.27752113342285 9.15324878692627 16.36737060546875 L 7.794319152832031 17.72567176818848 C 7.721828937530518 17.79816055297852 7.625099182128906 17.83806991577148 7.521909236907959 17.83806991577148 Z M 7.917139053344727 13.26469039916992 L 7.720949172973633 13.44536113739014 C 7.475179195404053 13.67169094085693 7.24432897567749 13.8839807510376 7.032209396362305 14.07906055450439 C 6.826458930969238 14.26828098297119 6.63831901550293 14.44131088256836 6.47123908996582 14.59524059295654 L 6.383469104766846 14.67611122131348 L 6.442539215087891 14.77981090545654 L 7.508499145507812 16.65105056762695 L 7.605889320373535 16.82200050354004 L 7.744949340820312 16.68282127380371 L 8.402909278869629 16.02430152893066 L 8.45966911315918 15.96749114990234 L 8.443869590759277 15.88876056671143 L 7.969629287719727 13.5261812210083 L 7.917139053344727 13.26469039916992 Z M 14.1578893661499 7.499800682067871 L 13.98043918609619 7.665091037750244 C 13.42413902282715 8.183280944824219 12.82107925415039 8.741360664367676 12.18261909484863 9.332210540771484 L 11.46642875671387 9.995170593261719 L 11.37065887451172 10.08387088775635 L 11.44528961181641 10.19098091125488 L 15.03714942932129 15.34556102752686 L 15.13955879211426 15.49253082275391 L 15.26625919342041 15.36589050292969 L 16.14021873474121 14.49235057830811 L 16.20328903198242 14.4293212890625 L 16.17803955078125 14.34380054473877 L 14.22653961181641 7.732390880584717 L 14.1578893661499 7.499800682067871 Z M 5.967469215393066 11.63470077514648 C 6.070469379425049 11.63470077514648 6.167569160461426 11.67505073547363 6.240869045257568 11.74832057952881 C 6.314198970794678 11.82163047790527 6.354598999023438 11.91868114471436 6.354598999023438 12.02157115936279 C 6.354598999023438 12.12444114685059 6.314208984375 12.2214412689209 6.240889072418213 12.29471111297607 L 4.809929370880127 13.72510051727295 L 4.7038893699646 13.83111095428467 L 4.809849262237549 13.93719100952148 L 5.300619125366211 14.4285306930542 L 5.402199268341064 14.53023052215576 L 5.508129119873047 14.43308067321777 C 6.432999134063721 13.58495044708252 14.58144950866699 6.109470844268799 15.87624931335449 4.814311027526855 C 16.44916915893555 4.241631031036377 16.85580825805664 3.497520923614502 16.99184989929199 2.772830963134766 C 17.11317825317383 2.128160953521729 17.00550842285156 1.563240885734558 16.70383834838867 1.261730790138245 C 16.48721885681152 1.044540882110596 16.1296501159668 0.9248408675193787 15.69716930389404 0.9248408675193787 C 15.53588962554932 0.9248408675193787 15.36624908447266 0.9413308501243591 15.19295883178711 0.9738708734512329 C 14.46690940856934 1.110880851745605 13.72256946563721 1.517330884933472 13.15064907073975 2.089010953903198 C 11.94991874694824 3.282740831375122 5.478999137878418 10.3205509185791 3.524349212646484 12.44911098480225 L 3.427109241485596 12.55501079559326 L 3.528779268264771 12.65665054321289 L 4.050999164581299 13.17872047424316 L 4.157039165496826 13.28474044799805 L 4.263099193572998 13.17873096466064 L 5.694069385528564 11.74831104278564 C 5.767369270324707 11.67505073547363 5.864469051361084 11.63470077514648 5.967469215393066 11.63470077514648 Z M 2.021409273147583 9.531991004943848 L 1.96458911895752 9.588790893554688 L 1.305789113044739 10.24731063842773 L 1.166799187660217 10.38624095916748 L 1.337459206581116 10.48367118835449 L 3.163209199905396 11.5260009765625 L 3.26707911491394 11.58530044555664 L 3.348019123077393 11.49723052978516 L 3.472429275512695 11.36185073852539 C 3.758529186248779 11.05051040649414 4.102229118347168 10.67650127410889 4.486608982086182 10.25992107391357 L 4.667639255523682 10.06373119354248 L 4.405919075012207 10.01114082336426 L 2.100179195404053 9.547821044921875 L 2.021409273147583 9.531991004943848 Z M 3.55704927444458 1.791900873184204 L 3.494039058685303 1.854880809783936 L 2.620059251785278 2.728410959243774 L 2.493279218673706 2.855120897293091 L 2.640359163284302 2.957580804824829 L 7.757529258728027 6.522260665893555 L 7.864819049835205 6.597001075744629 L 7.953499317169189 6.500910758972168 C 8.760008811950684 5.627070903778076 9.562569618225098 4.7619309425354 10.27440929412842 3.99902081489563 L 10.44005870819092 3.82149076461792 L 10.2071590423584 3.752810955047607 L 3.642499208450317 1.81709086894989 L 3.55704927444458 1.791900873184204 Z M 15.92169952392578 3.78303074836731 C 15.8903694152832 3.78303074836731 15.8589391708374 3.779220819473267 15.82827949523926 3.771690845489502 C 15.76043891906738 3.755310773849487 15.6982593536377 3.720480918884277 15.64792919158936 3.670830965042114 C 15.55228900909424 3.575230836868286 15.5145092010498 3.43747091293335 15.5475492477417 3.303010940551758 C 15.62441921234131 2.997690916061401 15.57234954833984 2.725850820541382 15.40450954437256 2.558000802993774 C 15.28736877441406 2.441720962524414 15.1216287612915 2.380460739135742 14.92480945587158 2.380460739135742 C 14.839599609375 2.380460739135742 14.74976921081543 2.39215087890625 14.65779876708984 2.41520094871521 C 14.62788963317871 2.422510862350464 14.59640884399414 2.426320791244507 14.56510925292969 2.426320791244507 C 14.38650894165039 2.426330804824829 14.23238945007324 2.306070804595947 14.19030952453613 2.13386082649231 C 14.16526889801025 2.0325608253479 14.18104934692383 1.928200840950012 14.23466873168945 1.839630842208862 C 14.28781890869141 1.751830816268921 14.37198925018311 1.69006085395813 14.47166919708252 1.665690898895264 C 14.62642955780029 1.627330899238586 14.78003883361816 1.607940793037415 14.92867946624756 1.607940793037415 C 15.33295917510986 1.607940793037415 15.68629932403564 1.747520804405212 15.95049953460693 2.011600732803345 C 16.31472969055176 2.375690937042236 16.44120979309082 2.914440870285034 16.29749870300293 3.489720821380615 C 16.25521850585938 3.662720918655396 16.10075950622559 3.78303074836731 15.92169952392578 3.78303074836731 Z" stroke="none"/>
      <path d="M 7.521909236907959 17.68807029724121 C 7.585029125213623 17.68807029724121 7.644089221954346 17.66377067565918 7.688279151916504 17.61958122253418 L 9.047179222106934 16.26131057739258 C 9.102079391479492 16.20639991760254 9.126729011535645 16.12458038330078 9.111679077148438 16.04863166809082 L 8.417928695678711 12.59954071044922 L 8.54240894317627 12.48518085479736 C 8.973339080810547 12.08928108215332 9.429449081420898 11.66855049133301 9.897519111633301 11.23677062988281 L 10.82093906402588 10.38533115386963 L 14.88945007324219 16.22565078735352 C 14.89917087554932 16.23845291137695 14.90956020355225 16.25039100646973 14.92041873931885 16.26124000549316 C 14.95855903625488 16.29935073852539 15.01071929931641 16.32382011413574 15.06261920928955 16.32830047607422 C 15.13474750518799 16.33431053161621 15.20383071899414 16.30923652648926 15.25351905822754 16.25957107543945 L 16.80471992492676 14.7090311050415 C 16.86557006835938 14.64787101745605 16.88810920715332 14.55774116516113 16.86374855041504 14.47451114654541 L 14.61657905578613 6.86366081237793 L 14.75132942199707 6.737190723419189 C 15.49718952178955 6.03718090057373 16.04830932617188 5.516610622406006 16.3135986328125 5.251420974731445 C 16.98213958740234 4.582430839538574 17.43892860412598 3.741760730743408 17.59988975524902 2.883930921554565 C 17.76206970214844 2.025210857391357 17.5948600769043 1.272160887718201 17.14133834838867 0.8180408477783203 C 16.80709838867188 0.4839608371257782 16.29296875 0.2999808490276337 15.69365882873535 0.2999808490276337 C 15.49416923522949 0.2999808490276337 15.28565883636475 0.3200908601284027 15.07428932189941 0.3596808612346649 C 14.21470928192139 0.5217708349227905 13.37382888793945 0.9783508777618408 12.70655918121338 1.64530086517334 C 12.43522930145264 1.916530847549438 11.90041923522949 2.477780818939209 11.20064926147461 3.225650787353516 L 11.07420921325684 3.360790729522705 L 3.511149168014526 1.129570841789246 C 3.43011474609375 1.104924559593201 3.339714765548706 1.128523588180542 3.279229164123535 1.188600897789001 L 1.727449178695679 2.74052095413208 C 1.677819132804871 2.790160894393921 1.652749180793762 2.859370946884155 1.658259153366089 2.925870895385742 C 1.663839221000671 2.982440948486328 1.688389182090759 3.035050868988037 1.727389216423035 3.074030876159668 C 1.734281420707703 3.080913782119751 1.745633721351624 3.091434478759766 1.761421918869019 3.103451013565063 L 7.562969207763672 7.142010688781738 L 6.905169010162354 7.855540752410889 C 6.400269031524658 8.403310775756836 5.907459259033203 8.937960624694824 5.446529388427734 9.436161041259766 L 5.332319259643555 9.559611320495605 L 1.941289186477661 8.880701065063477 C 1.863021492958069 8.865215301513672 1.782940030097961 8.889492988586426 1.727389216423035 8.94503116607666 L 0.3684291541576385 10.3033504486084 C 0.3163591623306274 10.35540103912354 0.292229175567627 10.42819118499756 0.3021191656589508 10.50213050842285 C 0.3091891705989838 10.55380058288574 0.3327491581439972 10.60191059112549 0.3655291497707367 10.63473129272461 C 0.3901691734790802 10.65869045257568 0.4039491713047028 10.66705131530762 0.4087391495704651 10.66954040527344 L 0.4191891551017761 10.67523097991943 L 2.969069242477417 12.12931060791016 L 2.715809106826782 12.40637111663818 C 2.630479097366333 12.49973106384277 2.634019136428833 12.64323043823242 2.723839282989502 12.73303127288818 L 3.822489261627197 13.83120059967041 L 3.277499198913574 14.37589073181152 C 3.232529163360596 14.42084121704102 3.207759141921997 14.48019123077393 3.207759141921997 14.54301071166992 C 3.207759141921997 14.6058406829834 3.232539176940918 14.66521072387695 3.27747917175293 14.7101411819458 C 3.322119235992432 14.75474071502686 3.381499052047729 14.77930068969727 3.444699048995972 14.77930068969727 C 3.508159160614014 14.77930068969727 3.567669153213501 14.75474071502686 3.612269163131714 14.71016120910645 L 4.157049179077148 14.16562080383301 L 5.222379207611084 15.23048114776611 C 5.267148971557617 15.2752103805542 5.326529026031494 15.29984092712402 5.389629364013672 15.29984092712402 C 5.448099136352539 15.29984092712402 5.503519058227539 15.27820110321045 5.546959400177002 15.23773097991943 L 5.834879398345947 14.97251129150391 L 7.316149234771729 17.56930160522461 C 7.326799392700195 17.58802032470703 7.340629100799561 17.60633087158203 7.353489398956299 17.61954116821289 C 7.38987922668457 17.65589141845703 7.436899185180664 17.67930030822754 7.488499164581299 17.68580055236816 C 7.499699115753174 17.68731117248535 7.510939121246338 17.68807029724121 7.521909236907959 17.68807029724121 M 8.01171875 12.97368049621582 L 8.622539520263672 16.01671028137207 L 7.572939395904541 17.06720161437988 L 6.194059371948242 14.64666080474854 L 6.369609355926514 14.48493099212646 C 6.536709308624268 14.33097076416016 6.724889278411865 14.15791130065918 6.930679321289062 13.96865081787109 C 7.142769336700439 13.77360057830811 7.373589038848877 13.56133079528809 7.619338989257812 13.33502101898193 L 8.01171875 12.97368049621582 M 14.23309898376465 7.224750995635986 L 16.37238883972168 14.47237110137939 L 15.11890888214111 15.72525119781494 L 11.17295932769775 10.06253051757812 L 12.08073902130127 9.222121238708496 C 12.71910953521729 8.63136100769043 13.32207870483398 8.073360443115234 13.87819957733154 7.555330753326416 L 14.23309898376465 7.224750995635986 M 5.967469215393066 11.78470039367676 C 5.904519081115723 11.78470039367676 5.84506893157959 11.80946063995361 5.800109386444092 11.85439109802246 L 4.157039165496826 13.49683094024658 L 3.219379186630249 12.55944061279297 L 3.413859128952026 12.34766101837158 C 5.369059085845947 10.21850109100342 11.8419189453125 3.178600788116455 13.04459953308105 1.98292088508606 C 13.6373291015625 1.390440821647644 14.41018962860107 0.9689408540725708 15.1652889251709 0.8264408707618713 C 15.34767913818359 0.7922008633613586 15.52662944793701 0.7748408317565918 15.69716930389404 0.7748408317565918 C 16.1697998046875 0.7748408317565918 16.56508827209473 0.910200834274292 16.80986976623535 1.155640840530396 C 17.15165901184082 1.497230887413025 17.27170944213867 2.096810817718506 17.13927841186523 2.800500869750977 C 16.99778938293457 3.554180860519409 16.57606887817383 4.326870918273926 15.98232936859131 4.920361042022705 C 14.68528938293457 6.217761039733887 6.534619331359863 13.69528102874756 5.609508991241455 14.54364109039307 L 5.397639274597168 14.7379207611084 L 4.491799354553223 13.83103084564209 L 6.134859085083008 12.18860054016113 C 6.179829120635986 12.1436710357666 6.204599380493164 12.0843505859375 6.204599380493164 12.02157115936279 C 6.204599380493164 11.95875072479248 6.179809093475342 11.89937114715576 6.134839057922363 11.85441112518311 C 6.089859008789062 11.80946063995361 6.03041934967041 11.78470039367676 5.967469215393066 11.78470039367676 M 1.97218918800354 9.369100570678711 L 4.958909034729004 9.969261169433594 L 4.596848964691162 10.36164093017578 C 4.212549209594727 10.77813053131104 3.868919134140015 11.15207099914551 3.582879066467285 11.46335124969482 L 3.296589136123657 11.77487087249756 L 0.9217791557312012 10.41907119750977 L 1.97218918800354 9.369100570678711 M 3.514029264450073 1.622820854187012 L 10.71538925170898 3.746290922164917 L 10.38408946990967 4.101350784301758 C 9.672429084777832 4.864070892333984 8.870059013366699 5.729001045227051 8.063729286193848 6.60265064239502 L 7.886369228363037 6.794820785522461 L 2.260459184646606 2.875740766525269 L 3.514029264450073 1.622820854187012 M 15.92169952392578 3.633030891418457 C 16.03142929077148 3.633030891418457 16.12596893310547 3.559760808944702 16.15196990966797 3.453360795974731 C 16.2825984954834 2.930450916290283 16.17050933837891 2.443620920181274 15.84444904327393 2.117690801620483 C 15.60899925231934 1.882340788841248 15.29232883453369 1.757940888404846 14.92867946624756 1.757940888404846 C 14.79217910766602 1.757940888404846 14.65071868896484 1.775850892066956 14.50728893280029 1.811400890350342 C 14.44659900665283 1.826230883598328 14.39534950256348 1.863850831985474 14.36298942565918 1.917310833930969 C 14.33015918731689 1.971540808677673 14.32051944732666 2.035520792007446 14.33602905273438 2.098260879516602 C 14.36163902282715 2.203100919723511 14.45583915710449 2.276320934295654 14.56510925292969 2.276320934295654 C 14.58442878723145 2.276320934295654 14.60393905639648 2.273950815200806 14.62131881713867 2.269710779190063 C 14.72519874572754 2.243660926818848 14.82729911804199 2.23046088218689 14.92480945587158 2.23046088218689 C 15.16206932067871 2.23046088218689 15.36435890197754 2.306780815124512 15.51056957244873 2.451940774917603 C 15.71665954589844 2.658020734786987 15.78307914733887 2.981870889663696 15.69321918487549 3.338820934295654 C 15.67249870300293 3.423090934753418 15.69490909576416 3.505700826644897 15.75326919555664 3.564040899276733 C 15.78463935852051 3.594990730285645 15.8215389251709 3.615750789642334 15.8640193939209 3.626010894775391 C 15.88299942016602 3.630670785903931 15.90239906311035 3.633030891418457 15.92169952392578 3.633030891418457 M 7.521909236907959 17.98807144165039 C 7.49756908416748 17.98807144165039 7.473029136657715 17.98642158508301 7.448499202728271 17.98311996459961 C 7.33013916015625 17.9682502746582 7.222558975219727 17.91280174255371 7.141448974609375 17.83176040649414 C 7.109158992767334 17.79867172241211 7.079379081726074 17.75982093811035 7.05536937713623 17.71760177612305 L 5.760989189147949 15.44845104217529 L 5.750209331512451 15.45838069915771 C 5.541648864746094 15.65276145935059 5.213938236236572 15.64616107940674 5.010319232940674 15.44268131256104 L 4.157049179077148 14.5897912979126 L 3.824349164962769 14.92234039306641 C 3.615789413452148 15.13081073760986 3.275649547576904 15.13242149353027 3.06541919708252 14.92234039306641 C 2.855209112167358 14.71219062805176 2.855209112167358 14.37382125854492 3.06541919708252 14.16371059417725 L 3.398119211196899 13.83119106292725 L 2.511749267578125 12.94521045684814 C 2.308159112930298 12.74165058135986 2.301539182662964 12.41494083404541 2.494379281997681 12.20397090911865 L 0.2705791592597961 10.93583106994629 C 0.2275391668081284 10.91350078582764 0.1894591599702835 10.88198089599609 0.156339168548584 10.84976100921631 C 0.07359916716814041 10.76704120635986 0.02063916437327862 10.65786075592041 0.004889164119958878 10.54283046722412 C -0.01745083555579185 10.37573051452637 0.03717916458845139 10.210280418396 0.156339168548584 10.09117126464844 L 1.51530921459198 8.732851028442383 C 1.642749190330505 8.60542106628418 1.823999524116516 8.551693916320801 1.999459147453308 8.586390495300293 L 5.226319313049316 9.232430458068848 C 5.815598964691162 8.595490455627441 6.4569993019104 7.898980617523193 7.109158992767334 7.191640853881836 L 1.585669159889221 3.346640825271606 C 1.559989213943481 3.327530860900879 1.535999178886414 3.306890964508057 1.51530921459198 3.286210775375366 C 1.427579164505005 3.198530912399292 1.372119188308716 3.081040859222412 1.359709143638611 2.95534086227417 C 1.346459150314331 2.796480894088745 1.403589129447937 2.640130758285522 1.51530921459198 2.528400897979736 L 3.067089080810547 0.9764808416366577 C 3.20695948600769 0.8375208377838135 3.410549640655518 0.7854408025741577 3.598419189453125 0.8425408601760864 L 10.98158931732178 3.020680904388428 C 11.67512893676758 2.279470920562744 12.21639919281006 1.711100816726685 12.49446868896484 1.433130860328674 C 13.20456886291504 0.7233608365058899 14.10169887542725 0.2377908527851105 15.01869869232178 0.0648808479309082 C 15.97708797454834 -0.1146297305822372 16.82953071594238 0.08222141861915588 17.35341835021973 0.6058608293533325 C 17.87727928161621 1.130400896072388 18.07590866088867 1.980000853538513 17.89468002319336 2.939600944519043 C 17.7225284576416 3.857050895690918 17.23587989807129 4.752920627593994 16.52579879760742 5.463480949401855 C 16.2518482208252 5.737330913543701 15.68741893768311 6.270071029663086 14.95662879943848 6.955940723419189 L 17.15146827697754 14.38956069946289 C 17.2069091796875 14.5789909362793 17.15478897094727 14.78251075744629 17.01740837097168 14.92061042785645 L 15.46560955047607 16.47175025939941 C 15.35304832458496 16.58426094055176 15.19663047790527 16.64047241210938 15.03773880004883 16.62727165222168 C 14.91358947753906 16.6165599822998 14.79607963562012 16.56111145019531 14.70834922790527 16.47343063354492 C 14.68598937988281 16.45110130310059 14.66531944274902 16.42705154418945 14.64627933502197 16.40142059326172 L 10.77136898040771 10.83901119232178 C 10.06954956054688 11.48587131500244 9.380148887634277 12.1229305267334 8.745368957519531 12.70610046386719 L 9.405789375305176 15.98947048187256 C 9.440548896789551 16.16489028930664 9.385119438171387 16.34762001037598 9.259319305419922 16.47343063354492 L 7.900359153747559 17.83176040649414 C 7.798689365386963 17.93344116210938 7.663299083709717 17.98807144165039 7.521909236907959 17.98807144165039 Z M 7.822559356689453 13.55570125579834 C 7.338408946990967 14.00155067443848 6.912199020385742 14.39294052124023 6.572879314422607 14.7055606842041 L 7.638839244842529 16.57680130004883 L 8.296798706054688 15.91828060150146 L 7.822559356689453 13.55570125579834 Z M 14.08267879486084 7.774850845336914 C 13.31711959838867 8.487960815429688 12.44728946685791 9.291180610656738 11.568359375 10.10522079467773 L 15.16021919250488 15.25980091094971 L 16.0341796875 14.38626098632812 L 14.08267879486084 7.774850845336914 Z M 5.967469215393066 11.48470115661621 C 6.104649066925049 11.48470115661621 6.241829395294189 11.53720092773438 6.346909046173096 11.64222049713135 C 6.557158946990967 11.85242080688477 6.557158946990967 12.19074058532715 6.346909046173096 12.4008207321167 L 4.915979385375977 13.83119106292725 L 5.406749248504639 14.32253074645996 C 7.171229362487793 12.7044506072998 14.54117870330811 5.937591075897217 15.77016925811768 4.708261013031006 C 16.32220840454102 4.156450748443604 16.71366882324219 3.441690921783447 16.84442901611328 2.745150804519653 C 16.95698928833008 2.147060871124268 16.86347007751465 1.633350849151611 16.59779930114746 1.367830872535706 C 16.33296775817871 1.102301120758057 15.81571292877197 1.009570598602295 15.2206392288208 1.121290802955627 C 14.52377891540527 1.252800822257996 13.80790901184082 1.644110798835754 13.25668907165527 2.195100784301758 C 12.0235595703125 3.421050786972046 5.253649234771729 10.78772068023682 3.63482928276062 12.55057048797607 L 4.157049179077148 13.07264041900635 L 5.588019371032715 11.64222049713135 C 5.693109035491943 11.53720092773438 5.830289363861084 11.48470115661621 5.967469215393066 11.48470115661621 Z M 2.070629119873047 9.694880485534668 L 1.411829113960266 10.35340118408203 L 3.237579107284546 11.39573097229004 C 3.546279191970825 11.05984115600586 3.934439182281494 10.63714122772217 4.376368999481201 10.15820121765137 L 2.070629119873047 9.694880485534668 Z M 3.60007905960083 1.960970878601074 L 2.726099252700806 2.834500789642334 L 7.843269348144531 6.399180889129639 C 8.65264892578125 5.522230625152588 9.453808784484863 4.658620834350586 10.16473960876465 3.896690845489502 L 3.60007905960083 1.960970878601074 Z M 15.92169952392578 3.933030843734741 C 15.87905883789062 3.933030843734741 15.83572959899902 3.927970886230469 15.79252910614014 3.917370796203613 C 15.69320869445801 3.893390893936157 15.60879898071289 3.842930793762207 15.54258918762207 3.777620792388916 C 15.4134693145752 3.648550748825073 15.3547191619873 3.459120750427246 15.40188884735107 3.267210960388184 C 15.46560955047607 3.014090776443481 15.42754936218262 2.7931809425354 15.29843902587891 2.664070844650269 C 15.16849899291992 2.535071134567261 14.94836044311523 2.496999740600586 14.69427871704102 2.5607008934021 C 14.40624904632568 2.631061792373657 14.11493015289307 2.457290410995483 14.04459953308105 2.16947078704834 C 13.97340869903564 1.88153088092804 14.14804935455322 1.590380907058716 14.43604946136475 1.519980907440186 C 15.06337738037109 1.364490866661072 15.65512943267822 1.504281044006348 16.05653953552246 1.905510902404785 C 16.45875930786133 2.307570934295654 16.60027885437012 2.896590948104858 16.44302940368652 3.526070833206177 C 16.38321876525879 3.770800828933716 16.16323852539062 3.933030843734741 15.92169952392578 3.933030843734741 Z" stroke="none" fill="#afb0b3"/>
    </g>
  </g>
</svg>
