<svg xmlns="http://www.w3.org/2000/svg" width="20" height="20" viewBox="0 0 20 20">
  <g id="Group_12316" data-name="Group 12316" transform="translate(-7304 5381)">
    <rect id="Rectangle_2641" data-name="Rectangle 2641" width="20" height="20" transform="translate(7304 -5381)" fill="#b1b1b3" opacity="0"/>
    <g id="Group_8218" data-name="Group 8218" transform="translate(7304 -5380.091)">
      <path id="Path_4925" data-name="Path 4925" d="M887.108,289.165l.354-2.793h-4.127l.31-3.557-3.576.051-.311,3.5h-4.436l.3-4.038a60.562,60.562,0,0,0,11.458-1.046l-.487-2.494c-2.283,1.023-13.746,1.36-13.746,1.36v.015l-.015.189h0l-.445,6.019H871.22l-.32,2.911,8.6-.064-.214,2.4h0l-.005.057h0l-.126,1.416c-.273.657-.957,1.3-2.544,1.356l-.067,3.189s5.94-.435,6.131-3.772h0l.177-2.034h0l.232-2.639Z" transform="translate(-869.269 -278.787)" fill="#00a6ff"/>
      <path id="Path_4926" data-name="Path 4926" d="M873.357,296.456l2.857-5.525-3.2,0L871.455,294v.005l-.591,1.182h.005a.768.768,0,0,1-.7.4h-.913v0h0v.062l-.148,2.31h2.325v0l.017,0h.059a1.371,1.371,0,0,0,.161-.035,2.205,2.205,0,0,0,1.272-.78Z" transform="translate(-869.106 -279.891)" fill="#00a6ff"/>
      <path id="Path_4927" data-name="Path 4927" d="M889.043,295.657c-.218-2.07-.286-3.594-.311-4.417,0-.193-.008-.306-.008-.306l-3.322.1.039,1.215h.343l.42,5.573h4.019l.268-2.166A12.017,12.017,0,0,1,889.043,295.657Z" transform="translate(-870.587 -279.891)" fill="#00a6ff"/>
    </g>
  </g>
</svg>
