<svg xmlns="http://www.w3.org/2000/svg" width="22" height="22" viewBox="0 0 22 22">
  <g id="Group_12334" data-name="Group 12334" transform="translate(-7304 5381)">
    <rect id="Rectangle_2641" data-name="Rectangle 2641" width="21.952" height="22" transform="translate(7304 -5381)" fill="#b1b1b3" opacity="0"/>
    <g id="Group_8224" data-name="Group 8224" transform="translate(7305 -5380)">
      <path id="Path_4928" data-name="Path 4928" d="M918.066,282.517l.424,2.18a52.608,52.608,0,0,1-9.771.915H908.5l-.26,3.53h3.867l.27-2.23,3.118-.044-.27,2.28h3.6l-.307,2.441-3.5.024-.2,2.307h0l-.156,1.778h0c-.167,2.916-5.344,3.3-5.344,3.3l.058-2.788c1.383-.049,1.979-.611,2.218-1.186l.11-1.237h0l.005-.051h0l.186-2.1-7.5.055.279-2.545h1.014l.387-5.261h0l.013-.165v-.013s9.992-.294,11.983-1.189m.759,6.631h.005m-.764-8.131a1.5,1.5,0,0,0-.612.131c-1.075.484-6.649.918-11.415,1.058a1.5,1.5,0,0,0-1.451,1.45l0,.036q-.006.041-.009.081l-.288,3.921a1.5,1.5,0,0,0-1.108,1.287l-.279,2.545a1.5,1.5,0,0,0,1.487,1.664h.011l5.854-.043-.04.454,0,.063-.077.864a1.678,1.678,0,0,1-.814.18,1.5,1.5,0,0,0-1.442,1.468l-.059,2.787a1.5,1.5,0,0,0,1.5,1.532c.036,0,.073,0,.109,0,.66-.049,6.421-.589,6.723-4.63l0-.032.155-1.778c0-.023,0-.046,0-.068l.078-.879,2.143-.015A1.5,1.5,0,0,0,920,291.777l.3-2.353a1.5,1.5,0,0,0-1.468-1.776h-1.918l.072-.6a1.519,1.519,0,0,0-.04-.562q.916-.139,1.823-.312a1.5,1.5,0,0,0,1.192-1.761l-.425-2.18a1.5,1.5,0,0,0-1.468-1.213Zm-8.173,6.082c.32-.007.641-.016.961-.029l-.07.572h-.931l.04-.543Z" transform="translate(-901.455 -281.017)" fill="#aeafb2"/>
      <path id="Path_4929" data-name="Path 4929" d="M909.168,293.122h0m0,0-2.5,4.829-.364.6a1.929,1.929,0,0,1-1.112.682,1.1,1.1,0,0,1-.141.03H905l-.016,0v0h-2.031l.129-2.019v-.054h0v0h.823a.669.669,0,0,0,.586-.348h0l.517-1.033v0l1.361-2.682,2.8,0m0-1.5h0l-2.8,0a1.5,1.5,0,0,0-1.337.821l-1.361,2.682c-.015.03-.029.06-.042.091l-.237.474h-.3a1.508,1.508,0,0,0-1.5,1.5v.006l-.126,1.972a1.5,1.5,0,0,0,1.5,1.6H904.9c.027,0,.055,0,.083,0s.057,0,.086,0a1.489,1.489,0,0,0,.2-.016,2.722,2.722,0,0,0,.269-.054,3.441,3.441,0,0,0,1.934-1.2,1.556,1.556,0,0,0,.115-.164l.364-.6c.016-.028.032-.056.047-.085l2.464-4.762a1.5,1.5,0,0,0-1.293-2.256Zm0,3h0Z" transform="translate(-901.455 -281.017)" fill="#aeafb2"/>
      <path id="Path_4930" data-name="Path 4930" d="M919.455,293.184s.007.1.007.268c.022.72.082,2.052.272,3.861q.316.02.633.019t.633-.019l-.234,1.894h-3.513l-.368-4.871h-.3l-.033-1.062,2.9-.09M921,297.313h.005m-1.55-5.629h-.046l-2.9.09a1.5,1.5,0,0,0-1.452,1.546l.033,1.062a1.493,1.493,0,0,0,.37.94l.3,4a1.5,1.5,0,0,0,1.5,1.387h3.513a1.5,1.5,0,0,0,1.488-1.315l.224-1.806a1.541,1.541,0,0,0,.025-.273,1.5,1.5,0,0,0-1.4-1.5c-.069-.847-.116-1.664-.138-2.408,0-.193-.011-.332-.011-.332a1.511,1.511,0,0,0-1.5-1.392Z" transform="translate(-901.503 -281.017)" fill="#aeafb2"/>
    </g>
  </g>
</svg>
