<svg width="22" height="22" viewBox="0 0 22 22" fill="none" xmlns="http://www.w3.org/2000/svg">
<path d="M20.2328 9.70197L11.4578 1.70197C11.2734 1.53304 11.0324 1.43933 10.7823 1.43933C10.5322 1.43933 10.2912 1.53304 10.1068 1.70197L1.33183 9.70197C1.18109 9.83734 1.07504 10.0153 1.02769 10.2123C0.980345 10.4093 0.993948 10.616 1.0667 10.8051C1.13944 10.9941 1.26791 11.1567 1.43508 11.2711C1.60224 11.3856 1.80023 11.4465 2.00283 11.446H3.40283V19.457C3.40283 19.6095 3.46341 19.7557 3.57124 19.8636C3.67907 19.9714 3.82533 20.032 3.97782 20.032H8.79283C8.94532 20.032 9.09158 19.9714 9.19941 19.8636C9.30725 19.7557 9.36782 19.6095 9.36782 19.457V14.593H12.1948V19.457C12.1948 19.6095 12.2554 19.7557 12.3632 19.8636C12.4711 19.9714 12.6173 20.032 12.7698 20.032H17.5798C17.7323 20.032 17.8786 19.9714 17.9864 19.8636C18.0942 19.7557 18.1548 19.6095 18.1548 19.457V11.446H19.5548C19.7578 11.4474 19.9563 11.387 20.1241 11.2728C20.2919 11.1587 20.421 10.9962 20.4943 10.8069C20.5675 10.6177 20.5814 10.4106 20.5342 10.2133C20.487 10.0159 20.3808 9.83756 20.2298 9.70197H20.2328Z" fill="#00A6FF"/>
</svg>
