<svg width="21" height="20" viewBox="0 0 21 20" fill="none" xmlns="http://www.w3.org/2000/svg">
<path d="M9.98622 1.21938L18.7202 9.18196C18.7335 9.1961 18.7475 9.20977 18.7621 9.22291C18.8074 9.26359 18.8393 9.31709 18.8534 9.37629C18.8676 9.4355 18.8634 9.49762 18.8414 9.5544C18.8195 9.61118 18.7807 9.65993 18.7304 9.69417C18.6801 9.72841 18.6205 9.74653 18.5596 9.74611V9.74609H18.5548H17.1548C16.7682 9.74609 16.4548 10.0595 16.4548 10.4461V18.3321H11.8948V13.5931C11.8948 13.2065 11.5814 12.8931 11.1948 12.8931H8.36782C7.98123 12.8931 7.66782 13.2065 7.66782 13.5931V18.3321H3.10283V10.4461C3.10283 10.0595 2.78942 9.74609 2.40283 9.74609L1.00283 9.74609L1.00085 9.7461C0.940073 9.74627 0.880676 9.72798 0.830522 9.69364C0.780373 9.6593 0.741834 9.61055 0.720009 9.55382C0.698184 9.4971 0.694104 9.43508 0.708307 9.37599C0.722511 9.31689 0.75433 9.2635 0.799547 9.2229L0.79956 9.22291L0.803429 9.21938L9.57843 1.21939L9.57968 1.21824C9.635 1.16757 9.7073 1.13945 9.78232 1.13945C9.85735 1.13945 9.92965 1.16757 9.98497 1.21825L9.98622 1.21938Z" stroke="#B1B1B3" stroke-width="1.4" stroke-linejoin="round"/>
</svg>
