<svg width="22" height="22" viewBox="0 0 22 22" fill="none" xmlns="http://www.w3.org/2000/svg">
<path d="M20.428 8.929C20.5854 8.89586 20.7273 8.81101 20.8309 8.68797C20.9346 8.56493 20.9941 8.41077 21 8.25V5.429C20.9989 5.05033 20.8481 4.68747 20.5803 4.41971C20.3125 4.15195 19.9497 4.00106 19.571 4H2.429C2.05033 4.00106 1.68747 4.15195 1.41971 4.41971C1.15195 4.68747 1.00106 5.05033 1 5.429V8.25C1.00587 8.41063 1.06525 8.56469 1.1687 8.68771C1.27216 8.81074 1.41375 8.89567 1.571 8.929C2.08059 9.05655 2.53294 9.35073 2.85617 9.76483C3.1794 10.1789 3.35497 10.6892 3.35497 11.2145C3.35497 11.7398 3.1794 12.2501 2.85617 12.6642C2.53294 13.0783 2.08059 13.3725 1.571 13.5C1.41375 13.5333 1.27216 13.6182 1.1687 13.7413C1.06525 13.8643 1.00587 14.0184 1 14.179V17C1.00106 17.3787 1.15195 17.7415 1.41971 18.0093C1.68747 18.2771 2.05033 18.4279 2.429 18.429H19.571C19.9497 18.4279 20.3125 18.2771 20.5803 18.0093C20.8481 17.7415 20.9989 17.3787 21 17V14.179C21.0008 14.0165 20.9439 13.859 20.8393 13.7346C20.7347 13.6102 20.5893 13.527 20.429 13.5C19.9175 13.3755 19.4629 13.0822 19.1388 12.6673C18.8147 12.2525 18.64 11.7404 18.643 11.214C18.6469 10.6896 18.8241 10.1812 19.1469 9.76797C19.4698 9.35472 19.9202 9.05976 20.428 8.929Z" fill="#00A6FF"/>
<path d="M11.8438 13.6875V6H13.2617V15H11.9785L11.8438 13.6875ZM7.71875 11.9004V11.7773C7.71875 11.2969 7.77539 10.8594 7.88867 10.4648C8.00195 10.0664 8.16602 9.72461 8.38086 9.43945C8.5957 9.15039 8.85742 8.92969 9.16602 8.77734C9.47461 8.62109 9.82227 8.54297 10.209 8.54297C10.5918 8.54297 10.9277 8.61719 11.2168 8.76562C11.5059 8.91406 11.752 9.12695 11.9551 9.4043C12.1582 9.67773 12.3203 10.0059 12.4414 10.3887C12.5625 10.7676 12.6484 11.1895 12.6992 11.6543V12.0469C12.6484 12.5 12.5625 12.9141 12.4414 13.2891C12.3203 13.6641 12.1582 13.9883 11.9551 14.2617C11.752 14.5352 11.5039 14.7461 11.2109 14.8945C10.9219 15.043 10.584 15.1172 10.1973 15.1172C9.81445 15.1172 9.46875 15.0371 9.16016 14.877C8.85547 14.7168 8.5957 14.4922 8.38086 14.2031C8.16602 13.9141 8.00195 13.5742 7.88867 13.1836C7.77539 12.7891 7.71875 12.3613 7.71875 11.9004ZM9.13086 11.7773V11.9004C9.13086 12.1895 9.15625 12.459 9.20703 12.709C9.26172 12.959 9.3457 13.1797 9.45898 13.3711C9.57227 13.5586 9.71875 13.707 9.89844 13.8164C10.082 13.9219 10.3008 13.9746 10.5547 13.9746C10.875 13.9746 11.1387 13.9043 11.3457 13.7637C11.5527 13.623 11.7148 13.4336 11.832 13.1953C11.9531 12.9531 12.0352 12.6836 12.0781 12.3867V11.3262C12.0547 11.0957 12.0059 10.8809 11.9316 10.6816C11.8613 10.4824 11.7656 10.3086 11.6445 10.1602C11.5234 10.0078 11.373 9.89062 11.1934 9.80859C11.0176 9.72266 10.8086 9.67969 10.5664 9.67969C10.3086 9.67969 10.0898 9.73438 9.91016 9.84375C9.73047 9.95312 9.58203 10.1035 9.46484 10.2949C9.35156 10.4863 9.26758 10.709 9.21289 10.9629C9.1582 11.2168 9.13086 11.4883 9.13086 11.7773ZM14.2637 6.83789V7.81641H10.3262V6.83789H14.2637Z" fill="white"/>
</svg>
