<svg width="22" height="22" viewBox="0 0 22 22" fill="none" xmlns="http://www.w3.org/2000/svg">
<path d="M3.03219 5.5C2.30182 5.5 1.70423 6.02596 1.70423 6.66881V8.97723C1.70423 9.24025 1.93662 9.474 2.23542 9.53242C3.19819 9.73697 3.89537 10.4967 3.89537 11.4026C3.89537 12.3084 3.19819 13.0681 2.23542 13.2727C1.93662 13.3311 1.70423 13.5649 1.70423 13.8279V16.1363C1.70423 16.7792 2.30182 17.3051 3.03219 17.3051H18.9678C19.6982 17.3051 20.2958 16.7792 20.2958 16.1363V13.8279C20.2958 13.5649 20.0966 13.3311 19.7646 13.2727C18.8018 13.0681 18.1046 12.3084 18.1046 11.4026C18.1046 10.4967 18.835 9.73697 19.7646 9.53242C20.0634 9.474 20.2958 9.24025 20.2958 8.97723V6.66881C20.2958 6.02596 19.6982 5.5 18.9678 5.5H3.03219ZM3.03219 4H18.9678C20.6398 4 22 5.19722 22 6.66881V8.97723C22 9.92534 21.2326 10.7664 20.1701 10.9894C19.9912 11.0323 19.8089 11.1967 19.8089 11.4026C19.8089 11.5994 19.9456 11.7622 20.1507 11.8114C21.2423 12.0247 22 12.8474 22 13.8279V16.1363C22 17.6079 20.6398 18.8051 18.9678 18.8051H3.03219C1.36024 18.8051 0 17.6079 0 16.1363V13.8279C0 12.8762 0.773097 12.0324 1.84178 11.8132C2.05104 11.7661 2.19114 11.6018 2.19114 11.4026C2.19114 11.203 2.0507 11.0386 1.84106 10.9918C0.772698 10.7723 0 9.92868 0 8.97723V6.66881C0 5.19722 1.36024 4 3.03219 4Z" fill="#B1B1B3"/>
<path d="M11.1484 13.7703V7.36401H12.3301V14.864H11.2607L11.1484 13.7703ZM7.71094 12.281V12.1785C7.71094 11.7781 7.75814 11.4135 7.85254 11.0847C7.94694 10.7527 8.08366 10.4679 8.2627 10.2302C8.44173 9.98934 8.65983 9.80542 8.91699 9.67847C9.17415 9.54826 9.46387 9.48315 9.78613 9.48315C10.1051 9.48315 10.3851 9.545 10.626 9.6687C10.8669 9.7924 11.0719 9.96981 11.2412 10.2009C11.4105 10.4288 11.5456 10.7022 11.6465 11.0212C11.7474 11.337 11.819 11.6886 11.8613 12.0759V12.4031C11.819 12.7807 11.7474 13.1257 11.6465 13.4382C11.5456 13.7507 11.4105 14.0209 11.2412 14.2488C11.0719 14.4766 10.8652 14.6524 10.6211 14.7761C10.3802 14.8998 10.0986 14.9617 9.77637 14.9617C9.45736 14.9617 9.16927 14.8949 8.91211 14.7615C8.6582 14.628 8.44173 14.4408 8.2627 14.2C8.08366 13.9591 7.94694 13.6759 7.85254 13.3503C7.75814 13.0216 7.71094 12.6651 7.71094 12.281ZM8.8877 12.1785V12.281C8.8877 12.5219 8.90885 12.7465 8.95117 12.9548C8.99674 13.1632 9.06673 13.3471 9.16113 13.5066C9.25553 13.6628 9.3776 13.7865 9.52734 13.8777C9.68034 13.9656 9.86263 14.0095 10.0742 14.0095C10.3411 14.0095 10.5609 13.9509 10.7334 13.8337C10.9059 13.7166 11.041 13.5587 11.1387 13.3601C11.2396 13.1583 11.3079 12.9337 11.3438 12.6863V11.8025C11.3242 11.6104 11.2835 11.4314 11.2217 11.2654C11.1631 11.0994 11.0833 10.9545 10.9824 10.8308C10.8815 10.7039 10.7562 10.6062 10.6064 10.5378C10.46 10.4662 10.2858 10.4304 10.084 10.4304C9.86914 10.4304 9.68685 10.476 9.53711 10.5671C9.38737 10.6583 9.26367 10.7836 9.16602 10.9431C9.07161 11.1026 9.00163 11.2882 8.95605 11.4998C8.91048 11.7113 8.8877 11.9376 8.8877 12.1785ZM13.165 8.06226V8.87769H9.88379V8.06226H13.165Z" fill="#B1B1B3"/>
</svg>
