<svg xmlns="http://www.w3.org/2000/svg" width="20" height="20" viewBox="0 0 20 20">
  <g id="Group_12330" data-name="Group 12330" transform="translate(-667 -83)">
    <rect id="Rectangle_2468" data-name="Rectangle 2468" width="20" height="20" transform="translate(667 83)" fill="#222" opacity="0"/>
    <g id="Group_7732" data-name="Group 7732" transform="translate(667 83)">
      <g id="Rectangle_4" data-name="Rectangle 4" transform="translate(0 0)" fill="none" stroke="#b1b1b3" stroke-width="2" opacity="0">
        <rect width="20" height="20" stroke="none"/>
        <rect x="1" y="1" width="18" height="18" fill="none"/>
      </g>
      <g id="个人" transform="translate(0 0)">
        <g id="Path_1" data-name="Path 1" transform="translate(-247.029 -70.125)" fill="none">
          <path d="M257.029,76.315m-6.19,0a6.19,6.19,0,1,0,6.19-6.19A6.19,6.19,0,0,0,250.839,76.315Z" stroke="none"/>
          <path d="M 257.0292358398438 71.625 C 254.4429016113281 71.625 252.3387756347656 73.72914123535156 252.3387756347656 76.31548309326172 C 252.3387756347656 78.90181732177734 254.4429016113281 81.00597381591797 257.0292358398438 81.00597381591797 C 259.6155700683594 81.00597381591797 261.7197265625 78.90181732177734 261.7197265625 76.31548309326172 C 261.7197265625 73.72914123535156 259.6155700683594 71.625 257.0292358398438 71.625 M 257.0292358398438 70.125 C 260.4481506347656 70.125 263.2197265625 72.89659118652344 263.2197265625 76.31548309326172 C 263.2197265625 79.73439788818359 260.4481506347656 82.50597381591797 257.0292358398438 82.50597381591797 C 253.6103515625 82.50597381591797 250.8387756347656 79.73439788818359 250.8387756347656 76.31548309326172 C 250.8387756347656 72.89659118652344 253.6103515625 70.125 257.0292358398438 70.125 Z" stroke="none" fill="#b1b1b3"/>
        </g>
        <g id="Path_2" data-name="Path 2" transform="translate(-90.125 -619.292)" fill="none">
          <path d="M105.363,632.625H94.887a4.776,4.776,0,0,0-4.762,4.762v.476a1.4,1.4,0,0,0,1.429,1.429H108.7a1.4,1.4,0,0,0,1.429-1.429v-.476a4.776,4.776,0,0,0-4.762-4.762Z" stroke="none"/>
          <path d="M 94.88691711425781 634.1250610351562 C 93.08829498291016 634.1250610351562 91.62500762939453 635.5883178710938 91.62500762939453 637.386962890625 L 91.62500762939453 637.7916870117188 L 108.6250152587891 637.7916870117188 L 108.6250152587891 637.386962890625 C 108.6250152587891 635.5883178710938 107.161735534668 634.1250610351562 105.3631134033203 634.1250610351562 L 94.88691711425781 634.1250610351562 M 94.88691711425781 632.6250610351562 L 105.3631134033203 632.6250610351562 L 105.3630981445312 632.6250610351562 C 107.9821472167969 632.6250610351562 110.1250152587891 634.7678833007812 110.1250152587891 637.386962890625 L 110.1250152587891 637.8631591796875 C 110.1250152587891 638.6727294921875 109.5059661865234 639.2916870117188 108.6964340209961 639.2916870117188 L 91.55357360839844 639.2916870117188 C 90.74405670166016 639.2916870117188 90.12500762939453 638.6727294921875 90.12500762939453 637.8631591796875 L 90.12500762939453 637.386962890625 C 90.12500762939453 634.7678833007812 92.26786804199219 632.6250610351562 94.88691711425781 632.6250610351562 Z M 105.3630981445312 632.6250610351562 L 105.3631134033203 632.6250610351562 L 105.3630981445312 632.6250610351562 Z M 105.3631134033203 632.6250610351562 L 105.3630981445312 632.6250610351562 Z" stroke="none" fill="#b1b1b3"/>
        </g>
      </g>
    </g>
  </g>
</svg>
