<svg xmlns="http://www.w3.org/2000/svg" width="20" height="20" viewBox="0 0 20 20">
  <g id="Group_12317" data-name="Group 12317" transform="translate(-634 -83)">
    <rect id="Rectangle_2467" data-name="Rectangle 2467" width="20" height="20" transform="translate(634 83)" fill="#929292" opacity="0"/>
    <path id="diamond-l" d="M49.779,100.55,42.525,91.72a2.1,2.1,0,0,1-.237-2.05l1.34-3.233a1.824,1.824,0,0,1,1.656-1.1H56.323a1.968,1.968,0,0,1,1.735,1.183l1.34,3.233a2.112,2.112,0,0,1-.315,2.05l-7.175,8.831a1.557,1.557,0,0,1-1.1.473A1.149,1.149,0,0,1,49.779,100.55ZM44.969,87.068,43.629,90.3a.521.521,0,0,0,.079.473l6.465,7.963c.631.788.631.788,1.262,0L57.9,90.774a.648.648,0,0,0,.079-.552l-1.34-3.233a.41.41,0,0,0-.315-.158H45.285C45.127,86.831,45.048,86.91,44.969,87.068Zm3.39,3.785a.793.793,0,0,1,0-1.577h4.888a.793.793,0,0,1,0,1.577Z" transform="translate(592.879 -0.333)" fill="#b1b1b3"/>
  </g>
</svg>
