<svg id="Group_20899" data-name="Group 20899" xmlns="http://www.w3.org/2000/svg" xmlns:xlink="http://www.w3.org/1999/xlink" width="21.635" height="22.38" viewBox="0 0 21.635 22.38">
  <defs>
    <clipPath id="clip-path">
      <rect id="Rectangle_5" data-name="Rectangle 5" width="21.635" height="22.38" fill="#fff"/>
    </clipPath>
  </defs>
  <g id="Group_7" data-name="Group 7" clip-path="url(#clip-path)">
    <path id="Path_7" data-name="Path 7" d="M17.827,18.181h-.764V9.017l1.373.173a7.41,7.41,0,1,0-14.808-.1l.936-.047v9.2a9.51,9.51,0,0,1-1.4-.266A4.387,4.387,0,0,1,.077,14.4,4.383,4.383,0,0,1,1.9,9.921a.727.727,0,0,0,.315-.7A8.84,8.84,0,0,1,17.99,3.37a9.018,9.018,0,0,1,1.89,5.95,1.348,1.348,0,0,0,.431,1.1,4.575,4.575,0,0,1-1.03,7.214,1.266,1.266,0,0,0-.49.553,5.923,5.923,0,0,1-4.176,3.586c-.124.03-.295.062-.348.15a1.074,1.074,0,0,1-1.105.451c-.335-.011-.67.006-1.005,0a.789.789,0,0,1-.841-.809.741.741,0,0,1,.813-.777c.67.028,1.37-.2,2.007.2.067.043.2,0,.3-.023A5.05,5.05,0,0,0,17.8,18.337a.654.654,0,0,0,.03-.156" transform="translate(0 0)" fill="#fff"/>
  </g>
</svg>
