<svg xmlns="http://www.w3.org/2000/svg" width="22" height="22" viewBox="0 0 22 22">
  <g id="Group_11825" data-name="Group 11825" transform="translate(8672 5386)">
    <g id="Rectangle_5465" data-name="Rectangle 5465" transform="translate(-8672 -5386)" fill="#fff" stroke="#707070" stroke-width="1" opacity="0">
      <rect width="22" height="22" stroke="none"/>
      <rect x="0.5" y="0.5" width="21" height="21" fill="none"/>
    </g>
    <g id="LocalBank_SmallRiver" transform="translate(-8671.065 -5384.641)">
      <path id="Path_5384" data-name="Path 5384" d="M116.428,226.168a.879.879,0,0,0-.381-.092q-6.525-.008-13.05,0c-.45,0-.9,0-1.351,0a.734.734,0,0,0-.291.058.393.393,0,0,0-.212.445.424.424,0,0,0,.418.33c.194.016.194.016.194.212v7.327c-.11,0-.192,0-.272,0a.837.837,0,1,0,.137,1.669h5.059a5.368,5.368,0,0,0,.506-1.8l.062-.776.376.1v-6.715c.041,0,.069-.01.1-.01q1.136,0,2.273,0c.13,0,.134.063.134.16q0,2.287,0,4.574v.659h.958l-.1.739a5.941,5.941,0,0,0-.035.737v.208l.839-.368q0-3.27,0-6.541c0-.093,0-.167.13-.164.763,0,1.525,0,2.288,0a.8.8,0,0,1,.087.011v5.485l1.177-.388.266.465c.06.1.115.213.169.327h.072v-5.573a.606.606,0,0,1,.023-.294c.032-.05.164-.034.254-.049a.4.4,0,0,0,.332-.316A.367.367,0,0,0,116.428,226.168Zm-10.488,8.113c0,.138-.046.164-.173.164q-1.086-.008-2.171,0c-.131,0-.17-.034-.169-.167.005-1.2,0-2.406,0-3.61s0-2.387,0-3.581c0-.15.044-.183.186-.182q1.078.01,2.157,0c.132,0,.171.036.171.169Q105.934,230.679,105.939,234.282Z" transform="translate(-99.66 -219.901)" fill="#fff"/>
      <path id="Path_5385" data-name="Path 5385" d="M84.266,80.747H76.008a.934.934,0,0,1-.655-.2.822.822,0,0,1,.187-1.384c.583-.28,1.178-.536,1.767-.8l6.5-2.928a1.036,1.036,0,0,1,.91,0q4.119,1.862,8.244,3.713a.832.832,0,0,1-.309,1.6c-.067,0-.134,0-.2,0Z" transform="translate(-75.055 -75.327)" fill="#fff"/>
      <path id="Path_5386" data-name="Path 5386" d="M82.283,485.416H76.059a.85.85,0,0,1-.889-.627.831.831,0,0,1,.662-1.032,1.646,1.646,0,0,1,.258-.018h5.8c-.088.149-.183.294-.282.431l-.455.625.693.347A2.459,2.459,0,0,1,82.283,485.416Z" transform="translate(-75.138 -467.022)" fill="#fff"/>
      <path id="Path_5387" data-name="Path 5387" d="M248.06,395.9c-.013.034-.02.061-.027.082-.02.082-.02.088-.041.161a8.176,8.176,0,0,1-1.21,3.093,3.453,3.453,0,0,0-.713-.477,6.382,6.382,0,0,0,1.176-3.066Zm1.688-1.62a6.518,6.518,0,0,0-.041.819v4.445a.652.652,0,0,1-.275.632,1.359,1.359,0,0,1-.7.114c-.269,0-.524-.014-.86-.034a2.685,2.685,0,0,0-.215-.787,6.534,6.534,0,0,0,.955.088c.235,0,.3-.034.3-.161v-4.3a6.466,6.466,0,0,0-.041-.813Zm1.445,1.38a26.247,26.247,0,0,1,1.3,3.126l-.766.457a16.986,16.986,0,0,0-.612-1.808,12.305,12.305,0,0,0-.652-1.452Z" transform="translate(-239.07 -381.225)" fill="#fff"/>
      <path id="Path_5388" data-name="Path 5388" d="M412.734,394.936c-.014-.02-.02-.02-.034-.034-.007.082-.007.135-.007.329v1.17a2.268,2.268,0,0,0,1.264-.813,1.208,1.208,0,0,0,.215-.693c.027-.3.041-.659.041-1.049,0-.188,0-.336-.014-.834h.652a1.44,1.44,0,0,0-.007.148v.255c0,.061,0,.061-.013.545,0,.082,0,.249-.007.518a2.3,2.3,0,0,1-.377,1.519,2.9,2.9,0,0,1-1.351,1.009,1.826,1.826,0,0,0-.4-.544c.007.155.013.262.02.343h-.674v-.316h-.921v.368h-.691a5.882,5.882,0,0,0,.034-.625v-1.047c0-.123,0-.168-.007-.249l-.3.135a1.557,1.557,0,0,0-.336-.618,3.988,3.988,0,0,0,1.392-.659c-.148-.087-.2-.114-.4-.222l.368-.457c.316.168.4.222.484.269a4.344,4.344,0,0,0,.343-.423h-.846a4.155,4.155,0,0,1-.908.88,1.479,1.479,0,0,0-.356-.524,3.135,3.135,0,0,0,.733-.618,2.058,2.058,0,0,0,.424-.719l.625.129-.054.106a2.025,2.025,0,0,1-.1.188h.538a1.861,1.861,0,0,0,.309-.013v-.471H410.71v.585h-.665a3.1,3.1,0,0,0,.027-.43v-.323c0-.134-.007-.235-.02-.45a4.7,4.7,0,0,0,.538.02h.612c-.054-.123-.087-.2-.215-.444l.652-.215a4.068,4.068,0,0,1,.3.659h.544c.161,0,.289-.007.532-.027-.014.39-.014.39-.014.471v.262a3.522,3.522,0,0,0,.02.45h-.39l.242.262c-.047.06-.061.082-.108.141a5.53,5.53,0,0,1-.578.813,7.39,7.39,0,0,1,.935.672Zm-.255-.242a8.785,8.785,0,0,0-.746-.551,4.377,4.377,0,0,1-.807.558Zm-1.358,1.217h.927v-.652h-.927Zm2.044-5a4.277,4.277,0,0,0,.693.041H415.4a3.615,3.615,0,0,0,.733-.041v.72a4.97,4.97,0,0,0-.733-.034h-.5a3.883,3.883,0,0,1-.195.532h.551a6.12,6.12,0,0,0,.659-.02c-.014.235-.02.376-.02.612v2.118c0,.275.007.471.02.693h-.7l.014-.693V392.7H413.8v2.144c0,.368,0,.511.014.686h-.693c.013-.255.02-.4.02-.686v-2.1c0-.282-.007-.424-.02-.625a5.41,5.41,0,0,0,.573.014h.3a2.757,2.757,0,0,0,.188-.532h-.309a4.445,4.445,0,0,0-.706.034Zm1.849,4.565a8.847,8.847,0,0,1,1.264,1l-.484.55a5.041,5.041,0,0,0-1.2-1.082Z" transform="translate(-396.127 -377.753)" fill="#fff"/>
    </g>
  </g>
</svg>
