<svg id="icon-bell" xmlns="http://www.w3.org/2000/svg" width="16" height="16" viewBox="0 0 16 16">
  <rect id="wrap" width="16" height="16" fill="none"/>
  <path id="b" d="M5.25,12a1.5,1.5,0,0,1-1.5-1.5h3A1.5,1.5,0,0,1,5.25,12Zm4.5-2.25h-9A.748.748,0,0,1,0,9a.731.731,0,0,1,.2-.509l.233-.247A4.477,4.477,0,0,0,1.5,4.875a3.7,3.7,0,0,1,3-3.637V.75A.749.749,0,1,1,6,.75v.489A3.7,3.7,0,0,1,9,4.875,4.394,4.394,0,0,0,10.209,8.4l.089.094A.725.725,0,0,1,10.5,9,.748.748,0,0,1,9.748,9.75Z" transform="translate(2.75 2.5)" fill="#fe0"/>
</svg>
