<svg id="Filter" xmlns="http://www.w3.org/2000/svg" width="18" height="18" viewBox="0 0 18 18">
  <g id="Rectangle_5262" data-name="Rectangle 5262" fill="#fff" stroke="#707070" stroke-width="1" opacity="0.002">
    <rect width="18" height="18" stroke="none"/>
    <rect x="0.5" y="0.5" width="17" height="17" fill="none"/>
  </g>
  <path id="filter_2_" data-name="filter (2)" d="M144.093,126.987a1.494,1.494,0,0,0-.6-.711,1.644,1.644,0,0,0-.9-.26H130.853a1.646,1.646,0,0,0-.9.26,1.489,1.489,0,0,0-.6.711,1.557,1.557,0,0,0-.088.923,1.627,1.627,0,0,0,.43.817l5.326,5.055v5.036a.617.617,0,0,0,.215.48l2.439,2.479a.659.659,0,0,0,.508.212.93.93,0,0,0,.253-.039.646.646,0,0,0,.449-.654v-7.554l4.839-5.016a1.573,1.573,0,0,0,.449-.817,1.551,1.551,0,0,0-.088-.923Zm-1.356.759-5.054,5.228a.647.647,0,0,0-.2.48v6.189l-1.054-1.115v-5.036a.646.646,0,0,0-.2-.48l-5.541-5.267a.179.179,0,0,1-.039-.221.2.2,0,0,1,.2-.125H142.6a.183.183,0,0,1,.185.125.19.19,0,0,1-.049.221Z" transform="translate(-127.226 -125.002)" fill="#fff"/>
</svg>
