<svg xmlns="http://www.w3.org/2000/svg" width="22.048" height="22" viewBox="0 0 22.048 22">
  <g id="Group_12334" data-name="Group 12334" transform="translate(-7304 5381)">
    <rect id="Rectangle_2641" data-name="Rectangle 2641" width="22" height="22" transform="translate(7304 -5381)" fill="#b1b1b3" opacity="0"/>
    <g id="Group_8224" data-name="Group 8224" transform="translate(6403.545 -5661.017)">
      <path id="Path_4928" data-name="Path 4928" d="M918.108,282.517l.425,2.18a52.9,52.9,0,0,1-9.8.915h-.217l-.261,3.53h3.878l.271-2.23,3.127-.044-.271,2.28h3.607l-.308,2.441-3.514.024-.2,2.307h0l-.156,1.778h0c-.167,2.916-5.359,3.3-5.359,3.3l.058-2.788c1.387-.049,1.985-.611,2.224-1.186l.11-1.237h0l.005-.051h0l.187-2.1-7.522.055.28-2.545h1.017l.388-5.261h0l.013-.165v-.013s10.02-.294,12.016-1.189m.761,6.631h.005m-.766-8.131a1.513,1.513,0,0,0-.614.131c-1.078.484-6.667.918-11.447,1.058a1.5,1.5,0,0,0-1.455,1.45l0,.036q-.006.041-.009.081l-.289,3.921a1.5,1.5,0,0,0-1.111,1.287l-.28,2.545a1.5,1.5,0,0,0,1.491,1.664h.011l5.87-.043-.04.454,0,.063-.077.864a1.687,1.687,0,0,1-.816.18,1.5,1.5,0,0,0-1.446,1.468l-.059,2.787a1.5,1.5,0,0,0,1.5,1.532c.036,0,.073,0,.109,0,.662-.049,6.439-.589,6.742-4.63l0-.032.155-1.778c0-.023,0-.046,0-.068l.078-.879,2.149-.015a1.5,1.5,0,0,0,1.478-1.312l.3-2.353a1.5,1.5,0,0,0-1.472-1.776h-1.923l.072-.6a1.515,1.515,0,0,0-.04-.562q.918-.139,1.828-.312a1.5,1.5,0,0,0,1.2-1.761l-.426-2.18a1.5,1.5,0,0,0-1.472-1.213Zm-8.2,6.082c.321-.007.643-.016.964-.029l-.07.572h-.934l.04-.543Z" fill="#222"/>
      <path id="Path_4929" data-name="Path 4929" d="M909.168,293.122h0m0,0-2.5,4.829-.364.6a1.929,1.929,0,0,1-1.112.682,1.1,1.1,0,0,1-.141.03H905l-.016,0v0h-2.031l.129-2.019v-.054h0v0h.823a.669.669,0,0,0,.586-.348h0l.517-1.033v0l1.361-2.682,2.8,0m0-1.5h0l-2.8,0a1.5,1.5,0,0,0-1.337.821l-1.361,2.682c-.015.03-.029.06-.042.091l-.237.474h-.3a1.508,1.508,0,0,0-1.5,1.5v.006l-.126,1.972a1.5,1.5,0,0,0,1.5,1.6H904.9c.027,0,.055,0,.083,0s.057,0,.086,0a1.489,1.489,0,0,0,.2-.016,2.722,2.722,0,0,0,.269-.054,3.441,3.441,0,0,0,1.934-1.2,1.556,1.556,0,0,0,.115-.164l.364-.6c.016-.028.032-.056.047-.085l2.464-4.762a1.5,1.5,0,0,0-1.293-2.256Zm0,3h0Z" fill="#222"/>
      <path id="Path_4930" data-name="Path 4930" d="M919.455,293.184s.007.1.007.268c.022.72.082,2.052.272,3.861q.316.02.633.019t.633-.019l-.234,1.894h-3.513l-.368-4.871h-.3l-.033-1.062,2.9-.09M921,297.313h.005m-1.55-5.629h-.046l-2.9.09a1.5,1.5,0,0,0-1.452,1.546l.033,1.062a1.493,1.493,0,0,0,.37.94l.3,4a1.5,1.5,0,0,0,1.5,1.387h3.513a1.5,1.5,0,0,0,1.488-1.315l.224-1.806a1.541,1.541,0,0,0,.025-.273,1.5,1.5,0,0,0-1.4-1.5c-.069-.847-.116-1.664-.138-2.408,0-.193-.011-.332-.011-.332a1.511,1.511,0,0,0-1.5-1.392Z" fill="#222"/>
    </g>
  </g>
</svg>
