<svg xmlns="http://www.w3.org/2000/svg" width="16.2" height="16.2" viewBox="0 0 16.2 16.2">
  <g id="Group_12427" data-name="Group 12427" transform="translate(-100.9 -183.9)">
    <path id="Path_2" data-name="Path 2" d="M8,0a8,8,0,1,0,8,8A8.009,8.009,0,0,0,8,0ZM8,15.015A7.015,7.015,0,1,1,15.015,8,7.023,7.023,0,0,1,8,15.015Z" transform="translate(101 184)" fill="#fff" stroke="#fff" stroke-width="0.2"/>
    <g id="info_6_" data-name="info (6)" transform="translate(106.793 187.521)">
      <path id="Path_4" data-name="Path 4" d="M34.915,7.859l-.123.5q-.554.219-.884.333a2.331,2.331,0,0,1-.766.115A1.53,1.53,0,0,1,32.1,8.482a1.059,1.059,0,0,1-.372-.831,2.938,2.938,0,0,1,.028-.4q.028-.2.09-.462l.461-1.633q.062-.235.1-.445a1.933,1.933,0,0,0,.042-.383.592.592,0,0,0-.129-.437.73.73,0,0,0-.494-.123,1.293,1.293,0,0,0-.367.056c-.126.037-.233.073-.323.106l.123-.5q.453-.185.868-.316a2.6,2.6,0,0,1,.785-.132,1.493,1.493,0,0,1,1.027.322,1.068,1.068,0,0,1,.361.836c0,.071-.008.2-.025.375a2.508,2.508,0,0,1-.092.493l-.46,1.627a4.322,4.322,0,0,0-.1.448,2.307,2.307,0,0,0-.045.38.548.548,0,0,0,.145.442.817.817,0,0,0,.5.117,1.451,1.451,0,0,0,.38-.059A2.125,2.125,0,0,0,34.915,7.859Zm.117-6.83a.952.952,0,0,1-.322.725,1.094,1.094,0,0,1-.774.3,1.107,1.107,0,0,1-.778-.3.95.95,0,0,1-.325-.725A.959.959,0,0,1,33.158.3,1.148,1.148,0,0,1,34.71.3.961.961,0,0,1,35.031,1.029Z" transform="translate(-31.139 0)" fill="#fff"/>
    </g>
  </g>
</svg>
