<svg xmlns="http://www.w3.org/2000/svg" width="16.325" height="16.325" viewBox="0 0 16.325 16.325">
  <path id="refresh_1_" data-name="refresh (1)" d="M108.52,114.06l.281,1.663a8.162,8.162,0,0,1-7.662-13.285l.053-.059-1.018-.858a.186.186,0,0,1,.07-.31L104,100.173a.141.141,0,0,1,.177.149l-.36,3.876a.186.186,0,0,1-.3.124l-1.018-.844-.051.059a6.473,6.473,0,0,0,6.078,10.524Zm6.019-.115-1.029-.864c.045-.051.093-.1.138-.149a8.162,8.162,0,0,0-7.713-13.276l.281,1.663a6.473,6.473,0,0,1,6.135,10.526c-.045.053-.09.1-.135.152l-1.015-.844a.186.186,0,0,0-.3.124l-.363,3.87a.141.141,0,0,0,.177.149l3.752-1.027a.186.186,0,0,0,.07-.321Z" transform="translate(-99.231 -99.522)" fill="#999"/>
</svg>
