<svg id="icon-search" xmlns="http://www.w3.org/2000/svg" width="18" height="18" viewBox="0 0 18 18">
  <rect id="wrap" width="18" height="18" fill="#fff" opacity="0"/>
  <g id="search" transform="translate(1.5 1.5)">
    <path id="Path_4889" data-name="Path 4889" d="M663.3,663.616a.9.9,0,0,1-.633-.262l-3.085-3.086A.895.895,0,0,1,660.845,659l3.086,3.086a.895.895,0,0,1-.632,1.527" transform="translate(-649.568 -648.991)" fill="#fff"/>
    <path id="Path_4868" data-name="Path 4868" d="M6.647,12.1a6,6,0,1,1,6-6,6.007,6.007,0,0,1-6,6m0-10.523A4.523,4.523,0,1,0,11.171,6.1,4.528,4.528,0,0,0,6.647,1.575" transform="translate(-0.647 -0.098)" fill="#fff"/>
  </g>
</svg>
