<svg xmlns="http://www.w3.org/2000/svg" xmlns:xlink="http://www.w3.org/1999/xlink" width="52" height="52" viewBox="0 0 52 52">
  <defs>
    <linearGradient id="linear-gradient" x1="0.1" y1="0.058" x2="0.917" y2="0.925" gradientUnits="objectBoundingBox">
      <stop offset="0" stop-color="#fc96ee"/>
      <stop offset="1" stop-color="#d274ff"/>
    </linearGradient>
    <filter id="Rectangle_13" x="0" y="0" width="52" height="52" filterUnits="userSpaceOnUse">
      <feOffset dy="3" input="SourceAlpha"/>
      <feGaussianBlur stdDeviation="3" result="blur"/>
      <feFlood flood-color="#020202" flood-opacity="0.102"/>
      <feComposite operator="in" in2="blur"/>
      <feComposite in="SourceGraphic"/>
    </filter>
    <linearGradient id="linear-gradient-2" x1="0.5" x2="0.5" y2="1" gradientUnits="objectBoundingBox">
      <stop offset="0" stop-color="#fff"/>
      <stop offset="0.599" stop-color="#fff" stop-opacity="0.906"/>
      <stop offset="1" stop-color="#fff" stop-opacity="0.82"/>
    </linearGradient>
  </defs>
  <g id="Group_10851" data-name="Group 10851" transform="translate(-191 -262)">
    <g transform="matrix(1, 0, 0, 1, 191, 262)" filter="url(#Rectangle_13)">
      <rect id="Rectangle_13-2" data-name="Rectangle 13" width="34" height="34" rx="8" transform="translate(9 6)" fill="url(#linear-gradient)"/>
    </g>
    <g id="Group_6" data-name="Group 6" transform="translate(209.208 276.5)">
      <rect id="Rectangle_7" data-name="Rectangle 7" width="17" height="17" transform="translate(0)" opacity="0" fill="url(#linear-gradient-2)"/>
      <g id="_8提款记录" data-name="8提款记录" transform="translate(0 1.166)">
        <path id="Path_3" data-name="Path 3" d="M20.789,38.912H6.46a1.331,1.331,0,0,0-1.34,1.34v1.8a1.336,1.336,0,0,0,1.34,1.34h.893V40.7H19.887v2.689h.893a1.336,1.336,0,0,0,1.34-1.34v-1.8A1.318,1.318,0,0,0,20.789,38.912Z" transform="translate(-5.12 -38.912)" fill="url(#linear-gradient-2)"/>
        <path id="Path_4" data-name="Path 4" d="M194.087,199.168H192v11.184a1.336,1.336,0,0,0,1.34,1.34h.747Zm.9,0V211.7H201.4a1.336,1.336,0,0,0,1.34-1.34V199.168Zm5.79,10.257-1.8.447v-3.582l1.8-.447Z" transform="translate(-188.865 -196.479)" fill="url(#linear-gradient-2)"/>
      </g>
    </g>
  </g>
</svg>
