<?xml version="1.0" encoding="utf-8"?>
<!-- Generator: Adobe Illustrator 27.0.1, SVG Export Plug-In . SVG Version: 6.00 Build 0)  -->
<svg version="1.1" id="Layer_1" xmlns="http://www.w3.org/2000/svg" xmlns:xlink="http://www.w3.org/1999/xlink" x="0px" y="0px"
	 viewBox="0 0 40 40" style="enable-background:new 0 0 40 40;" xml:space="preserve">
<style type="text/css">
	.st0{fill:#FFFFFF;}
</style>
<path id="Path_303" class="st0" d="M31.4,3.6c-0.1-0.4-0.2-0.8-0.2-1.3c0-1.2,0.9-2.3,2.2-2.3c1,0,1.9,0.6,2.2,1.5
	c0.5,1.3,1.4,4,1.4,4s0.6,1.7,0.9,2.6c0.4,1.1-0.1,2.4-1.2,2.8c-0.2,0.1-0.5,0.1-0.8,0.1c-2.3,0.1-4.6,0.1-6.9,0
	c-1.1,0-2-0.8-2.1-1.9c-0.1-1,0.4-1.9,1.3-2.3c0.1,0,0.1-0.1,0.3-0.1C27,6,25.7,5.4,24.2,5C16,2.7,7.4,7.5,5,15.7
	s2.5,16.9,10.7,19.2S32.6,32.5,35,24.2c0.1-0.2,0.1-0.5,0.2-0.7c0.2-1.1,0.4-2.3,0.4-3.4c0-0.9,0.6-1.8,1.5-2.1
	c1.1-0.4,2.4,0.1,2.8,1.3c0.1,0.3,0.2,0.6,0.1,0.9c0,4.2-1.4,8.3-3.9,11.7c-3.1,4.3-7.7,7.1-12.9,7.9C13,41.4,3.2,35,0.7,24.9
	C-1.4,17.3,1.3,9.3,7.5,4.5c2.7-2.2,5.9-3.7,9.4-4.2c5-0.8,10.1,0.3,14.3,3.1C31.2,3.5,31.3,3.5,31.4,3.6z"/>
</svg>
