<svg width="35" height="35" viewBox="0 0 35 35" fill="none" xmlns="http://www.w3.org/2000/svg">
<path d="M35 17.5005C35 7.83551 27.165 0.000488281 17.5 0.000488281C7.83502 0.000488281 0 7.83551 0 17.5005C0 27.1655 7.83502 35.0005 17.5 35.0005C27.165 35.0005 35 27.1655 35 17.5005Z" fill="#007CBF"/>
<path d="M17.0915 13.0812C17.1453 13.0274 17.2091 12.9847 17.2793 12.9555C17.3495 12.9264 17.4248 12.9114 17.5009 12.9114C17.5769 12.9114 17.6522 12.9264 17.7225 12.9555C17.7927 12.9847 17.8565 13.0274 17.9102 13.0812L25.0365 20.1497C25.0904 20.2034 25.1331 20.2672 25.1622 20.3374C25.1914 20.4077 25.2064 20.483 25.2064 20.559C25.2064 20.6351 25.1914 20.7104 25.1622 20.7806C25.1331 20.8509 25.0904 20.9147 25.0365 20.9684L24.0832 21.9217C24.0295 21.9756 23.9657 22.0183 23.8954 22.0474C23.8252 22.0766 23.7499 22.0916 23.6738 22.0916C23.5978 22.0916 23.5225 22.0766 23.4522 22.0474C23.382 22.0183 23.3182 21.9756 23.2645 21.9217L17.5009 16.2152L11.7373 21.9217C11.6836 21.9756 11.6198 22.0183 11.5495 22.0474C11.4793 22.0766 11.404 22.0916 11.328 22.0916C11.2519 22.0916 11.1766 22.0766 11.1064 22.0474C11.0361 22.0183 10.9723 21.9756 10.9186 21.9217L9.96523 20.9676C9.9114 20.9139 9.86869 20.8501 9.83955 20.7799C9.81041 20.7096 9.79541 20.6343 9.79541 20.5583C9.79541 20.4822 9.81041 20.4069 9.83955 20.3367C9.86869 20.2664 9.9114 20.2026 9.96523 20.1489L17.0915 13.0812Z" fill="white"/>
</svg>
