<svg width="10" height="16" viewBox="0 0 10 16" fill="none" xmlns="http://www.w3.org/2000/svg">
<path d="M8.68671 0.187031L9.36471 0.865031C9.44171 0.942099 9.48497 1.04659 9.48497 1.15553C9.48497 1.26448 9.44171 1.36896 9.36471 1.44603L3.17671 7.64603L9.36471 13.853C9.44171 13.9301 9.48497 14.0346 9.48497 14.1435C9.48497 14.2525 9.44171 14.357 9.36471 14.434L8.68671 15.112C8.60964 15.189 8.50516 15.2323 8.39621 15.2323C8.28727 15.2323 8.18278 15.189 8.10571 15.112L0.934711 7.94103C0.857708 7.86396 0.814453 7.75948 0.814453 7.65053C0.814453 7.54159 0.857708 7.4371 0.934711 7.36003L8.10571 0.187031C8.18278 0.110027 8.28727 0.0667725 8.39621 0.0667725C8.50516 0.0667725 8.60964 0.110027 8.68671 0.187031Z" fill="white"/>
</svg>
