<svg width="18" height="18" viewBox="0 0 18 18" fill="none" xmlns="http://www.w3.org/2000/svg">
<mask id="mask0_14_32016" style="mask-type:luminance" maskUnits="userSpaceOnUse" x="0" y="0" width="18" height="18">
<path d="M9.13997 17.6199C13.8233 17.6199 17.62 13.8233 17.62 9.13991C17.62 4.45654 13.8233 0.659912 9.13997 0.659912C4.4566 0.659912 0.659973 4.45654 0.659973 9.13991C0.659973 13.8233 4.4566 17.6199 9.13997 17.6199Z" fill="white"/>
</mask>
<g mask="url(#mask0_14_32016)">
<path d="M0.394836 0.659912H27.1598V21.1889H0.394836V0.659912Z" fill="#EE1C25"/>
<path d="M5.95864 5.92493L7.4543 10.5274L3.53442 7.6824H8.37332L4.45875 10.5264L5.95864 5.92493Z" fill="#FFFF00"/>
<path d="M10.5317 5.14463L10.39 6.7511L9.55999 5.36842L11.0447 5.99972L9.47303 6.36119L10.5317 5.14463Z" fill="#FFFF00"/>
<path d="M12.5039 7.03109L11.7494 8.45633L11.5216 6.85989L12.6445 8.01825L11.0559 7.74092L12.5039 7.03109Z" fill="#FFFF00"/>
<path d="M12.6928 9.87427L11.4231 10.8685L11.8655 9.3177L12.419 10.8331L11.0812 9.93258L12.6928 9.87427Z" fill="#FFFF00"/>
<path d="M10.4986 11.0676L10.4236 12.6785L9.53702 11.3314L11.0466 11.9007L9.49129 12.327L10.4986 11.0676Z" fill="#FFFF00"/>
</g>
</svg>
