<svg width="16" height="10" viewBox="0 0 16 10" fill="none" xmlns="http://www.w3.org/2000/svg">
<path d="M15.7519 0.924918L15.0512 0.224219C14.9715 0.144674 14.8635 0.0999996 14.7509 0.0999996C14.6383 0.0999996 14.5303 0.144674 14.4506 0.224219L8.03642 6.62282L1.62482 0.226818C1.54512 0.147274 1.43712 0.1026 1.32452 0.1026C1.21192 0.1026 1.10392 0.147274 1.02422 0.226818L0.32482 0.924918C0.285238 0.964405 0.253834 1.01131 0.232407 1.06295C0.21098 1.1146 0.199951 1.16996 0.199951 1.22587C0.199951 1.28178 0.21098 1.33714 0.232407 1.38878C0.253834 1.44042 0.285238 1.48733 0.32482 1.52682L7.73482 8.93682C7.81452 9.01636 7.92252 9.06104 8.03512 9.06104C8.14772 9.06104 8.25572 9.01636 8.33542 8.93682L15.7454 1.52682C15.7854 1.48776 15.8173 1.44119 15.8393 1.38978C15.8613 1.33837 15.8729 1.28313 15.8735 1.22722C15.8742 1.17131 15.8637 1.11582 15.8428 1.06395C15.822 1.01208 15.7911 0.964832 15.7519 0.924918Z" fill="#999999"/>
</svg>
