<svg width="346" height="17" viewBox="0 0 346 17" fill="none" xmlns="http://www.w3.org/2000/svg">
<path d="M0.43799 1.67821C0.437827 1.60329 0.447885 1.52891 0.467716 1.45838C0.487829 1.39027 0.517836 1.3276 0.556169 1.27366C0.595484 1.21944 0.642149 1.1747 0.693923 1.14158C0.749947 1.10782 0.811031 1.08986 0.873003 1.08893C0.9341 1.08916 0.99444 1.10617 1.04991 1.13881C1.10271 1.16979 1.14968 1.21482 1.18766 1.27089C1.22599 1.32483 1.256 1.3875 1.27611 1.45561C1.29594 1.52614 1.306 1.60052 1.30584 1.67544V6.50418H3.4026C3.45249 6.50361 3.50191 6.51652 3.5476 6.54205C3.59187 6.56526 3.63208 6.59942 3.66593 6.64254C3.69978 6.68566 3.72658 6.73689 3.74481 6.79328C3.76415 6.85077 3.77413 6.91267 3.77413 6.97523C3.77413 7.03779 3.76415 7.09969 3.74481 7.15718C3.72658 7.21357 3.69978 7.26481 3.66593 7.30792C3.63208 7.35104 3.59187 7.3852 3.5476 7.40841C3.50191 7.43395 3.45249 7.44686 3.4026 7.44628H0.873003C0.815296 7.44738 0.758109 7.43224 0.705523 7.40195C0.601749 7.34492 0.519009 7.23951 0.474241 7.10731C0.450461 7.04032 0.438578 6.96746 0.43944 6.89395L0.43799 1.67821Z" fill="#BCBEC3"/>
<path d="M3.75146 4.3059C3.75311 4.02119 3.7774 3.73741 3.82397 3.45893C3.86728 3.19063 3.93492 2.92965 4.02552 2.68124C4.11311 2.43963 4.22577 2.21409 4.36048 2.01068C4.49411 1.8031 4.65385 1.62519 4.83319 1.48421C5.02243 1.33213 5.22809 1.21607 5.44366 1.1397C5.68729 1.05383 5.93911 1.01156 6.19188 1.01408C6.4463 1.01198 6.69975 1.05424 6.94518 1.1397C7.16234 1.21606 7.36968 1.3321 7.56072 1.48421C7.74066 1.6267 7.9019 1.80436 8.03851 2.01068C8.17516 2.21337 8.28932 2.439 8.37782 2.68124C8.46842 2.92965 8.53605 3.19063 8.57937 3.45893C8.62593 3.73741 8.65023 4.02119 8.65188 4.3059C8.65047 4.5885 8.62617 4.87016 8.57937 5.14641C8.53679 5.41288 8.46912 5.67183 8.37782 5.91764C8.29048 6.159 8.1762 6.38299 8.03851 6.58265C7.90047 6.7856 7.73943 6.96118 7.56072 7.10358C7.36948 7.25388 7.16214 7.36806 6.94518 7.44256C6.6995 7.52575 6.44606 7.56583 6.19188 7.5617C5.93937 7.56586 5.6876 7.52577 5.44366 7.44256C5.22863 7.36686 5.0231 7.25273 4.83319 7.10358C4.65701 6.95941 4.49784 6.78401 4.36048 6.58265C4.22686 6.38024 4.11428 6.15673 4.02552 5.91764C3.93494 5.67146 3.86729 5.41263 3.82397 5.14641C3.77716 4.87016 3.75287 4.5885 3.75146 4.3059ZM4.62149 4.3059C4.62229 4.49936 4.63538 4.69241 4.66064 4.88317C4.68492 5.0699 4.72453 5.25286 4.77882 5.42904C4.83191 5.60023 4.90131 5.76247 4.98545 5.9121C5.06755 6.06055 5.16908 6.1899 5.28561 6.29448C5.40667 6.40715 5.54137 6.49388 5.68437 6.55125C5.84686 6.61625 6.01652 6.64743 6.18681 6.64361C6.36016 6.64691 6.53286 6.61575 6.69867 6.55125C6.98152 6.44055 7.22855 6.21595 7.40267 5.91117C7.48681 5.76154 7.55621 5.59931 7.6093 5.42812C7.66358 5.25193 7.7032 5.06898 7.72748 4.88225C7.77997 4.50062 7.77997 4.11027 7.72748 3.72864C7.70448 3.54155 7.66483 3.35842 7.6093 3.18277C7.55621 3.01158 7.48681 2.84934 7.40267 2.69971C7.23085 2.39061 6.98317 2.16315 6.69867 2.05317C6.53293 1.98827 6.36018 1.95709 6.18681 1.9608C6.01652 1.95698 5.84686 1.98817 5.68437 2.05317C5.54224 2.11324 5.40786 2.19976 5.28561 2.30994C5.1712 2.42021 5.07008 2.55121 4.98545 2.69878C4.90131 2.84842 4.83191 3.01065 4.77882 3.18185C4.72453 3.35803 4.68492 3.54099 4.66064 3.72771C4.63513 3.91874 4.62203 4.11213 4.62149 4.3059Z" fill="#BCBEC3"/>
<path d="M9.08684 4.29945C9.088 4.0086 9.1123 3.71863 9.15934 3.43401C9.20584 3.1639 9.27512 2.90099 9.36598 2.64985C9.45689 2.40784 9.5727 2.18234 9.71035 1.97929C9.84772 1.77795 10.0069 1.60255 10.1831 1.45837C10.3694 1.3093 10.5716 1.19514 10.7834 1.11939C11.0173 1.03657 11.2592 0.996454 11.5019 1.00025C11.6953 0.998376 11.8884 1.02346 12.0775 1.07506C12.2431 1.12105 12.4047 1.1882 12.5597 1.27549C12.6945 1.35229 12.8218 1.44901 12.9389 1.56366C13.0407 1.66038 13.1317 1.77443 13.2093 1.90263C13.2775 2.00931 13.3338 2.12741 13.3768 2.25361C13.4127 2.35416 13.4327 2.46277 13.4355 2.57319C13.4408 2.71773 13.4059 2.86002 13.3369 2.97497C13.2973 3.02583 13.2495 3.06507 13.1968 3.08995C13.1441 3.11484 13.0877 3.12477 13.0317 3.11905C12.9761 3.12098 12.9207 3.10808 12.8693 3.08119C12.8239 3.05655 12.7809 3.02558 12.7409 2.98882C12.7015 2.94931 12.6666 2.90299 12.6373 2.8512C12.6025 2.79486 12.5735 2.74498 12.5437 2.68772H12.5488C12.4995 2.59536 12.4451 2.51223 12.3915 2.42448C12.334 2.33265 12.2661 2.25232 12.1899 2.18619C12.1013 2.11167 12.0052 2.05264 11.9043 2.0107C11.7732 1.96185 11.637 1.93849 11.5004 1.94142C11.2414 1.94155 10.9869 2.02818 10.7624 2.19265C10.6466 2.27833 10.5405 2.38366 10.447 2.50576C10.348 2.63999 10.2651 2.7922 10.2012 2.95742C10.1287 3.14484 10.0742 3.34269 10.0388 3.5467C9.99756 3.78942 9.97787 4.03728 9.98007 4.2856C9.97714 4.60301 10.0086 4.91941 10.0736 5.22586C10.1305 5.49759 10.2274 5.75305 10.3592 5.97862C10.4879 6.19134 10.6551 6.36121 10.8465 6.47368C11.064 6.60048 11.3011 6.6636 11.5403 6.65841C11.6658 6.66108 11.7907 6.63576 11.9093 6.58359C12.0074 6.53851 12.1002 6.47635 12.1849 6.39887C12.2635 6.3248 12.3346 6.23854 12.3966 6.1421C12.4604 6.04974 12.5147 5.95737 12.5691 5.85947C12.5988 5.80959 12.6278 5.75879 12.6626 5.70892C12.6947 5.6601 12.7293 5.61411 12.7663 5.57129C12.7999 5.53204 12.836 5.49651 12.8743 5.46508C12.9095 5.44021 12.9478 5.42333 12.9874 5.4152C13.0423 5.41036 13.0974 5.41882 13.1499 5.44014C13.1988 5.45842 13.244 5.48992 13.2825 5.5325C13.3202 5.57298 13.3519 5.62179 13.3761 5.67659C13.4002 5.73435 13.4169 5.79674 13.4254 5.86132C13.4395 6.00945 13.4261 6.15973 13.3862 6.30004C13.3429 6.44728 13.2815 6.58478 13.2042 6.70736C13.1169 6.84504 13.014 6.9655 12.899 7.06481C12.7741 7.17636 12.6405 7.27107 12.5002 7.34744C12.3498 7.42953 12.1931 7.49144 12.0326 7.53216C11.8658 7.5776 11.6957 7.60082 11.5251 7.60144C11.1787 7.60817 10.834 7.53817 10.5064 7.39454C10.2145 7.26671 9.94997 7.05423 9.73356 6.77386C9.51313 6.48166 9.34667 6.13045 9.24634 5.74586C9.13876 5.27603 9.08503 4.78886 9.08684 4.29945Z" fill="#BCBEC3"/>
<path d="M15.5013 1.56551C15.5329 1.4365 15.5968 1.32424 15.6832 1.24594C15.7702 1.18302 15.8689 1.15112 15.9689 1.15357H16.2263C16.2774 1.15323 16.3284 1.15942 16.3785 1.17205C16.427 1.18249 16.4736 1.20375 16.5163 1.23485C16.5614 1.26986 16.6013 1.31455 16.6345 1.36693C16.6726 1.43502 16.704 1.50885 16.728 1.58676L18.136 6.52172C18.1461 6.55312 18.1556 6.59099 18.1701 6.6344C18.1839 6.67742 18.1955 6.72154 18.2049 6.76648C18.2154 6.80974 18.2237 6.85387 18.2295 6.89856C18.2372 6.93528 18.2407 6.97325 18.2397 7.01124C18.2404 7.07851 18.2285 7.14503 18.2049 7.2052C18.181 7.26399 18.1494 7.3171 18.1113 7.36222C18.0721 7.4069 18.0273 7.44281 17.9787 7.46844C17.9269 7.49415 17.8718 7.50701 17.8162 7.50631C17.7279 7.50835 17.6404 7.48466 17.5603 7.43703C17.4887 7.38625 17.4343 7.30375 17.4073 7.2052L17.0332 5.8567H15.1039L14.7197 7.2052C14.6944 7.30192 14.643 7.38407 14.5747 7.43703C14.4934 7.48675 14.4038 7.51052 14.3137 7.50631C14.2565 7.50707 14.1997 7.49422 14.1462 7.46844C14.0978 7.44481 14.0529 7.41076 14.0135 7.36776C13.9787 7.32452 13.9505 7.27348 13.9302 7.21721C13.91 7.15356 13.8998 7.08544 13.9004 7.01678C13.9019 6.97898 13.9053 6.94134 13.9106 6.9041C13.9164 6.85941 13.9247 6.81528 13.9352 6.77202C13.9562 6.68896 13.9804 6.60727 14.0077 6.52726L15.5013 1.56551ZM16.0972 2.25546L15.2946 5.11872H16.8701L16.0972 2.25546Z" fill="#BCBEC3"/>
<path d="M18.9614 1.67825C18.9613 1.60333 18.9713 1.52895 18.9911 1.45843C19.0113 1.39032 19.0413 1.32765 19.0796 1.2737C19.1189 1.21949 19.1656 1.17475 19.2174 1.14162C19.2744 1.1083 19.3366 1.09127 19.3993 1.09175C19.4604 1.09197 19.5208 1.10899 19.5762 1.14162C19.629 1.1726 19.676 1.21764 19.714 1.2737C19.7523 1.32765 19.7823 1.39032 19.8025 1.45843C19.8223 1.52895 19.8323 1.60333 19.8322 1.67825V6.50699H21.9289C21.9788 6.50642 22.0282 6.51933 22.0739 6.54486C22.1182 6.56808 22.1584 6.60223 22.1923 6.64535C22.2261 6.68847 22.2529 6.7397 22.2711 6.79609C22.2905 6.85359 22.3005 6.91549 22.3005 6.97805C22.3005 7.0406 22.2905 7.10251 22.2711 7.16C22.2529 7.21639 22.2261 7.26762 22.1923 7.31074C22.1584 7.35386 22.1182 7.38801 22.0739 7.41123C22.0282 7.43676 21.9788 7.44967 21.9289 7.4491H19.3964C19.3387 7.4502 19.2815 7.43506 19.229 7.40476C19.1251 7.34781 19.0424 7.24238 18.9977 7.11013C18.9739 7.04312 18.962 6.97028 18.9629 6.89677V1.67825H18.9614Z" fill="#BCBEC3"/>
<path d="M24.9536 7.44814C24.8959 7.44924 24.8387 7.4341 24.7861 7.40381C24.6824 7.34678 24.5996 7.24137 24.5549 7.10917C24.5311 7.04218 24.5192 6.96933 24.5201 6.89581V1.71239C24.5192 1.63888 24.5311 1.56603 24.5549 1.49903C24.5996 1.36683 24.6824 1.26143 24.7861 1.2044C24.8386 1.17347 24.8958 1.1577 24.9536 1.15822H26.5095C26.6545 1.15822 26.8046 1.16468 26.9525 1.18315C27.0964 1.2001 27.2394 1.22723 27.381 1.26443C27.5112 1.30553 27.6382 1.36213 27.7602 1.43346C27.8746 1.50559 27.9779 1.60318 28.0654 1.72163C28.155 1.84668 28.2236 1.99379 28.267 2.15389C28.3188 2.3476 28.3434 2.55148 28.3395 2.7561C28.3443 3.02833 28.3004 3.2984 28.2111 3.5458C28.1213 3.77418 27.9832 3.96609 27.8124 4.09998C27.9258 4.16273 28.0319 4.2451 28.1278 4.34474C28.2177 4.44238 28.2957 4.55663 28.359 4.68371C28.4261 4.81208 28.4751 4.95427 28.504 5.10397C28.538 5.25909 28.5546 5.41953 28.5533 5.58056C28.5537 5.73666 28.5372 5.89208 28.504 6.04238C28.4719 6.19502 28.4256 6.34228 28.3663 6.4811C28.3042 6.62251 28.2282 6.75319 28.1401 6.86995C28.0469 6.99096 27.9407 7.09452 27.8247 7.17752C27.6996 7.2689 27.5655 7.33849 27.4259 7.38441C27.2699 7.43592 27.1093 7.46107 26.9482 7.45923H24.9536V7.44814ZM26.5414 3.74438C26.6852 3.74634 26.8288 3.72963 26.9699 3.6945C27.0755 3.6677 27.1758 3.61432 27.265 3.53749C27.3375 3.47205 27.3952 3.38351 27.4325 3.28072C27.4698 3.16538 27.4883 3.04156 27.4868 2.91681C27.4886 2.80082 27.4786 2.68502 27.4571 2.57229C27.4408 2.48795 27.4106 2.40896 27.3687 2.34046C27.3323 2.28094 27.285 2.23369 27.2309 2.20284C27.1714 2.16866 27.1084 2.14534 27.0438 2.13357C26.9673 2.11824 26.89 2.10991 26.8126 2.10863C26.7292 2.10863 26.64 2.10217 26.5465 2.10217H25.3864V3.74438H26.5465H26.5414ZM26.8662 6.50327C26.9849 6.50518 27.103 6.48177 27.2157 6.43399C27.3105 6.3967 27.3978 6.33368 27.4716 6.24927C27.5421 6.16623 27.596 6.06302 27.6289 5.94817C27.6657 5.81752 27.6841 5.67963 27.6833 5.54084C27.6876 5.39553 27.6586 5.25177 27.5999 5.12706C27.5452 5.01995 27.4704 4.93174 27.3824 4.87029C27.2872 4.80488 27.184 4.76024 27.0772 4.73821C26.9635 4.7129 26.8483 4.70023 26.7328 4.70034H25.3843V6.50604L26.8662 6.50327Z" fill="#BCBEC3"/>
<path d="M30.593 1.56551C30.6245 1.43647 30.6884 1.32419 30.7749 1.24594C30.8619 1.18302 30.9606 1.15112 31.0606 1.15357H31.3216C31.373 1.15317 31.4242 1.15936 31.4746 1.17205C31.5231 1.18249 31.5697 1.20375 31.6124 1.23485C31.6574 1.26986 31.6974 1.31455 31.7305 1.36693C31.7687 1.43502 31.8001 1.50885 31.8241 1.58676L33.2321 6.52172C33.2422 6.55312 33.2516 6.59099 33.2668 6.6344C33.2807 6.67743 33.2923 6.72155 33.3016 6.76648C33.3122 6.80975 33.3204 6.85387 33.3263 6.89856C33.334 6.93528 33.3374 6.97325 33.3364 7.01124C33.3372 7.07851 33.3252 7.14503 33.3016 7.2052C33.2777 7.26398 33.2461 7.31709 33.2081 7.36222C33.1689 7.40691 33.1241 7.44282 33.0755 7.46844C33.0237 7.49415 32.9686 7.50701 32.913 7.50631C32.8247 7.50835 32.7372 7.48466 32.6571 7.43703C32.5858 7.38608 32.5316 7.3036 32.5048 7.2052L32.1307 5.8567H30.2109L29.8266 7.2052C29.8014 7.30192 29.75 7.38407 29.6816 7.43703C29.6003 7.48675 29.5107 7.51052 29.4206 7.50631C29.3634 7.50707 29.3066 7.49422 29.2531 7.46844C29.2047 7.44481 29.1598 7.41076 29.1205 7.36776C29.0856 7.32453 29.0574 7.27349 29.0371 7.21721C29.0169 7.15356 29.0068 7.08544 29.0073 7.01678C29.0088 6.97898 29.0122 6.94135 29.0175 6.9041C29.0233 6.85941 29.0316 6.81528 29.0421 6.77202C29.0515 6.72709 29.0631 6.68297 29.077 6.63994C29.0866 6.60159 29.098 6.56397 29.111 6.52726L30.593 1.56551ZM31.1889 2.25546L30.3856 5.12334H31.9611L31.1889 2.25546Z" fill="#BCBEC3"/>
<path d="M34.0545 1.84076C34.0394 1.73721 34.0443 1.63056 34.0685 1.52988C34.0927 1.42919 34.1356 1.33743 34.1936 1.26237C34.2516 1.18732 34.3229 1.13119 34.4016 1.09875C34.4802 1.0663 34.5638 1.0585 34.6453 1.076C34.7389 1.07659 34.8306 1.10844 34.9114 1.16836C34.9952 1.23207 35.066 1.32004 35.1181 1.42513L37.2743 5.75881V1.68467C37.2645 1.518 37.3049 1.35285 37.3874 1.22285C37.4766 1.12562 37.5901 1.07218 37.7075 1.07218C37.8249 1.07218 37.9384 1.12562 38.0276 1.22285C38.0707 1.28572 38.1034 1.35904 38.1237 1.4384C38.144 1.51776 38.1515 1.60152 38.1457 1.68467V6.72677C38.155 6.93772 38.1102 7.14678 38.0182 7.32251C37.9648 7.39612 37.8988 7.45308 37.8254 7.48896C37.752 7.52484 37.673 7.53868 37.5947 7.52941C37.5263 7.53145 37.4582 7.51865 37.3932 7.49154C37.3367 7.46949 37.2835 7.43545 37.2358 7.39086C37.1902 7.34957 37.1488 7.30116 37.1126 7.24678C37.077 7.19089 37.044 7.13228 37.014 7.07128L34.9317 2.85676V6.93274C34.9409 7.0962 34.9004 7.25788 34.8186 7.3844C34.7762 7.43557 34.7259 7.47483 34.6708 7.49965C34.6157 7.52447 34.5572 7.53429 34.4989 7.52848C34.4408 7.53297 34.3825 7.52252 34.3276 7.49777C34.2726 7.47302 34.2222 7.43446 34.1792 7.3844C34.1371 7.32275 34.105 7.25112 34.0847 7.1736C34.0644 7.09609 34.0564 7.01423 34.061 6.93274V1.84076H34.0545Z" fill="#BCBEC3"/>
<path d="M39.9666 6.90782C39.9656 6.98394 39.9573 7.05962 39.9419 7.13319C39.9288 7.20366 39.9041 7.26977 39.8694 7.32715C39.8332 7.38429 39.788 7.43116 39.7368 7.46477C39.6073 7.53167 39.4624 7.53167 39.3329 7.46477C39.2807 7.43304 39.2352 7.38585 39.2002 7.32715C39.1655 7.26979 39.1408 7.20367 39.1277 7.13319C39.1123 7.05962 39.1041 6.98394 39.1031 6.90782V1.67822C39.1022 1.59874 39.1141 1.51987 39.1379 1.44639C39.1579 1.37827 39.188 1.3156 39.2263 1.26166C39.2659 1.20947 39.3125 1.1669 39.3641 1.13605C39.4778 1.07745 39.6049 1.07745 39.7186 1.13605C39.7712 1.16466 39.8182 1.20753 39.8564 1.26166C39.8967 1.31368 39.927 1.37692 39.9448 1.44639C39.9668 1.52055 39.9785 1.59897 39.9796 1.67822V3.96698L42.1257 1.23949C42.1636 1.19271 42.2088 1.15653 42.2583 1.13328C42.3067 1.10815 42.3584 1.09528 42.4106 1.09541C42.4604 1.09628 42.5096 1.10913 42.5556 1.13328C42.6041 1.15894 42.6479 1.19734 42.684 1.24596C42.7207 1.29431 42.7491 1.35187 42.7673 1.41498C42.7854 1.47697 42.7938 1.54286 42.792 1.60894C42.7902 1.67277 42.7787 1.73554 42.7579 1.79367C42.739 1.8563 42.7087 1.91233 42.6694 1.95716L41.2274 3.71205L42.9159 6.64089C42.951 6.69794 42.9758 6.76418 42.9885 6.83485C43.0024 6.90244 43.0041 6.97318 42.9935 7.04174C42.9834 7.11043 42.9635 7.17618 42.9348 7.23571C42.9052 7.29854 42.8669 7.35394 42.8217 7.39919C42.7774 7.44501 42.7253 7.47668 42.6694 7.49155C42.6161 7.50622 42.561 7.50841 42.507 7.49802C42.4531 7.48736 42.4012 7.46386 42.3541 7.42875C42.3063 7.39095 42.2645 7.34207 42.2308 7.28466L40.6227 4.47497C40.5045 4.61259 40.3965 4.74468 40.2928 4.8823C40.1891 5.01992 40.0811 5.15199 39.9629 5.28962L39.9666 6.90782Z" fill="#BCBEC3"/>
<path d="M2.39275 10.5211V15.3184C2.39179 15.3945 2.38351 15.4702 2.3681 15.5438C2.355 15.6143 2.33029 15.6804 2.2956 15.7377C2.25937 15.7949 2.21418 15.8417 2.16292 15.8754C2.03343 15.9423 1.88858 15.9423 1.75909 15.8754C1.7061 15.8423 1.65916 15.7954 1.62133 15.7377C1.58637 15.6794 1.55963 15.6138 1.54231 15.5438C1.5269 15.4702 1.51862 15.3945 1.51766 15.3184V10.5155H0.398949C0.347256 10.5147 0.295943 10.5042 0.246695 10.4841C0.200823 10.4609 0.157649 10.4298 0.118367 10.3918C0.0799386 10.3527 0.0510234 10.3005 0.0349892 10.2412C0.010299 10.1792 -0.0016731 10.1103 0.000188165 10.0408C-0.00109798 9.97344 0.0108659 9.90677 0.0349892 9.84683C0.0545877 9.78834 0.0849221 9.7367 0.123442 9.69626C0.159582 9.65246 0.203668 9.62074 0.25177 9.60391C0.300102 9.57878 0.351822 9.56592 0.404024 9.56604H3.55279C3.60209 9.56713 3.65098 9.57771 3.69779 9.59744C3.74366 9.62067 3.78683 9.65175 3.82612 9.68981C3.86097 9.73449 3.89074 9.78516 3.91457 9.84036C3.93734 9.90336 3.94913 9.97189 3.94913 10.0412C3.94913 10.1106 3.93734 10.1791 3.91457 10.2421C3.89242 10.2987 3.86246 10.3497 3.82612 10.3927C3.78876 10.4344 3.74508 10.4658 3.69779 10.485C3.65088 10.5043 3.60205 10.5149 3.55279 10.5164H2.39275V10.5211Z" fill="#BCBEC3"/>
<path d="M8.65381 12.8476C8.75956 12.8619 8.86091 12.9092 8.94889 12.9853C9.03354 13.0608 9.10408 13.1592 9.15552 13.2734C9.2128 13.4092 9.25432 13.5548 9.27878 13.7057C9.30896 13.8914 9.32546 14.0804 9.32808 14.27C9.33179 14.3878 9.34171 14.505 9.3578 14.621C9.3723 14.7217 9.3926 14.815 9.4071 14.9036C9.4216 14.9923 9.4419 15.0671 9.4564 15.129C9.46985 15.1944 9.47644 15.2618 9.47598 15.3294C9.47611 15.4083 9.46606 15.4866 9.44625 15.5613C9.42607 15.6279 9.39795 15.6902 9.36288 15.746C9.32684 15.798 9.28326 15.8406 9.23455 15.8716C9.1839 15.9025 9.12826 15.9177 9.07214 15.9159C8.99496 15.9174 8.91825 15.9005 8.84594 15.8661C8.78788 15.8369 8.73454 15.7943 8.68861 15.7405C8.64612 15.6918 8.61246 15.6319 8.59 15.565C8.56541 15.5036 8.54714 15.4384 8.53563 15.371C8.52281 15.3106 8.51455 15.2487 8.51098 15.1863C8.5072 15.1362 8.50551 15.086 8.5059 15.0357C8.50777 14.7905 8.49614 14.5455 8.4711 14.3024C8.45518 14.1108 8.41528 13.9237 8.35292 13.7482C8.30394 13.6072 8.22574 13.4859 8.12672 13.3972C8.01655 13.3086 7.88785 13.2648 7.75768 13.2716H6.31417V15.3285C6.31433 15.4034 6.30427 15.4778 6.28444 15.5483C6.26433 15.6165 6.23432 15.6791 6.19599 15.7331C6.15667 15.7873 6.11001 15.832 6.05824 15.8651C6.00126 15.8979 5.93948 15.9148 5.87698 15.9148C5.81448 15.9148 5.7527 15.8979 5.69573 15.8651C5.64293 15.8342 5.59595 15.7891 5.55797 15.7331C5.52022 15.6797 5.4918 15.6168 5.47459 15.5483C5.45476 15.4778 5.4447 15.4034 5.44487 15.3285V10.1155C5.44401 10.042 5.45589 9.96918 5.47967 9.90218C5.52443 9.76998 5.60717 9.66458 5.71095 9.60755C5.76353 9.57725 5.82072 9.56211 5.87843 9.56321H7.82293C8.05286 9.55791 8.28203 9.5981 8.50227 9.68235C8.68548 9.74941 8.85631 9.86247 9.00471 10.0149C9.14193 10.1603 9.25004 10.3451 9.3201 10.5543C9.39551 10.7846 9.4323 11.0325 9.42813 11.2821C9.42753 11.4422 9.41442 11.6019 9.38898 11.7587C9.36461 11.9114 9.31972 12.0577 9.2563 12.1909C9.19345 12.3293 9.11366 12.4541 9.01994 12.5604C8.90955 12.6784 8.7862 12.7752 8.65381 12.8476ZM7.5264 12.3526C7.65532 12.354 7.78403 12.3391 7.91066 12.3082C8.02664 12.2828 8.13827 12.2319 8.24055 12.1577C8.33565 12.0876 8.41387 11.9857 8.46675 11.8631C8.52756 11.7189 8.55638 11.5564 8.55013 11.3929C8.55144 11.2714 8.53649 11.1506 8.5059 11.0355C8.47864 10.9301 8.43132 10.8349 8.36815 10.7584C8.29937 10.677 8.21674 10.6169 8.12672 10.5829C8.0155 10.5375 7.89908 10.5162 7.78233 10.5201H6.31417V12.3516L7.5264 12.3526Z" fill="#BCBEC3"/>
<path d="M12.6065 9.97518C12.6381 9.84614 12.702 9.73387 12.7885 9.65561C12.8755 9.5927 12.9742 9.56079 13.0742 9.56324H13.3352C13.3863 9.5629 13.4373 9.56909 13.4874 9.58172C13.5357 9.5932 13.5822 9.61439 13.6252 9.64452C13.6712 9.67785 13.7114 9.7228 13.7434 9.7766C13.7815 9.84469 13.8129 9.91853 13.8369 9.99643L15.2449 14.9314C15.255 14.9628 15.2645 15.0007 15.2797 15.0441C15.2935 15.0871 15.3051 15.1312 15.3145 15.1762C15.325 15.2194 15.3333 15.2635 15.3391 15.3082C15.3468 15.345 15.3503 15.3829 15.3493 15.4209C15.35 15.4882 15.3381 15.5547 15.3145 15.6149C15.2906 15.6737 15.259 15.7268 15.221 15.7719C15.1817 15.8166 15.1369 15.8525 15.0883 15.8781C15.0365 15.9038 14.9814 15.9167 14.9259 15.916C14.8375 15.918 14.75 15.8943 14.67 15.8467C14.5987 15.7958 14.5445 15.7133 14.5177 15.6149L14.1436 14.2664H12.2143L11.83 15.6149C11.8048 15.7116 11.7534 15.7937 11.685 15.8467C11.6037 15.8964 11.5142 15.9202 11.424 15.916C11.3668 15.9167 11.31 15.9039 11.2566 15.8781C11.2081 15.8545 11.1632 15.8204 11.1239 15.7774C11.0891 15.7342 11.0608 15.6831 11.0405 15.6269C11.0203 15.5632 11.0102 15.4951 11.0108 15.4265C11.0122 15.3887 11.0156 15.351 11.0209 15.3138C11.0268 15.2691 11.035 15.225 11.0456 15.1817C11.0665 15.0986 11.0907 15.0169 11.1181 14.9369L12.6065 9.97518ZM13.1974 10.6651L12.3948 13.5284H13.9703L13.1974 10.6651Z" fill="#BCBEC3"/>
<path d="M17.0466 10.2504C17.0316 10.1469 17.0364 10.0402 17.0607 9.93955C17.0849 9.83886 17.1278 9.74709 17.1858 9.67204C17.2438 9.59699 17.3151 9.54086 17.3938 9.50841C17.4724 9.47597 17.556 9.46817 17.6375 9.48567C17.731 9.48626 17.8228 9.51812 17.9036 9.57804C17.9874 9.64172 18.0582 9.72969 18.1102 9.83481L20.2664 14.1685V10.099C20.2566 9.93229 20.2971 9.76714 20.3796 9.63714C20.4687 9.53991 20.5823 9.48647 20.6996 9.48647C20.817 9.48647 20.9306 9.53991 21.0197 9.63714C21.0628 9.70002 21.0955 9.77333 21.1158 9.85269C21.1361 9.93205 21.1437 10.0158 21.1379 10.099V15.1411C21.147 15.3521 21.102 15.5612 21.0096 15.7368C20.9563 15.8105 20.8903 15.8675 20.8169 15.9033C20.7435 15.9392 20.6645 15.953 20.5862 15.9437C20.5178 15.9457 20.4497 15.9329 20.3846 15.9058C20.3281 15.8838 20.2749 15.8497 20.2273 15.8051C20.1817 15.7639 20.1402 15.7155 20.104 15.6611C20.0684 15.6052 20.0355 15.5466 20.0054 15.4856L17.9232 11.271V15.347C17.9323 15.5105 17.8919 15.6722 17.8101 15.7987C17.7677 15.8499 17.7173 15.8891 17.6622 15.9139C17.6071 15.9388 17.5486 15.9486 17.4904 15.9428C17.4322 15.9473 17.3739 15.9368 17.319 15.9121C17.2641 15.8873 17.2136 15.8488 17.1706 15.7987C17.1285 15.737 17.0964 15.6654 17.0761 15.5879C17.0559 15.5104 17.0478 15.4285 17.0524 15.347V10.255L17.0466 10.2504Z" fill="#BCBEC3"/>
<path d="M25.5981 12.3582C25.8073 12.4237 26.0081 12.5273 26.1941 12.6658C26.3399 12.7772 26.4698 12.9193 26.5783 13.086C26.6723 13.2359 26.7409 13.4088 26.7799 13.594C26.8207 13.7819 26.839 13.9765 26.8343 14.1713C26.8313 14.4369 26.7772 14.6976 26.6769 14.9305C26.5763 15.1646 26.435 15.3662 26.2637 15.5198C26.0667 15.695 25.8452 15.8204 25.6112 15.8892C25.3314 15.9779 25.0429 16.0137 24.7549 15.9955C24.5475 15.9907 24.341 15.957 24.1394 15.8948C23.9721 15.8446 23.8102 15.769 23.6572 15.6694C23.5257 15.5841 23.4037 15.4766 23.2947 15.3498C23.1973 15.2357 23.1129 15.1048 23.0439 14.961C22.9786 14.8293 22.9258 14.6882 22.8865 14.5408C22.8535 14.4012 22.8293 14.2585 22.814 14.114C22.8088 14.0424 22.8137 13.9701 22.8285 13.9007C22.8424 13.8334 22.8671 13.7705 22.901 13.7159C22.9345 13.6657 22.9744 13.6233 23.0192 13.5903C23.0664 13.5585 23.1182 13.5394 23.1715 13.534C23.2246 13.5326 23.2776 13.541 23.3288 13.5589C23.378 13.5757 23.4246 13.6032 23.4665 13.6402C23.511 13.6794 23.548 13.7308 23.5746 13.7908C23.6076 13.8576 23.6293 13.9325 23.6384 14.0106C23.6577 14.1545 23.6978 14.2926 23.7565 14.4179C23.8174 14.5436 23.8958 14.6541 23.9878 14.744C24.0925 14.8406 24.2088 14.9148 24.3322 14.9638C24.4804 15.0228 24.6345 15.0539 24.7897 15.0561C24.9356 15.0637 25.0816 15.0488 25.2247 15.0118C25.3509 14.9788 25.4729 14.9238 25.5872 14.8483C25.6811 14.7828 25.7633 14.6931 25.8287 14.5851C25.8885 14.4838 25.9212 14.3608 25.9222 14.2341C25.9272 14.1357 25.9163 14.037 25.8901 13.9442C25.8639 13.8514 25.823 13.7665 25.7699 13.6947C25.6358 13.5334 25.4712 13.4188 25.2921 13.3622C25.0855 13.2874 24.8789 13.2116 24.6722 13.1304C24.4656 13.0491 24.259 12.9733 24.0524 12.8921C23.8554 12.822 23.6679 12.7142 23.4963 12.5725C23.3657 12.4673 23.2508 12.3335 23.157 12.1772C23.0778 12.045 23.0208 11.8934 22.9895 11.732C22.9592 11.5762 22.946 11.4158 22.9503 11.2554C22.9535 11.0483 22.9816 10.843 23.0337 10.6467C23.0806 10.4809 23.1471 10.3251 23.2309 10.1849C23.3147 10.0529 23.4143 9.93849 23.526 9.84593C23.6392 9.75234 23.7609 9.67667 23.8885 9.62057C24.0235 9.56337 24.1616 9.51921 24.3018 9.48849C24.4482 9.45669 24.5962 9.43786 24.7448 9.43214C24.8748 9.42738 25.0049 9.43789 25.1334 9.46355C25.265 9.48847 25.3949 9.52615 25.522 9.57624C25.6492 9.63227 25.7726 9.70146 25.891 9.78313C26.0083 9.86921 26.1173 9.97242 26.2158 10.0907C26.3155 10.2132 26.4016 10.3524 26.4718 10.5045C26.5476 10.6658 26.6025 10.8417 26.6342 11.0254C26.6481 11.0952 26.6498 11.168 26.6392 11.2388C26.6254 11.3061 26.6007 11.369 26.5667 11.4235C26.5307 11.4755 26.4871 11.5181 26.4384 11.5491C26.3842 11.5801 26.3252 11.5952 26.2658 11.5934C26.1643 11.6035 26.0632 11.5679 25.9802 11.4928C25.9134 11.4162 25.8634 11.3188 25.8352 11.2101C25.8008 11.0728 25.7521 10.942 25.6902 10.8213C25.6318 10.7146 25.5579 10.6231 25.4727 10.5516C25.3786 10.4791 25.2753 10.4282 25.1674 10.401C25.0345 10.368 24.8989 10.3553 24.7636 10.3632C24.5251 10.354 24.29 10.4371 24.0893 10.6015C24.0132 10.6705 23.9511 10.7618 23.9084 10.8677C23.8656 10.9736 23.8434 11.091 23.8436 11.2101C23.835 11.3285 23.8608 11.4468 23.9161 11.5426C23.9697 11.6371 24.0384 11.7161 24.1176 11.7745C24.2035 11.838 24.2941 11.8906 24.388 11.9315C24.4866 11.9758 24.5853 12.0128 24.6781 12.0442L25.5981 12.3582Z" fill="#BCBEC3"/>
<path d="M29.447 15.3174C29.4461 15.3935 29.4378 15.4692 29.4224 15.5428C29.4093 15.6132 29.3846 15.6793 29.3499 15.7367C29.3137 15.7938 29.2685 15.8407 29.2173 15.8743C29.0878 15.9413 28.9429 15.9413 28.8134 15.8743C28.7612 15.8426 28.7157 15.7954 28.6807 15.7367C28.6461 15.6793 28.6213 15.6132 28.6082 15.5428C28.5928 15.4692 28.5845 15.3935 28.5836 15.3174V10.121C28.5825 10.0476 28.5941 9.97476 28.6176 9.9077C28.6624 9.77549 28.7452 9.67009 28.8489 9.61306C28.9015 9.58276 28.9587 9.56762 29.0164 9.56872H31.6352C31.6851 9.56815 31.7345 9.58106 31.7802 9.60659C31.8244 9.63245 31.8644 9.66845 31.8984 9.7128C31.9319 9.75624 31.9587 9.80732 31.9774 9.86336C31.9968 9.92085 32.0067 9.98275 32.0067 10.0453C32.0067 10.1079 31.9968 10.1698 31.9774 10.2273C31.9592 10.2837 31.9324 10.3349 31.8985 10.378C31.8647 10.4211 31.8244 10.4553 31.7802 10.4785C31.7345 10.504 31.6851 10.5169 31.6352 10.5164H29.4493V12.153H31.3096C31.3595 12.1525 31.409 12.1654 31.4547 12.1909C31.4988 12.2168 31.5389 12.2528 31.5728 12.2971C31.6063 12.3406 31.6331 12.3917 31.6518 12.4477C31.6712 12.5052 31.6812 12.5671 31.6812 12.6296C31.6812 12.6922 31.6712 12.7541 31.6518 12.8116C31.6331 12.8676 31.6063 12.9187 31.5728 12.9621C31.5389 13.0065 31.4988 13.0425 31.4547 13.0684C31.409 13.0939 31.3595 13.1068 31.3096 13.1062H29.4493L29.447 15.3174Z" fill="#BCBEC3"/>
<path d="M34.4282 13.1099V14.9156H36.8207C36.8706 14.915 36.9201 14.928 36.9658 14.9535C37.01 14.9767 37.0502 15.0109 37.0841 15.054C37.1179 15.0971 37.1448 15.1483 37.163 15.2047C37.1823 15.2622 37.1923 15.3241 37.1923 15.3867C37.1923 15.4492 37.1823 15.5111 37.163 15.5686C37.1448 15.625 37.1179 15.6762 37.0841 15.7194C37.0502 15.7625 37.01 15.7966 36.9658 15.8199C36.9201 15.8454 36.8706 15.8583 36.8207 15.8577H33.9932C33.9355 15.8588 33.8783 15.8437 33.8257 15.8134C33.7219 15.7564 33.6392 15.651 33.5944 15.5188C33.5707 15.4518 33.5588 15.3789 33.5596 15.3054V10.121C33.5588 10.0475 33.5707 9.97469 33.5944 9.90769C33.6392 9.77549 33.7219 9.67009 33.8257 9.61306C33.8783 9.58279 33.9355 9.56765 33.9932 9.56872H36.8207C36.8706 9.56815 36.9201 9.58105 36.9658 9.60659C37.0099 9.63248 37.05 9.66848 37.084 9.7128C37.1175 9.75621 37.1443 9.80729 37.163 9.86336C37.1823 9.92085 37.1923 9.98275 37.1923 10.0453C37.1923 10.1079 37.1823 10.1698 37.163 10.2273C37.1448 10.2837 37.1179 10.3349 37.0841 10.378C37.0502 10.4211 37.01 10.4553 36.9658 10.4785C36.9201 10.504 36.8706 10.5169 36.8207 10.5164H34.4282V12.153H36.6185C36.6684 12.1525 36.7178 12.1654 36.7635 12.1909C36.8077 12.2168 36.8477 12.2528 36.8817 12.2971C36.9152 12.3406 36.942 12.3916 36.9607 12.4477C36.9801 12.5052 36.99 12.5671 36.99 12.6296C36.99 12.6922 36.9801 12.7541 36.9607 12.8116C36.942 12.8676 36.9152 12.9187 36.8817 12.9621C36.8477 13.0065 36.8077 13.0425 36.7635 13.0684C36.7178 13.0939 36.6684 13.1068 36.6185 13.1062H34.4282V13.1099Z" fill="#BCBEC3"/>
<path d="M42.0385 12.8476C42.1443 12.8619 42.2457 12.9092 42.3337 12.9853C42.4183 13.0608 42.4889 13.1592 42.5403 13.2734C42.5997 13.4079 42.6413 13.554 42.6635 13.7057C42.6937 13.8914 42.7102 14.0804 42.7128 14.27C42.7165 14.3877 42.7265 14.505 42.7425 14.621C42.757 14.7217 42.7766 14.815 42.7918 14.9036C42.8071 14.9923 42.8266 15.0671 42.8411 15.129C42.8546 15.1944 42.8612 15.2618 42.8607 15.3294C42.8609 15.4083 42.8508 15.4866 42.831 15.5613C42.8108 15.6279 42.7827 15.6902 42.7476 15.746C42.7116 15.798 42.668 15.8406 42.6193 15.8716C42.5687 15.9025 42.513 15.9177 42.4569 15.9159C42.3797 15.9174 42.303 15.9005 42.2307 15.8661C42.1726 15.8369 42.1193 15.7943 42.0734 15.7405C42.0309 15.6918 41.9973 15.6319 41.9748 15.565C41.9502 15.5035 41.9319 15.4384 41.9204 15.371C41.9076 15.3106 41.8994 15.2487 41.8957 15.1863C41.892 15.1362 41.8903 15.086 41.8907 15.0357C41.8925 14.7905 41.8809 14.5455 41.8559 14.3024C41.84 14.1108 41.8 13.9237 41.7377 13.7482C41.6887 13.6072 41.6105 13.4858 41.5115 13.3972C41.4013 13.3086 41.2726 13.2648 41.1424 13.2716H39.6989V15.3285C39.6991 15.4034 39.689 15.4778 39.6692 15.5483C39.6491 15.6165 39.6191 15.6791 39.5808 15.7331C39.5414 15.7873 39.4948 15.832 39.443 15.8651C39.386 15.8979 39.3242 15.9148 39.2617 15.9148C39.1993 15.9148 39.1375 15.8979 39.0805 15.8651C39.0277 15.8342 38.9807 15.7892 38.9427 15.7331C38.905 15.6797 38.8766 15.6167 38.8594 15.5483C38.8395 15.4778 38.8295 15.4034 38.8296 15.3285V10.1155C38.8288 10.042 38.8407 9.96919 38.8644 9.90218C38.9092 9.76998 38.9919 9.66458 39.0957 9.60755C39.1483 9.57725 39.2055 9.56211 39.2632 9.56321H41.2077C41.4376 9.55791 41.6668 9.5981 41.887 9.68235C42.0702 9.74939 42.2411 9.86245 42.3895 10.0149C42.5267 10.1602 42.6348 10.3451 42.7048 10.5543C42.7802 10.7846 42.817 11.0326 42.8129 11.2821C42.8123 11.4422 42.7992 11.6019 42.7737 11.7587C42.7463 11.9102 42.7016 12.0559 42.641 12.1909C42.5782 12.3293 42.4984 12.4541 42.4047 12.5604C42.2928 12.6757 42.1697 12.7722 42.0385 12.8476ZM40.9061 12.3526C41.035 12.354 41.1637 12.3391 41.2903 12.3082C41.4063 12.2828 41.518 12.2319 41.6202 12.1577C41.7153 12.0876 41.7936 11.9857 41.8464 11.8631C41.9073 11.7189 41.9361 11.5564 41.9298 11.3929C41.9311 11.2714 41.9162 11.1506 41.8856 11.0355C41.8583 10.9301 41.811 10.8349 41.7478 10.7584C41.679 10.677 41.5964 10.6169 41.5064 10.5829C41.3952 10.5375 41.2788 10.5162 41.162 10.5201H39.6989V12.3516L40.9061 12.3526Z" fill="#BCBEC3"/>
<path d="M69.4207 13.1753H70.7367C70.7367 13.1753 70.7722 15.5037 73.8406 15.5037C76.909 15.5037 80.615 13.1753 80.615 13.1753H82.6547C82.6547 13.1753 77.6176 16.9999 73.1072 16.9999C69.1227 16.9999 69.4216 13.9234 69.4216 13.6683C69.4216 13.4132 69.4207 13.1753 69.4207 13.1753Z" fill="#BCBEC3"/>
<path d="M73.9314 6.25701H74.6506C75.9282 5.03161 77.3616 3.96864 78.9162 3.09372C81.4259 1.68256 83.4443 1.0195 85.3226 1.0195C87.2008 1.0195 88.5692 2.19274 88.3768 3.80746C88.3028 4.66078 88.0585 5.49209 87.6576 6.25529H89.1651C89.7068 5.29791 90.0187 4.23459 90.0777 3.14439C90.0777 1.58036 89.1651 0 86.5677 0C83.9702 0 81.2671 1.07104 78.6874 2.58354C76.9674 3.63493 75.3724 4.86687 73.9314 6.25701Z" fill="#BCBEC3"/>
<path d="M72.9303 7.51526H71.0352V12.7167H72.9303V7.51526Z" fill="#BCBEC3"/>
<path d="M58.9772 7.44571V5.9856H54.8003V12.7167H58.9772V11.2566H56.6786V9.96827H58.767V8.50815H56.6786V7.44571H58.9772Z" fill="#BCBEC3"/>
<path d="M67.876 8.90924L65.6997 11.68V12.7167H70.1577V11.3227H67.9292L70.0176 8.67132V7.51526H65.8407V8.90924H67.876Z" fill="#BCBEC3"/>
<path d="M65.0329 9.62296C65.0378 9.32119 64.978 9.02172 64.8572 8.7435C64.7365 8.46529 64.5574 8.21438 64.3313 8.00666C64.1053 7.79893 63.8371 7.63892 63.5439 7.53674C63.2507 7.43455 62.9388 7.39243 62.6279 7.41303C62.2912 7.3752 61.95 7.40388 61.625 7.49733C61.3 7.59078 60.998 7.74708 60.7372 7.95677C60.4763 8.16645 60.2621 8.42518 60.1074 8.71731C59.9527 9.00945 59.8607 9.32893 59.8371 9.65645C59.7505 10.136 59.7904 10.629 59.953 11.0896C60.1156 11.5503 60.3957 11.9637 60.7673 12.2915C61.4535 12.6901 62.252 12.8687 63.0491 12.8017C63.6036 12.7959 64.1494 12.6682 64.6454 12.4281V11.1191C64.1353 11.3741 63.5699 11.5081 62.9959 11.5099C61.6967 11.5099 61.6799 10.6261 61.6799 10.6261L65.0143 10.609C65.0378 10.2808 65.044 9.95172 65.0329 9.62296ZM63.3835 9.48725H61.734V9.43658C61.734 9.22473 61.8209 9.02156 61.9755 8.87176C62.1302 8.72196 62.34 8.63781 62.5587 8.63781C62.7775 8.63781 62.9872 8.72196 63.1419 8.87176C63.2966 9.02156 63.3835 9.22473 63.3835 9.43658V9.48725Z" fill="#BCBEC3"/>
<path d="M79.2144 9.62296C79.2193 9.32127 79.1595 9.02187 79.0388 8.74372C78.9181 8.46556 78.7391 8.2147 78.5131 8.00699C78.2871 7.79928 78.0191 7.63924 77.726 7.53701C77.4329 7.43477 77.1211 7.39255 76.8102 7.41303C76.4735 7.3752 76.1323 7.40388 75.8074 7.49733C75.4824 7.59078 75.1804 7.74708 74.9195 7.95677C74.6587 8.16645 74.4444 8.42518 74.2897 8.71731C74.135 9.00945 74.0431 9.32893 74.0194 9.65645C73.9315 10.1385 73.9706 10.6343 74.1333 11.0978C74.2959 11.5613 74.5767 11.9775 74.9497 12.3078C75.6358 12.7065 76.4344 12.885 77.2315 12.818C77.7859 12.8123 78.3318 12.6845 78.8278 12.4444V11.1355C78.3177 11.3905 77.7523 11.5244 77.1783 11.5263C75.8791 11.5263 75.8622 10.6425 75.8622 10.6425L79.1967 10.6253C79.2144 10.5909 79.2144 10.2182 79.2144 9.62296ZM77.5649 9.48725H75.9154V9.43658C75.9154 9.22473 76.0023 9.02156 76.157 8.87176C76.3117 8.72196 76.5214 8.63781 76.7402 8.63781C76.9589 8.63781 77.1687 8.72196 77.3234 8.87176C77.478 9.02156 77.5649 9.22473 77.5649 9.43658V9.48725Z" fill="#BCBEC3"/>
<path d="M73.0179 6.2063C73.0068 6.32634 72.9709 6.443 72.9125 6.54941C72.8541 6.65582 72.7742 6.74983 72.6777 6.82587C72.5812 6.90192 72.4699 6.95848 72.3504 6.9922C72.2309 7.02593 72.1057 7.03614 71.9821 7.02224C71.403 7.02224 70.9463 6.6993 70.9463 6.2063C70.9463 5.73047 71.403 5.40753 71.9821 5.40753C72.5612 5.40753 73.0179 5.73047 73.0179 6.2063Z" fill="#BCBEC3"/>
<path d="M91.834 7.49805H93.7646L94.8172 10.9147L95.8699 7.49805H97.8005C97.8005 7.49805 95.8876 12.5122 95.5542 13.3454C95.3975 13.7772 95.1186 14.1576 94.7493 14.4431C94.38 14.7286 93.9352 14.9078 93.4657 14.9601H92.3253V13.4648C92.4838 13.5147 92.65 13.5377 92.8166 13.5326C92.98 13.5548 93.1465 13.5332 93.2982 13.4702C93.4498 13.4072 93.5808 13.3052 93.6768 13.1753C93.8012 13.0081 93.9015 12.8252 93.9748 12.6316L91.834 7.49805Z" fill="#BCBEC3"/>
<path d="M89.1325 7.39587C88.2942 7.37021 87.4605 7.52694 86.6929 7.85451L87.1842 9.04407C87.6577 8.84678 88.1612 8.72524 88.6749 8.6842C88.7697 8.67725 88.8649 8.69078 88.9536 8.72382C89.0423 8.75686 89.1223 8.80859 89.1878 8.87525C89.2533 8.94192 89.3027 9.02185 89.3324 9.10928C89.3621 9.19671 89.3714 9.28944 89.3596 9.38076H88.447C87.7867 9.35472 87.1388 9.55992 86.622 9.95879C86.4399 10.1323 86.2998 10.3428 86.2118 10.5751C86.1238 10.8074 86.09 11.0557 86.1129 11.3021C86.1053 11.5192 86.1472 11.7352 86.2355 11.9348C86.3238 12.1345 86.4565 12.3128 86.624 12.4572C86.7915 12.6016 86.9898 12.7084 87.2048 12.7702C87.4198 12.832 87.6462 12.8471 87.8679 12.8146C88.1899 12.8215 88.5089 12.7542 88.7988 12.6183C89.0886 12.4824 89.341 12.2818 89.5352 12.033L89.9041 12.7296H91.2556V9.50015C91.2848 9.22098 91.2503 8.93901 91.1546 8.67416C91.059 8.4093 90.9045 8.16801 90.702 7.96733C90.4995 7.76664 90.254 7.61144 89.9828 7.5127C89.7116 7.41396 89.4214 7.37407 89.1325 7.39587ZM89.3782 10.8314C89.3519 11.0175 89.2611 11.1894 89.1208 11.3191C88.9805 11.4487 88.7989 11.5284 88.6058 11.5452C88.5328 11.5629 88.4566 11.5637 88.3833 11.5477C88.31 11.5317 88.2415 11.4993 88.1835 11.453C88.1254 11.4067 88.0794 11.3479 88.0491 11.2813C88.0188 11.2146 88.005 11.1421 88.0089 11.0693C88.0227 10.8966 88.1022 10.7349 88.2319 10.6156C88.3616 10.4963 88.5325 10.4278 88.7113 10.4235H89.3605C89.3744 10.559 89.3797 10.6952 89.3764 10.8314H89.3782Z" fill="#BCBEC3"/>
<path d="M82.8122 5.96838H80.3726V12.7167C80.3726 12.7167 82.2349 12.751 82.2349 12.7167V10.5068H82.9896C83.3077 10.5262 83.6265 10.4812 83.9257 10.3748C84.225 10.2683 84.498 10.1027 84.7275 9.88841C84.957 9.67414 85.1379 9.41594 85.2587 9.13024C85.3795 8.84454 85.4376 8.5376 85.4292 8.22898C85.4274 6.342 84.1282 5.96838 82.8122 5.96838ZM82.6348 9.01143H82.2349V7.46543H82.884C83.1651 7.46543 83.5332 7.61831 83.5332 8.24702C83.5315 8.35597 83.5064 8.46339 83.4593 8.56236C83.4122 8.66133 83.3443 8.74965 83.2598 8.82165C83.1754 8.89365 83.0763 8.94774 82.9689 8.98042C82.8616 9.01311 82.7484 9.02367 82.6366 9.01143H82.6348Z" fill="#BCBEC3"/>
<path d="M109.863 12.5L111.07 5.22727H115.729L115.545 6.33168H112.203L111.876 8.30611H114.899L114.714 9.41051H111.692L111.18 12.5H109.863ZM115.748 12.5H114.342L118.11 5.22727H119.736L121.093 12.5H119.686L118.71 6.71875H118.653L115.748 12.5ZM116.267 9.64844H120.102L119.924 10.7067H116.089L116.267 9.64844ZM126.752 7.26207C126.762 6.933 126.661 6.68087 126.45 6.50568C126.242 6.33049 125.943 6.2429 125.552 6.2429C125.277 6.2429 125.035 6.28433 124.824 6.36719C124.616 6.44768 124.448 6.56013 124.32 6.70455C124.192 6.84659 124.113 7.00876 124.082 7.19105C124.056 7.3402 124.069 7.47041 124.121 7.58168C124.173 7.69294 124.252 7.78764 124.359 7.86577C124.468 7.94389 124.591 8.009 124.728 8.06108C124.868 8.11316 125.01 8.15696 125.154 8.19247L125.808 8.36293C126.068 8.42685 126.317 8.51326 126.553 8.62216C126.79 8.72869 126.995 8.866 127.168 9.03409C127.343 9.19981 127.471 9.39986 127.551 9.63423C127.632 9.86861 127.645 10.1432 127.59 10.4581C127.519 10.8842 127.348 11.2595 127.075 11.5838C126.805 11.9058 126.45 12.1579 126.01 12.3402C125.572 12.5201 125.062 12.6101 124.479 12.6101C123.916 12.6101 123.44 12.5225 123.052 12.3473C122.664 12.1697 122.38 11.9129 122.2 11.5767C122.022 11.2405 121.965 10.8321 122.029 10.3516H123.325C123.299 10.6049 123.341 10.8156 123.45 10.9837C123.561 11.1518 123.721 11.2772 123.929 11.3601C124.137 11.4429 124.379 11.4844 124.653 11.4844C124.94 11.4844 125.199 11.4418 125.431 11.3565C125.663 11.2689 125.853 11.1482 125.999 10.9943C126.149 10.8381 126.24 10.6558 126.273 10.4474C126.306 10.2604 126.279 10.1042 126.191 9.97869C126.104 9.85322 125.967 9.74905 125.783 9.66619C125.6 9.58097 125.383 9.50521 125.129 9.43892L124.341 9.22585C123.77 9.0696 123.337 8.83523 123.041 8.52273C122.748 8.21023 122.644 7.79356 122.729 7.27273C122.8 6.84186 122.979 6.46662 123.265 6.14702C123.551 5.82505 123.91 5.57528 124.341 5.39773C124.772 5.2178 125.243 5.12784 125.754 5.12784C126.27 5.12784 126.707 5.2178 127.065 5.39773C127.425 5.57765 127.687 5.8286 127.853 6.15057C128.021 6.47017 128.077 6.84067 128.02 7.26207H126.752ZM129.131 6.33168L129.315 5.22727H135.118L134.933 6.33168H132.685L131.663 12.5H130.356L131.378 6.33168H129.131ZM137.509 12.5L138.717 5.22727H141.444C142.003 5.22727 142.455 5.33144 142.801 5.53977C143.146 5.74574 143.387 6.03101 143.522 6.3956C143.657 6.75781 143.685 7.17093 143.607 7.63494C143.531 8.10133 143.364 8.51562 143.106 8.87784C142.85 9.24006 142.513 9.52533 142.094 9.73366C141.675 9.93963 141.185 10.0426 140.624 10.0426H138.816L138.997 8.95952H140.627C140.954 8.95952 141.231 8.9027 141.458 8.78906C141.688 8.67543 141.869 8.51918 142.002 8.32031C142.134 8.12145 142.222 7.89299 142.264 7.63494C142.305 7.37689 142.292 7.14962 142.225 6.95312C142.159 6.75663 142.03 6.60393 141.838 6.49503C141.649 6.38376 141.39 6.32812 141.061 6.32812H139.853L138.827 12.5H137.509ZM144.059 12.5H142.652L146.42 5.22727H148.047L149.403 12.5H147.997L147.02 6.71875H146.964L144.059 12.5ZM144.577 9.64844H148.412L148.235 10.7067H144.4L144.577 9.64844ZM150.329 5.22727H151.817L153.063 8.4446H153.142L155.446 5.22727H156.934L153.532 9.78693L153.081 12.5H151.767L152.218 9.78693L150.329 5.22727Z" fill="#BBBBBB"/>
<path d="M168.528 12.5L168.67 11.6797L173.283 6.33168H169.529L169.714 5.22727H175.098L174.966 6.04759L170.343 11.3956H174.096L173.912 12.5H168.528ZM176.12 12.5H174.714L178.482 5.22727H180.108L181.465 12.5H180.059L179.082 6.71875H179.025L176.12 12.5ZM176.639 9.64844H180.474L180.296 10.7067H176.461L176.639 9.64844ZM182.423 12.5L183.63 5.22727H184.948L183.925 11.3956H187.128L186.943 12.5H182.423ZM194.892 8.94886C194.764 9.72064 194.512 10.3788 194.135 10.9233C193.761 11.4654 193.304 11.8809 192.764 12.1697C192.227 12.4562 191.648 12.5994 191.028 12.5994C190.377 12.5994 189.818 12.4479 189.352 12.1449C188.885 11.8395 188.549 11.4027 188.343 10.8345C188.14 10.2663 188.104 9.58452 188.237 8.78906C188.365 8.01965 188.616 7.36151 188.99 6.81463C189.364 6.26776 189.822 5.84991 190.364 5.56108C190.906 5.27225 191.491 5.12784 192.118 5.12784C192.764 5.12784 193.318 5.28054 193.78 5.58594C194.244 5.88897 194.578 6.32576 194.782 6.89631C194.988 7.46686 195.024 8.15104 194.892 8.94886ZM193.595 8.78906C193.683 8.25166 193.675 7.7983 193.571 7.42898C193.469 7.05966 193.288 6.78149 193.027 6.59446C192.767 6.40507 192.446 6.31037 192.065 6.31037C191.653 6.31037 191.272 6.41335 190.921 6.61932C190.573 6.82292 190.278 7.12121 190.034 7.5142C189.792 7.9072 189.626 8.38542 189.537 8.94886C189.442 9.48864 189.448 9.942 189.554 10.3089C189.661 10.6759 189.845 10.9529 190.108 11.1399C190.371 11.3246 190.692 11.4169 191.071 11.4169C191.48 11.4169 191.859 11.3151 192.207 11.1115C192.555 10.9079 192.85 10.6108 193.091 10.2202C193.335 9.82955 193.503 9.35251 193.595 8.78906ZM198.028 12.5L199.236 5.22727H201.963C202.522 5.22727 202.974 5.33144 203.319 5.53977C203.665 5.74574 203.905 6.03101 204.04 6.3956C204.175 6.75781 204.204 7.17093 204.125 7.63494C204.05 8.10133 203.883 8.51562 203.625 8.87784C203.369 9.24006 203.032 9.52533 202.613 9.73366C202.194 9.93963 201.704 10.0426 201.143 10.0426H199.335L199.516 8.95952H201.146C201.473 8.95952 201.75 8.9027 201.977 8.78906C202.207 8.67543 202.388 8.51918 202.52 8.32031C202.653 8.12145 202.741 7.89299 202.783 7.63494C202.823 7.37689 202.81 7.14962 202.744 6.95312C202.678 6.75663 202.549 6.60393 202.357 6.49503C202.168 6.38376 201.908 6.32812 201.579 6.32812H200.372L199.346 12.5H198.028ZM204.577 12.5H203.171L206.939 5.22727H208.565L209.922 12.5H208.516L207.539 6.71875H207.482L204.577 12.5ZM205.096 9.64844H208.931L208.753 10.7067H204.918L205.096 9.64844ZM210.848 5.22727H212.336L213.582 8.4446H213.66L215.965 5.22727H217.453L214.051 9.78693L213.6 12.5H212.286L212.737 9.78693L210.848 5.22727Z" fill="#BBBBBB"/>
<path d="M231.155 1.99915V6.9964H236.046V5.99731H237.023V6.9964H238V4.99731H236.046V1.99915H231.155ZM235.069 5.99731H232.138V2.99823H235.07L235.069 5.99731Z" fill="#BCBEC3"/>
<path d="M233.114 3.99823H234.092V4.99823H233.114V3.99823Z" fill="#BCBEC3"/>
<path d="M233.114 11.9982H234.092V12.9982H233.114V11.9982Z" fill="#BCBEC3"/>
<path d="M240.936 3.99823H241.913V4.99823H240.936V3.99823Z" fill="#BCBEC3"/>
<path d="M238.982 9.56809V12.4959H239.959V9.99914H240.936V6.9964H241.914V8.99549H242.891V6.9964H243.868V1.99915H238.981V2.99823H238.004V1.99915H237.027V3.99823H238.982V6.9964H239.959V9.56809H238.982ZM239.959 2.99915H242.891V5.99731H239.959V2.99915Z" fill="#BCBEC3"/>
<path d="M238.001 10.4976V7.99719H236.046V8.99719H237.023V10.4986L238.001 10.4976Z" fill="#BCBEC3"/>
<path d="M242.892 13.9982H243.87V14.9982H242.892V13.9982Z" fill="#BCBEC3"/>
<path d="M243.382 9.99908H242.405V10.9991H240.937V13.9972H239.959V14.9972H241.914V11.9991H243.382V9.99908Z" fill="#BCBEC3"/>
<path d="M237.514 13.9982H238.982V14.9982H237.514V13.9982Z" fill="#BCBEC3"/>
<path d="M238.001 12.9972V11.9981H236.046V9.99903H233.114V8.99903H234.582V7.99994H232.138V9.99903H231.155V14.9999H236.046V13.0009H238.001V12.9972ZM235.069 13.9963H232.138V10.9981H235.07L235.069 13.9963Z" fill="#BCBEC3"/>
<path d="M244.028 0H241.7C241.571 0 241.447 0.052486 241.355 0.145912C241.264 0.239337 241.213 0.366049 241.213 0.498173C241.213 0.630297 241.264 0.757009 241.355 0.850435C241.447 0.94386 241.571 0.996346 241.7 0.996346H244.028C244.246 0.996828 244.455 1.08547 244.609 1.24291C244.763 1.40034 244.85 1.61376 244.851 1.83653V4.21735C244.851 4.34947 244.902 4.47618 244.993 4.56961C245.085 4.66304 245.209 4.71552 245.338 4.71552C245.467 4.71552 245.591 4.66304 245.682 4.56961C245.774 4.47618 245.825 4.34947 245.825 4.21735V1.83653C245.825 1.34937 245.635 0.882241 245.298 0.537851C244.961 0.193461 244.505 -6.0171e-08 244.028 0Z" fill="#BCBEC3"/>
<path d="M229.687 4.71142C229.816 4.71142 229.94 4.65898 230.031 4.56564C230.122 4.4723 230.174 4.34571 230.174 4.2137V1.83927C230.174 1.61667 230.261 1.40338 230.415 1.24597C230.569 1.08857 230.777 0.999815 230.995 0.999093H233.323C233.453 0.999093 233.577 0.946607 233.668 0.853181C233.759 0.759756 233.811 0.633044 233.811 0.50092C233.811 0.368796 233.759 0.242084 233.668 0.148658C233.577 0.0552326 233.453 0.00274658 233.323 0.00274658H230.996C230.52 0.00298743 230.064 0.19618 229.727 0.539951C229.391 0.883723 229.201 1.35001 229.2 1.83654V4.21736C229.201 4.3488 229.252 4.4746 229.344 4.5672C229.435 4.6598 229.558 4.71166 229.687 4.71142Z" fill="#BCBEC3"/>
<path d="M233.324 16.0028H230.996C230.778 16.002 230.57 15.9132 230.416 15.7556C230.262 15.5979 230.175 15.3844 230.174 15.1617V12.7808C230.174 12.6487 230.123 12.522 230.032 12.4286C229.94 12.3352 229.816 12.2827 229.687 12.2827C229.558 12.2827 229.434 12.3352 229.343 12.4286C229.251 12.522 229.2 12.6487 229.2 12.7808V15.1617C229.2 15.6487 229.39 16.1157 229.726 16.46C230.063 16.8044 230.52 16.9979 230.996 16.9982H233.324C233.454 16.9982 233.577 16.9457 233.669 16.8523C233.76 16.7589 233.812 16.6321 233.812 16.5C233.812 16.3679 233.76 16.2412 233.669 16.1478C233.577 16.0543 233.454 16.0018 233.324 16.0018V16.0028Z" fill="#BCBEC3"/>
<path d="M245.338 12.284C245.208 12.284 245.085 12.3364 244.993 12.4298C244.902 12.5231 244.851 12.6497 244.851 12.7817V15.1625C244.85 15.3854 244.763 15.5991 244.609 15.7567C244.455 15.9144 244.246 16.0031 244.028 16.0036H241.7C241.571 16.0036 241.447 16.0561 241.355 16.1495C241.264 16.243 241.213 16.3697 241.213 16.5018C241.213 16.6339 241.264 16.7606 241.355 16.854C241.447 16.9475 241.571 17 241.7 17H244.028C244.505 16.9997 244.961 16.8061 245.298 16.4618C245.635 16.1174 245.824 15.6504 245.824 15.1634V12.7826C245.824 12.7172 245.812 12.6524 245.787 12.5919C245.763 12.5314 245.727 12.4764 245.682 12.4301C245.637 12.3838 245.583 12.347 245.524 12.322C245.465 12.2969 245.402 12.284 245.338 12.284Z" fill="#BCBEC3"/>
<path d="M229.235 8.49772C229.235 8.62972 229.287 8.75631 229.378 8.84965C229.469 8.94299 229.593 8.99543 229.722 8.99543H245.311C245.44 8.99543 245.564 8.94295 245.655 8.84952C245.747 8.7561 245.798 8.62938 245.798 8.49726C245.798 8.36514 245.747 8.23842 245.655 8.145C245.564 8.05157 245.44 7.99908 245.311 7.99908H229.722C229.658 7.99908 229.595 8.01199 229.535 8.03706C229.476 8.06213 229.423 8.09886 229.377 8.14518C229.332 8.19149 229.296 8.24647 229.272 8.30696C229.248 8.36745 229.235 8.43228 229.235 8.49772Z" fill="#BCBEC3"/>
<path d="M248.747 8.33791C248.792 8.07461 248.863 7.81646 248.957 7.56713C249.05 7.31865 249.168 7.08058 249.309 6.85663C249.449 6.63384 249.613 6.42744 249.797 6.24111C249.983 6.05447 250.191 5.89275 250.416 5.75983C250.652 5.62283 250.903 5.51667 251.165 5.44385C251.449 5.36687 251.742 5.32879 252.036 5.3306C252.318 5.3271 252.6 5.36524 252.872 5.44385C253.103 5.51108 253.32 5.61793 253.515 5.75983C253.696 5.89048 253.851 6.05356 253.974 6.24111C254.098 6.43025 254.192 6.63791 254.253 6.85663C254.318 7.08784 254.355 7.32656 254.362 7.56713C254.37 7.82532 254.351 8.08364 254.307 8.33791C254.237 8.74235 254.106 9.13348 253.921 9.49773C253.828 9.67816 253.722 9.85071 253.602 10.0137C253.482 10.1763 253.348 10.3273 253.202 10.4648L253.648 10.9142C253.685 10.9509 253.713 10.996 253.73 11.0457C253.746 11.0944 253.751 11.1461 253.746 11.1973C253.739 11.2529 253.723 11.3069 253.699 11.3571C253.671 11.4139 253.635 11.4653 253.59 11.5087C253.547 11.5546 253.497 11.5934 253.443 11.6237C253.394 11.6506 253.341 11.6697 253.287 11.6804C253.236 11.6889 253.184 11.6861 253.134 11.6722C253.084 11.6573 253.037 11.6303 252.999 11.5936L252.413 11.0064C252.2 11.1077 251.978 11.1858 251.749 11.2393C251.501 11.2956 251.249 11.3235 250.995 11.3224C250.714 11.3268 250.434 11.2893 250.164 11.211C249.935 11.1444 249.719 11.0392 249.524 10.8995C249.346 10.7696 249.193 10.6077 249.071 10.4219C248.95 10.2343 248.856 10.0289 248.795 9.81279C248.729 9.58331 248.693 9.34596 248.687 9.10686C248.68 8.84909 248.7 8.59127 248.747 8.33791ZM249.739 8.33791C249.709 8.51169 249.693 8.68759 249.691 8.86394C249.69 9.03117 249.707 9.19803 249.74 9.36165C249.773 9.5155 249.826 9.66397 249.898 9.80275C249.969 9.93726 250.063 10.0569 250.177 10.1553C250.299 10.2584 250.439 10.3374 250.589 10.3881C250.769 10.4479 250.958 10.4766 251.147 10.4731C251.259 10.4734 251.37 10.4652 251.481 10.4484C251.585 10.4324 251.687 10.408 251.787 10.3754L251.538 10.1242C251.5 10.0898 251.472 10.0456 251.457 9.99636C251.442 9.94682 251.437 9.89446 251.443 9.84293C251.451 9.78658 251.467 9.73191 251.493 9.68129C251.521 9.62461 251.558 9.57284 251.602 9.52786C251.643 9.48149 251.692 9.44259 251.746 9.41279C251.795 9.38589 251.848 9.36738 251.902 9.358C251.954 9.3506 252.006 9.35338 252.057 9.36622C252.107 9.37961 252.152 9.40605 252.189 9.44293L252.599 9.85754C252.696 9.7558 252.783 9.64479 252.86 9.52604C252.937 9.40712 253.006 9.28259 253.065 9.15343C253.124 9.02354 253.175 8.88958 253.215 8.75252C253.256 8.61692 253.289 8.47911 253.314 8.33973C253.344 8.16535 253.36 7.98884 253.362 7.81188C253.364 7.64341 253.347 7.47522 253.313 7.31051C253.28 7.15668 253.227 7.00821 253.155 6.86941C253.082 6.73397 252.986 6.61325 252.871 6.51325C252.748 6.40817 252.606 6.32793 252.453 6.27673C252.27 6.21684 252.078 6.18815 251.886 6.19179C251.687 6.1899 251.488 6.21853 251.298 6.27673C251.123 6.33062 250.957 6.4103 250.805 6.51325C250.656 6.61303 250.522 6.73283 250.405 6.86941C250.287 7.00507 250.182 7.1529 250.094 7.31051C250.005 7.47003 249.931 7.63792 249.873 7.81188C249.813 7.98288 249.768 8.1589 249.739 8.33791Z" fill="#BCBEC3"/>
<path d="M258.718 8.46023C258.832 8.47202 258.94 8.51528 259.031 8.58535C259.116 8.65536 259.181 8.74746 259.219 8.85201C259.266 8.97893 259.29 9.11295 259.293 9.24836C259.298 9.4216 259.287 9.59494 259.261 9.76617C259.244 9.8725 259.237 9.98005 259.239 10.0876C259.239 10.179 259.247 10.2703 259.253 10.3443C259.26 10.4182 259.265 10.4904 259.271 10.5525C259.277 10.6134 259.274 10.6749 259.263 10.7351C259.25 10.8084 259.226 10.8792 259.192 10.9452C259.158 11.0078 259.115 11.0651 259.065 11.115C259.017 11.1624 258.961 11.2002 258.899 11.2264C258.838 11.2529 258.772 11.2666 258.705 11.2666C258.619 11.2693 258.534 11.2547 258.454 11.2237C258.393 11.1992 258.339 11.1604 258.296 11.1105C258.256 11.0642 258.225 11.0097 258.207 10.9506C258.189 10.8927 258.179 10.833 258.175 10.7726C258.171 10.7154 258.171 10.658 258.175 10.6009C258.181 10.5461 258.186 10.4995 258.192 10.4611C258.233 10.2401 258.259 10.0164 258.269 9.79174C258.282 9.62167 258.266 9.45068 258.224 9.2858C258.192 9.15845 258.12 9.04545 258.018 8.96434C257.9 8.88336 257.76 8.84421 257.618 8.85292H255.974L255.65 10.7324C255.637 10.8032 255.613 10.8715 255.58 10.9351C255.547 10.999 255.503 11.057 255.452 11.1068C255.399 11.1564 255.339 11.1963 255.273 11.2246C255.206 11.2549 255.133 11.2701 255.059 11.2694C254.99 11.2715 254.922 11.2562 254.859 11.2246C254.805 11.1972 254.758 11.1568 254.723 11.1068C254.688 11.0553 254.665 10.9967 254.656 10.9351C254.644 10.8681 254.644 10.7994 254.656 10.7324L255.479 5.96069C255.491 5.89108 255.516 5.82445 255.552 5.76435C255.589 5.70382 255.635 5.64933 255.687 5.6027C255.741 5.55654 255.801 5.51953 255.866 5.49311C255.929 5.46697 255.996 5.45334 256.064 5.45293H258.278C258.533 5.44819 258.788 5.48425 259.032 5.55978C259.226 5.61933 259.404 5.72476 259.551 5.86754C259.683 6.00258 259.776 6.17276 259.819 6.35887C259.867 6.5771 259.87 6.80339 259.827 7.02279C259.801 7.17141 259.76 7.31702 259.706 7.45749C259.65 7.59823 259.576 7.73086 259.487 7.85201C259.392 7.9783 259.282 8.09184 259.16 8.18991C259.025 8.29978 258.877 8.39069 258.718 8.46023ZM257.511 8.00361C257.659 8.00416 257.807 7.99132 257.952 7.96525C258.091 7.94174 258.224 7.89515 258.348 7.82735C258.468 7.76251 258.572 7.67147 258.654 7.56069C258.744 7.43384 258.803 7.28655 258.825 7.13147C258.846 7.02287 258.848 6.91116 258.831 6.80179C258.817 6.70794 258.777 6.62016 258.716 6.54882C258.649 6.47377 258.565 6.41801 258.47 6.38718C258.346 6.34603 258.216 6.32687 258.086 6.33055H256.414L256.125 8.00635H257.51L257.511 8.00361Z" fill="#BCBEC3"/>
<path d="M262.219 8.32785C262.265 8.05737 262.338 7.79239 262.437 7.53698C262.532 7.28478 262.654 7.04381 262.8 6.81826C262.942 6.59607 263.109 6.39111 263.296 6.2073C263.485 6.02255 263.695 5.86215 263.921 5.72968C264.152 5.59457 264.399 5.49051 264.655 5.42009C264.929 5.34575 265.211 5.3089 265.494 5.3105C265.711 5.30792 265.927 5.3309 266.139 5.379C266.317 5.41924 266.491 5.48053 266.655 5.56164C266.795 5.63152 266.925 5.72063 267.041 5.82648C267.14 5.91693 267.227 6.02113 267.298 6.13607C267.36 6.23409 267.406 6.34215 267.433 6.4557C267.458 6.55072 267.462 6.65005 267.446 6.74703C267.427 6.88452 267.367 7.01238 267.272 7.11232C267.223 7.15818 267.164 7.19344 267.101 7.21602C267.038 7.2386 266.971 7.24806 266.904 7.24383C266.848 7.24669 266.791 7.23753 266.738 7.21695C266.684 7.19636 266.636 7.16479 266.595 7.1242C266.557 7.08665 266.524 7.04358 266.498 6.99634C266.47 6.94764 266.442 6.8971 266.415 6.84474C266.373 6.76347 266.326 6.6831 266.278 6.60182C266.227 6.51859 266.162 6.4453 266.086 6.38538C265.997 6.31526 265.897 6.26177 265.79 6.22739C265.645 6.18236 265.494 6.16109 265.343 6.16438C265.193 6.16408 265.043 6.18311 264.897 6.221C264.745 6.25834 264.598 6.31543 264.461 6.39086C264.314 6.46934 264.178 6.56662 264.055 6.68036C263.922 6.8026 263.803 6.94125 263.703 7.09315C263.59 7.26209 263.497 7.44344 263.424 7.63378C263.34 7.85153 263.279 8.07733 263.24 8.30775C263.188 8.5912 263.173 8.88066 263.198 9.16803C263.217 9.40957 263.288 9.64381 263.406 9.85387C263.519 10.049 263.684 10.2073 263.881 10.3105C264.118 10.4272 264.38 10.4833 264.643 10.474C264.789 10.476 264.935 10.4535 265.074 10.4073C265.197 10.3653 265.314 10.3066 265.421 10.2329C265.522 10.1635 265.617 10.0843 265.704 9.99634C265.793 9.90502 265.87 9.82465 265.947 9.73972C265.989 9.69314 266.036 9.64839 266.08 9.59999C266.124 9.55159 266.169 9.50867 266.22 9.47214C266.264 9.43692 266.311 9.40632 266.36 9.38082C266.403 9.35761 266.45 9.34304 266.499 9.3379C266.561 9.33345 266.623 9.34087 266.683 9.35981C266.734 9.37675 266.781 9.40584 266.819 9.44474C266.857 9.48191 266.885 9.52759 266.902 9.57808C266.923 9.63219 266.931 9.69019 266.927 9.74794C266.919 9.88831 266.881 10.0252 266.816 10.1489C266.744 10.2866 266.652 10.4122 266.543 10.5215C266.42 10.6442 266.285 10.7534 266.141 10.8475C265.983 10.9495 265.817 11.0364 265.644 11.1068C265.463 11.1804 265.275 11.2373 265.084 11.2767C264.891 11.317 264.694 11.3372 264.497 11.337C264.112 11.3452 263.729 11.2808 263.367 11.147C263.061 11.0334 262.79 10.8378 262.584 10.5808C262.375 10.308 262.238 9.98459 262.188 9.64201C262.124 9.2054 262.135 8.76077 262.219 8.32785Z" fill="#BCBEC3"/>
<path d="M267.72 8.33792C267.765 8.07462 267.835 7.81647 267.93 7.56714C268.023 7.31862 268.141 7.08054 268.281 6.85664C268.422 6.63384 268.586 6.42744 268.77 6.24112C268.956 6.0544 269.164 5.89267 269.39 5.75984C269.625 5.62288 269.876 5.51672 270.137 5.44386C270.421 5.36688 270.714 5.3288 271.008 5.33062C271.291 5.32702 271.573 5.36516 271.846 5.44386C272.076 5.51112 272.293 5.61798 272.489 5.75984C272.669 5.89044 272.825 6.05353 272.948 6.24112C273.071 6.43027 273.165 6.63792 273.226 6.85664C273.292 7.08784 273.328 7.32656 273.335 7.56714C273.343 7.82533 273.324 8.08363 273.28 8.33792C273.235 8.60069 273.165 8.85826 273.07 9.10687C272.977 9.35386 272.859 9.5904 272.718 9.8128C272.577 10.0336 272.412 10.2379 272.227 10.4219C272.04 10.608 271.829 10.7686 271.602 10.8996C271.365 11.0355 271.112 11.1402 270.85 11.211C270.565 11.2873 270.271 11.3248 269.976 11.3224C269.695 11.3268 269.415 11.2892 269.145 11.211C268.916 11.1445 268.7 11.0392 268.506 10.8996C268.328 10.7696 268.174 10.6078 268.053 10.4219C267.931 10.2343 267.838 10.0289 267.776 9.8128C267.71 9.5833 267.674 9.34596 267.669 9.10687C267.658 8.84941 267.675 8.59148 267.72 8.33792ZM268.711 8.33792C268.682 8.51171 268.666 8.6876 268.664 8.86395C268.663 9.03118 268.679 9.19804 268.713 9.36166C268.745 9.51551 268.798 9.66398 268.871 9.80276C268.941 9.93729 269.036 10.0569 269.149 10.1553C269.271 10.2583 269.411 10.3373 269.561 10.3881C269.741 10.4479 269.93 10.4766 270.119 10.4731C270.322 10.4751 270.523 10.4465 270.717 10.3881C271.065 10.2832 271.377 10.0807 271.619 9.80367C271.738 9.66894 271.842 9.52099 271.93 9.36258C272.019 9.20414 272.093 9.0375 272.151 8.86486C272.21 8.69342 272.255 8.51753 272.286 8.33883C272.315 8.16445 272.331 7.98794 272.333 7.81098C272.336 7.6425 272.319 7.47431 272.284 7.30961C272.252 7.15575 272.199 7.00727 272.126 6.86851C272.054 6.733 271.958 6.61226 271.843 6.51235C271.72 6.40727 271.578 6.32702 271.425 6.27582C271.242 6.21594 271.05 6.18725 270.857 6.19089C270.658 6.18897 270.46 6.21761 270.269 6.27582C270.095 6.32972 269.929 6.4094 269.776 6.51235C269.628 6.61217 269.493 6.73197 269.376 6.86851C269.258 7.00415 269.154 7.15198 269.066 7.30961C268.976 7.46913 268.902 7.63702 268.844 7.81098C268.787 7.98294 268.742 8.15909 268.711 8.33792Z" fill="#BCBEC3"/>
<path d="M274.052 11.2127C273.988 11.2133 273.926 11.1996 273.868 11.1726C273.814 11.1473 273.767 11.1098 273.729 11.063C273.691 11.0158 273.664 10.9606 273.65 10.9013C273.634 10.8371 273.632 10.77 273.645 10.705L274.462 5.9616C274.474 5.89198 274.499 5.82533 274.535 5.76526C274.572 5.70472 274.617 5.65022 274.67 5.60361C274.723 5.55741 274.783 5.52039 274.848 5.49402C274.911 5.46789 274.979 5.45425 275.047 5.45384H276.544C276.94 5.446 277.334 5.50273 277.712 5.62187C278.015 5.71782 278.288 5.89357 278.503 6.13147C278.709 6.37348 278.846 6.66893 278.899 6.98535C278.961 7.3848 278.953 7.79249 278.875 8.189C278.803 8.63393 278.673 9.06719 278.49 9.47758C278.331 9.83469 278.104 10.1564 277.823 10.4246C277.543 10.6862 277.212 10.8852 276.852 11.0091C276.433 11.1492 275.994 11.2168 275.554 11.2091H274.054L274.052 11.2127ZM275.758 10.3525C275.837 10.3525 275.936 10.3461 276.054 10.3342C276.186 10.3172 276.316 10.2866 276.442 10.2429C276.591 10.1918 276.734 10.1238 276.868 10.0401C277.023 9.94259 277.162 9.82123 277.281 9.68032C277.424 9.51049 277.543 9.32115 277.634 9.11776C277.747 8.85883 277.827 8.58591 277.872 8.30589C277.923 8.02854 277.941 7.74567 277.923 7.46389C277.911 7.24345 277.844 7.02977 277.73 6.84288C277.614 6.66886 277.45 6.53429 277.259 6.45658C277.009 6.3604 276.743 6.31571 276.476 6.32507H275.391L274.697 10.3433L275.758 10.3525Z" fill="#BCBEC3"/>
<path d="M280.563 8.70318L280.278 10.3525H283.001C283.055 10.3522 283.109 10.3641 283.159 10.3872C283.205 10.4083 283.245 10.4395 283.278 10.4785C283.311 10.5208 283.335 10.5703 283.347 10.6232C283.36 10.6762 283.36 10.7312 283.349 10.7845C283.338 10.8441 283.317 10.9011 283.285 10.9525C283.255 11.0037 283.217 11.0501 283.173 11.0904C283.128 11.1292 283.077 11.1601 283.022 11.1817C282.968 11.2032 282.91 11.214 282.852 11.2137H279.637C279.574 11.2143 279.511 11.2006 279.453 11.1735C279.399 11.1483 279.352 11.1108 279.315 11.0639C279.277 11.0168 279.25 10.9616 279.235 10.9023C279.219 10.8381 279.217 10.7711 279.229 10.7059L280.046 5.96254C280.058 5.89287 280.083 5.8262 280.12 5.7662C280.156 5.70552 280.202 5.65099 280.255 5.60455C280.308 5.55834 280.368 5.52133 280.433 5.49497C280.496 5.46895 280.563 5.4553 280.63 5.45478H283.85C283.905 5.45452 283.958 5.46636 284.008 5.48948C284.054 5.50949 284.094 5.54088 284.125 5.5808C284.156 5.62208 284.179 5.66973 284.19 5.72053C284.203 5.77575 284.203 5.83335 284.19 5.88857C284.18 5.94828 284.159 6.00536 284.127 6.05661C284.096 6.1088 284.057 6.1554 284.012 6.19451C283.967 6.23327 283.916 6.26413 283.862 6.28583C283.808 6.30813 283.75 6.3199 283.692 6.32054H280.969L280.712 7.81825H283.207C283.262 7.81805 283.315 7.82988 283.365 7.85295C283.411 7.87302 283.451 7.9044 283.482 7.94428C283.513 7.98571 283.535 8.0333 283.547 8.084C283.56 8.13926 283.56 8.19679 283.547 8.25204C283.537 8.31168 283.515 8.36872 283.484 8.42007C283.453 8.47232 283.414 8.51944 283.369 8.5598C283.325 8.5988 283.274 8.62969 283.219 8.65112C283.165 8.67344 283.108 8.68521 283.05 8.68583H280.561L280.563 8.70318Z" fill="#BCBEC3"/>
<path d="M296.001 8.48966C296.001 8.18213 296.033 7.87548 296.096 7.57481C296.157 7.28849 296.248 7.00987 296.368 6.74395C296.487 6.48975 296.638 6.25262 296.817 6.03862C296.994 5.82421 297.202 5.63822 297.433 5.48682C297.679 5.32903 297.946 5.20914 298.225 5.13099C298.533 5.04543 298.851 5.00349 299.17 5.00636C299.423 5.00561 299.676 5.03133 299.925 5.08313C300.143 5.13317 300.355 5.20579 300.558 5.29987C300.735 5.38078 300.902 5.48392 301.054 5.60693C301.186 5.713 301.307 5.83219 301.415 5.96276C301.505 6.07471 301.578 6.19944 301.633 6.33303C301.677 6.43914 301.703 6.55267 301.708 6.66809C301.717 6.8217 301.671 6.97354 301.578 7.09435C301.528 7.14849 301.466 7.19038 301.398 7.21694C301.33 7.24351 301.257 7.25408 301.184 7.24788C301.11 7.24804 301.037 7.23616 300.966 7.21266C300.907 7.18612 300.852 7.15083 300.803 7.1079C300.752 7.06436 300.706 7.0153 300.666 6.9616C300.626 6.9056 300.584 6.84961 300.544 6.7873C300.476 6.69699 300.407 6.59855 300.34 6.50824C300.262 6.41419 300.173 6.32992 300.076 6.25717C299.961 6.1778 299.834 6.1169 299.701 6.07655C299.53 6.02513 299.352 6.00167 299.173 6.00701C299.004 6.00736 298.835 6.02859 298.67 6.07023C298.506 6.11461 298.348 6.18016 298.201 6.2653C298.05 6.35684 297.912 6.46962 297.792 6.60035C297.662 6.74435 297.552 6.90638 297.466 7.08171C297.367 7.28219 297.294 7.4946 297.248 7.71389C297.194 7.97071 297.168 8.23318 297.173 8.49598C297.171 8.83272 297.212 9.16832 297.296 9.49392C297.37 9.78103 297.497 10.051 297.67 10.2896C297.84 10.5137 298.059 10.6933 298.31 10.8134C298.596 10.9456 298.908 11.0101 299.222 11.0021C299.386 11.0044 299.549 10.9784 299.705 10.9253C299.837 10.8776 299.961 10.8094 300.072 10.7231C300.173 10.6418 300.266 10.5511 300.351 10.4521C300.433 10.3546 300.508 10.257 300.583 10.1586C300.623 10.1026 300.664 10.0538 300.705 9.99785C300.745 9.94415 300.791 9.8951 300.841 9.85155C300.886 9.80989 300.933 9.77241 300.984 9.73956C301.029 9.71086 301.081 9.69411 301.134 9.6908C301.207 9.68592 301.281 9.69542 301.351 9.71879C301.415 9.7401 301.475 9.77315 301.527 9.81633C301.575 9.86101 301.616 9.91275 301.649 9.96986C301.683 10.0298 301.704 10.0962 301.711 10.1649C301.73 10.3202 301.714 10.4777 301.664 10.6255C301.606 10.7826 301.523 10.9288 301.419 11.0581C301.301 11.1975 301.168 11.3237 301.024 11.4347C300.861 11.5568 300.684 11.6575 300.496 11.7345C300.297 11.8195 300.091 11.8848 299.88 11.9296C299.661 11.9776 299.437 12.0009 299.213 11.9991C298.757 12.0087 298.302 11.9331 297.872 11.7761C297.489 11.6411 297.142 11.4163 296.858 11.1195C296.566 10.8103 296.346 10.4382 296.212 10.0304C296.063 9.53147 295.991 9.01145 296.001 8.48966Z" fill="#BCBEC3"/>
<path d="M304.432 5.60071C304.475 5.46234 304.561 5.34216 304.677 5.25843C304.79 5.19112 304.92 5.15736 305.051 5.1609H305.398C305.466 5.1609 305.534 5.16812 305.602 5.17444C305.666 5.18701 305.728 5.20827 305.786 5.23766C305.846 5.2742 305.899 5.32163 305.943 5.37764C305.994 5.44789 306.035 5.52547 306.065 5.60794L307.914 10.8297C307.927 10.8649 307.941 10.9065 307.954 10.948C307.971 10.9937 307.984 11.0404 307.995 11.088C308.002 11.1368 308.022 11.1855 308.029 11.228C308.036 11.2671 308.04 11.3066 308.042 11.3463C308.042 11.4159 308.029 11.4848 308.002 11.5486C307.975 11.612 307.933 11.6674 307.879 11.7093C307.829 11.7585 307.769 11.7966 307.703 11.8213C307.634 11.8498 307.56 11.8639 307.486 11.8629C307.37 11.8655 307.256 11.8392 307.152 11.7861C307.059 11.7306 306.987 11.6443 306.948 11.5414L306.458 10.1172H303.92L303.416 11.5486C303.385 11.6498 303.32 11.7365 303.232 11.7933C303.127 11.8452 303.01 11.8691 302.893 11.8629C302.819 11.863 302.745 11.8512 302.675 11.8277C302.612 11.8054 302.554 11.7697 302.505 11.7229C302.458 11.6784 302.42 11.6234 302.396 11.5621C302.368 11.4937 302.354 11.4198 302.356 11.3454C302.357 11.3057 302.361 11.2661 302.369 11.2271C302.377 11.1797 302.389 11.1329 302.403 11.0871C302.416 11.0383 302.43 10.9896 302.444 10.9471C302.455 10.9069 302.469 10.8675 302.484 10.8288L304.432 5.60071ZM305.215 6.3232L304.158 9.36036H306.227L305.215 6.3232Z" fill="#BCBEC3"/>
<path d="M312.29 8.12034C312.564 8.19071 312.827 8.29887 313.073 8.44185C313.267 8.55702 313.437 8.70869 313.576 8.88889C313.698 9.05015 313.788 9.23422 313.84 9.43075C313.894 9.62845 313.917 9.83355 313.908 10.0385C313.903 10.32 313.833 10.5962 313.703 10.844C313.573 11.0918 313.387 11.3039 313.16 11.4627C312.903 11.6465 312.614 11.7791 312.31 11.8538C311.94 11.9473 311.56 11.985 311.18 11.9658C310.907 11.9625 310.636 11.9273 310.37 11.861C310.151 11.8065 309.939 11.7269 309.737 11.6235C309.565 11.5332 309.405 11.4206 309.261 11.2885C309.133 11.1691 309.021 11.0331 308.928 10.8839C308.842 10.7441 308.773 10.594 308.723 10.4368C308.676 10.2903 308.644 10.1389 308.628 9.98526C308.621 9.91026 308.628 9.83456 308.649 9.76219C308.669 9.69402 308.701 9.63012 308.744 9.57344C308.786 9.5183 308.84 9.47305 308.9 9.44069C308.964 9.40743 309.033 9.38835 309.105 9.38469C309.173 9.38397 309.242 9.39094 309.309 9.40546C309.374 9.42489 309.435 9.45314 309.493 9.48945C309.549 9.53179 309.597 9.58373 309.635 9.64298C309.678 9.71369 309.708 9.7917 309.723 9.87328C309.751 10.0237 309.804 10.1679 309.88 10.2995C309.958 10.4343 310.062 10.5509 310.186 10.6418C310.325 10.7446 310.479 10.8225 310.642 10.8721C310.837 10.9321 311.038 10.965 311.241 10.9697C311.435 10.9786 311.629 10.9622 311.819 10.9209C311.983 10.8852 312.141 10.8265 312.289 10.7466C312.414 10.6786 312.523 10.5834 312.608 10.4675C312.688 10.3619 312.732 10.2313 312.73 10.0972C312.737 9.9925 312.722 9.88752 312.687 9.78896C312.652 9.69039 312.597 9.6004 312.526 9.52468C312.352 9.35144 312.136 9.22867 311.9 9.16885C311.628 9.09209 311.356 9.0081 311.083 8.92411L310.267 8.67304C310.008 8.59444 309.761 8.48182 309.532 8.33799C309.358 8.22808 309.206 8.08598 309.083 7.91895C308.976 7.77926 308.902 7.61694 308.865 7.44391C308.827 7.27918 308.809 7.11022 308.811 6.94088C308.813 6.7222 308.85 6.50535 308.92 6.29877C308.981 6.12105 309.068 5.95388 309.179 5.80296C309.29 5.66328 309.42 5.54151 309.567 5.44171C309.718 5.34082 309.88 5.25866 310.05 5.19697C310.226 5.13156 310.409 5.08466 310.594 5.05699C310.786 5.02763 310.979 5.00894 311.172 5.001C311.343 4.99675 311.514 5.00611 311.683 5.02899C311.856 5.05356 312.027 5.09314 312.193 5.1473C312.362 5.20433 312.524 5.27909 312.677 5.37037C312.832 5.46136 312.976 5.57145 313.105 5.6982C313.235 5.82654 313.347 5.97201 313.439 6.13079C313.537 6.3025 313.608 6.48861 313.65 6.68259C313.671 6.75547 313.671 6.83277 313.65 6.90566C313.632 6.97498 313.6 7.03942 313.555 7.09441C313.508 7.14988 313.45 7.19503 313.385 7.22716C313.313 7.26207 313.234 7.27878 313.154 7.27593C313.02 7.28702 312.887 7.24716 312.78 7.16394C312.69 7.0844 312.624 6.98045 312.59 6.86411C312.543 6.71793 312.477 6.57927 312.392 6.45229C312.315 6.33991 312.218 6.24291 312.106 6.16601C311.982 6.0905 311.846 6.03621 311.705 6.00525C311.531 5.96861 311.354 5.95465 311.177 5.96371C310.866 5.95723 310.56 6.04452 310.296 6.21478C310.197 6.28989 310.116 6.38757 310.059 6.50021C310.002 6.61284 309.972 6.73738 309.97 6.86411C309.961 6.99042 309.994 7.11613 310.065 7.21994C310.134 7.32046 310.225 7.40403 310.329 7.46468C310.441 7.53729 310.563 7.5938 310.69 7.63266C310.819 7.6742 310.949 7.71665 311.071 7.75097L312.29 8.12034Z" fill="#BCBEC3"/>
<path d="M320.259 11.255C320.258 11.3354 320.247 11.4153 320.225 11.4925C320.206 11.567 320.171 11.6361 320.123 11.6948C320.073 11.7542 320.013 11.8037 319.946 11.8411C319.864 11.8822 319.774 11.9014 319.682 11.8971C319.591 11.898 319.501 11.8789 319.418 11.8411C319.349 11.8082 319.288 11.7579 319.242 11.6948C319.195 11.6352 319.16 11.5664 319.14 11.4925C319.118 11.4153 319.107 11.3354 319.106 11.255V8.91593H316.044V11.255C316.043 11.3354 316.032 11.4153 316.01 11.4925C315.991 11.567 315.956 11.6361 315.908 11.6948C315.858 11.7541 315.799 11.8037 315.732 11.8411C315.648 11.8776 315.558 11.8964 315.468 11.8964C315.377 11.8964 315.287 11.8776 315.204 11.8411C315.134 11.8083 315.073 11.758 315.028 11.6948C314.98 11.6353 314.946 11.5664 314.925 11.4925C314.904 11.4153 314.892 11.3354 314.891 11.255V5.73969C314.892 5.65929 314.904 5.57939 314.925 5.50218C314.944 5.42769 314.979 5.35852 315.028 5.29988C315.077 5.24054 315.137 5.19097 315.204 5.15357C315.286 5.11254 315.376 5.09329 315.468 5.09758C315.559 5.09668 315.649 5.11577 315.732 5.15357C315.801 5.18644 315.862 5.23675 315.908 5.29988C315.955 5.35943 315.99 5.42829 316.01 5.50218C316.032 5.57939 316.043 5.65929 316.044 5.73969V7.918H319.106V5.73969C319.107 5.65929 319.118 5.57939 319.14 5.50218C319.159 5.4277 319.194 5.35854 319.242 5.29988C319.292 5.24054 319.351 5.19097 319.418 5.15357C319.5 5.11251 319.591 5.09325 319.682 5.09758C319.773 5.09665 319.863 5.11575 319.946 5.15357C320.016 5.1864 320.077 5.23672 320.123 5.29988C320.17 5.35945 320.204 5.4283 320.225 5.50218C320.247 5.57939 320.258 5.65929 320.259 5.73969V11.255Z" fill="#BCBEC3"/>
<path d="M321.225 8.48971C321.225 8.18217 321.257 7.87552 321.32 7.57485C321.381 7.28853 321.472 7.00992 321.592 6.74399C321.711 6.4898 321.862 6.25267 322.041 6.03866C322.218 5.82426 322.426 5.63827 322.657 5.48686C322.903 5.32908 323.17 5.20919 323.449 5.13104C323.757 5.04502 324.075 5.00308 324.394 5.00641C324.648 5.00564 324.901 5.03137 325.149 5.08317C325.367 5.13322 325.579 5.20584 325.782 5.29992C325.959 5.38083 326.126 5.48397 326.279 5.60698C326.41 5.71303 326.531 5.83222 326.639 5.9628C326.73 6.07371 326.804 6.19867 326.857 6.33308C326.901 6.43919 326.927 6.55272 326.932 6.66813C326.941 6.82174 326.895 6.97358 326.802 7.0944C326.752 7.14854 326.69 7.19042 326.622 7.21699C326.554 7.24355 326.481 7.25412 326.408 7.24793C326.334 7.24809 326.261 7.2362 326.191 7.21271C326.13 7.18872 326.075 7.15317 326.028 7.10795C325.977 7.0644 325.931 7.01535 325.891 6.96164C325.851 6.90565 325.809 6.84966 325.769 6.78734C325.701 6.69703 325.632 6.59859 325.565 6.50828C325.487 6.41425 325.398 6.32998 325.301 6.25722C325.186 6.17784 325.059 6.11693 324.926 6.07659C324.755 6.02518 324.577 6.00171 324.398 6.00706C324.229 6.00742 324.06 6.02864 323.895 6.07027C323.731 6.11465 323.573 6.1802 323.426 6.26534C323.275 6.35687 323.137 6.46965 323.017 6.6004C322.887 6.74439 322.777 6.90643 322.691 7.08176C322.594 7.28307 322.521 7.49524 322.473 7.71393C322.419 7.97075 322.394 8.23323 322.398 8.49603C322.396 8.83277 322.437 9.16837 322.521 9.49396C322.595 9.78107 322.722 10.0511 322.895 10.2896C323.065 10.5138 323.284 10.6933 323.535 10.8134C323.821 10.9456 324.133 11.0101 324.447 11.0022C324.611 11.0044 324.774 10.9785 324.93 10.9254C325.062 10.8777 325.186 10.8095 325.297 10.7231C325.398 10.6419 325.491 10.5512 325.576 10.4522C325.658 10.3546 325.733 10.2571 325.808 10.1587C325.848 10.1027 325.889 10.0539 325.93 9.9979C325.97 9.94421 326.016 9.89515 326.066 9.8516C326.111 9.80993 326.158 9.77245 326.209 9.73961C326.254 9.71091 326.306 9.69415 326.359 9.69084C326.432 9.68596 326.506 9.69546 326.576 9.71884C326.64 9.74017 326.7 9.77321 326.752 9.81638C326.8 9.86107 326.841 9.91281 326.874 9.9699C326.908 10.0298 326.929 10.0962 326.936 10.165C326.955 10.3202 326.939 10.4778 326.889 10.6256C326.831 10.7826 326.748 10.9288 326.644 11.0582C326.526 11.1975 326.393 11.3237 326.25 11.4347C326.086 11.5568 325.909 11.6576 325.721 11.7346C325.522 11.8196 325.316 11.8849 325.105 11.9297C324.886 11.9777 324.662 12.001 324.438 11.9992C323.982 12.0087 323.527 11.9331 323.097 11.7761C322.714 11.6411 322.367 11.4163 322.083 11.1196C321.791 10.8104 321.571 10.4383 321.437 10.0304C321.287 9.53157 321.216 9.01155 321.225 8.48971Z" fill="#BCBEC3"/>
<path d="M329.656 5.60072C329.699 5.46234 329.785 5.34217 329.901 5.25844C330.014 5.19108 330.144 5.15732 330.275 5.1609H330.622C330.69 5.1609 330.758 5.16813 330.826 5.17445C330.891 5.18369 330.953 5.20512 331.01 5.23767C331.07 5.27421 331.123 5.32164 331.167 5.37765C331.218 5.44785 331.26 5.52545 331.289 5.60794L333.138 10.8297C333.151 10.8649 333.165 10.9065 333.178 10.948C333.195 10.9937 333.208 11.0405 333.219 11.088C333.232 11.134 333.244 11.1807 333.253 11.228C333.26 11.267 333.265 11.3066 333.266 11.3463C333.267 11.4159 333.253 11.4848 333.226 11.5486C333.199 11.612 333.157 11.6674 333.103 11.7094C333.053 11.7585 332.993 11.7966 332.927 11.8213C332.858 11.8498 332.784 11.8639 332.71 11.8629C332.594 11.8655 332.48 11.8392 332.376 11.7861C332.283 11.7306 332.211 11.6443 332.172 11.5414L331.682 10.1172H329.144L328.64 11.5486C328.609 11.6498 328.544 11.7365 328.456 11.7933C328.35 11.8453 328.233 11.8693 328.116 11.8629C328.042 11.863 327.969 11.8512 327.898 11.8277C327.835 11.8054 327.777 11.7697 327.728 11.7229C327.682 11.677 327.645 11.6224 327.619 11.5621C327.591 11.4937 327.577 11.4198 327.579 11.3454C327.58 11.3057 327.585 11.2661 327.592 11.2271C327.6 11.1797 327.612 11.1329 327.626 11.0871C327.64 11.0383 327.654 10.9896 327.667 10.9471C327.678 10.907 327.692 10.8675 327.707 10.8288L329.656 5.60072ZM330.432 6.32321L329.375 9.36037H331.444L330.432 6.32321Z" fill="#BCBEC3"/>
<path d="M338.419 8.64325C338.558 8.6597 338.691 8.70985 338.807 8.78956C338.918 8.87113 339.011 8.97576 339.079 9.09662C339.16 9.23892 339.215 9.39492 339.242 9.5572C339.284 9.75456 339.307 9.95576 339.31 10.1578C339.32 10.3825 339.357 10.605 339.419 10.8207C339.439 10.911 339.46 10.9886 339.481 11.0654C339.521 11.2139 339.516 11.3713 339.467 11.517C339.443 11.5885 339.406 11.6547 339.358 11.712C339.31 11.7675 339.252 11.8126 339.188 11.8448C339.12 11.8789 339.045 11.8956 338.97 11.8935C338.868 11.8972 338.767 11.8806 338.671 11.8448C338.595 11.8148 338.526 11.7697 338.467 11.712C338.416 11.6583 338.372 11.5975 338.337 11.5314C338.306 11.464 338.281 11.3938 338.262 11.3219C338.245 11.2581 338.234 11.1928 338.228 11.1268C338.223 11.0734 338.22 11.0197 338.221 10.9661C338.223 10.7072 338.209 10.4484 338.181 10.1912C338.16 9.98841 338.107 9.79046 338.024 9.60507C337.96 9.44837 337.851 9.31581 337.711 9.2257C337.571 9.13558 337.407 9.09237 337.241 9.10204H335.344V11.2803C335.345 11.359 335.331 11.4371 335.304 11.5106C335.279 11.583 335.24 11.6494 335.189 11.7057C335.139 11.7635 335.079 11.811 335.013 11.8457C334.937 11.8781 334.856 11.8948 334.774 11.8948C334.693 11.8948 334.612 11.8781 334.536 11.8457C334.467 11.8119 334.404 11.7643 334.352 11.7057C334.303 11.6491 334.266 11.5827 334.243 11.5106C334.219 11.4362 334.206 11.3587 334.203 11.2803V5.7533C334.201 5.67616 334.218 5.59978 334.25 5.53023C334.281 5.46078 334.322 5.39699 334.373 5.34148C334.425 5.28717 334.488 5.24444 334.557 5.21595C334.625 5.18585 334.699 5.16931 334.774 5.16718H337.327C337.629 5.16234 337.929 5.20467 338.218 5.29272C338.459 5.36701 338.683 5.4878 338.879 5.64854C339.059 5.80137 339.2 5.99823 339.287 6.22111C339.386 6.46415 339.434 6.72552 339.43 6.98876C339.429 7.15796 339.411 7.32661 339.375 7.49179C339.341 7.6511 339.281 7.80361 339.199 7.94334C339.115 8.08919 339.009 8.22104 338.886 8.33439C338.747 8.46135 338.589 8.56553 338.419 8.64325ZM336.936 8.11313C337.105 8.11344 337.273 8.09955 337.439 8.07159C337.591 8.04686 337.737 7.99227 337.868 7.91083C337.99 7.83433 338.093 7.72907 338.167 7.60377C338.246 7.45148 338.284 7.28027 338.277 7.10797C338.278 6.97734 338.257 6.8475 338.215 6.72415C338.175 6.60961 338.109 6.50636 338.023 6.42275C337.936 6.33913 337.832 6.27749 337.719 6.24279C337.571 6.19558 337.417 6.17213 337.263 6.17325H335.326V8.11403L336.936 8.11313Z" fill="#BCBEC3"/>
<path d="M341.039 11.8267C340.963 11.8281 340.889 11.8114 340.821 11.778C340.753 11.7469 340.691 11.7045 340.637 11.6524C340.584 11.5988 340.543 11.5345 340.515 11.4637C340.485 11.3931 340.469 11.3174 340.467 11.2406V5.75332C340.466 5.67618 340.482 5.59981 340.515 5.53025C340.543 5.45972 340.585 5.39563 340.637 5.34169C340.69 5.28775 340.752 5.24502 340.821 5.21597C340.89 5.18583 340.964 5.16928 341.039 5.1672H342.767C343.234 5.15854 343.7 5.22434 344.148 5.36227C344.525 5.47879 344.872 5.68166 345.162 5.95561C345.443 6.23226 345.657 6.57243 345.788 6.94904C345.938 7.39798 346.009 7.87069 345.999 8.34524C346.006 8.84951 345.944 9.35225 345.815 9.83899C345.706 10.2448 345.508 10.6198 345.237 10.9354C344.958 11.2403 344.613 11.4725 344.23 11.6127C343.761 11.7763 343.268 11.8543 342.774 11.843H341.039V11.8267ZM342.835 10.8288C342.923 10.8288 343.039 10.8216 343.175 10.808C343.322 10.7915 343.466 10.7563 343.604 10.7033C343.761 10.6435 343.912 10.5663 344.053 10.473C344.213 10.3607 344.352 10.2186 344.461 10.0539C344.593 9.8557 344.692 9.63623 344.753 9.40459C344.833 9.09959 344.869 8.78457 344.862 8.46897C344.868 8.14213 344.831 7.81599 344.753 7.49903C344.69 7.23531 344.572 6.98881 344.407 6.77654C344.241 6.5769 344.029 6.42318 343.79 6.3295C343.492 6.21809 343.176 6.16598 342.858 6.17597H341.606V10.8324H342.839L342.835 10.8288Z" fill="#BCBEC3"/>
</svg>
