<svg width="16" height="16" viewBox="0 0 16 16" fill="none" xmlns="http://www.w3.org/2000/svg">
<path d="M9.01897 13.768L9.27297 15.268C7.78104 15.5296 6.24475 15.326 4.87243 14.6849C3.50011 14.0438 2.35815 12.9962 1.60139 11.6841C0.844634 10.372 0.509697 8.85888 0.641995 7.34998C0.774293 5.84108 1.36743 4.40937 2.34097 3.24898L2.38897 3.19598L1.46797 2.41898C1.44725 2.39888 1.43207 2.37379 1.42387 2.34611C1.41568 2.31843 1.41475 2.28911 1.42118 2.26097C1.42761 2.23284 1.44119 2.20683 1.46059 2.18546C1.48 2.16409 1.50458 2.14808 1.53197 2.13898L4.92697 1.19899C4.94684 1.19353 4.96774 1.19299 4.98787 1.19741C5.00799 1.20184 5.02674 1.21109 5.04248 1.22438C5.05823 1.23767 5.07052 1.2546 5.07827 1.27369C5.08602 1.29279 5.089 1.31347 5.08697 1.33398L4.76097 4.83998C4.75791 4.87036 4.74664 4.89933 4.72835 4.92379C4.71007 4.94824 4.68545 4.96724 4.65718 4.97875C4.6289 4.99027 4.59802 4.99386 4.56785 4.98915C4.53769 4.98443 4.50938 4.97158 4.48597 4.95198L3.56497 4.18798L3.51897 4.24099C2.75069 5.16179 2.28364 6.29626 2.18093 7.49107C2.07822 8.68588 2.34481 9.88342 2.94467 10.9218C3.54453 11.9602 4.44873 12.7895 5.53507 13.2974C6.6214 13.8053 7.83749 13.9675 9.01897 13.762V13.768ZM14.465 13.668L13.534 12.886C13.575 12.84 13.618 12.797 13.659 12.751C14.6363 11.5879 15.2311 10.1516 15.3622 8.63808C15.4934 7.12454 15.1545 5.60738 14.3917 4.29351C13.629 2.97965 12.4796 1.93302 11.1002 1.29637C9.72082 0.659713 8.17864 0.464022 6.68397 0.73598L6.93797 2.23598C8.12381 2.0168 9.3484 2.16906 10.4445 2.67197C11.5405 3.17488 12.4546 4.00389 13.0618 5.04579C13.669 6.08768 13.9398 7.29163 13.837 8.49317C13.7343 9.69472 13.2632 10.8353 12.488 11.759C12.447 11.807 12.407 11.851 12.366 11.897L11.447 11.133C11.4236 11.1134 11.3952 11.1005 11.3651 11.0958C11.3349 11.0911 11.304 11.0947 11.2758 11.1062C11.2475 11.1177 11.2229 11.1367 11.2046 11.1612C11.1863 11.1856 11.175 11.2146 11.172 11.245L10.844 14.745C10.8419 14.7655 10.8449 14.7862 10.8527 14.8053C10.8604 14.8244 10.8727 14.8413 10.8884 14.8546C10.9042 14.8679 10.9229 14.8771 10.9431 14.8815C10.9632 14.886 10.9841 14.8854 11.004 14.88L14.399 13.951C14.4284 13.9429 14.4551 13.9268 14.4761 13.9047C14.4971 13.8825 14.5117 13.8551 14.5183 13.8253C14.5249 13.7954 14.5232 13.7644 14.5134 13.7354C14.5037 13.7065 14.4863 13.6807 14.463 13.661L14.465 13.668Z" fill="white"/>
</svg>
