<svg width="16" height="10" viewBox="0 0 16 10" fill="none" xmlns="http://www.w3.org/2000/svg">
<path d="M0.248079 8.73622L0.948779 9.43692C1.02848 9.51646 1.13648 9.56113 1.24908 9.56113C1.36168 9.56113 1.46968 9.51646 1.54938 9.43692L7.96358 3.03832L14.3752 9.43432C14.4549 9.51386 14.5629 9.55853 14.6755 9.55853C14.7881 9.55853 14.8961 9.51386 14.9758 9.43432L15.6752 8.73622C15.7148 8.69673 15.7462 8.64982 15.7676 8.59818C15.789 8.54654 15.8 8.49118 15.8 8.43527C15.8 8.37936 15.789 8.324 15.7676 8.27235C15.7462 8.22071 15.7148 8.1738 15.6752 8.13432L8.26518 0.724315C8.18548 0.644772 8.07748 0.600097 7.96488 0.600097C7.85228 0.600097 7.74428 0.644772 7.66458 0.724315L0.254579 8.13432C0.214568 8.17337 0.182655 8.21994 0.160669 8.27135C0.138682 8.32276 0.127055 8.37801 0.126451 8.43392C0.125847 8.48983 0.136279 8.54531 0.15715 8.59718C0.178021 8.64906 0.208921 8.6963 0.248079 8.73622Z" fill="#999999"/>
</svg>
