<svg xmlns="http://www.w3.org/2000/svg" width="22" height="33" viewBox="0 0 22 33">
  <g id="Group_10585" data-name="Group 10585" transform="translate(-96.626 -285)">
    <g id="man_1_" data-name="man (1)" transform="translate(96.626 285)">
      <path id="Path_4946" data-name="Path 4946" d="M100.028,29.639v2.792a.57.57,0,0,1-.571.569H78.6a.57.57,0,0,1-.571-.569V29.639a5.315,5.315,0,0,1,5.328-5.3A2.961,2.961,0,0,0,85.839,23a3.33,3.33,0,0,0,.475-2.084l.011-.026a7.041,7.041,0,0,1-4.368-6.507v-.223a1.758,1.758,0,0,1-1.786-1.745V9.455A9.816,9.816,0,0,1,82.828,2.27c3.061-2.938,7.913-2.7,11.427-1.126a.142.142,0,0,1-.005.262l-.916.375a.142.142,0,0,0,.039.273l.445.048a7.214,7.214,0,0,1,5.337,3.3.152.152,0,0,1-.019.176,4.292,4.292,0,0,0-1.18,2.955V12.41A1.749,1.749,0,0,1,96.2,14.155h-.1v.223a7.041,7.041,0,0,1-4.368,6.507l.011.026A3.329,3.329,0,0,0,92.217,23,2.961,2.961,0,0,0,94.7,24.336,5.315,5.315,0,0,1,100.028,29.639Z" transform="translate(-78.028 0)" fill="#ffdfba"/>
      <path id="Path_4947" data-name="Path 4947" d="M100.028,330.168v2.858a.577.577,0,0,1-.571.582H78.6a.577.577,0,0,1-.571-.582v-2.858a5.379,5.379,0,0,1,5.327-5.429,2.944,2.944,0,0,0,2.483-1.373,4.833,4.833,0,0,0,6.379,0,2.944,2.944,0,0,0,2.483,1.373A5.38,5.38,0,0,1,100.028,330.168Z" transform="translate(-78.028 -300.609)" fill="#00a6ff"/>
      <path id="Path_4948" data-name="Path 4948" d="M126.917,5.528a.157.157,0,0,1-.018.179,4.461,4.461,0,0,0-1.176,3.026v3.973a1.77,1.77,0,0,1-1.852,1.787V10A3.457,3.457,0,0,0,120.452,6.5h-7.264A3.457,3.457,0,0,0,109.77,10v4.5a1.776,1.776,0,0,1-1.78-1.787V9.68c-.023-1.053.024-4.769,2.649-7.355,3.052-3.008,7.889-2.761,11.392-1.152a.147.147,0,0,1,0,.268l-.914.385a.146.146,0,0,0,.039.279l.444.049a7.166,7.166,0,0,1,5.321,3.375Z" transform="translate(-105.806 0)" fill="#42434d"/>
      <path id="Path_4949" data-name="Path 4949" d="M147.02,97.506a7,7,0,1,1-13.992-.228v-4.5a3.444,3.444,0,0,1,3.392-3.495h7.208a3.444,3.444,0,0,1,3.392,3.495Z" transform="translate(-129.024 -83.064)" fill="#ffebd2"/>
      <path id="Path_4950" data-name="Path 4950" d="M283.358,432.221H281.61a.582.582,0,0,1,0-1.165h1.747a.582.582,0,0,1,0,1.165Z" transform="translate(-266.57 -400.458)" fill="#fff"/>
      <path id="Path_4951" data-name="Path 4951" d="M138.6,116.673a1.151,1.151,0,0,1-1.047,2.039,7.209,7.209,0,0,1-4.529-6.693v-4.725a3.479,3.479,0,0,1,.613-1.978.861.861,0,0,1,1.571.522v4.725A7.155,7.155,0,0,0,138.6,116.673Z" transform="translate(-129.128 -97.6)" fill="#fff3e4"/>
      <path id="Path_4952" data-name="Path 4952" d="M198.6,294.908a7.227,7.227,0,0,1-5.7,0,4.513,4.513,0,0,0,.082-1.2l.011-.027a7.222,7.222,0,0,0,5.511,0l.011.027A4.511,4.511,0,0,0,198.6,294.908Z" transform="translate(-184.747 -272.829)" fill="#ffd6a6"/>
      <path id="Path_4953" data-name="Path 4953" d="M86.392,326.5a2.964,2.964,0,0,1-.868.134,5.444,5.444,0,0,0-5.458,5.41v.547a1.019,1.019,0,0,1-1.019,1.019H78.61a.582.582,0,0,1-.582-.582v-2.858a5.43,5.43,0,0,1,5.43-5.429,3.014,3.014,0,0,0,2.531-1.373,5.041,5.041,0,0,0,.693.5A1.454,1.454,0,0,1,86.392,326.5Z" transform="translate(-78.028 -300.609)" fill="#5ec7ff"/>
      <path id="Path_4954" data-name="Path 4954" d="M258.364,326.5a2.965,2.965,0,0,0,.868.134,5.444,5.444,0,0,1,5.458,5.41v.547a1.019,1.019,0,0,0,1.019,1.019h.437a.582.582,0,0,0,.582-.582v-2.858a5.43,5.43,0,0,0-5.43-5.429,3.014,3.014,0,0,1-2.531-1.373,5.037,5.037,0,0,1-.692.5A1.454,1.454,0,0,0,258.364,326.5Z" transform="translate(-244.728 -300.609)" fill="#3699ce"/>
      <path id="Path_4955" data-name="Path 4955" d="M122.341,1.44c-.856.352-.978.43-1.275.384-4.781-.741-8.976,1.237-10.4,5.882h0a3.477,3.477,0,0,0-.855,2.289v2.732a.91.91,0,1,1-1.82-.021V9.68A10.077,10.077,0,0,1,110.7,2.324c3.12-3.008,8.065-2.761,11.647-1.152a.146.146,0,0,1-.005.268Z" transform="translate(-105.806 0)" fill="#4d4e59"/>
    </g>
  </g>
</svg>
