<?xml version="1.0" encoding="utf-8"?>
<!-- Generator: Adobe Illustrator 26.5.0, SVG Export Plug-In . SVG Version: 6.00 Build 0)  -->
<svg version="1.1" id="Layer_1" xmlns="http://www.w3.org/2000/svg" xmlns:xlink="http://www.w3.org/1999/xlink" x="0px" y="0px"
	 viewBox="0 0 15 15" style="enable-background:new 0 0 15 15;" xml:space="preserve">
<style type="text/css">
	.st0{fill:#FBD893;}
</style>
<g>
	<path class="st0" d="M7.5,15C3.4,15,0,11.7,0,7.6C0,3.4,3.3,0,7.5,0C11.6,0,15,3.4,15,7.5C15,11.6,11.7,15,7.5,15z M7.5,1.4
		c-3.4,0-6.1,2.7-6.1,6.1c0,3.4,2.7,6.2,6.1,6.2c3.4,0,6.1-2.7,6.1-6.1C13.6,4.1,10.9,1.4,7.5,1.4z"/>
	<path class="st0" d="M7.5,6.6C8,6,8.5,5.5,9,5.1c0.1-0.1,0.3-0.3,0.4-0.4c0.3-0.3,0.7-0.3,1,0c0.3,0.3,0.3,0.7,0,1
		C9.8,6.2,9.2,6.8,8.6,7.4c0,0-0.1,0.1-0.1,0.1c0,0,0.1,0.1,0.1,0.1c0.6,0.6,1.2,1.2,1.8,1.8c0.2,0.2,0.3,0.4,0.2,0.7
		c-0.1,0.3-0.2,0.4-0.5,0.5c-0.3,0.1-0.5,0-0.7-0.2c-0.3-0.3-0.7-0.7-1-1C8.1,9.1,7.8,8.8,7.5,8.5c0,0-0.1,0.1-0.1,0.1
		c-0.6,0.6-1.2,1.2-1.8,1.8c-0.2,0.2-0.4,0.3-0.7,0.2c-0.3-0.1-0.4-0.3-0.5-0.5c-0.1-0.3,0-0.5,0.2-0.7c0.6-0.6,1.2-1.2,1.8-1.8
		c0,0,0.1-0.1,0.1-0.1c0,0-0.1-0.1-0.1-0.1C5.8,6.8,5.2,6.2,4.6,5.6C4.4,5.4,4.4,5.2,4.4,4.9c0.1-0.3,0.2-0.4,0.5-0.5
		c0.3-0.1,0.5,0,0.7,0.2c0.6,0.6,1.2,1.2,1.8,1.8C7.4,6.4,7.4,6.5,7.5,6.6z"/>
</g>
</svg>
