<svg xmlns="http://www.w3.org/2000/svg" width="13.064" height="9.754" viewBox="0 0 13.064 9.754"><path class="a" d="M82.077,192.167a1.678,1.678,0,1,1,1.678-1.678A1.683,1.683,0,0,1,82.077,192.167Zm0-4.314a2.636,2.636,0,1,0,2.636,2.636A2.636,2.636,0,0,0,82.077,187.853Zm.06,6.447c-2.421,0-4.182-1.222-5.428-3.811,1.246-2.576,3.008-3.81,5.428-3.81s4.182,1.234,5.428,3.81C86.319,193.065,84.557,194.3,82.137,194.3Zm6.447-4.194c-1.426-3-3.571-4.505-6.447-4.505s-5.021,1.51-6.447,4.493a.863.863,0,0,0,0,.767q2.139,4.494,6.447,4.494c2.876,0,5.021-1.51,6.447-4.494A.921.921,0,0,0,88.583,190.106Z" transform="translate(-75.6 -185.6)"/></svg>