<svg xmlns="http://www.w3.org/2000/svg" width="18" height="18" viewBox="0 0 18 18"><g transform="translate(-4404 -6428)"><rect class="a" width="18" height="18" transform="translate(4404 6428)"/><path class="b" d="M56.238,85.472a.661.661,0,0,1,.183.861l-.056.083L44.282,96.5a.7.7,0,0,1-.97.123.661.661,0,0,1-.183-.861l.057-.083L55.267,85.6a.7.7,0,0,1,.97-.123Zm-1.6,3.33a9.187,9.187,0,0,1,1.46,2.4c-1.161,2.728-3.357,4.785-6.715,4.785a7,7,0,0,1-2.72-.522l1.073-.9a6,6,0,0,0,1.647.221A5.782,5.782,0,0,0,54.759,91.2a7.631,7.631,0,0,0-1.05-1.621l.927-.774Zm-5.255-2.391a6.927,6.927,0,0,1,3,.648l-1.041.869a5.884,5.884,0,0,0-1.962-.321A5.781,5.781,0,0,0,44,91.2a7.438,7.438,0,0,0,1.236,1.828l-.928.774a9,9,0,0,1-1.646-2.6c1.161-2.729,3.357-4.786,6.714-4.786Zm2.44,4.74,0,.046a2.415,2.415,0,0,1-2.442,2.393,2.563,2.563,0,0,1-.433-.037ZM49.381,88.8a2.491,2.491,0,0,1,.769.12l-3.18,2.654a2.373,2.373,0,0,1-.03-.382A2.414,2.414,0,0,1,49.381,88.8Z" transform="translate(4363.333 6346.183)"/></g></svg>