<svg xmlns="http://www.w3.org/2000/svg" width="18" height="18" viewBox="0 0 18 18"><g transform="translate(-510 305)"><rect class="a" width="18" height="18" transform="translate(510 -305)"/><g transform="translate(379.904 -426.191)"><path class="b" d="M144.4,128.864h-.665V127.2a4.323,4.323,0,0,0-4.322-4.322h-.215a4.323,4.323,0,0,0-4.322,4.322v1.662h-.665a2.116,2.116,0,0,0-2.112,2.112v4.654a2.116,2.116,0,0,0,2.112,2.112H144.4a2.116,2.116,0,0,0,2.112-2.112v-4.674A2.112,2.112,0,0,0,144.4,128.864Zm-8.409-1.662a3.221,3.221,0,0,1,3.207-3.207h.215a3.221,3.221,0,0,1,3.207,3.207v1.662h-6.649V127.2Zm9.406,8.409a1,1,0,0,1-1,1H134.227a1,1,0,0,1-1-1v-4.654a1,1,0,0,1,1-1h10.188a1,1,0,0,1,1,1v4.654Z" transform="translate(0 0)"/><path class="b" d="M452.7,610.395m-1.115,0a1.115,1.115,0,1,0,1.115-1.115A1.115,1.115,0,0,0,451.584,610.395Z" transform="translate(-313.387 -477.111)"/></g></g></svg>