<svg xmlns="http://www.w3.org/2000/svg" width="18" height="18" viewBox="0 0 18 18"><g transform="translate(-715 406)"><rect class="a" width="18" height="18" transform="translate(715 -406)"/><path class="b" d="M29.279,157.7H17.1a1.228,1.228,0,0,0-1.224,1.224V166.4a1.223,1.223,0,0,0,1.224,1.224H29.279A1.223,1.223,0,0,0,30.5,166.4v-7.47a1.225,1.225,0,0,0-1.224-1.231m-.287.884-4.857,4.305a1.846,1.846,0,0,1-.937.566,1.846,1.846,0,0,1-.937-.566l-4.857-4.305H28.992m-12.206,7.538v-6.745l3.792,3.331-3.792,3.414m.642.619,3.807-3.384.627.551a1.958,1.958,0,0,0,1.337.476,2,2,0,0,0,1.337-.476l.627-.551,3.807,3.384H17.428m12.169-.619L25.8,162.7l3.792-3.324v6.745m0,0" transform="translate(701.128 -559.336)"/></g></svg>
