<svg xmlns="http://www.w3.org/2000/svg" width="18" height="18" viewBox="0 0 18 18"><g transform="translate(-516 402)"><rect class="a" width="18" height="18" transform="translate(516 -402)"/><g transform="translate(285.884 -483.935)"><path class="b" d="M234.751,83.609a2.3,2.3,0,0,1,1.645-.674h5.564a2.3,2.3,0,0,1,2.319,2.319V96.378A2.3,2.3,0,0,1,241.96,98.7H236.4a2.3,2.3,0,0,1-2.319-2.319V85.254a2.3,2.3,0,0,1,.674-1.645Zm.256,12.769a1.423,1.423,0,0,0,1.389,1.389h5.564a1.423,1.423,0,0,0,1.389-1.389V94.522h-8.342v1.856Zm0-2.778h8.346V85.254a1.423,1.423,0,0,0-1.389-1.389H236.4a1.424,1.424,0,0,0-1.389,1.393V93.6Z" transform="translate(0)"/><path class="b" d="M462.6,764.83h-.926a.463.463,0,1,1,0-.926h.926a.463.463,0,0,1,0,.926Z" transform="translate(-222.958 -668.452)"/><path class="b" d="M360.707,210.027h4.638a.463.463,0,0,0,0-.926h-4.638a.463.463,0,1,0,0,.926Z" transform="translate(-123.848 -123.847)"/><path class="b" d="M360.5,209.1h4.642a.463.463,0,1,1,0,.926H360.5a.437.437,0,0,1-.463-.463A.432.432,0,0,1,360.5,209.1Z" transform="translate(-123.639 -123.847)"/></g></g></svg>