<svg xmlns="http://www.w3.org/2000/svg" width="18" height="18" viewBox="0 0 18 18"><g transform="translate(-718 406)"><rect class="a" width="18" height="18" transform="translate(718 -406)"/><path class="b" d="M10.932,3.231H9.441V2.188A2.191,2.191,0,0,0,7.253,0H2.189A2.191,2.191,0,0,0,0,2.188V7.251A2.191,2.191,0,0,0,2.189,9.439H3.68v1.043a2.191,2.191,0,0,0,2.189,2.188h5.064a2.191,2.191,0,0,0,2.189-2.188V5.42a2.191,2.191,0,0,0-2.189-2.189Zm1.192,7.251a1.2,1.2,0,0,1-1.194,1.194H5.868a1.2,1.2,0,0,1-1.194-1.194V9.438H7.253A2.191,2.191,0,0,0,9.442,7.25V5.8a.5.5,0,1,0-.994,0V7.251A1.2,1.2,0,0,1,7.253,8.445H2.189A1.2,1.2,0,0,1,.994,7.251V2.188A1.2,1.2,0,0,1,2.189.994H7.253A1.2,1.2,0,0,1,8.447,2.188V3.231H5.868A2.191,2.191,0,0,0,3.68,5.42V6.847a.5.5,0,0,0,.994,0V5.42A1.2,1.2,0,0,1,5.868,4.226h5.064A1.2,1.2,0,0,1,12.124,5.42v5.063Z" transform="translate(720.613 -403.355)"/></g></svg>