<svg xmlns="http://www.w3.org/2000/svg" width="18" height="18" viewBox="0 0 18 18"><g transform="translate(-566 305)"><rect class="a" width="18" height="18" transform="translate(566 -305)"/><g transform="translate(514.519 -314.243)"><path class="b" d="M67.441,529.721a7.054,7.054,0,0,0-14.108,0,.492.492,0,0,0,.984,0,6.07,6.07,0,1,1,12.139,0,.492.492,0,0,0,.984,0Z" transform="translate(0 -504.126)"/><path class="b" d="M228.429,19.526A4.429,4.429,0,1,0,224,15.1,4.429,4.429,0,0,0,228.429,19.526Zm0-.984a3.445,3.445,0,1,1,3.445-3.445A3.445,3.445,0,0,1,228.429,18.541Z" transform="translate(-168.042 0)"/></g></g></svg>