<svg xmlns="http://www.w3.org/2000/svg" width="98" height="98" viewBox="0 0 98 98">
  <g id="Group_9545" data-name="Group 9545" transform="translate(-199 -350)">
    <rect id="Rectangle_4720" data-name="Rectangle 4720" width="98" height="98" transform="translate(199 350)" fill="#fff" opacity="0"/>
    <g id="Group_8575" data-name="Group 8575" transform="translate(212.217 354.848)">
      <g id="empty-box" transform="translate(0 34.115)">
        <path id="Path_108" data-name="Path 108" d="M41.853,192.3a15.8,15.8,0,0,1-15.8-15.8H8v27.082H75.706V176.5H57.651A15.8,15.8,0,0,1,41.853,192.3Zm-22.569,6.771" transform="translate(-6.871 -151.674)" fill="rgba(102,102,102,0)"/>
        <g id="Group_5526" data-name="Group 5526" transform="translate(0 0)">
          <path id="Path_109" data-name="Path 109" d="M69.889,24.924l-9.028-23.7A1.129,1.129,0,0,0,59.807.5H10.155A1.129,1.129,0,0,0,9.1,1.226L.073,24.924a1.138,1.138,0,0,0-.066.361c0,.015-.008.026-.008.041V52.408a1.128,1.128,0,0,0,1.128,1.128H68.834a1.128,1.128,0,0,0,1.128-1.128V25.325c0-.015-.008-.026-.008-.041a1.138,1.138,0,0,0-.066-.361ZM10.933,2.757h48.1L67.2,24.2H50.779a1.128,1.128,0,0,0-1.128,1.128,14.67,14.67,0,1,1-29.339,0A1.128,1.128,0,0,0,19.183,24.2H2.765ZM67.706,51.279H2.256V26.454H18.092a16.926,16.926,0,0,0,33.778,0H67.706Zm0,0" transform="translate(0 -0.5)" fill="#ccc"/>
          <path id="Path_110" data-name="Path 110" d="M35.385,301.014H34.257v-3.385a1.128,1.128,0,1,0-2.257,0v4.514a1.129,1.129,0,0,0,1.128,1.128h2.257a1.128,1.128,0,0,0,0-2.257Zm0,0" transform="translate(-27.486 -254.748)" fill="#ccc"/>
          <path id="Path_111" data-name="Path 111" d="M83.385,328.5H81.128a1.128,1.128,0,1,0,0,2.257h2.257a1.128,1.128,0,1,0,0-2.257Zm0,0" transform="translate(-68.716 -282.234)" fill="#ccc"/>
        </g>
      </g>
      <path id="Path_112" data-name="Path 112" d="M20.91-9.18l-6.021-.878L12.2-15.529a1.305,1.305,0,0,0-1.182-.735,1.287,1.287,0,0,0-1.177.735l-2.692,5.47L1.131-9.18A1.324,1.324,0,0,0,.4-6.925L4.758-2.671,3.725,3.338a1.321,1.321,0,0,0,1.3,1.55,1.283,1.283,0,0,0,.614-.155L11.02,1.9,16.4,4.733a1.313,1.313,0,0,0,1.911-1.389l-1.027-6.01,4.356-4.253A1.33,1.33,0,0,0,20.91-9.18ZM16-3.986l-.689.677.161.953.85,4.971L11.87.267l-.855-.453-.855.453L5.705,2.615l.849-4.971.161-.953-.689-.677L2.428-7.51,7.41-8.239l.953-.138.425-.867,2.233-4.523,2.227,4.523.425.867.953.138,4.982.729ZM14.28-18.2,17.07-16.8l1.395,2.79a.919.919,0,0,0,.821.511.909.909,0,0,0,.821-.511L21.5-16.8l2.79-1.395a.92.92,0,0,0,.505-.821.92.92,0,0,0-.505-.821L21.5-21.234l-1.395-2.8a.952.952,0,0,0-1.642,0l-1.395,2.79-2.79,1.395a.921.921,0,0,0-.505.821A.945.945,0,0,0,14.28-18.2Zm3.886-1.538a.929.929,0,0,0,.413-.413l.706-1.418.706,1.418a.958.958,0,0,0,.413.413l1.418.712-1.418.712a.929.929,0,0,0-.413.413l-.706,1.418L18.58-17.9a.959.959,0,0,0-.413-.413l-1.418-.712ZM27.551-13.5l-.918-1.837L25.714-13.5l-1.837.918,1.837.918.918,1.837.918-1.837,1.837-.918Z" transform="translate(19.942 24.504)" fill="#ccc"/>
    </g>
  </g>
</svg>
