<svg xmlns="http://www.w3.org/2000/svg" width="34" height="34" viewBox="0 0 34 34"><defs><style>.a{fill:#393939;opacity:0.7;}.b{fill:#fff;}</style></defs><g transform="translate(0 0.342)"><rect class="a" width="34" height="34" rx="17" transform="translate(0 -0.342)"/><path class="b" d="M2.792-4.572l4.12-4.12.85-.85a.322.322,0,0,0,0-.454l-.909-.909a.322.322,0,0,0-.454,0l-4.97,4.97-4.97-4.971a.322.322,0,0,0-.454,0l-.91.909a.322.322,0,0,0,0,.454L.065-4.572-4.906.4a.322.322,0,0,0,0,.454L-4,1.762a.322.322,0,0,0,.454,0l4.971-4.97L5.549.912l.85.85a.322.322,0,0,0,.454,0L7.762.853a.322.322,0,0,0,0-.454Z" transform="translate(15.773 21.896)"/></g></svg>