<svg width="21" height="20" viewBox="0 0 21 20" fill="none" xmlns="http://www.w3.org/2000/svg">
<path id="bank-line" d="M0.916992 17.26H20.8022V19.1H0.916992V17.26ZM2.90551 9.90001H4.89403V16.34H2.90551V9.90001ZM7.87682 9.90001H9.86533V16.34H7.87682V9.90001ZM11.8539 9.90001H13.8424V16.34H11.8539V9.90001ZM16.8252 9.90001H18.8137V16.34H16.8252V9.90001ZM0.916992 5.30001L10.8596 0.700012L20.8022 5.30001V8.98001H0.916992V5.30001ZM2.90551 6.43701V7.13702H18.8137V6.43701L10.8596 2.75701L2.90551 6.43701ZM10.8596 6.22001C10.6629 6.22001 10.4707 6.16606 10.3072 6.06496C10.1437 5.96387 10.0163 5.82019 9.94102 5.65208C9.86576 5.48398 9.84607 5.29899 9.88444 5.12053C9.9228 4.94207 10.0175 4.77814 10.1565 4.64948C10.2956 4.52081 10.4728 4.43319 10.6656 4.39769C10.8585 4.36219 11.0584 4.38041 11.2401 4.45004C11.4218 4.51968 11.577 4.63759 11.6863 4.78889C11.7955 4.94018 11.8539 5.11805 11.8539 5.30001C11.8539 5.54401 11.7491 5.77802 11.5626 5.95055C11.3762 6.12309 11.1233 6.22001 10.8596 6.22001Z" fill="#00A6FF"/>
</svg>
