<svg width="16" height="16" viewBox="0 0 16 16" fill="none" xmlns="http://www.w3.org/2000/svg">
<path d="M8 16C6.41775 16 4.87103 15.5308 3.55544 14.6518C2.23985 13.7727 1.21447 12.5233 0.608967 11.0615C0.00346625 9.59966 -0.15496 7.99113 0.153721 6.43928C0.462403 4.88743 1.22433 3.46197 2.34315 2.34315C3.46197 1.22433 4.88743 0.462403 6.43928 0.153721C7.99113 -0.15496 9.59966 0.00346625 11.0615 0.608967C12.5233 1.21447 13.7727 2.23985 14.6518 3.55544C15.5308 4.87103 16 6.41775 16 8C15.9976 10.121 15.154 12.1545 13.6542 13.6542C12.1545 15.154 10.121 15.9976 8 16ZM4.085 7.27C4.0172 7.2698 3.95004 7.28305 3.88739 7.30897C3.82474 7.33488 3.76785 7.37296 3.72 7.421L2.99 8.151C2.94205 8.19892 2.90401 8.25582 2.87805 8.31845C2.8521 8.38108 2.83874 8.44821 2.83874 8.516C2.83874 8.5838 2.8521 8.65093 2.87805 8.71356C2.90401 8.77618 2.94205 8.83308 2.99 8.881L6.345 12.235C6.44191 12.3316 6.57317 12.3859 6.71 12.3859C6.84684 12.3859 6.97809 12.3316 7.075 12.235L13.01 6.3C13.1069 6.20305 13.1614 6.07158 13.1614 5.9345C13.1614 5.79742 13.1069 5.66595 13.01 5.569L12.28 4.839C12.2321 4.79105 12.1752 4.75301 12.1126 4.72705C12.0499 4.7011 11.9828 4.68774 11.915 4.68774C11.8472 4.68774 11.7801 4.7011 11.7175 4.72705C11.6548 4.75301 11.5979 4.79105 11.55 4.839L6.71 9.681L4.45 7.421C4.40216 7.37296 4.34527 7.33488 4.28262 7.30897C4.21997 7.28305 4.1528 7.2698 4.085 7.27Z" fill="#00A6FF"/>
</svg>
