<svg xmlns="http://www.w3.org/2000/svg" width="13.945" height="13.945" viewBox="0 0 13.945 13.945"><path d="M4.128,3.375H4.3c.258,0,.363-.39.363-.655V.565C4.665.3,4.532,0,4.274,0H4.1c-.258,0-.377.3-.377.565V2.8C3.723,2.984,3.87,3.375,4.128,3.375Zm5.557,0h.174c.258,0,.377-.39.377-.655V.565c0-.272-.1-.565-.363-.565H9.7c-.258,0-.391.3-.391.565V2.8C9.315,2.984,9.518,3.375,9.685,3.375ZM8.848.969H5.125v.955H8.848Zm3.312,0H10.717v.955H12.16a1.054,1.054,0,0,1,.955,1.067v.893H.892v-.9a1.054,1.054,0,0,1,.955-1.067H3.263V.969H1.938A2.171,2.171,0,0,0,0,3.075v8.688a2.248,2.248,0,0,0,1.938,2.182H12.244c.955,0,1.7-1.109,1.7-2.182V3.075C13.862,2.092,13.2.969,12.16.969Zm.9,10.7c0,.628-.3,1.318-.906,1.318H1.938c-.523,0-1.011-.69-1.011-1.227V4.776H13.067v6.9h-.007Zm-9.538-.809H10.6c.146,0,.474-.126.474-.356v-.153c0-.23-.321-.321-.544-.321H3.521c-.223,0-.474.119-.474.349v.153C3.047,10.759,3.3,10.863,3.521,10.863Zm0-2.991H10.6c.146,0,.474-.126.474-.356V7.363c0-.23-.321-.321-.544-.321H3.521c-.223,0-.474.119-.474.342v.153C3.047,7.775,3.3,7.872,3.521,7.872Z"/></svg>