<svg id="Group_8966" data-name="Group 8966" xmlns="http://www.w3.org/2000/svg" width="22" height="22" viewBox="0 0 22 22">
  <rect id="Rectangle_1665" data-name="Rectangle 1665" width="22" height="22" fill="#fff" opacity="0"/>
  <g id="Group_5597" data-name="Group 5597" transform="translate(1.692 1.692)">
    <circle id="Ellipse_66" data-name="Ellipse 66" cx="9.308" cy="9.308" r="9.308" fill="#26a17b"/>
    <g id="Group_5470" data-name="Group 5470" transform="translate(3.578 4.635)">
      <path id="Path_5203" data-name="Path 5203" d="M34.615,49.8h0c-.064,0-.392.024-1.122.024-.584,0-.993-.016-1.138-.024h0c-2.246-.1-3.92-.489-3.92-.958s1.676-.859,3.92-.958v1.527c.146.01.568.035,1.149.035.7,0,1.047-.03,1.112-.035V47.89c2.241.1,3.912.491,3.912.958s-1.672.857-3.912.958m0-2.074V46.366h3.127V44.283H29.23v2.083h3.127v1.366c-2.541.117-4.451.619-4.451,1.223s1.911,1.106,4.451,1.224v4.379h2.26V50.178c2.537-.117,4.444-.619,4.444-1.223s-1.907-1.106-4.444-1.223" transform="translate(-27.905 -44.283)" fill="#fff"/>
    </g>
  </g>
</svg>
