<svg id="check" xmlns="http://www.w3.org/2000/svg" xmlns:xlink="http://www.w3.org/1999/xlink" width="16" height="16" viewBox="0 0 16 16">
  <defs>
    <clipPath id="clip-path">
      <rect id="SVGID" width="8" height="8" fill="#fff"/>
    </clipPath>
  </defs>
  <path id="Subtraction_10" data-name="Subtraction 10" d="M5324-10284a8,8,0,0,0-8,8,8,8,0,0,0,8,8,8,8,0,0,0,8-8A8,8,0,0,0,5324-10284Z" transform="translate(-5316 10284)" fill="#42d200"/>
  <g id="流水" transform="translate(4 4)" clip-path="url(#clip-path)">
    <path id="Path_2" data-name="Path 2" d="M-29.1,55.088a1.1,1.1,0,0,1,1.1,1.1v1.4a1.1,1.1,0,0,1-1.1,1.1h-.2v4.093a.3.3,0,0,1-.48.24l-.62-.464-.56.419a.4.4,0,0,1-.48,0l-.56-.419-.56.419a.4.4,0,0,1-.48,0l-.56-.419-.62.464a.3.3,0,0,1-.48-.24V58.682h-.2A1.1,1.1,0,0,1-36,57.613V56.186a1.1,1.1,0,0,1,1.1-1.1Zm-.9,2h-4a.1.1,0,0,0-.1.1v4.992l.26-.195a.4.4,0,0,1,.48,0l.56.419.56-.419a.4.4,0,0,1,.48,0l.56.419.56-.419a.4.4,0,0,1,.48,0l.26.195V57.185a.1.1,0,0,0-.1-.1ZM-31.7,59.8a.3.3,0,0,1,.3.3.3.3,0,0,1-.3.3h-1.2a.3.3,0,0,1-.3-.3.3.3,0,0,1,.3-.3Zm.6-1.3a.3.3,0,0,1,.3.3.3.3,0,0,1-.3.3h-1.8a.3.3,0,0,1-.3-.3.3.3,0,0,1,.3-.3Zm2-2.817h-5.8a.5.5,0,0,0-.354.146.5.5,0,0,0-.146.353v1.4a.5.5,0,0,0,.146.353.5.5,0,0,0,.354.146h.2v-.9a.7.7,0,0,1,.7-.7h4a.7.7,0,0,1,.7.7v.9h.2a.5.5,0,0,0,.5-.478V56.186a.5.5,0,0,0-.146-.353.5.5,0,0,0-.353-.146Zm0,0" transform="translate(36 -55.087)" fill="#fff"/>
  </g>
</svg>
