<svg xmlns="http://www.w3.org/2000/svg" width="15.216" height="12.57" viewBox="0 0 15.216 12.57"><path d="M57.586,85.486a.727.727,0,0,1,.2.946l-.062.091L44.442,97.614a.775.775,0,0,1-1.066.136.727.727,0,0,1-.2-.946l.062-.091,13.282-11.09a.775.775,0,0,1,1.066-.136Zm-1.76,3.66a10.1,10.1,0,0,1,1.6,2.633c-1.277,3-3.691,5.261-7.382,5.261a7.7,7.7,0,0,1-2.99-.574l1.18-.984a6.6,6.6,0,0,0,1.811.243A6.356,6.356,0,0,0,55.96,91.78,8.389,8.389,0,0,0,54.807,90l1.019-.851Zm-5.777-2.628a7.615,7.615,0,0,1,3.3.712l-1.145.955a6.468,6.468,0,0,0-2.157-.353,6.356,6.356,0,0,0-5.912,3.946A8.177,8.177,0,0,0,45.5,93.79l-1.02.851a9.9,9.9,0,0,1-1.809-2.861c1.277-3,3.691-5.261,7.381-5.261Zm2.683,5.211,0,.05a2.655,2.655,0,0,1-2.685,2.63,2.818,2.818,0,0,1-.476-.041Zm-2.683-2.58a2.739,2.739,0,0,1,.845.132L47.4,92.2a2.609,2.609,0,0,1-.033-.42,2.653,2.653,0,0,1,2.683-2.63Z" transform="translate(-42.667 -85.333)"/></svg>