<svg width="30" height="30" viewBox="0 0 30 30" fill="none" xmlns="http://www.w3.org/2000/svg">
<path id="Vector" d="M20.3561 18.7928L16.5096 15L20.3561 11.2071C20.4631 11.1069 20.5484 10.9858 20.6068 10.8512C20.6651 10.7167 20.6952 10.5716 20.6952 10.425C20.6952 10.2784 20.6651 10.1333 20.6068 9.99874C20.5484 9.8642 20.4631 9.74307 20.3561 9.64285C20.2559 9.54355 20.1372 9.46498 20.0067 9.41167C19.8761 9.35835 19.7364 9.33132 19.5953 9.33213C19.3143 9.33332 19.0449 9.44491 18.8453 9.64285L14.9989 13.4893L11.2061 9.64285C11.0065 9.44491 10.7371 9.33332 10.4561 9.33213C10.3151 9.33132 10.1753 9.35835 10.0447 9.41167C9.91419 9.46498 9.79546 9.54355 9.69535 9.64285C9.49579 9.84359 9.38378 10.1152 9.38378 10.3982C9.38378 10.6813 9.49579 10.9528 9.69535 11.1536L13.4882 15L9.69535 18.7928C9.51982 18.9978 9.4281 19.2615 9.43851 19.5311C9.44893 19.8008 9.56071 20.0566 9.75153 20.2474C9.94234 20.4382 10.1981 20.55 10.4678 20.5604C10.7374 20.5708 11.0011 20.4791 11.2061 20.3036L14.9989 16.5107L18.7918 20.3036C18.891 20.4063 19.0094 20.4884 19.1404 20.5454C19.2713 20.6023 19.4122 20.6329 19.555 20.6354C19.6977 20.6379 19.8396 20.6122 19.9725 20.5599C20.1053 20.5075 20.2266 20.4295 20.3293 20.3303C20.432 20.2312 20.5142 20.1127 20.5711 19.9817C20.628 19.8508 20.6586 19.7099 20.6611 19.5671C20.6636 19.4244 20.6379 19.2825 20.5856 19.1497C20.5332 19.0168 20.4553 18.8956 20.3561 18.7928ZM25.6061 4.39285C23.5082 2.29522 20.8355 0.866755 17.9258 0.288099C15.0161 -0.290554 12.0002 0.00658417 9.25939 1.14194C6.51859 2.2773 4.176 4.19989 2.52785 6.6666C0.879696 9.1333 0 12.0333 0 15C0 17.9666 0.879696 20.8667 2.52785 23.3334C4.176 25.8001 6.51859 27.7227 9.25939 28.858C12.0002 29.9934 15.0161 30.2905 17.9258 29.7119C20.8355 29.1332 23.5082 27.7048 25.6061 25.6071C26.9991 24.2142 28.1041 22.5606 28.858 20.7406C29.612 18.9206 30 16.9699 30 15C30 13.03 29.612 11.0794 28.858 9.25939C28.1041 7.4394 26.9991 5.78575 25.6061 4.39285ZM24.0953 24.0964C22.2955 25.8901 20.0045 27.1102 17.5117 27.6026C15.0188 28.0951 12.436 27.8379 10.0892 26.8635C7.74251 25.889 5.73714 24.2411 4.32635 22.1277C2.91556 20.0143 2.16263 17.5303 2.16263 14.9893C2.16263 12.4483 2.91556 9.96425 4.32635 7.85087C5.73714 5.73749 7.74251 4.08954 10.0892 3.1151C12.436 2.14067 15.0188 1.88345 17.5117 2.37593C20.0045 2.8684 22.2955 4.0885 24.0953 5.88213C25.294 7.07661 26.245 8.49594 26.8939 10.0588C27.5429 11.6216 27.8769 13.2971 27.8769 14.9893C27.8769 16.6815 27.5429 18.357 26.8939 19.9198C26.245 21.4826 25.294 22.9019 24.0953 24.0964Z" fill="white"/>
</svg>
