<svg xmlns="http://www.w3.org/2000/svg" width="17.583" height="17.016" viewBox="0 0 17.583 17.016">
  <path id="客服_5_" data-name="客服 (5)" d="M15.63,5.89h-.684a6.16,6.16,0,0,0-12.308,0H1.953A1.964,1.964,0,0,0,0,7.853V9.162a1.964,1.964,0,0,0,1.953,1.963h.652a1.31,1.31,0,0,0,1.3-1.309v-3.6a4.884,4.884,0,1,1,9.768,0V10.8a4.248,4.248,0,0,1-3.191,4.124A1.263,1.263,0,0,0,9.443,14.4H8.14a1.31,1.31,0,0,0,0,2.618h1.3a1.332,1.332,0,0,0,1.2-.786,5.571,5.571,0,0,0,4.331-5.1h.652a1.964,1.964,0,0,0,1.953-1.963V7.853A1.964,1.964,0,0,0,15.63,5.89Z" transform="translate(0)" fill="#fff"/>
</svg>
