<svg xmlns="http://www.w3.org/2000/svg" width="14" height="14" viewBox="0 0 14 14">
  <g id="Group_12657" data-name="Group 12657" transform="translate(-8936 -435)">
    <path id="Path" d="M14,7a7,7,0,1,0-7,7A7,7,0,0,0,14,7Z" transform="translate(8936 435)" fill="#42d200"/>
    <g id="Group_12653" data-name="Group 12653" transform="translate(9.404 -21.596)">
      <path id="wallet" d="M158.111,157.843a3.569,3.569,0,0,0-1.756-2.229c-.1-.059-.214-.107-.322-.161a.017.017,0,0,1,0-.007l.055-.05a1.615,1.615,0,0,0,.441-.6,2.606,2.606,0,0,0,.082-.268.657.657,0,0,0-.214-.7.865.865,0,0,0-.925-.121c-.023.009-.038.016-.061,0a1.176,1.176,0,0,0-1.547-.009.048.048,0,0,1-.061.011.891.891,0,0,0-.545-.057.693.693,0,0,0-.6.759,1.587,1.587,0,0,0,.424.9c.049.053.1.1.154.156l-.04.018a3.6,3.6,0,0,0-2.147,3.035,3.278,3.278,0,0,0,.092,1.092,1.338,1.338,0,0,0,1.295.992c1.47,0,2.94,0,4.41,0a1.288,1.288,0,0,0,1.1-.575,1.456,1.456,0,0,0,.233-.627A3.568,3.568,0,0,0,158.111,157.843Z" transform="translate(8778.954 306.595)" fill="none" stroke="#fff" stroke-width="0.7"/>
      <path id="wallet-2" data-name="wallet" d="M155.953,159.069a.245.245,0,0,1-.15.043h-.635v.193a.263.263,0,0,1-.068.169.2.2,0,0,1-.177.072.3.3,0,0,1-.181-.053.24.24,0,0,1-.082-.188v-.193h-.617a.215.215,0,0,1-.15-.053.144.144,0,0,1-.05-.13.179.179,0,0,1,.059-.14.2.2,0,0,1,.141-.053h.617V158.4h-.617a.192.192,0,0,1-.2-.193.217.217,0,0,1,.059-.145.181.181,0,0,1,.141-.068h.617l.009-.2q-.163-.174-.3-.328l-.218-.251-.136-.135a.572.572,0,0,1-.082-.159.222.222,0,0,1,.036-.208.165.165,0,0,1,.2-.053.56.56,0,0,1,.19.111q.036.048.127.145l.435.464.281-.28q.108-.105.218-.208t.154-.14a.258.258,0,0,1,.181-.077.194.194,0,0,1,.163.087q.118.145-.091.338-.054.048-.163.169t-.218.237q-.127.145-.281.3v.184h.59a.245.245,0,0,1,.186.063.2.2,0,0,1,.059.14.221.221,0,0,1-.054.15.207.207,0,0,1-.181.053l-.59.01-.009.328h.581q.254,0,.254.2A.144.144,0,0,1,155.953,159.069Z" transform="translate(8778.854 306.268)" fill="#fff"/>
    </g>
  </g>
</svg>
