<svg xmlns="http://www.w3.org/2000/svg" width="18" height="18" viewBox="0 0 18 18"><path d="M2.219-12.031a9,9,0,0,0-9,9,9,9,0,0,0,9,9,9,9,0,0,0,9-9A9,9,0,0,0,2.219-12.031ZM6.632-.669a.436.436,0,0,1,0,.617L5.195,1.382a.436.436,0,0,1-.617,0L2.219-1-.144,1.382a.436.436,0,0,1-.617,0L-2.194-.055a.436.436,0,0,1,0-.617L.186-3.031-2.194-5.394a.436.436,0,0,1,0-.617L-.757-7.448a.436.436,0,0,1,.617,0L2.219-5.064,4.581-7.444a.436.436,0,0,1,.617,0L6.635-6.007a.436.436,0,0,1,0,.617L4.251-3.031Z" transform="translate(6.781 12.031)"/></svg>