<svg xmlns="http://www.w3.org/2000/svg" width="15.967" height="11.921" viewBox="0 0 15.967 11.921"><path d="M83.516,193.626a2.05,2.05,0,1,1,2.05-2.05A2.056,2.056,0,0,1,83.516,193.626Zm0-5.272a3.222,3.222,0,1,0,3.222,3.222A3.222,3.222,0,0,0,83.516,188.353Zm.073,7.879c-2.958,0-5.111-1.494-6.634-4.657,1.523-3.149,3.676-4.657,6.634-4.657s5.111,1.508,6.634,4.657C88.7,194.724,86.548,196.233,83.589,196.233Zm7.879-5.126c-1.743-3.661-4.364-5.507-7.879-5.507s-6.136,1.845-7.879,5.492a1.055,1.055,0,0,0,0,.937q2.614,5.492,7.879,5.492c3.515,0,6.136-1.845,7.879-5.492A1.126,1.126,0,0,0,91.468,191.107Z" transform="translate(-75.6 -185.6)"/></svg>