<svg xmlns="http://www.w3.org/2000/svg" width="69.649" height="31.164" viewBox="0 0 69.649 31.164"><g transform="translate(0 0.071)"><g transform="translate(0 -0.071)"><path class="a" d="M62.568,51.741l2.907-.021.256-2.02H62.746l.224-2.569-2.588.037L60.158,49.7H56.949l.216-2.921a43.789,43.789,0,0,0,8.289-.757l-.352-1.8c-1.651.74-9.944.983-9.944.983l.006.148h-.018L54.824,49.7h-.842l-.231,2.106,6.224-.045L59.821,53.5l.755,0a7.33,7.33,0,0,0-.759.041l-.091,1.024c-.2.476-.689.941-1.841.982l-.049,2.307s4.578-.336,4.436-2.971l.022-.016Z" transform="translate(-51.916 -44.218)"/><path class="a" d="M113.024,114.454l-.129,1.471-.728-.079.152-1.463Z" transform="translate(-102.539 -105.022)"/><path class="a" d="M64.151,51.825l.019-.237.281.119-.212.246Z" transform="translate(-60.929 -50.605)"/><path class="a" d="M54.446,120.877l.48-.961.555.189-.581.847Z" transform="translate(-52.519 -109.815)"/><rect class="a" width="1.428" height="0.483" transform="translate(0.762 11.352)"/><path class="a" d="M47.715,104.063l-1.126,2.219.069.369-.1.084s.317-.033.286.055l-.046.091.009.006c-.028.068-.576.144-.62.216a.556.556,0,0,1-.528.327H45l-.11,1.718h1.737a1.019,1.019,0,0,0,.249-.07,1.727,1.727,0,0,0,1.089-1.02h0l2.067-4Z" transform="translate(-44.234 -96.078)"/><path class="a" d="M57.5,133.9a1.6,1.6,0,0,0,1.215-.766c.36-.661-.467-.487-.467-.487l-.723.2Z" transform="translate(-55.164 -120.826)"/><path class="a" d="M99.128,111.327l-.046.521.589.177.176-.757Z" transform="translate(-91.199 -102.322)"/><path class="a" d="M126.6,139.8s1.38.758,4.887.146l-2.281-.884-1.911.072Z" transform="translate(-115.049 -126.412)"/><path class="a" d="M148.033,62.732l.256-.262.051-.969.5-.022.131-2.67H147.75l.114-.85H145.9l-.115.85h-1.236l.09-.85h-1.964l-.114.85h-1.3l.088-.818h-1.963l-.12.818h-.992v.053l-.134,2.682.448.007-.121,2.679-.028.625h.011l-.016.363,4.169-.009-.024.479h-4.49l-.163,1.485,4.581-.028-.034.688h-4.437v.008c-3.128-.095-4.486-1.645-5.039-2.657l.042-1.162,5.015.042.225-2.214h-5.163l.065-1.808,4.532-.015.156-1.8-12.78-.116-.235,1.955,5.832-.019-.054,1.8h-5.18l-.214,2.107,5.33.044-.029.958A5.245,5.245,0,0,1,128.97,67l-.036.032c-1.45,1.2-4.034.917-4.034.917-.013-.062-.025-.131-.038-.214-.11-.742-.169-2.386-.187-2.982,0-.14-.006-.222-.006-.222l-2.4.074.027.879h.249l.3,4.032a4.885,4.885,0,0,0,1.792.326c.337.039,4.8.5,7.135-2.581,1.863,2.286,5.536,2.567,6.263,2.6v.007l10.4.025.183-2.063h-4.209l.04-.7,4.066-.025.156-1.421h-4.139l.028-.483,3.575-.008.086-1.3h-.006l.061-1.161ZM146.708,63.9l-6.449.011.058-1.174h6.448Zm.665-2.537H139.6l.064-1.02,7.749.026Z" transform="translate(-111.29 -56.126)"/><path class="a" d="M223.828,129.331a9.88,9.88,0,0,1-2.782-.409l.565,1.087,1.876-.235Z" transform="translate(-196.889 -117.62)"/><path class="a" d="M222.051,140.779a10.474,10.474,0,0,1-2.979-.5l1.7-.5,1.679.464Z" transform="translate(-195.179 -127.035)"/><path class="a" d="M243.4,108.67h-.384l.039-.578h.993Z" transform="translate(-215.925 -99.57)"/><path class="a" d="M311.176,90.521l.071-1.359h-.671l-.224,1.087Z" transform="translate(-274.28 -83.165)"/><path class="a" d="M46.032,166.292l7.778-.034.347-3.191-8.985.045h0l-1.121.006c-3.25.253-3.535,3.8-3.535,3.8L40,178.043l4.383.023.26-5.292,8.514-.043.2-3.164-8.58.052s.011-.93.117-1.972A1.479,1.479,0,0,1,46.032,166.292Z" transform="translate(-40.001 -147.209)"/><g transform="translate(14.481 15.858)"><path class="a" d="M162.63,163.067l-.822,8.3c-.468,4.722-1.235,6.818-7.13,6.818-4.994,0-6.526-2.184-6.071-6.774l.827-8.341h4.335l-.846,8.54c-.262,2.648-.017,3.2,1.9,3.2,1.848,0,2.541-.614,2.8-3.2l.847-8.54Z" transform="translate(-148.53 -163.067)"/></g><path class="a" d="M264.072,163.129l-.44,4.4a31.364,31.364,0,0,0-.313,4.407c-.451-1.116-.981-2.08-1.528-3.263l-2.585-5.539h-3.992L253.7,178.244h3.656l.628-4.552c.164-1.639.368-3.128.514-4.536.481,1.127,1.031,2.248,1.482,3.258l2.5,4.945h0a1.818,1.818,0,0,0,1.786,1.068,2.139,2.139,0,0,0,2.164-1.992l1.293-13.305Z" transform="translate(-225.187 -147.263)"/><path class="a" d="M360.847,170.778a2.157,2.157,0,0,0-1.1,1.667l-.364,4.051a1.726,1.726,0,0,0,1.736,1.93h8.529a2.144,2.144,0,0,0,2.083-1.93l.364-4.051a1.746,1.746,0,0,0-.8-1.667,2.158,2.158,0,0,0,1.1-1.668l.365-4.051a1.726,1.726,0,0,0-1.736-1.93h-8.529a2.144,2.144,0,0,0-2.083,1.93l-.365,4.051A1.746,1.746,0,0,0,360.847,170.778Zm2.337,2a.9.9,0,0,1,.906-.77h3.739a.725.725,0,0,1,.768.77l-.145,1.617a.9.9,0,0,1-.907.77h-3.739a.724.724,0,0,1-.768-.77Zm.514-5.714a.9.9,0,0,1,.906-.77h3.739a.724.724,0,0,1,.768.77l-.145,1.617a.9.9,0,0,1-.906.77H364.32a.724.724,0,0,1-.768-.77Z" transform="translate(-316.761 -147.263)"/><path class="a" d="M463.1,170.778a2.157,2.157,0,0,0-1.1,1.667l-.364,4.051a1.726,1.726,0,0,0,1.736,1.93H471.9a2.144,2.144,0,0,0,2.083-1.93l.364-4.051a1.745,1.745,0,0,0-.8-1.667,2.158,2.158,0,0,0,1.1-1.668l.365-4.051a1.726,1.726,0,0,0-1.736-1.93h-8.529a2.144,2.144,0,0,0-2.083,1.93l-.365,4.051A1.746,1.746,0,0,0,463.1,170.778Zm2.337,2a.9.9,0,0,1,.906-.77h3.739a.724.724,0,0,1,.768.77L470.7,174.4a.9.9,0,0,1-.907.77h-3.739a.724.724,0,0,1-.768-.77Zm.514-5.714a.9.9,0,0,1,.906-.77h3.739a.724.724,0,0,1,.768.77l-.145,1.617a.9.9,0,0,1-.906.77H466.57a.724.724,0,0,1-.767-.77Z" transform="translate(-405.368 -147.263)"/></g></g></svg>