<svg xmlns="http://www.w3.org/2000/svg" width="60.689" height="27.869" viewBox="0 0 60.689 27.869"><g transform="translate(0 0.715)"><g transform="translate(0 0)"><path d="M9.5,11.67h0L9.237,8.156H9.02L9,7.391l2.093-.065s0,.072.005.194c.015.519.067,1.951.162,2.6.011.073.023.132.033.186a5.474,5.474,0,0,0,3.515-.8l.031-.028A4.57,4.57,0,0,0,16.2,7.7l.025-.834-4.644-.039.186-1.837h4.513l.047-1.568-5.081.017.2-1.7,11.136.1L22.454,3.4l-3.948.013-.057,1.575h4.5l-.2,1.93-4.37-.037-.036,1.013a4.593,4.593,0,0,0,3.789,2.274c.255.023.466.032.6.035v0H26.6l.03-.6-3.992.024.142-1.294h3.912l.021-.417-3.338.007-.009.008h-.335l.034-.5H23.1l.017-.365.105-2.335-.391-.005.117-2.336V2.339h.864l.1-.713h1.711l-.077.713H26.68l.1-.742H28.49l-.078.742h1.077l.1-.742H31.3l-.1.742h1.063l-.114,2.327-.435.019-.045.844-.046.047-.01.181h.044l-.053,1.011h0L31.537,7.9l-3.116.007-.024.42H32L31.867,9.57l-3.543.022-.035.609h3.667L31.8,12l-8.961-.021h-.1a9.785,9.785,0,0,1-2.486-.433l.014,0A6.08,6.08,0,0,1,17.28,9.7a6.609,6.609,0,0,1-5.156,2.286c-.2.011-.384.016-.558.016A4.677,4.677,0,0,1,9.5,11.67ZM24.674,6.78l5.62-.009.049-1.013H24.725ZM24.1,4.56h6.771l.037-.866-6.752-.023ZM4.634,9.866c1-.036,1.431-.441,1.6-.856l.068-.771.034-.392h0l.113-1.274-5.423.04.2-1.835h.733L2.24,1.064h0L2.255.857h0C2.393.854,9.5.639,10.921,0l.307,1.572a38.143,38.143,0,0,1-7.222.66L3.817,4.777h2.8l.2-2.206,2.255-.032-.2,2.238h2.6l-.222,1.76-2.533.018L8.568,8.22h0l-.009.1-.083.951h0l-.019.215c-.111,2.113-3.865,2.388-3.865,2.388ZM6.9,8.084l.077,0H6.9Zm-5.652,3.3H0l.1-1.5H.769a.517.517,0,0,0,.343-.253l.372-.746h0l.034-.068L1.529,8.8h0l.935-1.843H4.481L2.68,10.44h0a2.06,2.06,0,0,1-.155.282h0a1.332,1.332,0,0,1-.871.635.908.908,0,0,1-.141.032Z" transform="translate(0.568)"/><path d="M45.256,165.877l6.778-.029.3-2.781-7.829.039h0l-.977,0c-2.832.22-3.08,3.314-3.08,3.314L40,176.117l3.819.02.227-4.611,7.418-.038.171-2.757-7.476.046s.009-.81.1-1.719A1.289,1.289,0,0,1,45.256,165.877Z" transform="translate(-40.001 -149.249)"/><g transform="translate(12.618 13.818)"><path d="M160.816,163.067l-.717,7.23c-.408,4.115-1.076,5.941-6.213,5.941-4.351,0-5.686-1.9-5.29-5.9l.72-7.268h3.777l-.738,7.441c-.229,2.307-.015,2.785,1.658,2.785,1.61,0,2.214-.535,2.437-2.785l.738-7.441Z" transform="translate(-148.53 -163.067)"/></g><path d="M262.738,163.129l-.384,3.83a27.334,27.334,0,0,0-.273,3.84c-.393-.973-.855-1.813-1.332-2.843l-2.253-4.827h-3.478L253.7,176.3h3.186l.547-3.967c.143-1.428.321-2.726.448-3.952.419.982.9,1.959,1.292,2.839l2.181,4.308h0a1.584,1.584,0,0,0,1.557.931,1.864,1.864,0,0,0,1.886-1.736l1.127-11.593Z" transform="translate(-228.855 -149.304)"/><path d="M360.658,169.794a1.88,1.88,0,0,0-.959,1.453l-.318,3.53a1.5,1.5,0,0,0,1.513,1.682h7.432a1.868,1.868,0,0,0,1.815-1.682l.318-3.53a1.521,1.521,0,0,0-.7-1.453,1.88,1.88,0,0,0,.959-1.453l.318-3.53a1.5,1.5,0,0,0-1.513-1.682h-7.432a1.868,1.868,0,0,0-1.815,1.682l-.318,3.53A1.521,1.521,0,0,0,360.658,169.794Zm2.036,1.744a.784.784,0,0,1,.79-.671h3.258a.631.631,0,0,1,.669.671l-.127,1.409a.784.784,0,0,1-.79.671h-3.258a.631.631,0,0,1-.669-.671Zm.448-4.979a.784.784,0,0,1,.79-.671h3.258a.631.631,0,0,1,.669.671l-.127,1.409a.784.784,0,0,1-.79.671h-3.258a.631.631,0,0,1-.669-.671Z" transform="translate(-322.243 -149.304)"/><path d="M462.908,169.794a1.88,1.88,0,0,0-.959,1.453l-.318,3.53a1.5,1.5,0,0,0,1.513,1.682h7.432a1.868,1.868,0,0,0,1.815-1.682l.317-3.53a1.521,1.521,0,0,0-.7-1.453,1.88,1.88,0,0,0,.959-1.453l.318-3.53a1.5,1.5,0,0,0-1.513-1.682h-7.432a1.868,1.868,0,0,0-1.815,1.682l-.318,3.53A1.522,1.522,0,0,0,462.908,169.794Zm2.036,1.744a.784.784,0,0,1,.789-.671h3.258a.631.631,0,0,1,.669.671l-.127,1.409a.784.784,0,0,1-.79.671h-3.258a.631.631,0,0,1-.669-.671Zm.448-4.979a.784.784,0,0,1,.79-.671h3.258a.631.631,0,0,1,.669.671l-.127,1.409a.784.784,0,0,1-.79.671h-3.258a.631.631,0,0,1-.669-.671Z" transform="translate(-412.605 -149.304)"/></g></g></svg>