<svg width="22" height="19" viewBox="0 0 22 19" fill="none" xmlns="http://www.w3.org/2000/svg">
<g id="Frame" clip-path="url(#clip0_3320_6093)">
<path id="home" d="M20.5734 8.96398L11.6889 0.74998L11.0955 0.19498C10.9599 0.0701008 10.7763 0 10.5849 0C10.3935 0 10.2099 0.0701008 10.0743 0.19498L0.592052 8.96398C0.452994 9.09218 0.3431 9.24486 0.268854 9.41301C0.194608 9.58115 0.157515 9.76135 0.159764 9.94298C0.167423 10.3037 0.328132 10.6472 0.607179 10.8992C0.886226 11.1513 1.26122 11.2916 1.65115 11.29H2.6238V18.219H18.532V11.289H19.5295C19.8206 11.289 20.1052 11.2091 20.3473 11.0594C20.5893 10.9097 20.7778 10.6968 20.8891 10.4479C21.0003 10.1989 21.0291 9.92499 20.972 9.66083C20.9148 9.39667 20.7743 9.15415 20.568 8.96398H20.5734ZM11.8704 16.687H9.29723V12.347H11.8715L11.8704 16.687ZM16.8806 9.75798V16.687H13.3445V11.836C13.3445 11.6103 13.2476 11.3938 13.0751 11.2342C12.9027 11.0746 12.6687 10.985 12.4248 10.985H8.75039C8.50647 10.985 8.27254 11.0746 8.10007 11.2342C7.92759 11.3938 7.8307 11.6103 7.8307 11.836V16.687H4.28594V9.75798H2.07912L10.5865 1.89198L11.1172 2.38398L19.0896 9.75798H16.8806Z" fill="#00A6FF"/>
</g>
<defs>
<clipPath id="clip0_3320_6093">
<rect width="20.8449" height="18.218" fill="white" transform="translate(0.161621)"/>
</clipPath>
</defs>
</svg>
