<svg xmlns="http://www.w3.org/2000/svg" width="26" height="26" viewBox="0 0 26 26">
  <g id="Group_13353" data-name="Group 13353" transform="translate(-1460 -2019)">
    <rect id="Rectangle_16745" data-name="Rectangle 16745" width="26" height="26" transform="translate(1460 2019)" fill="#fff" opacity="0"/>
    <path id="home2" d="M93.192,92.713,84.368,84a1.4,1.4,0,0,0-1.847-.231,1.212,1.212,0,0,0-.281.258l-8.8,8.685a.851.851,0,0,0,0,1.215c.337.334.786.193,1.168-.184l.592-.585.9-.872a.279.279,0,0,0-.053.078v8.825a2.1,2.1,0,0,0,2.115,2.091H81.68V97.467a.739.739,0,0,1,.745-.733h1.782a.739.739,0,0,1,.745.733v5.815H88.47a2.1,2.1,0,0,0,2.115-2.091V92.4l1.439,1.415c.466.307.876.4,1.168.115A.852.852,0,0,0,93.192,92.713Z" transform="translate(1389.816 1938.475)" fill="#fff"/>
  </g>
</svg>
