<svg width="20" height="14" viewBox="0 0 20 14" fill="none" xmlns="http://www.w3.org/2000/svg">
<rect width="20" height="14" rx="2" fill="#FDB454"/>
<path d="M6.30078 6.62891V7.54297H3.33203V6.62891H6.30078ZM3.67969 4.3125V10H2.50781V4.3125H3.67969ZM7.13672 4.3125V10H5.96875V4.3125H7.13672ZM12.8281 7.02344V7.29297C12.8281 7.72526 12.7695 8.11328 12.6523 8.45703C12.5352 8.80078 12.3698 9.09375 12.1562 9.33594C11.9427 9.57552 11.6875 9.75911 11.3906 9.88672C11.0964 10.0143 10.7695 10.0781 10.4102 10.0781C10.0534 10.0781 9.72656 10.0143 9.42969 9.88672C9.13542 9.75911 8.88021 9.57552 8.66406 9.33594C8.44792 9.09375 8.27995 8.80078 8.16016 8.45703C8.04297 8.11328 7.98438 7.72526 7.98438 7.29297V7.02344C7.98438 6.58854 8.04297 6.20052 8.16016 5.85938C8.27734 5.51562 8.44271 5.22266 8.65625 4.98047C8.8724 4.73828 9.1276 4.55339 9.42188 4.42578C9.71875 4.29818 10.0456 4.23438 10.4023 4.23438C10.7617 4.23438 11.0885 4.29818 11.3828 4.42578C11.6797 4.55339 11.9349 4.73828 12.1484 4.98047C12.3646 5.22266 12.5312 5.51562 12.6484 5.85938C12.7682 6.20052 12.8281 6.58854 12.8281 7.02344ZM11.6445 7.29297V7.01562C11.6445 6.71354 11.6172 6.44792 11.5625 6.21875C11.5078 5.98958 11.4271 5.79688 11.3203 5.64062C11.2135 5.48438 11.0833 5.36719 10.9297 5.28906C10.776 5.20833 10.6003 5.16797 10.4023 5.16797C10.2044 5.16797 10.0286 5.20833 9.875 5.28906C9.72396 5.36719 9.59505 5.48438 9.48828 5.64062C9.38411 5.79688 9.30469 5.98958 9.25 6.21875C9.19531 6.44792 9.16797 6.71354 9.16797 7.01562V7.29297C9.16797 7.59245 9.19531 7.85807 9.25 8.08984C9.30469 8.31901 9.38542 8.51302 9.49219 8.67188C9.59896 8.82812 9.72917 8.94661 9.88281 9.02734C10.0365 9.10807 10.2122 9.14844 10.4102 9.14844C10.6081 9.14844 10.7839 9.10807 10.9375 9.02734C11.0911 8.94661 11.2201 8.82812 11.3242 8.67188C11.4284 8.51302 11.5078 8.31901 11.5625 8.08984C11.6172 7.85807 11.6445 7.59245 11.6445 7.29297ZM15.9492 4.3125V10H14.7812V4.3125H15.9492ZM17.6992 4.3125V5.23047H13.0586V4.3125H17.6992Z" fill="white"/>
</svg>
