<svg xmlns="http://www.w3.org/2000/svg" width="24" height="24" viewBox="0 0 24 24">
  <g id="Group_13173" data-name="Group 13173" transform="translate(0 -11)">
    <g id="Rectangle_16789" data-name="Rectangle 16789" transform="translate(0 11)" fill="#fff" stroke="#707070" stroke-width="1" opacity="0">
      <rect width="24" height="24" stroke="none"/>
      <rect x="0.5" y="0.5" width="23" height="23" fill="none"/>
    </g>
    <g id="Group_13137" data-name="Group 13137" transform="translate(-515.325 -163.16)">
      <g id="Layer_1" data-name="Layer 1" transform="translate(518.325 177.434)">
        <path id="Path_8738" data-name="Path 8738" d="M534.056,187.129a1.919,1.919,0,0,0-.162-.112.8.8,0,0,1,.061-.088c.055-.051.111-.1.168-.151a7.6,7.6,0,0,0,2.027-2.834,10.267,10.267,0,0,0,.712-2.66,11.769,11.769,0,0,0,.025-3.151.79.79,0,0,0-.769-.7c-.113-.006-.226,0-.339,0h-1.433l-1.607.008-.287-.008H522.1a.818.818,0,0,0-.909.644,2.548,2.548,0,0,0,0,.562,9.964,9.964,0,0,1-.714,4.784,5.629,5.629,0,0,1-.275.537c-.587,1.114-1.8,2.517-1.875,2.981s1.14,2.041,1.606,2.631l.035-.015c.032.062.066.123.1.184l.044.054s0,.01,0,.028c.125.227.252.453.356.69a9.955,9.955,0,0,1,.723,4.8c-.008.119-.018.238-.021.357a.8.8,0,0,0,.786.854c.075,0,.15,0,.226,0h10.5l1.654-.012.033.012h.2c.5,0,.991,0,1.486,0a.8.8,0,0,0,.837-.728c.036-.26.054-.524.067-.787a11.458,11.458,0,0,0-.694-4.708A7.591,7.591,0,0,0,534.056,187.129Zm-13.289-1.122a8.646,8.646,0,0,0,1.816-3.833,12.834,12.834,0,0,0,.264-2.933c0-.152.046-.191.192-.19q6.057,0,12.115,0c.137,0,.2.026.2.184a9.816,9.816,0,0,1-.766,4.238,5.807,5.807,0,0,1-2.29,2.645.46.46,0,0,1-.23.058q-5.625,0-11.25,0c-.043,0-.086-.005-.173-.011C520.7,186.094,520.732,186.048,520.767,186.007Zm14.587,8.686c0,.17-.048.222-.223.222q-6.028-.007-12.056,0c-.181,0-.232-.047-.228-.231a11.774,11.774,0,0,0-.543-3.928,8.121,8.121,0,0,0-1.561-2.828,1.568,1.568,0,0,1-.093-.141h.228q5.577,0,11.154,0a.653.653,0,0,1,.329.1A6.156,6.156,0,0,1,535,191.642,10.886,10.886,0,0,1,535.354,194.693Z" transform="translate(-518.325 -177.709)" fill="#00a6ff"/>
      </g>
      <g id="Layer_3" data-name="Layer 3" transform="translate(522.694 181.369)">
        <g id="Group_13133" data-name="Group 13133" transform="translate(0.435 8.43)">
          <path id="Path_8739" data-name="Path 8739" d="M652.627,506.716h-6.288a.339.339,0,0,1,0-.677h6.288a.339.339,0,1,1,0,.677Z" transform="translate(-646 -506.039)" fill="#00a6ff"/>
        </g>
        <g id="Group_13134" data-name="Group 13134" transform="translate(3.546 11.141)">
          <path id="Path_8740" data-name="Path 8740" d="M735.294,578.756h-6.288a.339.339,0,0,1,0-.677h6.288a.339.339,0,0,1,0,.677Z" transform="translate(-728.667 -578.079)" fill="#00a6ff"/>
        </g>
        <g id="Group_13135" data-name="Group 13135" transform="translate(0 2.793)">
          <path id="Path_8741" data-name="Path 8741" d="M641.071,356.9h-6.288a.339.339,0,1,1,0-.677h6.288a.339.339,0,1,1,0,.677Z" transform="translate(-634.444 -356.223)" fill="#00a6ff"/>
        </g>
        <g id="Group_13136" data-name="Group 13136" transform="translate(3.709 0)">
          <path id="Path_8742" data-name="Path 8742" d="M738.239,282.677h-4.9a.339.339,0,0,1,0-.677h4.9a.339.339,0,0,1,0,.677Z" transform="translate(-733 -282)" fill="#00a6ff"/>
        </g>
      </g>
    </g>
  </g>
</svg>
