<svg id="icon-close" xmlns="http://www.w3.org/2000/svg" width="23.173" height="23.172" viewBox="0 0 23.173 23.172">
  <rect id="wrap" width="23.172" height="23.172" fill="none"/>
  <path id="times" d="M8.778,7.242l5.6,5.6a.362.362,0,0,1,0,.512l-1.024,1.024a.362.362,0,0,1-.512,0l-5.6-5.6-5.6,5.6a.362.362,0,0,1-.512,0L.106,13.353a.362.362,0,0,1,0-.512l5.6-5.6-5.6-5.6a.362.362,0,0,1,0-.512L1.131.106a.362.362,0,0,1,.512,0l5.6,5.6,5.6-5.6a.362.362,0,0,1,.512,0l1.024,1.024a.362.362,0,0,1,0,.512Z" transform="translate(4.345 4.345)" fill="#fff"/>
</svg>
