<svg id="icon-phone" xmlns="http://www.w3.org/2000/svg" width="14" height="14" viewBox="0 0 14 14">
  <rect id="Rectangle" width="14" height="14" rx="7" fill="#42d200"/>
  <g id="icon-phone-2" data-name="icon-phone">
    <rect id="wrap" width="14" height="14" rx="7" fill="none"/>
    <path id="icon-phone-3" data-name="icon-phone" d="M4.25,8H.75A.751.751,0,0,1,0,7.25V.75A.751.751,0,0,1,.75,0h3.5A.751.751,0,0,1,5,.75v6.5A.751.751,0,0,1,4.25,8ZM2.5,6.5A.5.5,0,1,0,3,7,.5.5,0,0,0,2.5,6.5ZM.938.75A.188.188,0,0,0,.75.938V5.812A.188.188,0,0,0,.938,6H4.063a.188.188,0,0,0,.187-.188V.938A.188.188,0,0,0,4.063.75Z" transform="translate(4.5 3)" fill="#fff"/>
  </g>
</svg>
