<svg width="23" height="16" viewBox="0 0 23 16" fill="none" xmlns="http://www.w3.org/2000/svg">
<path id="id-card" d="M2.53871 0.52002C1.90884 0.522127 1.30541 0.754594 0.860022 1.16672C0.414633 1.57884 0.163411 2.13719 0.161133 2.72002V12.97C0.163411 13.5528 0.414633 14.1112 0.860022 14.5233C1.30541 14.9355 1.90884 15.1679 2.53871 15.17H19.9383C20.5681 15.1679 21.1716 14.9355 21.617 14.5233C22.0623 14.1112 22.3136 13.5528 22.3158 12.97V2.72002C22.3136 2.13719 22.0623 1.57884 21.617 1.16672C21.1716 0.754594 20.5681 0.522127 19.9383 0.52002H2.53871ZM2.53871 1.98402H19.9383C20.0426 1.9824 20.1463 2.00023 20.2431 2.03644C20.3398 2.07265 20.4277 2.1265 20.5016 2.19479C20.5754 2.26309 20.6336 2.34445 20.6727 2.43399C20.7118 2.52353 20.7311 2.61944 20.7293 2.71602V12.966C20.7311 13.0626 20.7118 13.1585 20.6727 13.248C20.6336 13.3376 20.5754 13.4189 20.5016 13.4872C20.4277 13.5555 20.3398 13.6094 20.2431 13.6456C20.1463 13.6818 20.0426 13.6996 19.9383 13.698H2.53871C2.43434 13.6996 2.33069 13.6818 2.23392 13.6456C2.13714 13.6094 2.04923 13.5555 1.97542 13.4872C1.90161 13.4189 1.84341 13.3376 1.80427 13.248C1.76514 13.1585 1.74587 13.0626 1.74763 12.966V2.72002C1.74529 2.62311 1.76411 2.52676 1.80298 2.43675C1.84185 2.34674 1.89996 2.26491 1.97384 2.19618C2.04771 2.12745 2.13582 2.07325 2.23288 2.03679C2.32995 2.00033 2.43397 1.98238 2.53871 1.98402ZM7.28631 3.44801C6.65725 3.44498 6.04164 3.61641 5.51887 3.94017C4.9961 4.26393 4.59013 4.7252 4.35334 5.26447C4.11655 5.80373 4.05978 6.39627 4.19037 6.96567C4.32095 7.53507 4.63289 8.05521 5.08596 8.45901C4.54727 8.79528 4.10564 9.24836 3.79954 9.77875C3.49345 10.3091 3.33218 10.9007 3.3298 11.502H4.91197C4.89373 11.2031 4.9416 10.904 5.05265 10.6228C5.1637 10.3416 5.33559 10.0844 5.55781 9.86684C5.78003 9.64927 6.0479 9.47596 6.34502 9.35751C6.64213 9.23907 6.96224 9.17798 7.28576 9.17798C7.60928 9.17798 7.92939 9.23907 8.22651 9.35751C8.52362 9.47596 8.79149 9.64927 9.01371 9.86684C9.23593 10.0844 9.40783 10.3416 9.51888 10.6228C9.62993 10.904 9.6778 11.2031 9.65956 11.502H11.2385C11.2361 10.9007 11.0748 10.3091 10.7687 9.77875C10.4627 9.24836 10.021 8.79528 9.48232 8.45901C9.93539 8.05521 10.2473 7.53507 10.3779 6.96567C10.5085 6.39627 10.4517 5.80373 10.2149 5.26447C9.97815 4.7252 9.57219 4.26393 9.04941 3.94017C8.52664 3.61641 7.91103 3.44498 7.28198 3.44801H7.28631ZM12.825 4.18002V5.64401H19.1547V4.18002H12.825ZM7.28631 4.91202C7.59923 4.91202 7.90513 4.99789 8.16531 5.15875C8.4255 5.31962 8.62828 5.54825 8.74804 5.81577C8.86779 6.08328 8.89912 6.37765 8.83807 6.66164C8.77703 6.94562 8.62634 7.20648 8.40507 7.41122C8.1838 7.61597 7.90188 7.7554 7.59497 7.81189C7.28805 7.86838 6.96994 7.83938 6.68083 7.72858C6.39173 7.61777 6.14462 7.43013 5.97077 7.18938C5.79692 6.94862 5.70413 6.66557 5.70413 6.37602C5.7027 6.18378 5.74251 5.99318 5.82125 5.81528C5.9 5.63738 6.01612 5.47571 6.16288 5.33963C6.30964 5.20355 6.48413 5.09578 6.67623 5.02255C6.86833 4.94932 7.07422 4.91209 7.28198 4.91302L7.28631 4.91202ZM12.825 7.11201V8.57602H19.1547V7.11201H12.825ZM12.825 10.041V11.505H16.7815V10.041H12.825Z" fill="#00A6FF"/>
</svg>
