<?xml version="1.0" standalone="no"?><!DOCTYPE svg PUBLIC "-//W3C//DTD SVG 1.1//EN" "http://www.w3.org/Graphics/SVG/1.1/DTD/svg11.dtd"><svg t="1648350486790" class="icon" viewBox="0 0 1024 1024" version="1.1" xmlns="http://www.w3.org/2000/svg" p-id="1482" xmlns:xlink="http://www.w3.org/1999/xlink" width="20" height="20"><defs><style type="text/css">@font-face { font-family: feedback-iconfont; src: url("//at.alicdn.com/t/font_1031158_u69w8yhxdu.woff2?t=1630033759944") format("woff2"), url("//at.alicdn.com/t/font_1031158_u69w8yhxdu.woff?t=1630033759944") format("woff"), url("//at.alicdn.com/t/font_1031158_u69w8yhxdu.ttf?t=1630033759944") format("truetype"); }
</style></defs><path d="M864.768 882.408727c-10.146909-4.654545-20.48-9.588364-30.813091-14.242909h-230.818909a54.830545 54.830545 0 0 0-11.682909 33.186909 52.782545 52.782545 0 0 0 22.341818 46.824728h173.335273a301.847273 301.847273 0 0 0 77.637818-65.768728z" p-id="1483" fill="#ffffff"></path><path d="M697.157818 834.048h-4.049454a152.669091 152.669091 0 0 0-53.015273 10.146909h130.606545a271.965091 271.965091 0 0 0-73.541818-10.146909z" p-id="1484" fill="#ffffff"></path><path d="M508.509091 868.165818H123.345455a40.075636 40.075636 0 0 0 0 80.011637h385.396363a176.034909 176.034909 0 0 1-4.189091-34.536728 205.684364 205.684364 0 0 1 3.956364-45.474909z" p-id="1485" fill="#ffffff"></path><path d="M836.468364 364.218182h-665.6a20.014545 20.014545 0 0 0 0 39.982545h9.309091v359.982546h-9.309091a40.075636 40.075636 0 0 0 0 80.058182H514.932364a185.250909 185.250909 0 0 1 105.099636-110.638546q8.238545-3.537455 16.709818-6.376727v-117.294546a37.608727 37.608727 0 0 1-18.152727-10.845091 59.485091 59.485091 0 0 1 0-72.471272 38.074182 38.074182 0 0 1 18.199273-10.845091v-111.709091h114.082909v109.986909h63.488v-22.900364-28.811636a53.154909 53.154909 0 0 1 12.613818-38.725818V403.874909h9.309091a20.014545 20.014545 0 0 0 0-40.029091zM370.594909 764.136727H256.465455V404.154182h114.082909z m190.184727 0H446.650182V404.154182h114.082909z" p-id="1486" fill="#ffffff"></path><path d="M896.651636 250.414545L519.261091 71.819636a36.398545 36.398545 0 0 0-31.232 0L107.752727 251.810909a40.587636 40.587636 0 0 0-21.597091 44.869818 38.539636 38.539636 0 0 0 37.236364 31.604364h760.878545a39.051636 39.051636 0 0 0 38.027637-40.029091 39.842909 39.842909 0 0 0-25.646546-37.841455z" p-id="1487" fill="#ffffff"></path><path d="M557.195636 361.099636h90.158546V834.420364h-90.158546z" p-id="1488" fill="#ffffff"></path><path d="M741.143273 361.099636h90.158545V834.420364H741.143273z" p-id="1489" fill="#ffffff"></path><path d="M930.536727 861.370182m0 47.197091l0 0q0 47.197091-47.197091 47.197091l-746.309818 0q-47.197091 0-47.197091-47.197091l0 0q0-47.197091 47.197091-47.197091l746.309818 0q47.197091 0 47.197091 47.197091Z" p-id="1490" fill="#ffffff"></path><path d="M890.833455 750.545455m0 47.19709l0 0q0 47.197091-47.197091 47.197091l-666.903273 0q-47.197091 0-47.197091-47.197091l0 0q0-47.197091 47.197091-47.19709l666.903273 0q47.197091 0 47.197091 47.19709Z" p-id="1491" fill="#ffffff"></path></svg>