<svg class="icon" viewBox="0 0 1024 1024" version="1.1" xmlns="http://www.w3.org/2000/svg" p-id="1509"><path d="M293.60229999999996 508.81539999999995c-1.7763568394002505e-15-5.248 2.016299999999997-9.872400000000003 6.047699999999995-13.888500000000002L581.3779999999999 213.18349999999998c4.0325-4.0325 8.672299999999998-6.032400000000003 13.920299999999994-6.032400000000004s9.872400000000003 1.9998999999999976 13.903900000000004 6.032399999999994l30.224400000000006 30.239699999999992c4.0325 4.0325 6.0477000000000025 8.655899999999999 6.047700000000005 13.9039 1.3322676295501878e-15 5.2316-2.016299999999997 9.872400000000003-6.047699999999995 13.903900000000002l-237.59969999999993 237.59970000000007L639.4266000000001 746.4160999999999c4.0325 4.0325 6.0477000000000025 8.655899999999999 6.047700000000005 13.9039s-2.016299999999997 9.887700000000002-6.0476999999999945 13.9203l-30.22439999999998 30.22440000000001c-4.0325 4.0325-8.655899999999999 6.0477000000000025-13.9039 6.047700000000005s-9.887700000000002-2.016299999999997-13.9203-6.0476999999999945L299.6500000000001 522.7356000000001C295.6186 518.7041 293.6023 514.0634 293.60229999999996 508.81539999999995z" p-id="1510"></path></svg>