<svg xmlns="http://www.w3.org/2000/svg" width="78.452" height="35.102" viewBox="0 0 78.452 35.102">
  <g id="Group_12319" data-name="Group 12319" transform="translate(-106.239 -178.008)">
    <path id="Path_2" data-name="Path 2" d="M126.841,186.482l3.274-.024.288-2.276h-3.362l.253-2.893-2.915.042-.253,2.851h-3.615l.243-3.29a49.312,49.312,0,0,0,9.337-.853l-.4-2.032c-1.86.833-11.2,1.108-11.2,1.108l.006.166h-.02l-.362,4.9h-.948l-.26,2.372,7.011-.051-.174,1.956.851-.005a8.214,8.214,0,0,0-.854.047l-.1,1.154c-.224.536-.776,1.06-2.073,1.106l-.055,2.6s5.157-.378,5-3.347l.025-.018Z" transform="translate(-8.604)" fill="#fff"/>
    <path id="Path_3" data-name="Path 3" d="M163.205,232.536l-.145,1.657-.82-.089.171-1.648Z" transform="translate(-45.156 -43.903)" fill="#fff"/>
    <path id="Path_4" data-name="Path 4" d="M124.98,183.994l.021-.267.316.134-.239.277Z" transform="translate(-15.111 -4.611)" fill="#fff"/>
    <path id="Path_5" data-name="Path 5" d="M117.449,237.832l.541-1.083.625.213-.654.954Z" transform="translate(-9.039 -47.364)" fill="#fff"/>
    <rect id="Rectangle_5237" data-name="Rectangle 5237" width="1.608" height="0.544" transform="translate(107.097 190.794)" fill="#fff"/>
    <path id="Path_6" data-name="Path 6" d="M113.216,224.448l-1.268,2.5.077.415-.113.095s.358-.038.322.062l-.052.1.01.007c-.032.077-.649.162-.7.243a.627.627,0,0,1-.595.368h-.745l-.124,1.935h1.956a1.154,1.154,0,0,0,.281-.079,1.945,1.945,0,0,0,1.227-1.148h0l2.328-4.5Z" transform="translate(-3.057 -37.446)" fill="#fff"/>
    <path id="Path_7" data-name="Path 7" d="M119.818,248.044a1.8,1.8,0,0,0,1.368-.863c.406-.745-.526-.549-.526-.549l-.815.23Z" transform="translate(-10.949 -55.315)" fill="#fff"/>
    <path id="Path_8" data-name="Path 8" d="M152.139,230.1l-.052.587.664.2.2-.853Z" transform="translate(-36.968 -41.954)" fill="#fff"/>
    <path id="Path_9" data-name="Path 9" d="M173.444,252.441s1.555.854,5.5.165l-2.569-1-2.152.081Z" transform="translate(-54.189 -59.348)" fill="#fff"/>
    <path id="Path_10" data-name="Path 10" d="M199.1,194.047l.289-.3.057-1.091.563-.025.148-3.008h-1.375l.129-.958H196.7l-.129.958h-1.393l.1-.958h-2.213l-.129.958h-1.465l.1-.921H189.36l-.135.921h-1.117v.059l-.151,3.021.5.007-.136,3.018-.032.7h.013l-.018.409,4.7-.01-.027.539H187.9l-.184,1.673,5.16-.031-.038.776h-5v.009c-3.524-.107-5.053-1.853-5.676-2.992l.047-1.309,5.649.047.254-2.494H182.3l.073-2.036,5.1-.017.176-2.024-14.395-.13-.265,2.2,6.57-.022-.061,2.027h-5.835l-.241,2.374,6,.05-.033,1.079a5.911,5.911,0,0,1-1.767,2.3l-.041.036c-1.633,1.354-4.544,1.033-4.544,1.033-.014-.07-.029-.147-.043-.241-.124-.836-.19-2.687-.21-3.359,0-.157-.007-.25-.007-.25l-2.706.083.031.99h.28l.342,4.542a5.5,5.5,0,0,0,2.019.367c.379.044,5.4.558,8.036-2.908,2.1,2.575,6.236,2.892,7.054,2.929v.008l11.712.028.206-2.323h-4.741l.046-.789,4.58-.028.176-1.6h-4.662l.031-.544,4.027-.009.1-1.468h-.006l.068-1.307Zm-1.492,1.31-7.264.012.065-1.322h7.263Zm.75-2.857h-8.752l.072-1.149,8.728.03Z" transform="translate(-51.475 -8.598)" fill="#fff"/>
    <path id="Path_11" data-name="Path 11" d="M249.864,244.2a11.125,11.125,0,0,1-3.133-.461l.636,1.225,2.113-.264Z" transform="translate(-113.283 -53)" fill="#fff"/>
    <path id="Path_12" data-name="Path 12" d="M248.555,253.288a11.8,11.8,0,0,1-3.355-.561l1.914-.558,1.891.522Z" transform="translate(-112.048 -59.798)" fill="#fff"/>
    <path id="Path_13" data-name="Path 13" d="M264.209,228.225h-.432l.043-.651h1.118Z" transform="translate(-127.027 -39.967)" fill="#fff"/>
    <path id="Path_14" data-name="Path 14" d="M316.961,214.415l.08-1.531h-.756l-.252,1.225Z" transform="translate(-169.163 -28.121)" fill="#fff"/>
    <path id="Path_15" data-name="Path 15" d="M113.032,273.868l8.761-.038.391-3.595-10.121.051h0l-1.263.006c-3.66.285-3.982,4.284-3.982,4.284l-.576,12.528,4.937.026.293-5.961,9.59-.049.22-3.564-9.664.059s.012-1.047.132-2.222A1.666,1.666,0,0,1,113.032,273.868Z" transform="translate(0 -74.365)" fill="#fff"/>
    <g id="Group_7843" data-name="Group 7843" transform="translate(122.55 195.87)">
      <path id="Path_16" data-name="Path 16" d="M206.341,270.235l-.926,9.345c-.527,5.319-1.391,7.68-8.032,7.68-5.625,0-7.351-2.46-6.838-7.63l.931-9.4h4.883l-.953,9.619c-.3,2.983-.019,3.6,2.143,3.6,2.081,0,2.862-.692,3.15-3.6l.953-9.619Z" transform="translate(-190.459 -270.235)" fill="#fff"/>
    </g>
    <path id="Path_17" data-name="Path 17" d="M283.754,270.283l-.5,4.951a35.323,35.323,0,0,0-.352,4.964c-.509-1.257-1.1-2.343-1.721-3.675l-2.912-6.239h-4.5l-1.705,17.025h4.118l.707-5.128c.185-1.846.415-3.523.579-5.109.542,1.269,1.161,2.532,1.67,3.67l2.819,5.57h0a2.047,2.047,0,0,0,2.012,1.2,2.41,2.41,0,0,0,2.438-2.244l1.457-14.987Z" transform="translate(-133.715 -74.404)" fill="#fff"/>
    <path id="Path_18" data-name="Path 18" d="M355.734,278.9a2.43,2.43,0,0,0-1.24,1.878l-.41,4.563a1.944,1.944,0,0,0,1.955,2.174h9.607a2.415,2.415,0,0,0,2.346-2.174l.411-4.563a1.967,1.967,0,0,0-.9-1.878,2.43,2.43,0,0,0,1.24-1.878l.411-4.563a1.945,1.945,0,0,0-1.955-2.174h-9.607a2.415,2.415,0,0,0-2.347,2.174l-.411,4.563A1.967,1.967,0,0,0,355.734,278.9Zm2.632,2.255a1.013,1.013,0,0,1,1.021-.868H363.6a.816.816,0,0,1,.865.868l-.164,1.821a1.013,1.013,0,0,1-1.021.868h-4.212a.816.816,0,0,1-.865-.868Zm.579-6.436a1.013,1.013,0,0,1,1.021-.868h4.212a.816.816,0,0,1,.865.868l-.164,1.821a1.013,1.013,0,0,1-1.021.868h-4.212a.816.816,0,0,1-.865-.868Z" transform="translate(-199.836 -74.404)" fill="#fff"/>
    <path id="Path_19" data-name="Path 19" d="M435.081,278.9a2.43,2.43,0,0,0-1.24,1.878l-.41,4.563a1.944,1.944,0,0,0,1.955,2.174h9.607a2.415,2.415,0,0,0,2.346-2.174l.41-4.563a1.967,1.967,0,0,0-.9-1.878,2.43,2.43,0,0,0,1.24-1.878l.411-4.563a1.945,1.945,0,0,0-1.955-2.174h-9.607a2.415,2.415,0,0,0-2.346,2.174l-.411,4.563A1.967,1.967,0,0,0,435.081,278.9Zm2.632,2.255a1.013,1.013,0,0,1,1.021-.868h4.212a.816.816,0,0,1,.865.868l-.164,1.821a1.013,1.013,0,0,1-1.021.868h-4.212a.816.816,0,0,1-.865-.868Zm.579-6.436a1.013,1.013,0,0,1,1.021-.868h4.212a.816.816,0,0,1,.865.868l-.164,1.821a1.013,1.013,0,0,1-1.021.868h-4.212a.816.816,0,0,1-.864-.868Z" transform="translate(-263.816 -74.404)" fill="#fff"/>
  </g>
</svg>
