<svg xmlns="http://www.w3.org/2000/svg" width="26" height="26" viewBox="0 0 26 26"><defs><style>.Menu{opacity:0;}</style></defs><g transform="translate(91 2543)"><rect class="Menu" width="26" height="26" transform="translate(-91 -2543)"/><path class="b" d="M1.157,47.4H14.6a1.173,1.173,0,0,0,0-2.346H1.157a1.173,1.173,0,0,0,0,2.346Zm13.432,9.669H1.157a1.173,1.173,0,0,0,0,2.346H14.6a1.173,1.173,0,0,0-.008-2.346ZM1.157,53.41H7.873a1.173,1.173,0,0,0,0-2.346H1.157a1.173,1.173,0,0,0,0,2.346Z" transform="translate(-86 -2582.292)"/></g></svg>