<svg xmlns="http://www.w3.org/2000/svg" width="26" height="26" viewBox="0 0 26 26">
  <g id="Group_13340" data-name="Group 13340" transform="translate(-1487 -2019)">
    <rect id="Rectangle_16742" data-name="Rectangle 16742" width="26" height="26" transform="translate(1487 2019)" fill="#fff" opacity="0"/>
    <path id="more_1_" data-name="more (1)" d="M195.285,448.3a2.165,2.165,0,0,0-1.1-.3,2.19,2.19,0,1,0,0,4.38,2.184,2.184,0,0,0,1.1-4.077m8.76,0a2.172,2.172,0,1,0,1.1,1.887,2.165,2.165,0,0,0-1.1-1.887m7.665-.3a2.19,2.19,0,1,0,2.19,2.19,2.176,2.176,0,0,0-2.19-2.19" transform="translate(1297 1582)" fill="#fff"/>
  </g>
</svg>
