<svg width="108.00000000000001" height="64" xmlns="http://www.w3.org/2000/svg">

 <g>
  <title>background</title>
  <rect fill="none" id="canvas_background" height="66" width="110" y="-1" x="-1"/>
 </g>
 <g>
  <title>Layer 1</title>
  <g stroke="null" transform="rotate(-0.10548729449510574 53.999969482422934,31.99998664855859) " id="svg_1">
   <g stroke="null" id="svg_17">
    <path stroke-width="0" stroke="null" id="svg_10" d="m33.722958,30.090513l0,0l-0.263,-3.514l-0.217,0l-0.02,-0.765l2.093,-0.065s0,0.072 0.005,0.194c0.015,0.519 0.067,1.951 0.162,2.6c0.011,0.073 0.023,0.132 0.033,0.186a5.474,5.474 0 0 0 3.515,-0.8l0.031,-0.028a4.57,4.57 0 0 0 1.361,-1.778l0.025,-0.834l-4.644,-0.039l0.186,-1.837l4.513,0l0.047,-1.568l-5.081,0.017l0.2,-1.7l11.136,0.1l-0.128,1.561l-3.948,0.013l-0.057,1.575l4.5,0l-0.2,1.93l-4.37,-0.037l-0.036,1.013a4.593,4.593 0 0 0 3.789,2.274c0.255,0.023 0.466,0.032 0.6,0.035l0,0l3.868,0l0.03,-0.6l-3.992,0.024l0.142,-1.294l3.912,0l0.021,-0.417l-3.338,0.007l-0.009,0.008l-0.335,0l0.034,-0.5l0.035,0l0.017,-0.365l0.105,-2.335l-0.391,-0.005l0.117,-2.336l0,-0.051l0.864,0l0.1,-0.713l1.711,0l-0.077,0.713l1.134,0l0.1,-0.742l1.71,0l-0.078,0.742l1.077,0l0.1,-0.742l1.711,0l-0.1,0.742l1.063,0l-0.114,2.327l-0.435,0.019l-0.045,0.844l-0.046,0.047l-0.01,0.181l0.044,0l-0.053,1.011l0,0l-0.067,1.132l-3.116,0.007l-0.024,0.42l3.603,0l-0.133,1.243l-3.543,0.022l-0.035,0.609l3.667,0l-0.156,1.799l-8.961,-0.021l-0.1,0a9.785,9.785 0 0 1 -2.486,-0.433l0.014,0a6.08,6.08 0 0 1 -2.987,-1.846a6.609,6.609 0 0 1 -5.156,2.286c-0.2,0.011 -0.384,0.016 -0.558,0.016a4.677,4.677 0 0 1 -2.066,-0.332zm15.174,-4.89l5.62,-0.009l0.049,-1.013l-5.618,0l-0.051,1.022zm-0.574,-2.22l6.771,0l0.037,-0.866l-6.752,-0.023l-0.056,0.889zm-19.466,5.306c1,-0.036 1.431,-0.441 1.6,-0.856l0.068,-0.771l0.034,-0.392l0,0l0.113,-1.274l-5.423,0.04l0.2,-1.835l0.733,0l0.281,-3.714l0,0l0.015,-0.207l0,0c0.138,-0.003 7.245,-0.218 8.666,-0.857l0.307,1.572a38.143,38.143 0 0 1 -7.222,0.66l-0.189,2.545l2.8,0l0.2,-2.206l2.255,-0.032l-0.2,2.238l2.6,0l-0.222,1.76l-2.533,0.018l-0.149,1.665l0,0l-0.009,0.1l-0.083,0.951l0,0l-0.019,0.215c-0.111,2.113 -3.865,2.388 -3.865,2.388l0.042,-2.008zm2.266,-1.782l0.077,0l-0.077,0zm-5.652,3.3l-1.248,0l0.1,-1.5l0.669,0a0.517,0.517 0 0 0 0.343,-0.253l0.372,-0.746l0,0l0.034,-0.068l0.011,-0.017l0,0l0.935,-1.843l2.017,0l-1.801,3.483l0,0a2.06,2.06 0 0 1 -0.155,0.282l0,0a1.332,1.332 0 0 1 -0.871,0.635a0.908,0.908 0 0 1 -0.141,0.032l-0.265,-0.005z"/>
    <path stroke-width="0" stroke="null" id="svg_11" d="m28.909958,35.048523l6.778,-0.029l0.3,-2.781l-7.829,0.039l0,0l-0.977,0c-2.832,0.22 -3.08,3.314 -3.08,3.314l-0.448,9.697l3.819,0.02l0.227,-4.611l7.418,-0.038l0.171,-2.757l-7.476,0.046s0.009,-0.81 0.1,-1.719a1.289,1.289 0 0 1 0.997,-1.181z"/>
    <g stroke="null" id="svg_13">
     <path stroke-width="0" stroke="null" id="svg_12" d="m48.558958,32.238513l-0.717,7.23c-0.408,4.115 -1.076,5.941 -6.213,5.941c-4.351,0 -5.686,-1.9 -5.29,-5.9l0.72,-7.268l3.777,0l-0.738,7.441c-0.229,2.307 -0.015,2.785 1.658,2.785c1.61,0 2.214,-0.535 2.437,-2.785l0.738,-7.441l3.628,-0.003z"/>
    </g>
    <path stroke-width="0" stroke="null" id="svg_14" d="m57.537958,32.245513l-0.384,3.83a27.334,27.334 0 0 0 -0.273,3.84c-0.393,-0.973 -0.855,-1.813 -1.332,-2.843l-2.253,-4.827l-3.478,0l-1.318,13.171l3.186,0l0.547,-3.967c0.143,-1.428 0.321,-2.726 0.448,-3.952c0.419,0.982 0.9,1.959 1.292,2.839l2.181,4.308l0,0a1.584,1.584 0 0 0 1.557,0.931a1.864,1.864 0 0 0 1.886,-1.736l1.127,-11.593l-3.186,-0.001z"/>
    <path stroke-width="0" stroke="null" id="svg_15" d="m62.069938,38.910513a1.88,1.88 0 0 0 -0.959,1.453l-0.318,3.53a1.5,1.5 0 0 0 1.513,1.682l7.432,0a1.868,1.868 0 0 0 1.815,-1.682l0.318,-3.53a1.521,1.521 0 0 0 -0.7,-1.453a1.88,1.88 0 0 0 0.959,-1.453l0.318,-3.53a1.5,1.5 0 0 0 -1.513,-1.682l-7.432,0a1.868,1.868 0 0 0 -1.815,1.682l-0.318,3.53a1.521,1.521 0 0 0 0.7,1.453zm2.036,1.744a0.784,0.784 0 0 1 0.79,-0.671l3.258,0a0.631,0.631 0 0 1 0.669,0.671l-0.127,1.409a0.784,0.784 0 0 1 -0.79,0.671l-3.258,0a0.631,0.631 0 0 1 -0.669,-0.671l0.127,-1.409zm0.448,-4.979a0.784,0.784 0 0 1 0.79,-0.671l3.258,0a0.631,0.631 0 0 1 0.669,0.671l-0.127,1.409a0.784,0.784 0 0 1 -0.79,0.671l-3.258,0a0.631,0.631 0 0 1 -0.669,-0.671l0.127,-1.409z"/>
    <path stroke-width="0" stroke="null" id="svg_16" d="m73.957938,38.910513a1.88,1.88 0 0 0 -0.959,1.453l-0.318,3.53a1.5,1.5 0 0 0 1.513,1.682l7.432,0a1.868,1.868 0 0 0 1.815,-1.682l0.317,-3.53a1.521,1.521 0 0 0 -0.7,-1.453a1.88,1.88 0 0 0 0.959,-1.453l0.318,-3.53a1.5,1.5 0 0 0 -1.513,-1.682l-7.432,0a1.868,1.868 0 0 0 -1.815,1.682l-0.318,3.53a1.522,1.522 0 0 0 0.701,1.453zm2.036,1.744a0.784,0.784 0 0 1 0.789,-0.671l3.258,0a0.631,0.631 0 0 1 0.669,0.671l-0.127,1.409a0.784,0.784 0 0 1 -0.79,0.671l-3.258,0a0.631,0.631 0 0 1 -0.669,-0.671l0.128,-1.409zm0.448,-4.979a0.784,0.784 0 0 1 0.79,-0.671l3.258,0a0.631,0.631 0 0 1 0.669,0.671l-0.127,1.409a0.784,0.784 0 0 1 -0.79,0.671l-3.258,0a0.631,0.631 0 0 1 -0.669,-0.671l0.127,-1.409z"/>
   </g>
  </g>
 </g>
</svg>