<?xml version="1.0" standalone="no"?><!DOCTYPE svg PUBLIC "-//W3C//DTD SVG 1.1//EN" "http://www.w3.org/Graphics/SVG/1.1/DTD/svg11.dtd"><svg t="1654528368378" class="icon" viewBox="0 0 3014 1024" version="1.1" xmlns="http://www.w3.org/2000/svg" p-id="1247" xmlns:xlink="http://www.w3.org/1999/xlink" width="588.671875" height="200"><defs><style type="text/css">@font-face { font-family: feedback-iconfont; src: url("//at.alicdn.com/t/font_1031158_u69w8yhxdu.woff2?t=1630033759944") format("woff2"), url("//at.alicdn.com/t/font_1031158_u69w8yhxdu.woff?t=1630033759944") format("woff"), url("//at.alicdn.com/t/font_1031158_u69w8yhxdu.ttf?t=1630033759944") format("truetype"); }
</style></defs><path d="M989.55997921 431.16615508l-7.44501087-96.89538462h-5.98358169l-0.57904984-21.06661174 57.68501928-1.93019529s0 2.01290773 0.16543734 5.3769487c0.44118326 14.31095905 1.93018305 53.76949961 4.60487829 71.69266168 0.27574563 2.01290773 0.63420393 3.63978644 0.90993713 5.12878642a150.94061758 150.94061758 0 0 0 96.86781418-22.25229464l0.85480805-0.77208303a126.01364032 126.01364032 0 0 0 37.44562001-49.08189649l0.6617749-23.02436526-128.05411869-0.82722481 5.01849024-50.65362129 124.44191563-0.24817455 1.21325376-43.23618155-140.07642431 0.74449997 5.40451977-46.87596788 307.06517538 2.17834537-3.4467532 43.04317293-108.86254872 0.55147913-1.48899976 43.4292144 124.0834453-0.22059164-5.40451982 53.21800788-120.49882487-0.77207062-0.93750823 27.93255976a126.64784417 126.64784417 0 0 0 104.58855807 62.51048894c7.03139825 0.60663311 12.84953042 0.82722493 16.54445853 0.90993751l106.65661993-0.19302072 0.79964171-16.54445847-110.07580267 0.88237882 3.86037824-35.70845808 107.84230305-0.1930208 0.55147902-11.49839706-92.01477339 0.35845822-0.27573346 0.22059153h-9.20975603l0.90994942-13.78705089h0.96509182l0.44118332-10.03696838 2.75740769-64.38553005-10.75389752-0.13786673 3.08830746-64.41310094v-1.37870391l23.82401929-0.05514162 2.72983685-19.6879081 47.17928441-0.08272472-2.09563308 19.66033686 31.26902997-0.05515413 2.72983691-20.45997834 47.15171365-0.08272516-2.12321596 20.45997851 29.69730529-0.05514145 2.72983663-20.45999094 47.15171365-0.0827126-2.70226596 20.4599784 29.31127624-0.05515397-3.03315345 64.16493845-11.9671637 0.55147891-1.21325404 23.27254032-1.26840798 1.29597873-0.27574564 4.99091973h1.24083723l-1.43385807 27.87741825-1.76473282 31.21387581-85.92089609 0.35845826-0.6617871 11.58112201 99.3494884-0.19300827-3.58463248 34.30217096-97.69503903 0.77208309-0.93752051 16.82019192 101.11422138-0.19300842-4.21883622 49.60580474-247.09150296-0.137879h-2.75740774a269.81256385 269.81256385 0 0 1-68.57679582-11.80171401h0.38604164a167.65052614 167.65052614 0 0 1-82.44655934-50.73634596 182.2372309 182.2372309 0 0 1-142.0617613 63.28255964c-5.51481531 0.3033166-10.58845988 0.46875398-15.38634628 0.4687664a128.96406879 128.96406879 0 0 1-56.99567369-9.04430612z m418.1336528-135.60942541l154.96643353-0.55147914 1.32356208-27.93255962-154.91129164 0.27573308-1.37870397 28.20830568z m-15.93783756-61.18692667l186.7042296-0.33088753 0.99267464-23.90674397-186.18032143-0.27574605-1.51658281 24.51337755zM855.27410366 381.67064651c27.5741016-1.04781629 39.43095716-12.24289702 44.09098913-23.71372343l1.81988699-21.23206165 0.90994971-10.80905168 3.0607244-35.15696662-149.53434295 1.37870399 5.43210284-50.59847936 20.21181576-0.02757081 7.55529422-102.43778359 0.41361219-5.70783611c3.80522416-0.08272511 199.74678074-6.36961086 238.90200487-24.07219396l8.54796885 43.34648938a1051.75889127 1051.75889127 0 0 1-199.08499369 18.55736651l-5.10121526 70.17609121 77.20747682-0.13787912 5.40453225-60.82845606 62.17958901-0.99267483-5.40451943 61.71083517 71.69266185-0.13786673-6.03873581 48.53041718-69.84519158 0.63420407-4.02581585 45.93844752-0.24817472 2.75740761-2.20591626 26.19539764-0.55149156 5.95601096c-2.95042835 58.26406918-106.4360286 66.03996743-106.4360159 66.0399677l1.04780412-55.36879499z m62.40019291-49.24734675h2.12320377-2.12320377z m-155.6833623 91.27027386l-34.4124791 0.05514189 2.67468281-41.36114015 18.4746538-0.02758318a14.25580485 14.25580485 0 0 0 9.43033507-7.00381516l10.2024185-20.57027417 0.93752071-1.8750412 0.30331631-0.46876652 25.6990605-50.8742127 55.61695764-0.1102958-49.49550906 96.12331422a56.80264052 56.80264052 0 0 1-4.24640738 7.80346898 36.72870372 36.72870372 0 0 1-23.98946911 17.53713307 25.03728561 25.03728561 0 0 1-3.8879489 0.90993729l-7.30713179-0.13786657zM857.09400309 568.12671359l186.89725034-1.15811216 8.10678558-76.68358124-215.85005593 1.46142859-26.93989787 0.05515417c-78.08985606 6.20417359-84.76278359 91.54600683-84.76278344 91.54600712l-11.85686803 267.38604364 105.30548718 0.35847077 6.01116501-127.14418186 204.54466734-1.43384532 4.57729464-76.02179414-206.14396259 1.65444949s0.19302063-22.33501963 2.67468257-47.42745944a35.54302067 35.54302067 0 0 1 27.4362352-32.59257962zM1398.75962178 489.65081599l-19.41217439 199.36075169c-11.02964304 113.52256842-29.36641782 163.90045591-171.01456689 164.14860614-119.97490434 0.22059157-156.89662869-52.11504994-146.17030206-162.41144394l19.46731591-200.46370969 104.14737503-0.16543777-19.96364113 205.20645471c-6.20417359 63.64101799-0.27574563 76.79386482 45.85572224 76.71113956 44.39430601-0.08272511 61.02148922-14.86243789 67.06021295-76.93174373l19.96364097-205.20644206 100.03884667-0.2757457zM1646.31989106 489.37508287l-10.39543919 105.60880343a753.71045065 753.71045065 0 0 0-7.30713158 105.91210787c-10.891764-26.80203079-23.68615263-49.93669203-36.89415333-78.31043543l-62.3726102-132.98988446-95.90272244 0.16543745-35.65330413 363.26119548 87.8510789-0.16543731 14.89000881-109.41402778c3.86037825-39.40338639 8.68583547-75.19456915 12.13261376-109.00042777 11.58112238 27.05019346 24.92698972 53.96250772 35.76359975 78.22772263l60.38728517 118.67892559a43.677377 43.677377 0 0 0 42.9604482 25.58876466 51.39812102 51.39812102 0 0 0 51.92202891-47.97892606l30.46937617-319.72169747-87.8510788 0.13787917zM1771.64417305 672.93586342a51.83930413 51.83930413 0 0 0-26.38841848 40.0927444l-8.57553959 97.36413891a41.36115255 41.36115255 0 0 0 41.80233565 46.32448876l204.93070875-0.386029a51.5084167 51.5084167 0 0 0 49.96427539-46.48993878l8.57553965-97.33656802a41.94020222 41.94020222 0 0 0-19.35702017-40.03760304 51.83930413 51.83930413 0 0 0 26.3608476-40.1203151l8.57553957-97.33656805a41.36115255 41.36115255 0 0 0-41.80233567-46.32448882l-204.93070874 0.38604155a51.5084167 51.5084167 0 0 0-49.96427533 46.4623554l-8.57553957 97.33656818a41.94020222 41.94020222 0 0 0 19.38459094 40.06517361z m56.22359064 47.97893823a21.61809059 21.61809059 0 0 1 21.7559696-18.55737872l89.83641607-0.16543757a17.39925406 17.39925406 0 0 1 18.47464111 18.47464152l-3.44676562 38.87947811a21.61809059 21.61809059 0 0 1-21.72838648 18.52979544l-89.83641585 0.16544987a17.39925406 17.39925406 0 0 1-18.4746538-18.47464142l3.41919497-38.87949035z m12.10503044-137.31901656a21.61809059 21.61809059 0 0 1 21.72838642-18.52979577l89.83641598-0.16544987a17.39925406 17.39925406 0 0 1 18.47465331 18.47464131l-3.41919481 38.85190735a21.61809059 21.61809059 0 0 1-21.72838621 18.52979557l-89.83641597 0.16544977a17.39925406 17.39925406 0 0 1-18.47465362-18.47465356l3.4191949-38.8518948zM2099.41750197 672.32922999a51.83930413 51.83930413 0 0 0-26.36084748 40.12031544l-8.5755397 97.33658058a41.36115255 41.36115255 0 0 0 41.80233569 46.32448871l204.93070871-0.38604135a51.5084167 51.5084167 0 0 0 49.9642753-46.48993879l8.54796886-97.33656812a41.94020222 41.94020222 0 0 0-19.3570204-40.03759044 51.83930413 51.83930413 0 0 0 26.36083549-40.12031531l8.57555183-97.33658041a41.36115255 41.36115255 0 0 0-41.80233549-46.32448892l-204.93070892 0.38604171a51.5084167 51.5084167 0 0 0-49.96427535 46.46235532l-8.57553952 97.36415142a41.96778562 41.96778562 0 0 0 19.41216193 40.03759016z m56.25116157 47.97893862a21.61809059 21.61809059 0 0 1 21.72838649-18.52979568l89.83641575-0.16544986a17.39925406 17.39925406 0 0 1 18.47465368 18.4746537l-3.44676587 38.85190744a21.61809059 21.61809059 0 0 1-21.72838625 18.52979552l-89.83641577 0.16543736a17.39925406 17.39925406 0 0 1-18.47465389-18.47464144l3.44676586-38.85190704z m12.10503035-137.31901686a21.61809059 21.61809059 0 0 1 21.72838654-18.52979553l89.83641583-0.16544984a17.39925406 17.39925406 0 0 1 18.47465355 18.47465364l-3.419195 38.85190724a21.61809059 21.61809059 0 0 1-21.75595707 18.52979557l-89.83641583 0.16543744a17.39925406 17.39925406 0 0 1-18.47465401-18.47464128l3.44676599-38.85190724z" fill="#8a8a8a" p-id="1248"></path></svg>