<svg xmlns="http://www.w3.org/2000/svg" width="18" height="18.676" viewBox="0 0 18 18.676"><defs><style>.opacity{opacity:0;}</style></defs><g transform="translate(0 0.672)"><rect class="opacity" width="18" height="18"/><path class="b" d="M19.949,2719.676H7.547a.548.548,0,0,1-.547-.547V2703.6a.544.544,0,0,1,.16-.387l2.048-2.048A.544.544,0,0,1,9.6,2701H19.949a.548.548,0,0,1,.547.547v17.582A.548.548,0,0,1,19.949,2719.676Zm-10.213-3.72a.547.547,0,1,0,0,1.094h8.024a.547.547,0,1,0,0-1.094Zm0-2.189a.547.547,0,0,0,0,1.094h8.024a.547.547,0,0,0,0-1.094Zm5.107-2.189a.547.547,0,0,0,0,1.094h2.918a.547.547,0,0,0,0-1.094Zm-5.356-3.006a.5.5,0,0,0-.35.152.61.61,0,0,0-.149.346.828.828,0,0,0,.148.384.447.447,0,0,0,.35.191H11.12v.879a.719.719,0,0,0,.224.541.863.863,0,0,0,.579.178.688.688,0,0,0,.787-.719v-.9l1.624.008a.485.485,0,0,0,.347-.165.535.535,0,0,0,0-.731.477.477,0,0,0-.347-.169H12.709v-.517l1.616-.008a.5.5,0,0,0,.351-.169.627.627,0,0,0,.148-.372.552.552,0,0,0-.144-.346.5.5,0,0,0-.347-.153H13.09l1.31-2.13a.751.751,0,0,0,.169-.465.946.946,0,0,0-.08-.288.471.471,0,0,0-.135-.169.515.515,0,0,0-.186-.084,1.32,1.32,0,0,0-.232-.034.821.821,0,0,0-.364.135,1.043,1.043,0,0,0-.263.254l-1.412,2.368-1.285-2.351a1.247,1.247,0,0,0-.262-.266.688.688,0,0,0-.364-.139.731.731,0,0,0-.473.19.793.793,0,0,0-.169.385.685.685,0,0,0,.068.343,1.3,1.3,0,0,0,.16.257l1.133,2H9.487a.5.5,0,0,0-.35.153.609.609,0,0,0-.149.346.669.669,0,0,0,.149.364.484.484,0,0,0,.35.16l1.633.009v.533Z" transform="translate(-4.8 -2701.672)"/></g></svg>