<svg width="22" height="14" viewBox="0 0 22 14" fill="none" xmlns="http://www.w3.org/2000/svg">
<rect width="22" height="14" rx="2" fill="#FF4141"/>
<path d="M7.13672 4.3125V10H5.96484L3.67969 6.1875V10H2.50781V4.3125H3.67969L5.96875 8.12891V4.3125H7.13672ZM11.9727 9.08594V10H8.94531V9.08594H11.9727ZM9.32812 4.3125V10H8.15625V4.3125H9.32812ZM11.5781 6.62891V7.51953H8.94531V6.62891H11.5781ZM11.9688 4.3125V5.23047H8.94531V4.3125H11.9688ZM14.0273 9.09766L15.1602 4.3125H15.793L15.9375 5.10938L14.7305 10H14.0508L14.0273 9.09766ZM13.4453 4.3125L14.3828 9.09766L14.3047 10H13.5469L12.2852 4.3125H13.4453ZM16.9336 9.07812L17.8594 4.3125H19.0195L17.7617 10H17.0039L16.9336 9.07812ZM16.1484 4.3125L17.2891 9.11719L17.2578 10H16.5781L15.3633 5.10547L15.5195 4.3125H16.1484Z" fill="white"/>
</svg>
