<svg width="26" height="24" viewBox="0 0 26 24" fill="none" xmlns="http://www.w3.org/2000/svg">
<g id="Frame">
<path id="personal" d="M13.1034 22.2501C10.6977 22.2535 8.35846 21.52 6.45051 20.1641L6.3835 20.1161L6.37162 20.1081C6.29164 20.0501 6.21239 19.9911 6.13386 19.9311L6.3835 20.1161C5.93807 19.795 5.52004 19.4427 5.13311 19.0621L5.07151 19.0001C3.62634 17.5548 2.66798 15.7509 2.31378 13.8093C1.95958 11.8677 2.22491 9.87268 3.07727 8.06848C3.92964 6.26427 5.33205 4.72919 7.11281 3.65118C8.89357 2.57317 10.9754 1.99902 13.1034 1.99902C15.2314 1.99902 17.3132 2.57317 19.094 3.65118C20.8748 4.72919 22.2772 6.26427 23.1295 8.06848C23.9819 9.87268 24.2472 11.8677 23.893 13.8093C23.5388 15.7509 22.5805 17.5548 21.1353 19.0001L21.0737 19.0611L21.0629 19.0711C20.9995 19.1338 20.935 19.1955 20.8694 19.2561L21.0737 19.0561C20.6867 19.4366 20.2687 19.789 19.8233 20.1101L19.7563 20.1581C17.8492 21.5162 15.5099 22.2518 13.1034 22.2501ZM13.2677 6.82114H12.8354C11.9747 6.84623 11.1564 7.17288 10.546 7.73503C9.93571 8.29717 9.57892 9.05283 9.54784 9.84914V9.96214V12.1291V12.2631C9.57917 13.054 9.91715 13.808 10.5 14.3871L10.608 14.4931L11.6801 15.4691L11.7644 15.5561C11.9862 15.8021 12.1186 16.1066 12.1426 16.4261V16.5331V16.7001L12.1362 16.8061C12.1116 17.0435 12.0249 17.2718 11.8837 17.4713C11.7425 17.6707 11.551 17.8354 11.3256 17.9511L11.2392 18.0001L8.00566 19.4101C9.52491 20.3199 11.296 20.8038 13.1056 20.8038C14.9152 20.8038 16.6862 20.3199 18.2055 19.4101L14.9698 18.0001C14.713 17.8881 14.4934 17.7145 14.3338 17.4973C14.1741 17.2801 14.0803 17.0273 14.062 16.7651V16.6701V16.5341C14.0621 16.1595 14.2109 15.7979 14.4802 15.5181L14.5559 15.4441L15.6009 14.4941C16.243 13.9114 16.6229 13.1254 16.6644 12.2941V12.1471V9.96714C16.6644 9.15313 16.3231 8.37085 15.7123 7.785C15.1015 7.19915 14.2689 6.8554 13.3898 6.82614L13.2677 6.82114ZM13.1034 3.44614C11.2289 3.44592 9.39742 3.96545 7.84514 4.93769C6.29286 5.90994 5.09104 7.29029 4.39477 8.90065C3.69849 10.511 3.5397 12.2775 3.93887 13.9722C4.33805 15.6668 5.27687 17.2119 6.63423 18.4081L10.5799 16.6881C10.5799 16.6881 10.5799 16.6881 10.5799 16.6961V16.7001V16.6651V16.5291C10.5799 16.5151 10.5799 16.5011 10.5799 16.5001H10.5864L10.5551 16.4661L9.51002 15.5171C8.61457 14.7026 8.07315 13.6124 7.98836 12.4531L7.97864 12.2941V12.1341V9.95414C7.97931 8.78265 8.46393 7.65571 9.33328 6.80407C10.2026 5.95242 11.3909 5.44051 12.6549 5.37314L12.7954 5.36714H12.9381H13.2623C14.5534 5.36692 15.7938 5.83264 16.7197 6.66529C17.6456 7.49795 18.184 8.6319 18.2206 9.82614V12.1361C18.2207 13.3537 17.7145 14.5245 16.807 15.4061L16.6871 15.5191L15.6409 16.4691C15.6301 16.4791 15.6223 16.4915 15.6182 16.5051V16.5261V16.6621C15.6182 16.668 15.6205 16.6737 15.6247 16.6781H15.6323L19.5693 18.3951C20.9264 17.1988 21.8649 15.6537 22.2638 13.9591C22.6627 12.2645 22.5037 10.4982 21.8074 8.888C21.111 7.27782 19.9092 5.89764 18.357 4.92552C16.8048 3.9534 14.9734 3.43393 13.0991 3.43414L13.1034 3.44614Z" fill="#00A6FF"/>
</g>
</svg>
