<svg width="60" height="45" viewBox="0 0 60 45" fill="none" xmlns="http://www.w3.org/2000/svg">
<path d="M7.55824 3.63605C5.50111 3.63605 3.81799 5.31909 3.81799 7.37622V14.7632C3.81799 15.6049 4.47251 16.3528 5.31409 16.5398C8.02576 17.1943 9.98939 19.6255 9.98939 22.5242C9.98939 25.4229 8.02576 27.8541 5.31409 28.5086C4.47251 28.6956 3.81799 29.4437 3.81799 30.2852V37.6722C3.81799 39.7294 5.50111 41.4125 7.55824 41.4125H52.4411C54.4983 41.4125 56.1814 39.7294 56.1814 37.6722V30.2852C56.1814 29.4437 55.6204 28.6956 54.6853 28.5086C51.9736 27.8541 50.01 25.4229 50.01 22.5242C50.01 19.6255 52.0671 17.1943 54.6853 16.5398C55.5268 16.3528 56.1814 15.6049 56.1814 14.7632V7.37622C56.1814 5.31909 54.4983 3.63605 52.4411 3.63605H7.55824ZM7.55824 0.136047H52.4411C56.4334 0.136047 59.6814 3.38399 59.6814 7.37622V14.7632C59.6814 17.2049 57.9312 19.3719 55.5101 19.9414C54.536 20.1968 53.51 21.1824 53.51 22.5242C53.51 23.7471 54.313 24.7991 55.4677 25.0966C57.9538 25.6383 59.6814 27.7583 59.6814 30.2852V37.6722C59.6814 41.6645 56.4334 44.9125 52.4411 44.9125H7.55824C3.56596 44.9125 0.317993 41.6645 0.317993 37.6722V30.2852C0.317993 27.8366 2.07819 25.6642 4.50991 25.1021C5.67636 24.8123 6.48939 23.7548 6.48939 22.5242C6.48939 21.2936 5.67636 20.2361 4.50991 19.9463C2.07819 19.3842 0.317993 17.2118 0.317993 14.7632V7.37622C0.317993 3.38399 3.56596 0.136047 7.55824 0.136047Z" fill="#BCBEC3"/>
<path d="M31.6562 30.3125V10H36.1875V34H32.1094L31.6562 30.3125ZM20.9688 25.75V25.4219C20.9688 24.1302 21.1146 22.9583 21.4062 21.9062C21.6979 20.8438 22.125 19.9323 22.6875 19.1719C23.25 18.4115 23.9427 17.8229 24.7656 17.4062C25.5885 16.9896 26.526 16.7812 27.5781 16.7812C28.5677 16.7812 29.4323 16.9896 30.1719 17.4062C30.9219 17.8229 31.5573 18.4167 32.0781 19.1875C32.6094 19.9479 33.0365 20.849 33.3594 21.8906C33.6823 22.9219 33.9167 24.0521 34.0625 25.2812V26C33.9167 27.1771 33.6823 28.2708 33.3594 29.2812C33.0365 30.2917 32.6094 31.1771 32.0781 31.9375C31.5573 32.6875 30.9219 33.2708 30.1719 33.6875C29.4219 34.1042 28.5469 34.3125 27.5469 34.3125C26.4948 34.3125 25.5573 34.099 24.7344 33.6719C23.9219 33.2448 23.2344 32.6458 22.6719 31.875C22.1198 31.1042 21.6979 30.1979 21.4062 29.1562C21.1146 28.1146 20.9688 26.9792 20.9688 25.75ZM25.4688 25.4219V25.75C25.4688 26.4479 25.5208 27.099 25.625 27.7031C25.7396 28.3073 25.9219 28.8438 26.1719 29.3125C26.4323 29.7708 26.7656 30.1302 27.1719 30.3906C27.5885 30.6406 28.0938 30.7656 28.6875 30.7656C29.4583 30.7656 30.0938 30.5938 30.5938 30.25C31.0938 29.8958 31.474 29.4115 31.7344 28.7969C32.0052 28.1823 32.1615 27.474 32.2031 26.6719V24.625C32.1719 23.9688 32.0781 23.3802 31.9219 22.8594C31.776 22.3281 31.5573 21.875 31.2656 21.5C30.9844 21.125 30.6302 20.8333 30.2031 20.625C29.7865 20.4167 29.2917 20.3125 28.7188 20.3125C28.1354 20.3125 27.6354 20.4479 27.2188 20.7188C26.8021 20.9792 26.4635 21.3385 26.2031 21.7969C25.9531 22.2552 25.7656 22.7969 25.6406 23.4219C25.526 24.0365 25.4688 24.7031 25.4688 25.4219ZM38.6094 12.1406V14.9219H27.6719V12.1406H38.6094Z" fill="#BCBEC3"/>
</svg>
