<svg width="56" height="56" viewBox="0 0 56 56" fill="none" xmlns="http://www.w3.org/2000/svg">
<g id="Group 13011">
<path id="Rectangle 5462" d="M48 0H8C3.58172 0 0 3.58172 0 8V48C0 52.4183 3.58172 56 8 56H48C52.4183 56 56 52.4183 56 48V8C56 3.58172 52.4183 0 48 0Z" fill="white"/>
<g id="Copy icon">
<g id="copy">
<path id="Path 5381" d="M33.468 20.67H18.544C18.1451 20.6611 17.7589 20.8104 17.4696 21.0852C17.1803 21.3601 17.0115 21.7381 17 22.137V37.537C17.0115 37.9358 17.1803 38.3139 17.4696 38.5888C17.7589 38.8636 18.1451 39.0129 18.544 39.004H33.468C33.8669 39.0129 34.2531 38.8636 34.5424 38.5888C34.8317 38.3139 35.0005 37.9358 35.012 37.537V22.137C35.0005 21.7381 34.8317 21.3601 34.5424 21.0852C34.2531 20.8104 33.8669 20.6611 33.468 20.67ZM32.953 37.048H19.058V22.626H32.953V37.048Z" fill="#00A6FF"/>
<path id="Path 5382" d="M20.9878 18.47C20.9993 18.0712 21.1681 17.6931 21.4574 17.4182C21.7467 17.1434 22.1329 16.9941 22.5318 17.003H37.4558C37.8547 16.9941 38.2409 17.1434 38.5302 17.4182C38.8195 17.6931 38.9883 18.0712 38.9998 18.47V33.87C38.9883 34.2688 38.8195 34.6469 38.5302 34.9218C38.2409 35.1966 37.8547 35.3459 37.4558 35.337H36.9408V18.959H20.9878V18.47Z" fill="#00A6FF"/>
<path id="Path 5383" d="M21.7598 26.78C21.7658 26.5807 21.8503 26.3919 21.9949 26.2546C22.1395 26.1173 22.3324 26.0427 22.5318 26.047H29.4788C29.6781 26.0427 29.8711 26.1173 30.0157 26.2546C30.1602 26.3919 30.2447 26.5807 30.2508 26.78V27.269C30.2447 27.4683 30.1602 27.6571 30.0157 27.7944C29.8711 27.9317 29.6781 28.0063 29.4788 28.002H22.5318C22.3324 28.0063 22.1395 27.9317 21.9949 27.7944C21.8503 27.6571 21.7658 27.4683 21.7598 27.269V26.78ZM21.7598 31.547C21.7658 31.3477 21.8503 31.1589 21.9949 31.0216C22.1395 30.8843 22.3324 30.8097 22.5318 30.814H27.1638C27.3631 30.8097 27.5561 30.8843 27.7007 31.0216C27.8452 31.1589 27.9297 31.3477 27.9358 31.547V32.036C27.9297 32.2353 27.8452 32.4241 27.7007 32.5614C27.5561 32.6987 27.3631 32.7733 27.1638 32.769H22.5318C22.3324 32.7733 22.1395 32.6987 21.9949 32.5614C21.8503 32.4241 21.7658 32.2353 21.7598 32.036V31.547Z" fill="#00A6FF"/>
</g>
</g>
</g>
</svg>
