<svg width="56" height="56" viewBox="0 0 56 56" fill="none" xmlns="http://www.w3.org/2000/svg">
<g id="Group 13012">
<path id="Rectangle 5462" d="M48 0H8C3.58172 0 0 3.58172 0 8V48C0 52.4183 3.58172 56 8 56H48C52.4183 56 56 52.4183 56 48V8C56 3.58172 52.4183 0 48 0Z" fill="white"/>
<g id="download">
<path id="Path 5384" d="M35.7001 39H20.3001C19.8645 39.008 19.4318 38.9281 19.0278 38.7651C18.6238 38.6021 18.2568 38.3593 17.9488 38.0513C17.6407 37.7432 17.398 37.3763 17.235 36.9723C17.0719 36.5683 16.9921 36.1356 17.0001 35.7V31.3C17.0001 31.0082 17.116 30.7285 17.3222 30.5222C17.5285 30.3159 17.8083 30.2 18.1001 30.2C18.3918 30.2 18.6716 30.3159 18.8779 30.5222C19.0842 30.7285 19.2001 31.0082 19.2001 31.3V35.7C19.1912 35.8468 19.2135 35.9938 19.2656 36.1313C19.3178 36.2688 19.3985 36.3936 19.5025 36.4976C19.6064 36.6016 19.7313 36.6823 19.8688 36.7344C20.0063 36.7866 20.1533 36.8089 20.3001 36.8H35.7001C35.8468 36.8089 35.9938 36.7866 36.1313 36.7344C36.2688 36.6823 36.3937 36.6016 36.4976 36.4976C36.6016 36.3936 36.6823 36.2688 36.7345 36.1313C36.7866 35.9938 36.809 35.8468 36.8001 35.7V31.3C36.8001 31.0082 36.916 30.7285 37.1222 30.5222C37.3285 30.3159 37.6083 30.2 37.9001 30.2C38.1918 30.2 38.4716 30.3159 38.6779 30.5222C38.8842 30.7285 39.0001 31.0082 39.0001 31.3V35.7C39.0081 36.1356 38.9282 36.5683 38.7652 36.9723C38.6022 37.3763 38.3594 37.7432 38.0513 38.0513C37.7433 38.3593 37.3763 38.6021 36.9723 38.7651C36.5683 38.9281 36.1356 39.008 35.7001 39Z" fill="#00A6FF"/>
<path id="Path 5385" d="M28.0001 32.4C27.8555 32.404 27.7118 32.3765 27.5789 32.3195C27.4459 32.2626 27.3269 32.1774 27.2301 32.07L21.7301 26.57C21.6273 26.4693 21.5455 26.3492 21.4894 26.2166C21.4333 26.084 21.4041 25.9417 21.4033 25.7977C21.4026 25.6538 21.4304 25.5112 21.4852 25.378C21.5399 25.2449 21.6205 25.124 21.7223 25.0222C21.8241 24.9204 21.945 24.8399 22.0781 24.7851C22.2112 24.7304 22.3539 24.7025 22.4978 24.7033C22.6417 24.704 22.7841 24.7332 22.9167 24.7893C23.0492 24.8454 23.1694 24.9272 23.2701 25.03L28.0001 29.76L32.7301 25.03C32.8308 24.9272 32.951 24.8454 33.0835 24.7893C33.2161 24.7332 33.3584 24.704 33.5024 24.7033C33.6463 24.7025 33.789 24.7304 33.9221 24.7851C34.0552 24.8399 34.1761 24.9204 34.2779 25.0222C34.3797 25.124 34.4603 25.2449 34.515 25.378C34.5698 25.5112 34.5976 25.6538 34.5969 25.7977C34.5962 25.9417 34.5669 26.084 34.5108 26.2166C34.4547 26.3492 34.3729 26.4693 34.2701 26.57L28.7701 32.07C28.6732 32.1774 28.5542 32.2626 28.4213 32.3195C28.2884 32.3765 28.1447 32.404 28.0001 32.4Z" fill="#00A6FF"/>
<path id="Path 5386" d="M27.9999 32.4C27.8531 32.4089 27.7061 32.3865 27.5686 32.3344C27.4311 32.2823 27.3062 32.2016 27.2023 32.0976C27.0983 31.9936 27.0176 31.8688 26.9654 31.7313C26.9133 31.5938 26.891 31.4468 26.8999 31.3V18.1C26.8999 17.8083 27.0157 17.5285 27.222 17.3222C27.4283 17.1159 27.7081 17 27.9999 17C28.2916 17 28.5714 17.1159 28.7777 17.3222C28.984 17.5285 29.0998 17.8083 29.0998 18.1V31.3C29.1087 31.4468 29.0864 31.5938 29.0343 31.7313C28.9821 31.8688 28.9014 31.9936 28.7974 32.0976C28.6935 32.2016 28.5686 32.2823 28.4311 32.3344C28.2936 32.3865 28.1466 32.4089 27.9999 32.4Z" fill="#00A6FF"/>
</g>
</g>
</svg>
