<svg width="20" height="20" viewBox="0 0 20 20" fill="none" xmlns="http://www.w3.org/2000/svg">
<g id="receipt">
<path id="Path 5411" d="M0.885283 1.61903C0.884522 1.44407 0.935186 1.2722 1.03185 1.12183C1.12851 0.97145 1.26755 0.848223 1.43407 0.765327C1.60059 0.682431 1.78832 0.642987 1.9772 0.651214C2.16608 0.659441 2.34899 0.715031 2.50636 0.812034L2.60039 0.878028L4.01936 1.97103L5.47942 0.95803C5.64128 0.845736 5.83492 0.779424 6.03678 0.767173C6.23865 0.754922 6.44 0.797259 6.61632 0.88903L6.73088 0.95803L8.19093 1.97103L9.65098 0.95803C9.81283 0.845736 10.0065 0.779424 10.2084 0.767173C10.4102 0.754922 10.6116 0.797259 10.7879 0.88903L10.9025 0.95803L12.3625 1.97103L13.8225 0.95803C13.9844 0.845736 14.1781 0.779424 14.3799 0.767173C14.5818 0.754922 14.7831 0.797259 14.9595 0.88903L15.074 0.95803L16.5341 1.97103L17.9531 0.878028C18.0976 0.766449 18.2721 0.693152 18.458 0.665908C18.6439 0.638665 18.8344 0.658494 19.0091 0.723289C19.1838 0.788084 19.3363 0.895431 19.4505 1.03394C19.5646 1.17245 19.6361 1.33697 19.6573 1.51003L19.6638 1.61903V18.73C19.6646 18.905 19.6139 19.0769 19.5173 19.2272C19.4206 19.3776 19.2816 19.5008 19.1151 19.5837C18.9485 19.6666 18.7608 19.7061 18.5719 19.6979C18.383 19.6896 18.2001 19.634 18.0428 19.537L17.9487 19.471L16.5297 18.378L15.0697 19.391C14.9078 19.5033 14.7142 19.5696 14.5123 19.5819C14.3105 19.5941 14.1091 19.5518 13.9328 19.46L13.8182 19.391L12.3582 18.378L10.8981 19.391C10.7363 19.5033 10.5426 19.5696 10.3408 19.5819C10.1389 19.5941 9.93753 19.5518 9.76121 19.46L9.64666 19.391L8.18661 18.378L6.72115 19.395C6.5593 19.5073 6.36566 19.5736 6.16379 19.5859C5.96193 19.5981 5.76057 19.5558 5.58425 19.464L5.46969 19.395L4.00964 18.382L2.59066 19.475C2.44611 19.5866 2.27163 19.6599 2.08571 19.6871C1.89978 19.7144 1.70936 19.6946 1.53463 19.6298C1.3599 19.565 1.20738 19.4576 1.09324 19.3191C0.979113 19.1806 0.907634 19.0161 0.886372 18.843L0.879883 18.734L0.885283 1.61903ZM14.444 2.33303L13.2962 3.13303C13.0254 3.32087 12.6961 3.42241 12.3576 3.42241C12.0192 3.42241 11.6898 3.32087 11.419 3.13303L10.2713 2.33303L9.12359 3.13303C8.85278 3.32087 8.52345 3.42241 8.18499 3.42241C7.84654 3.42241 7.5172 3.32087 7.24639 3.13303L6.09867 2.33303L4.95094 3.13303C4.66869 3.32969 4.32283 3.43219 3.96962 3.42384C3.61642 3.41548 3.27668 3.29677 3.00566 3.08703L2.44259 2.65303V17.695L3.00566 17.261C3.2768 17.0514 3.61662 16.9329 3.96982 16.9247C4.32302 16.9166 4.66881 17.0192 4.95094 17.216L6.09867 18.016L7.24639 17.216C7.5172 17.0282 7.84654 16.9267 8.18499 16.9267C8.52345 16.9267 8.85278 17.0282 9.12359 17.216L10.2713 18.016L11.419 17.216C11.6898 17.0282 12.0192 16.9267 12.3576 16.9267C12.6961 16.9267 13.0254 17.0282 13.2962 17.216L14.444 18.016L15.5917 17.216C15.8739 17.0194 16.2198 16.9169 16.573 16.9252C16.9262 16.9336 17.266 17.0523 17.537 17.262L18.1 17.696V2.64803L17.537 3.08203C17.2658 3.29163 16.926 3.41016 16.5728 3.41833C16.2196 3.4265 15.8738 3.32383 15.5917 3.12703L14.444 2.33303Z" fill="#00A6FF"/>
<path id="Path 5412" d="M6.1008 7.52002H14.445C14.6525 7.52002 14.8515 7.59631 14.9983 7.73209C15.145 7.86786 15.2275 8.052 15.2275 8.24402C15.2275 8.43604 15.145 8.62021 14.9983 8.75598C14.8515 8.89176 14.6525 8.96802 14.445 8.96802H6.1008C5.89328 8.96802 5.69425 8.89176 5.54751 8.75598C5.40077 8.62021 5.31836 8.43604 5.31836 8.24402C5.31836 8.052 5.40077 7.86786 5.54751 7.73209C5.69425 7.59631 5.89328 7.52002 6.1008 7.52002ZM6.1008 11.38H10.2724C10.4799 11.38 10.6789 11.4563 10.8256 11.5921C10.9724 11.7278 11.0548 11.912 11.0548 12.104C11.0548 12.2961 10.9724 12.4802 10.8256 12.616C10.6789 12.7517 10.4799 12.828 10.2724 12.828H6.1008C5.89328 12.828 5.69425 12.7517 5.54751 12.616C5.40077 12.4802 5.31836 12.2961 5.31836 12.104C5.31836 11.912 5.40077 11.7278 5.54751 11.5921C5.69425 11.4563 5.89328 11.38 6.1008 11.38Z" fill="#00A6FF"/>
</g>
</svg>
