<svg xmlns="http://www.w3.org/2000/svg" width="36" height="36" viewBox="0 0 36 36">
  <path id="Path_4946" data-name="Path 4946" d="M11.219-12.031a18,18,0,1,0,18,18A18,18,0,0,0,11.219-12.031Zm8.826,22.725a.872.872,0,0,1,0,1.234L17.17,14.795a.872.872,0,0,1-1.234,0l-4.718-4.761L6.494,14.795a.872.872,0,0,1-1.234,0L2.393,11.92a.872.872,0,0,1,0-1.234L7.154,5.969,2.393,1.244a.872.872,0,0,1,0-1.234L5.267-2.864a.872.872,0,0,1,1.234,0L11.219,1.9l4.725-4.761a.872.872,0,0,1,1.234,0L20.052.017a.872.872,0,0,1,0,1.234L15.283,5.969Z" transform="translate(6.781 12.031)" fill="#eb2121"/>
</svg>
