<svg xmlns="http://www.w3.org/2000/svg" width="14" height="14" viewBox="0 0 14 14">
  <path id="refresh_1_" data-name="refresh (1)" d="M107.2,111.989l.241,1.426a7,7,0,0,1-6.571-11.393l.046-.051-.873-.736a.159.159,0,0,1,.06-.266l3.218-.891a.121.121,0,0,1,.152.128l-.309,3.324a.159.159,0,0,1-.261.106l-.873-.724-.043.051a5.551,5.551,0,0,0,5.213,9.025Zm5.162-.1-.883-.741c.039-.043.08-.084.118-.128a7,7,0,0,0-6.614-11.385l.241,1.427a5.551,5.551,0,0,1,5.261,9.027c-.039.046-.077.087-.116.13l-.871-.724a.159.159,0,0,0-.261.106l-.311,3.319a.121.121,0,0,0,.152.128l3.218-.881a.159.159,0,0,0,.06-.275Z" transform="translate(-99.231 -99.522)" fill="#333"/>
</svg>
