<svg class="icon" viewBox="0 0 1024 1024" version="1.1" xmlns="http://www.w3.org/2000/svg" p-id="1487"><path d="M730.398 515.185c0 5.248-2.016 9.872-6.049 13.889L442.621 810.817c-4.033 4.033-8.672 6.032-13.92 6.032s-9.872-2-13.904-6.032l-30.225-30.24c-4.033-4.033-6.048-8.656-6.048-13.904 0-5.233 2.016-9.872 6.048-13.904l237.6-237.6-237.601-237.585c-4.033-4.033-6.048-8.656-6.048-13.904s2.016-9.887 6.049-13.92l30.224-30.224c4.033-4.033 8.656-6.048 13.904-6.048s9.887 2.016 13.92 6.049l281.728 281.729c4.031 4.031 6.049 8.672 6.049 13.92z" p-id="1488"></path></svg>