<svg xmlns="http://www.w3.org/2000/svg" xmlns:xlink="http://www.w3.org/1999/xlink" width="44" height="44" viewBox="0 0 44 44">
  <defs>
    <linearGradient id="linear-gradient" x1="0.897" y1="0.883" x2="0.123" gradientUnits="objectBoundingBox">
      <stop offset="0" stop-color="#12bc23"/>
      <stop offset="1" stop-color="#3ffa70"/>
    </linearGradient>
    <filter id="Rectangle_4398" x="0" y="0" width="44" height="44" filterUnits="userSpaceOnUse">
      <feOffset dy="3" input="SourceAlpha"/>
      <feGaussianBlur stdDeviation="3" result="blur"/>
      <feFlood flood-color="#020202" flood-opacity="0.102"/>
      <feComposite operator="in" in2="blur"/>
      <feComposite in="SourceGraphic"/>
    </filter>
  </defs>
  <g id="Group_13349" data-name="Group 13349" transform="translate(-250 -49)">
    <g transform="matrix(1, 0, 0, 1, 250, 49)" filter="url(#Rectangle_4398)">
      <rect id="Rectangle_4398-2" data-name="Rectangle 4398" width="26" height="26" rx="8" transform="translate(9 6)" fill="url(#linear-gradient)"/>
    </g>
    <path id="refresh_1_" data-name="refresh (1)" d="M106.059,110.208l.207,1.223a6,6,0,0,1-5.632-9.765l.039-.043-.748-.631a.137.137,0,0,1,.052-.228l2.758-.763a.1.1,0,0,1,.13.11l-.265,2.849a.136.136,0,0,1-.223.091l-.748-.621-.037.043a4.758,4.758,0,0,0,4.468,7.736Zm4.425-.085-.757-.635c.033-.037.068-.072.1-.11a6,6,0,0,0-5.669-9.759l.207,1.223a4.758,4.758,0,0,1,4.509,7.738c-.033.039-.066.074-.1.112l-.746-.621a.136.136,0,0,0-.223.091l-.267,2.845a.1.1,0,0,0,.13.11l2.758-.755a.137.137,0,0,0,.052-.236Z" transform="translate(166.769 -37.522)" fill="#fff"/>
  </g>
</svg>
