<svg width="18" height="18" viewBox="0 0 18 18" fill="none" xmlns="http://www.w3.org/2000/svg">
<g id="Group 11809">
<path id="search (1)" d="M7.89905 1.53296C9.06602 1.53312 10.2087 1.86658 11.1925 2.49413C12.1764 3.12167 12.9606 4.01717 13.4527 5.07527C13.9449 6.13337 14.1246 7.31004 13.9707 8.46681C13.8168 9.62359 13.3357 10.7123 12.5841 11.605L16.226 15.365L15.1581 16.465L11.4581 12.644C10.673 13.2047 9.76666 13.5721 8.81277 13.7162C7.85887 13.8603 6.88443 13.7772 5.96877 13.4734C5.05311 13.1697 4.22213 12.654 3.54349 11.9683C2.86486 11.2827 2.35775 10.4464 2.06347 9.52768C1.76918 8.60894 1.69604 7.63368 1.85 6.68132C2.00395 5.72896 2.38066 4.82644 2.94944 4.04723C3.51821 3.26801 4.26297 2.63413 5.12308 2.19722C5.98319 1.76031 6.93433 1.53271 7.89905 1.53296ZM7.89905 2.94696C6.96711 2.94696 6.05609 3.22331 5.28121 3.74107C4.50633 4.25884 3.90238 4.99475 3.54574 5.85576C3.1891 6.71676 3.09578 7.66419 3.27759 8.57823C3.45941 9.49227 3.90817 10.3319 4.56716 10.9908C5.22614 11.6498 6.06575 12.0986 6.97979 12.2804C7.89383 12.4622 8.84126 12.3689 9.70226 12.0123C10.5633 11.6556 11.2992 11.0517 11.8169 10.2768C12.3347 9.50193 12.6111 8.59091 12.6111 7.65897C12.6111 6.40927 12.1146 5.21074 11.2309 4.32707C10.3473 3.4434 9.14875 2.94696 7.89905 2.94696Z" fill="#CCCCCC"/>
</g>
</svg>
