<svg xmlns="http://www.w3.org/2000/svg" width="24" height="24" viewBox="0 0 24 24">
  <g id="Group_11199" data-name="Group 11199" transform="translate(-959 -122)">
    <rect id="Rectangle_1762" data-name="Rectangle 1762" width="24" height="24" transform="translate(959 122)" fill="#fff" opacity="0"/>
    <g id="share" transform="translate(856.333 21.467)">
      <path id="Path_45" data-name="Path 45" d="M122.667,121.784v-4.619a.842.842,0,0,0-1.684,0v3.779H108.351v-12.6h3.789a.84.84,0,1,0,0-1.68h-4.632a.843.843,0,0,0-.842.84v14.278a.843.843,0,0,0,.842.84h14.316a.843.843,0,0,0,.842-.84" transform="translate(0 -2.091)" fill="#fff"/>
      <path id="Path_46" data-name="Path 46" d="M373.74,105.428v-.256c0-.043,0-.043-.043-.085,0-.043-.043-.043-.043-.085s-.043-.043-.043-.085c-.043-.043-.085-.085-.085-.128-.043-.043-.085-.085-.128-.085a.149.149,0,0,0-.085-.043c-.043,0-.043-.043-.085-.043s-.043,0-.085-.043c-.043,0-.043,0-.085-.043h-5.281a.852.852,0,0,0,0,1.7h3.067l-7.922,7.965a.823.823,0,0,0,0,1.193.823.823,0,0,0,1.193,0l7.922-7.922v3.067a.852.852,0,0,0,1.7,0Z" transform="translate(-251.074 0)" fill="#fff"/>
    </g>
  </g>
</svg>
