<svg xmlns="http://www.w3.org/2000/svg" width="22" height="22" viewBox="0 0 22 22">
  <g id="download" transform="translate(-85.333 -85.333)">
    <path id="Path_5384" data-name="Path 5384" d="M104.033,606.133h-15.4a3.241,3.241,0,0,1-3.3-3.3v-4.4a1.1,1.1,0,1,1,2.2,0v4.4a1.039,1.039,0,0,0,1.1,1.1h15.4a1.039,1.039,0,0,0,1.1-1.1v-4.4a1.1,1.1,0,1,1,2.2,0v4.4A3.241,3.241,0,0,1,104.033,606.133Z" transform="translate(0 -498.8)" fill="#00a6ff"/>
    <path id="Path_5385" data-name="Path 5385" d="M262.6,391.7a1,1,0,0,1-.77-.33l-5.5-5.5a1.089,1.089,0,1,1,1.54-1.54l4.73,4.73,4.73-4.73a1.089,1.089,0,1,1,1.54,1.54l-5.5,5.5A1,1,0,0,1,262.6,391.7Z" transform="translate(-166.267 -290.967)" fill="#00a6ff"/>
    <path id="Path_5386" data-name="Path 5386" d="M470.433,100.733a1.039,1.039,0,0,1-1.1-1.1v-13.2a1.1,1.1,0,0,1,2.2,0v13.2A1.039,1.039,0,0,1,470.433,100.733Z" transform="translate(-374.1)" fill="#00a6ff"/>
  </g>
</svg>
