<svg id="Copy_icon" data-name="Copy icon" xmlns="http://www.w3.org/2000/svg" width="22" height="22.003" viewBox="0 0 22 22.003">
  <rect id="Rectangle_5459" data-name="Rectangle 5459" width="21.999" height="21.999" fill="#00a6ff" opacity="0"/>
  <g id="copy" transform="translate(0 0.003)">
    <path id="Path_5381" data-name="Path 5381" d="M88.148,204.8H73.224a1.511,1.511,0,0,0-1.544,1.467v15.4a1.511,1.511,0,0,0,1.544,1.467H88.148a1.511,1.511,0,0,0,1.544-1.467v-15.4A1.511,1.511,0,0,0,88.148,204.8Zm-.515,16.378H73.738V206.756H87.633Z" transform="translate(-71.68 -201.133)" fill="#00a6ff"/>
    <path id="Path_5382" data-name="Path 5382" d="M230.4,52.667a1.511,1.511,0,0,1,1.544-1.467h14.924a1.511,1.511,0,0,1,1.544,1.467v15.4a1.511,1.511,0,0,1-1.544,1.467h-.515V53.156H230.4Z" transform="translate(-226.412 -51.2)" fill="#00a6ff"/>
    <path id="Path_5383" data-name="Path 5383" d="M261.12,430.813a.756.756,0,0,1,.772-.733h6.947a.756.756,0,0,1,.772.733v.489a.756.756,0,0,1-.772.733h-6.947a.756.756,0,0,1-.772-.733Zm0,4.767a.756.756,0,0,1,.772-.733h4.632a.756.756,0,0,1,.772.733v.489a.756.756,0,0,1-.772.733h-4.632a.756.756,0,0,1-.772-.733Z" transform="translate(-256.36 -421.036)" fill="#00a6ff"/>
  </g>
</svg>
