<svg xmlns="http://www.w3.org/2000/svg" width="16" height="16.001" viewBox="0 0 16 16.001">
  <g id="组_5066" data-name="组 5066" transform="translate(-31 -286)">
    <g id="减去_20" data-name="减去 20" transform="translate(-9792 3802)" fill="none">
      <path d="M9831-3500a8.009,8.009,0,0,1-8-8,8.009,8.009,0,0,1,8-8,8.009,8.009,0,0,1,8,8A8.009,8.009,0,0,1,9831-3500Zm0-11a3,3,0,0,0-3,3,3,3,0,0,0,3,3,3,3,0,0,0,3-3A3,3,0,0,0,9831-3511Z" stroke="none"/>
      <path d="M 9831 -3501.999267578125 C 9834.30859375 -3501.999267578125 9837 -3504.691162109375 9837 -3507.999755859375 C 9837 -3511.308349609375 9834.30859375 -3514 9831 -3514 C 9827.69140625 -3514 9825 -3511.308349609375 9825 -3507.999755859375 C 9825 -3504.691162109375 9827.69140625 -3501.999267578125 9831 -3501.999267578125 M 9831 -3512.999755859375 C 9833.7568359375 -3512.999755859375 9836 -3510.7568359375 9836 -3507.999755859375 C 9836 -3505.24267578125 9833.7568359375 -3502.99951171875 9831 -3502.99951171875 C 9828.2431640625 -3502.99951171875 9826 -3505.24267578125 9826 -3507.999755859375 C 9826 -3510.7568359375 9828.2431640625 -3512.999755859375 9831 -3512.999755859375 M 9831 -3499.999267578125 C 9826.5888671875 -3499.999267578125 9823 -3503.588134765625 9823 -3507.999755859375 C 9823 -3512.4111328125 9826.5888671875 -3516 9831 -3516 C 9835.4111328125 -3516 9839 -3512.4111328125 9839 -3507.999755859375 C 9839 -3503.588134765625 9835.4111328125 -3499.999267578125 9831 -3499.999267578125 Z M 9831 -3510.999755859375 C 9829.345703125 -3510.999755859375 9828 -3509.654052734375 9828 -3507.999755859375 C 9828 -3506.345458984375 9829.345703125 -3504.99951171875 9831 -3504.99951171875 C 9832.654296875 -3504.99951171875 9834 -3506.345458984375 9834 -3507.999755859375 C 9834 -3509.654052734375 9832.654296875 -3510.999755859375 9831 -3510.999755859375 Z" stroke="none" fill="#0ccc3c"/>
    </g>
    <path id="路径_5419" data-name="路径 5419" d="M3,0A3,3,0,0,1,3,6C3.016,5.99,2.982.017,3,0Z" transform="translate(36 291)" fill="#0ccc3c"/>
  </g>
</svg>
