<svg xmlns="http://www.w3.org/2000/svg" width="12.253" height="12.253" viewBox="0 0 12.253 12.253">
  <g id="Group_12777" data-name="Group 12777" transform="translate(0.55 0.15)">
    <g id="Rectangle_1900" data-name="Rectangle 1900" transform="translate(-0.4)" fill="#666" stroke="#707070" stroke-width="0.3" opacity="0">
      <rect width="12" height="12" rx="5" stroke="none"/>
      <rect x="0.15" y="0.15" width="11.7" height="11.7" rx="4.85" fill="none"/>
    </g>
    <path id="calendar" d="M3.538,2.893h.149c.221,0,.311-.335.311-.562V.484C4,.257,3.884,0,3.664,0H3.514c-.221,0-.323.257-.323.484V2.4C3.191,2.558,3.317,2.893,3.538,2.893Zm4.763,0h.149c.221,0,.323-.335.323-.562V.484C8.774.251,8.69,0,8.463,0H8.313c-.221,0-.335.257-.335.484V2.4C7.985,2.558,8.158,2.893,8.3,2.893ZM7.584.831H4.392V1.65H7.584Zm2.839,0H9.186V1.65h1.237a.9.9,0,0,1,.819.914v.765H.765V2.558a.9.9,0,0,1,.819-.914H2.8V.831H1.661A1.861,1.861,0,0,0,0,2.636v7.447a1.927,1.927,0,0,0,1.661,1.871h8.833c.819,0,1.458-.95,1.458-1.871V2.636c-.072-.843-.639-1.8-1.53-1.8ZM11.194,10c0,.538-.257,1.13-.777,1.13H1.661c-.448,0-.867-.592-.867-1.052V4.094H11.2V10h-.006ZM3.018,9.311H9.084c.125,0,.406-.108.406-.3V8.875c0-.2-.275-.275-.466-.275H3.018c-.191,0-.406.1-.406.3v.131C2.612,9.222,2.827,9.311,3.018,9.311Zm0-2.564H9.084c.125,0,.406-.108.406-.3V6.311c0-.2-.275-.275-.466-.275H3.018c-.191,0-.406.1-.406.293v.131C2.612,6.664,2.827,6.748,3.018,6.748Z" transform="translate(-0.4)" fill="#666" stroke="#707070" stroke-width="0.3"/>
  </g>
</svg>
