<svg xmlns="http://www.w3.org/2000/svg" width="22" height="22" viewBox="0 0 22 22"><g transform="translate(-145.933 -154.933)"><rect class="a" width="22" height="22" transform="translate(145.933 154.933)"/><g transform="translate(165.497 156.867) rotate(90)"><g transform="translate(1.735)"><path class="b" d="M14.11,0H2.613A2.616,2.616,0,0,0,0,2.613V3.92a.653.653,0,0,0,1.307,0V2.613A1.308,1.308,0,0,1,2.613,1.307h11.5a1.308,1.308,0,0,1,1.307,1.307v11.5a1.308,1.308,0,0,1-1.307,1.307H2.613A1.308,1.308,0,0,1,1.307,14.11V12.8A.653.653,0,0,0,0,12.8V14.11a2.616,2.616,0,0,0,2.613,2.613h11.5a2.616,2.616,0,0,0,2.613-2.613V2.613A2.616,2.616,0,0,0,14.11,0Z"/></g><g transform="translate(7.414 4.344)"><path class="b" d="M3.558,2.632,1.115.191a.653.653,0,0,0-.923.924l2.442,2.44a.654.654,0,0,1,0,.924l0,0L.188,6.955a.653.653,0,0,0,.93.918L3.559,5.4A1.962,1.962,0,0,0,3.558,2.632Z"/></g><g transform="translate(0 7.708)"><path class="b" d="M7.61,0H.653a.653.653,0,0,0,0,1.307H7.61A.653.653,0,0,0,7.61,0Z"/></g></g></g></svg>