<svg xmlns="http://www.w3.org/2000/svg" width="18" height="18" viewBox="0 0 18 18"><defs><style>.a{fill:#fff;opacity:0;}.b{fill:#00a6ff;}</style></defs><g transform="translate(-145.933 -154.933)"><rect class="a" width="18" height="18" transform="translate(145.933 154.933)"/><g transform="translate(161.94 156.515) rotate(90)"><g transform="translate(1.42)"><path class="b" d="M11.545,0H2.138A2.14,2.14,0,0,0,0,2.138V3.207a.534.534,0,0,0,1.069,0V2.138A1.07,1.07,0,0,1,2.138,1.069h9.407a1.07,1.07,0,0,1,1.069,1.069v9.407a1.07,1.07,0,0,1-1.069,1.069H2.138a1.07,1.07,0,0,1-1.069-1.069V10.476a.534.534,0,0,0-1.069,0v1.069a2.14,2.14,0,0,0,2.138,2.138h9.407a2.14,2.14,0,0,0,2.138-2.138V2.138A2.14,2.14,0,0,0,11.545,0Z"/></g><g transform="translate(6.066 3.554)"><g transform="translate(0 0)"><path class="b" d="M2.911,2.153l-2-2A.534.534,0,0,0,.157.913l2,2a.535.535,0,0,1,0,.756l0,0-2,2.023a.534.534,0,0,0,.761.751l2-2.022A1.605,1.605,0,0,0,2.911,2.153Z"/></g></g><g transform="translate(0 6.307)"><path class="b" d="M6.227,0H.534a.534.534,0,0,0,0,1.069H6.227A.534.534,0,0,0,6.227,0Z"/></g></g></g></svg>