<svg xmlns="http://www.w3.org/2000/svg" width="64" height="64" viewBox="0 0 64 64">
  <g id="Group_12758" data-name="Group 12758" transform="translate(-164 -356)">
    <rect id="Rectangle_2482" data-name="Rectangle 2482" width="64" height="64" transform="translate(164 356)" fill="#bcbec3" opacity="0"/>
    <g id="Group_7760" data-name="Group 7760" transform="translate(166.667 360)">
      <path id="文件" d="M71.987,67.429H34.895A11.006,11.006,0,0,1,23.9,56.44V24.032a11.006,11.006,0,0,1,10.993-10.99h13.7A3.556,3.556,0,0,1,51.918,15.3l.646,1.636L48.8,18.426l-.529-1.345H34.893a6.963,6.963,0,0,0-6.954,6.951V56.439a6.963,6.963,0,0,0,6.954,6.951H71.986a6.963,6.963,0,0,0,6.955-6.951V27.764H77.813V23.725h1.592a3.579,3.579,0,0,1,3.575,3.584V56.447A11.006,11.006,0,0,1,71.986,67.428Zm8.061-39.657H54.916A3.55,3.55,0,0,1,51.6,25.511l-3.891-9.847H68.89a10.956,10.956,0,0,1,10.933,9.884l.226,2.225ZM55.234,23.734H75.186a7.023,7.023,0,0,0-6.3-4.039H53.644Z" transform="translate(-23.902 -13.042)" fill="#bcbec3"/>
      <path id="箭头" d="M246,87.051V71.573l6.274,6.517a.427.427,0,0,0,.6,0l1.31-1.309a.428.428,0,0,0,0-.6l-7.9-8.2-.025-.028-.044-.044L245,66.635a.491.491,0,0,0-.652,0l-1.261,1.309-.023.026-7.9,8.206a.426.426,0,0,0,0,.6l1.309,1.309a.427.427,0,0,0,.6,0l6.215-6.456V87.051a.428.428,0,0,0,.427.427h1.852A.427.427,0,0,0,246,87.051Z" transform="translate(-214.709 -44.825)" fill="#bcbec3"/>
    </g>
  </g>
</svg>
