<svg xmlns="http://www.w3.org/2000/svg" width="98" height="30" viewBox="0 0 98 30">
  <g id="Tether-ERC20" transform="translate(1884 -896)">
    <rect id="Rectangle_1829" data-name="Rectangle 1829" width="98" height="30" transform="translate(-1884 896)" fill="#fff" opacity="0"/>
    <g id="Tether-ERC20-2" data-name="Tether-ERC20" transform="translate(-1884 898)">
      <circle id="Ellipse_66" data-name="Ellipse 66" cx="13.21" cy="13.21" r="13.21" transform="translate(0 0)" fill="#26a17b"/>
      <g id="Group_5470" data-name="Group 5470">
        <path id="Path_5203" data-name="Path 5203" d="M16.1,21.22H12.85c-3.23-.14-5.63-.7-5.63-1.38s2.4-1.23,5.63-1.37v2.19c.21,0,.81.05,1.65.05a9.023,9.023,0,0,0,1.6-.05V18.47c3.22.14,5.62.7,5.62,1.37s-2.4,1.24-5.62,1.38m0-3v-2h4.49v-3H8.36v3h4.49v2c-3.65.17-6.4.89-6.4,1.76s2.75,1.59,6.4,1.76v6.29H16.1V21.76c3.64-.17,6.38-.89,6.38-1.76s-2.74-1.59-6.38-1.76" transform="translate(-1.48 -6.79)" fill="#fff"/>
      </g>
      <path id="Path_5204" data-name="Path 5204" d="M39.12,8.49v3.17H42.2v2.39H39.1v4.83a1.39,1.39,0,0,0,1.17,1.57,1.34,1.34,0,0,0,.28,0,3.09,3.09,0,0,0,1.34-.34l.77,2.36a6.38,6.38,0,0,1-2.29.48c-2.42.09-4-1.29-4-4.08V14.05h-2.1V11.66h2.09V8.79Zm53.17,3,.2,1.29a3.31,3.31,0,0,1,3.16-1.59,4.22,4.22,0,0,1,2.87,1.06l-1.24,2.4a2.77,2.77,0,0,0-2-.72,2.56,2.56,0,0,0-2.79,2.34,2.671,2.671,0,0,0,0,.49v5.9H89.73V11.51ZM85.52,15.8c-.19-1.45-1.32-2.18-2.9-2.18a3,3,0,0,0-3.13,2.18Zm-6.08,2.29c.18,1.38,1.38,2.38,3.33,2.38a4.62,4.62,0,0,0,3-1l1.76,1.74A6.83,6.83,0,0,1,82.73,23c-3.86,0-6.15-2.38-6.15-6a5.6,5.6,0,0,1,5.32-5.86,4.26,4.26,0,0,1,.62,0c3.74,0,6.08,2.31,5.65,6.91ZM67.24,6.82V13a4.15,4.15,0,0,1,3.49-1.68c3.18,0,4.58,2.16,4.58,5.45v5.89H72.55V16.82c0-2-1.07-2.9-2.54-2.9a2.86,2.86,0,0,0-2.77,3v5.82H64.47V6.82ZM59.9,8.36v3.18H63v2.38H59.88v4.83a1.39,1.39,0,0,0,1.17,1.57.89.89,0,0,0,.28,0A3,3,0,0,0,62.67,20l.77,2.36a6,6,0,0,1-2.29.48c-2.42.09-4-1.3-4-4.08V13.92h-2.1V11.54h2.09V8.66ZM52.26,15.8c-.18-1.45-1.31-2.18-2.9-2.18a3,3,0,0,0-3.13,2.18Zm-6.07,2.29c.18,1.38,1.38,2.38,3.33,2.38a4.58,4.58,0,0,0,3-1l1.77,1.74A6.85,6.85,0,0,1,49.47,23c-3.85,0-6.14-2.38-6.14-6a5.59,5.59,0,0,1,5.32-5.85h.62c3.74,0,6.07,2.32,5.64,6.92Z" transform="translate(-1.48 -6.79)" fill="#5b5a5d"/>
      <g id="Group_9620" data-name="Group 9620">
        <path id="Path_5205" data-name="Path 5205" d="M40.43,33.07H35.05v-8h5.38V26.6H37v1.73h3.24v1.42H37v1.78h3.46Z" transform="translate(-1.48 -6.79)" fill="#208767"/>
        <path id="Path_5206" data-name="Path 5206" d="M48.1,27.69a2.4,2.4,0,0,1-1.43,2.25l1.6,3.13H46.12l-1.35-2.86h-1.1v2.86h-1.9v-8h3.38C47.13,25.07,48.1,26.18,48.1,27.69Zm-3.25,1.15A1.09,1.09,0,0,0,46.1,27.7a1.12,1.12,0,0,0-1.23-1.18h-1.2v2.32Z" transform="translate(-1.48 -6.79)" fill="#208767"/>
        <path id="Path_5207" data-name="Path 5207" d="M51,29.51c0,1.36.55,2.1,1.52,2.1a1.36,1.36,0,0,0,1.4-1.46h1.85v.23c0,1.7-1.37,2.83-3.27,2.83-2.22,0-3.47-1.43-3.47-3.71v-.85c0-2.29,1.25-3.72,3.47-3.72,1.91,0,3.27,1.15,3.27,2.87V28H53.89a1.38,1.38,0,0,0-1.4-1.5c-1,0-1.52.75-1.52,2.12Z" transform="translate(-1.48 -6.79)" fill="#208767"/>
        <path id="Path_5208" data-name="Path 5208" d="M56.63,27.57v-.11a2.67,2.67,0,0,1,2.94-2.53c1.69,0,2.82.93,2.82,2.26,0,.91-.43,1.53-1.43,2.56l-1.59,1.72v.06h3.16v1.54H56.76v-1.2l2.85-3a2.26,2.26,0,0,0,.87-1.52.94.94,0,0,0-1-1,1,1,0,0,0-1,1v.12Z" transform="translate(-1.48 -6.79)" fill="#208767"/>
        <path id="Path_5209" data-name="Path 5209" d="M63.36,28.81c0-2.31,1.16-3.88,3.18-3.88s3.14,1.55,3.14,3.88v.51c0,2.16-1.05,3.89-3.18,3.89s-3.14-1.59-3.14-3.89Zm1.94.5c0,1.59.49,2.36,1.22,2.36s1.23-.78,1.23-2.36v-.5c0-1.58-.5-2.34-1.23-2.34s-1.22.75-1.22,2.34Z" transform="translate(-1.48 -6.79)" fill="#208767"/>
      </g>
    </g>
  </g>
</svg>
