<svg xmlns="http://www.w3.org/2000/svg" width="54" height="54" viewBox="0 0 54 54">
  <path id="警告_1_" data-name="警告 (1)" d="M76.778,103.778a27.1,27.1,0,1,0-19.063-7.937A26.981,26.981,0,0,0,76.778,103.778Zm2.689-10.6a4.05,4.05,0,0,1-2.979,1.213,3.794,3.794,0,0,1-2.874-1.16,3.968,3.968,0,0,1-1.107-2.848,4.051,4.051,0,0,1,4.06-4.061,4.433,4.433,0,0,1,3.006,1.371,3.521,3.521,0,0,1,1.107,2.663A3.869,3.869,0,0,1,79.467,93.178ZM73.3,61.063a5.161,5.161,0,0,1,3.217-1,9.707,9.707,0,0,1,1.266.158,4.691,4.691,0,0,1,2.61.817,2.97,2.97,0,0,1,1.081,2.136,4.139,4.139,0,0,1,.105.9q0,.738-.158,2.215-.369,2.426-1.424,7.752l-2,9.018H75.354a40.55,40.55,0,0,1-1.318-5.748l-1.529-7.857a49.039,49.039,0,0,1-.527-5.7A3.118,3.118,0,0,1,73.3,61.063Z" transform="translate(-49.778 -49.778)" fill="#ffbe25"/>
</svg>
