<svg xmlns="http://www.w3.org/2000/svg" width="56" height="56" viewBox="0 0 56 56">
  <g id="Group_11158" data-name="Group 11158" transform="translate(2281 -5490)">
    <g id="Rectangle_4726" data-name="Rectangle 4726" transform="translate(-2281 5490)" fill="#fff" stroke="#707070" stroke-width="1" opacity="0">
      <rect width="56" height="56" stroke="none"/>
      <rect x="0.5" y="0.5" width="55" height="55" fill="none"/>
    </g>
    <path id="Subtraction_2" data-name="Subtraction 2" d="M21.143,30.362H1.38A1.382,1.382,0,0,1,0,28.982V1.38A1.382,1.382,0,0,1,1.38,0H37.262a1.382,1.382,0,0,1,1.38,1.38V22.138a11.542,11.542,0,0,0-3.105-1.308V3.105H3.105V27.256H22.063a11.534,11.534,0,0,0-.919,3.105Zm-1.391-8.238H17.859a.346.346,0,0,1-.341-.324,4.2,4.2,0,0,0-8.384,0,.346.346,0,0,1-.341.324H6.9a.341.341,0,0,1-.252-.109.328.328,0,0,1-.085-.253,6.825,6.825,0,0,1,3.217-5.438,4.8,4.8,0,1,1,7.1,0A6.82,6.82,0,0,1,20.1,21.762a.344.344,0,0,1-.345.362Zm-6.426-11.3a2.243,2.243,0,1,0,2.23,2.243A2.239,2.239,0,0,0,13.327,10.825Zm18.45,9.014H23.768a.328.328,0,0,1-.307-.345v-2.07a.328.328,0,0,1,.307-.345h8.009a.328.328,0,0,1,.306.345v2.07A.328.328,0,0,1,31.777,19.838Zm-2.894-6.21H23.561c-.056,0-.1-.152-.1-.345v-2.07c0-.193.044-.345.1-.345h5.322c.056,0,.1.152.1.345v2.07C28.982,13.477,28.938,13.628,28.883,13.628Z" transform="translate(-2275.469 5495.531)" fill="#00aeef"/>
    <path id="search" d="M21.466,19.5l-4.239-4.238a9.566,9.566,0,1,0-1.932,1.932l4.236,4.236A1.367,1.367,0,1,0,21.466,19.5Zm-11.9-3.135A6.832,6.832,0,1,1,16.4,9.533a6.832,6.832,0,0,1-6.833,6.832Z" transform="translate(-2251.834 5518.093)" fill="#00aeef"/>
  </g>
</svg>
