<svg xmlns="http://www.w3.org/2000/svg" width="56" height="34" viewBox="0 0 56 34">
  <g id="Group_21986" data-name="Group 21986" transform="translate(-460.542 -982.074)">
    <g id="Rectangle_17445" data-name="Rectangle 17445" transform="translate(460.542 982.074)" fill="#fff" stroke="#707070" stroke-width="1" opacity="0">
      <rect width="56" height="34" stroke="none"/>
      <rect x="0.5" y="0.5" width="55" height="33" fill="none"/>
    </g>
    <g id="Group_21985" data-name="Group 21985" transform="translate(463.653 983.208)">
      <g id="Group_11056" data-name="Group 11056" transform="translate(0 17.884)">
        <g id="Group_11050" data-name="Group 11050" transform="translate(16.321 0.763)">
          <path id="Path_5230" data-name="Path 5230" d="M277.558,397.151h2.553l-2.658,4.748h.559l-1.772,8.1h-2.458l1.488-6.814h-1.161Zm-.96,11.712,3.5-7.671h2.458l-3.471,7.671Zm8.123-2.988h1.53l-.432,1.992h-1.53l-.464,2.122h-2.458l.464-2.122h-1.656l.432-1.992h1.656l1.181-5.39h-4.389l.422-1.937h4.378l.306-1.406h2.458l-.306,1.406h4.421l-.422,1.937h-4.42Zm1.73,2.988-.211-7.671H288.7l.211,7.671Z" transform="translate(-273.781 -397.142)" fill="#00a6ff"/>
          <path id="Path_5231" data-name="Path 5231" d="M486.293,403.252h13.746l-1.646,7.513h-4.115l.306-1.387h1.656l.063-.289h-8.831l-.369,1.685h-2.458ZM490.5,401h6.4l-.095-.465h2.69l.771,2.224H486.135l2.11-2.523h-1.92l.38-1.731h6.109l-.116-.531h2.817l.222.531h5.908l-.38,1.731H491.1Zm-2.553,5.949-.116.531h8.831l.116-.531Zm.453-2.113-.116.531h8.831l.116-.531Z" transform="translate(-468.6 -397.918)" fill="#00a6ff"/>
        </g>
        <g id="Group_11055" data-name="Group 11055" transform="translate(0 0)">
          <g id="Group_11053" data-name="Group 11053">
            <g id="Group_11051" data-name="Group 11051" transform="translate(2.131)">
              <path id="Path_5232" data-name="Path 5232" d="M94,395.1h0l-.011.037h0l-.243,1.034a2.483,2.483,0,0,1-2.237.986l-.38,2.319s4.937-.317,5.444-2.747h0l.348-1.471h0l.454-1.918,3.323-.019.57-2.03H97.865l.612-2.588-2.954.037-.612,2.551H91.25l.654-2.942a58.009,58.009,0,0,0,9.558-.764l-.148-1.815c-1.983.745-11.479.987-11.479.987l-.032.149h0l-.01.065v.019h0l-.96,4.292h-.96l-.559,2.122,7.111-.046Zm.76-.009Z" transform="translate(-87.315 -385.774)" fill="#00a6ff"/>
            </g>
            <g id="Group_11052" data-name="Group 11052" transform="translate(0 8.016)">
              <path id="Path_5233" data-name="Path 5233" d="M61.3,510.26a1.36,1.36,0,0,0,.169-.037,2.134,2.134,0,0,0,1.266-.735c.011-.009.011-.009.011-.018a2.544,2.544,0,0,0,.232-.308h0L65.9,505.14H63.267l-1.593,2.234h0l-.6.857a.8.8,0,0,1-.506.3H59.68l-.369,1.732H61.3Z" transform="translate(-59.311 -505.14)" fill="#00a6ff"/>
            </g>
          </g>
          <g id="Group_11054" data-name="Group 11054" transform="translate(12.407 8.053)">
            <path id="Path_5234" data-name="Path 5234" d="M224.795,511.271h-2.448l.453-4.693-.274-.009.126-.875h2.69c0,.066,0,.158-.01.27h0c-.032.6-.106,1.648-.106,1.648l-.169,1.508Z" transform="translate(-222.347 -505.695)" fill="#00a6ff"/>
          </g>
        </g>
      </g>
      <g id="Group_11062" data-name="Group 11062" transform="translate(17.029 0)">
        <g id="Group_11057" data-name="Group 11057" transform="translate(12.071 11.28)">
          <path id="Path_5235" data-name="Path 5235" d="M879.626,509.227a3.408,3.408,0,0,0-2.326.845c.1-.006.2-.012.3-.012,1.741,0,3,.933,2.817,2.088-.013.064-.027.134-.047.2a2.118,2.118,0,0,0,1.509-1.448C882.026,509.973,881.016,509.227,879.626,509.227Z" transform="translate(-877.301 -509.227)" fill="#00a6ff"/>
        </g>
        <g id="Group_11058" data-name="Group 11058" transform="translate(0 11.841)">
          <path id="Path_5238" data-name="Path 5238" d="M1.774,0A2.045,2.045,0,0,1,3.748,1.734a1.516,1.516,0,0,1-1.772,1.5A2.045,2.045,0,0,1,0,1.5,1.516,1.516,0,0,1,1.774,0Z" transform="matrix(0.731, -0.682, 0.682, 0.731, 0, 2.557)" fill="#00a6ff"/>
        </g>
        <g id="Group_11059" data-name="Group 11059" transform="translate(2.585 0)">
          <path id="Path_5239" data-name="Path 5239" d="M1.369,0A1.579,1.579,0,0,1,2.893,1.339,1.17,1.17,0,0,1,1.525,2.495,1.579,1.579,0,0,1,0,1.159,1.17,1.17,0,0,1,1.369,0Z" transform="matrix(0.731, -0.682, 0.682, 0.731, 0, 1.974)" fill="#00a6ff"/>
        </g>
        <g id="Group_11060" data-name="Group 11060" transform="translate(3.317 6.397)">
          <path id="Path_5236" data-name="Path 5236" d="M752.458,427.589c1.987-2.74-2.047-5.033-6.926-1.256-1.834,1.42-3.364,3.056-2.027,3.772,1.216.651,4.48-1.255,4.48-1.255s-1.841.316-1.422,0a38.542,38.542,0,0,1,3.2-2.206s-.186,2.159-5.43,7.238C744.329,433.882,748.483,433.073,752.458,427.589Z" transform="translate(-742.998 -424.348)" fill="#00a6ff"/>
        </g>
        <g id="Group_11061" data-name="Group 11061" transform="translate(1.785 1.277)">
          <path id="Path_5237" data-name="Path 5237" d="M723.2,342.359s-2.073.059-.664-1.366c3.6-3.624,12.071-5.114,12.071-5.114s-4.373-1.848-10.9,1.279C717.5,340.125,718.878,342.958,723.2,342.359Z" transform="translate(-719.499 -335.336)" fill="#00a6ff"/>
        </g>
      </g>
    </g>
  </g>
</svg>
