<svg xmlns="http://www.w3.org/2000/svg" width="34" height="34" viewBox="0 0 34 34">
  <g id="Group_21993" data-name="Group 21993" transform="translate(-634 -83)">
    <rect id="Rectangle_2467" data-name="Rectangle 2467" width="34" height="34" transform="translate(634 83)" fill="#929292" opacity="0"/>
    <g id="Group_13102" data-name="Group 13102" transform="translate(638.25 91.5)">
      <g id="优惠_1_" data-name="优惠 (1)" transform="translate(-64 -188.8)" fill="#00a6ff" stroke-linejoin="round">
        <path d="M 87.50884246826172 207.8145904541016 L 65.80837249755859 207.8145904541016 C 64.39766693115234 207.8145904541016 63.2499885559082 206.6669006347656 63.2499885559082 205.2562103271484 L 63.2499885559082 201.6847076416016 C 63.2499885559082 200.9341125488281 63.79727935791016 200.2670135498047 64.55258941650391 200.0953674316406 C 65.54273223876953 199.8538208007812 66.23381042480469 198.9651184082031 66.23381042480469 197.9322967529297 C 66.23381042480469 196.8995361328125 65.54290008544922 196.0109100341797 64.55284881591797 195.769287109375 C 63.79740905761719 195.5977172851562 63.2499885559082 194.9305725097656 63.2499885559082 194.1799163818359 L 63.2499885559082 190.6083679199219 C 63.2499885559082 189.1977233886719 64.39766693115234 188.0500640869141 65.80837249755859 188.0500640869141 L 87.50884246826172 188.0500640869141 C 88.91954040527344 188.0500640869141 90.06722259521484 189.1977233886719 90.06722259521484 190.6083679199219 L 90.06722259521484 194.1799163818359 C 90.06722259521484 194.9292907714844 89.52169799804688 195.5954284667969 88.76826477050781 195.7684020996094 C 87.79153442382812 196.0163269042969 87.08341217041016 196.9250946044922 87.08341217041016 197.9322967529297 C 87.08341217041016 198.9630279541016 87.7716064453125 199.8502044677734 88.75853729248047 200.0938720703125 C 89.52997589111328 200.2563018798828 90.06722259521484 200.9079742431641 90.06722259521484 201.6847076416016 L 90.06722259521484 205.2562103271484 C 90.06722259521484 206.6669006347656 88.91954040527344 207.8145904541016 87.50884246826172 207.8145904541016 Z" stroke="none"/>
        <path d="M 65.80835723876953 188.8000640869141 C 64.81376647949219 188.8000640869141 63.99999237060547 189.6138000488281 63.99999237060547 190.6083679199219 L 63.99999237060547 194.1799163818359 C 63.99999237060547 194.5868530273438 64.31645965576172 194.9485015869141 64.72334289550781 195.0388946533203 C 66.03440856933594 195.3553619384766 66.98381042480469 196.5307922363281 66.98381042480469 197.9322967529297 C 66.98381042480469 199.3337860107422 66.03440856933594 200.5092315673828 64.72334289550781 200.8256988525391 C 64.31645965576172 200.9160919189453 63.99999237060547 201.2778167724609 63.99999237060547 201.6847076416016 L 63.99999237060547 205.2562103271484 C 63.99999237060547 206.2508392333984 64.81376647949219 207.0645904541016 65.80835723876953 207.0645904541016 L 87.50884246826172 207.0645904541016 C 88.50344848632812 207.0645904541016 89.31721496582031 206.2508392333984 89.31721496582031 205.2562103271484 L 89.31721496582031 201.6847076416016 C 89.31721496582031 201.2778167724609 89.04595947265625 200.9160919189453 88.59385681152344 200.8256988525391 C 87.28278350830078 200.5092315673828 86.33339691162109 199.3337860107422 86.33339691162109 197.9322967529297 C 86.33339691162109 196.5307922363281 87.32801055908203 195.3553619384766 88.59385681152344 195.0388946533203 C 89.00074768066406 194.9485015869141 89.31721496582031 194.5868530273438 89.31721496582031 194.1799163818359 L 89.31721496582031 190.6083679199219 C 89.31721496582031 189.6138000488281 88.50344848632812 188.8000640869141 87.50884246826172 188.8000640869141 L 65.80835723876953 188.8000640869141 M 65.80835723876953 187.3000640869141 L 87.50884246826172 187.3000640869141 C 89.33308410644531 187.3000640869141 90.81721496582031 188.7841644287109 90.81721496582031 190.6083679199219 L 90.81721496582031 194.1799163818359 C 90.81721496582031 195.2728271484375 90.03182983398438 196.2429962158203 88.94585418701172 196.4971160888672 C 88.31082153320312 196.6619567871094 87.83339691162109 197.2766876220703 87.83339691162109 197.9322967529297 C 87.83339691162109 198.6129302978516 88.28251647949219 199.1986083984375 88.92781829833984 199.3631134033203 C 90.04244232177734 199.6044158935547 90.81721496582031 200.5534210205078 90.81721496582031 201.6847076416016 L 90.81721496582031 205.2562103271484 C 90.81721496582031 207.0804595947266 89.33308410644531 208.5645904541016 87.50884246826172 208.5645904541016 L 65.80835723876953 208.5645904541016 C 63.98412322998047 208.5645904541016 62.49999237060547 207.0804595947266 62.49999237060547 205.2562103271484 L 62.49999237060547 201.6847076416016 C 62.49999237060547 200.5890655517578 63.28923797607422 199.6168060302734 64.37937164306641 199.3656158447266 C 65.03006744384766 199.2046508789062 65.48381042480469 198.616455078125 65.48381042480469 197.9322967529297 C 65.48381042480469 197.2480926513672 65.03006744384766 196.6598815917969 64.37931060791016 196.4989624023438 C 63.2891845703125 196.2477569580078 62.49999237060547 195.2755126953125 62.49999237060547 194.1799163818359 L 62.49999237060547 190.6083679199219 C 62.49999237060547 188.7841644287109 63.98412322998047 187.3000640869141 65.80835723876953 187.3000640869141 Z" stroke="none" fill="#00a6ff"/>
      </g>
      <path id="优惠_1_2" data-name="优惠 (1)" d="M77.637,195.621a.994.994,0,0,1,0,1.987H75.4v1.043h2.186a.993.993,0,1,1,0,1.987H75.4v1.739a.993.993,0,0,1-1.987,0v-1.739H71.229a.993.993,0,1,1,0-1.987h2.186v-1.043H71.279a.994.994,0,1,1,0-1.987H72.62l-2.086-2.384a.986.986,0,1,1,1.49-1.292l2.484,2.782,2.484-2.782a.986.986,0,0,1,1.49,1.292,13.983,13.983,0,0,0-2.136,2.384C76.135,196.217,77.637,195.621,77.637,195.621Z" transform="translate(-61.849 -188.177)" fill="#fff"/>
    </g>
  </g>
</svg>
