<svg id="Group_13101" data-name="Group 13101" xmlns="http://www.w3.org/2000/svg" width="26" height="26" viewBox="0 0 26 26">
  <rect id="Rectangle_2467" data-name="Rectangle 2467" width="26" height="26" fill="#929292" opacity="0"/>
  <g id="Group_13102" data-name="Group 13102" transform="translate(3.25 6.5)">
    <g id="优惠_1_" data-name="优惠 (1)" transform="translate(-64 -188.8)" fill="none" stroke-linejoin="round">
      <path d="M82.807,193.571a.7.7,0,0,0,.553-.657v-2.731a1.387,1.387,0,0,0-1.383-1.383H65.383A1.387,1.387,0,0,0,64,190.183v2.731a.7.7,0,0,0,.553.657,2.28,2.28,0,0,1,0,4.425.7.7,0,0,0-.553.657v2.731a1.387,1.387,0,0,0,1.383,1.383H81.977a1.387,1.387,0,0,0,1.383-1.383v-2.731a.663.663,0,0,0-.553-.657,2.264,2.264,0,0,1-1.729-2.213A2.3,2.3,0,0,1,82.807,193.571Z" stroke="none"/>
      <path d="M 65.38286590576172 188.8000640869141 C 64.62229156494141 188.8000640869141 63.99999237060547 189.4223327636719 63.99999237060547 190.1829071044922 L 63.99999237060547 192.9140777587891 C 63.99999237060547 193.2252807617188 64.24199676513672 193.5018310546875 64.55314636230469 193.5709381103516 C 65.55573272705078 193.8129425048828 66.28173828125 194.7118072509766 66.28173828125 195.7835540771484 C 66.28173828125 196.8552856445312 65.55573272705078 197.7541656494141 64.55314636230469 197.9961547851562 C 64.24199676513672 198.0652770996094 63.99999237060547 198.3418884277344 63.99999237060547 198.6530303955078 L 63.99999237060547 201.3842010498047 C 63.99999237060547 202.144775390625 64.62229156494141 202.7670593261719 65.38286590576172 202.7670593261719 L 81.97735595703125 202.7670593261719 C 82.73793792724609 202.7670593261719 83.36022186279297 202.144775390625 83.36022186279297 201.3842010498047 L 83.36022186279297 198.6530303955078 C 83.36022186279297 198.3418884277344 83.15280151367188 198.0652770996094 82.80707550048828 197.9961547851562 C 81.80449676513672 197.7541656494141 81.0784912109375 196.8552856445312 81.0784912109375 195.7835540771484 C 81.0784912109375 194.7118072509766 81.83907318115234 193.8129425048828 82.80707550048828 193.5709381103516 C 83.11822509765625 193.5018310546875 83.36022186279297 193.2252807617188 83.36022186279297 192.9140777587891 L 83.36022186279297 190.1829071044922 C 83.36022186279297 189.4223327636719 82.73793792724609 188.8000640869141 81.97735595703125 188.8000640869141 L 65.38286590576172 188.8000640869141 M 65.38286590576172 187.3000640869141 L 81.97735595703125 187.3000640869141 C 83.56697082519531 187.3000640869141 84.8602294921875 188.5932922363281 84.8602294921875 190.1829071044922 L 84.8602294921875 192.9140777587891 C 84.8602294921875 193.9108428955078 84.14775085449219 194.7952423095703 83.16184997558594 195.0284729003906 C 82.87734222412109 195.1040191650391 82.5784912109375 195.3919219970703 82.5784912109375 195.7835540771484 C 82.5784912109375 196.1400909423828 82.81040191650391 196.4466094970703 83.14435577392578 196.5343322753906 C 84.15691375732422 196.7568206787109 84.8602294921875 197.6219177246094 84.8602294921875 198.6530303955078 L 84.8602294921875 201.3842010498047 C 84.8602294921875 202.9738159179688 83.56697082519531 204.2670593261719 81.97735595703125 204.2670593261719 L 65.38286590576172 204.2670593261719 C 63.79324340820312 204.2670593261719 62.49999237060547 202.9738159179688 62.49999237060547 201.3842010498047 L 62.49999237060547 198.6530303955078 C 62.49999237060547 197.6531677246094 63.21676635742188 196.7663726806641 64.20745849609375 196.5364990234375 C 64.54592132568359 196.4517364501953 64.78173828125 196.14306640625 64.78173828125 195.7835540771484 C 64.78173828125 195.4241485595703 64.54606628417969 195.1155548095703 64.207763671875 195.0306701660156 C 63.21694946289062 194.8008880615234 62.49999237060547 193.9140319824219 62.49999237060547 192.9140777587891 L 62.49999237060547 190.1829071044922 C 62.49999237060547 188.5932922363281 63.79324340820312 187.3000640869141 65.38286590576172 187.3000640869141 Z" stroke="none" fill="#b1b1b3"/>
    </g>
    <path id="优惠_1_2" data-name="优惠 (1)" d="M75.9,194.674a.76.76,0,1,1,0,1.519H74.186v.8h1.671a.76.76,0,1,1,0,1.519H74.186v1.33a.76.76,0,1,1-1.519,0v-1.33H71a.76.76,0,1,1,0-1.519h1.671v-.8H71.033a.76.76,0,1,1,0-1.519h1.026l-1.6-1.823a.754.754,0,1,1,1.14-.988l1.9,2.127,1.9-2.127a.754.754,0,0,1,1.14.988,10.694,10.694,0,0,0-1.633,1.823C74.747,195.129,75.9,194.674,75.9,194.674Z" transform="translate(-63.823 -188.981)" fill="#b1b1b2"/>
  </g>
</svg>
