<svg id="Group_22001" data-name="Group 22001" xmlns="http://www.w3.org/2000/svg" width="34" height="34" viewBox="0 0 34 34">
  <rect id="Rectangle_4461" data-name="Rectangle 4461" width="34" height="34" fill="#fff" opacity="0"/>
  <path id="Subtraction_14" data-name="Subtraction 14" d="M19.532,27.971H.825A.823.823,0,0,1,0,27.152V3.887a.811.811,0,0,1,.242-.579L3.331.24A.823.823,0,0,1,3.915,0H19.532a.823.823,0,0,1,.825.82V27.152A.823.823,0,0,1,19.532,27.971ZM4.127,22.4a.82.82,0,1,0,0,1.639h12.1a.82.82,0,1,0,0-1.639Zm0-3.278a.82.82,0,1,0,0,1.639h12.1a.82.82,0,1,0,0-1.639Zm7.7-3.278a.82.82,0,1,0,0,1.639h4.4a.82.82,0,1,0,0-1.639Zm-8.079-4.5a.749.749,0,0,0-.528.228A.911.911,0,0,0,3,12.087a1.234,1.234,0,0,0,.224.576.676.676,0,0,0,.528.286H6.213v1.317a1.071,1.071,0,0,0,.338.81,1.306,1.306,0,0,0,.873.267,1.035,1.035,0,0,0,1.186-1.077V12.923l2.449.013a.735.735,0,0,0,.523-.247.923.923,0,0,0,.217-.551.935.935,0,0,0-.217-.543.721.721,0,0,0-.523-.253H8.611v-.773l2.437-.013a.751.751,0,0,0,.529-.253.935.935,0,0,0,.223-.557.824.824,0,0,0-.217-.519A.761.761,0,0,0,11.06,9H9.185l1.977-3.191a1.119,1.119,0,0,0,.255-.7,1.411,1.411,0,0,0-.121-.431.712.712,0,0,0-.2-.254.78.78,0,0,0-.281-.125,2.012,2.012,0,0,0-.35-.051,1.249,1.249,0,0,0-.548.2,1.566,1.566,0,0,0-.4.38L7.386,8.376,5.448,4.855a1.883,1.883,0,0,0-.4-.4A1.042,1.042,0,0,0,4.5,4.247a1.106,1.106,0,0,0-.714.285,1.183,1.183,0,0,0-.255.577,1.017,1.017,0,0,0,.1.513,1.935,1.935,0,0,0,.242.386L5.588,9H3.751a.757.757,0,0,0-.528.229A.909.909,0,0,0,3,9.744a1,1,0,0,0,.224.545.732.732,0,0,0,.528.24l2.463.013v.8Z" transform="translate(6.556 2.622)" fill="#00a6ff"/>
</svg>
