<svg id="Group_13088" data-name="Group 13088" xmlns="http://www.w3.org/2000/svg" width="26" height="26" viewBox="0 0 26 26">
  <rect id="Rectangle_4461" data-name="Rectangle 4461" width="26" height="26" fill="#fff" opacity="0"/>
  <g id="Group_13090" data-name="Group 13090" transform="translate(4.727 1.182)">
    <g id="Subtraction_16" data-name="Subtraction 16" transform="translate(0 0)" fill="none">
      <path d="M15.545,22.419H.657A.657.657,0,0,1,0,21.762V3.115a.662.662,0,0,1,.192-.465L2.651.192A.661.661,0,0,1,3.115,0H15.545A.657.657,0,0,1,16.2.657V21.762A.657.657,0,0,1,15.545,22.419Z" stroke="none"/>
      <path d="M 14.90128326416016 21.11898231506348 L 14.90128326416016 1.300001740455627 L 3.381196260452271 1.300001740455627 L 1.300003170967102 3.381228685379028 L 1.300003170967102 21.11898231506348 L 14.90128326416016 21.11898231506348 M 15.54471302032471 22.41898155212402 L 0.6565731763839722 22.41898155212402 C 0.2945431470870972 22.41898155212402 3.157958872179734e-06 22.12443161010742 3.157958872179734e-06 21.76219177246094 L 3.157958872179734e-06 3.11523175239563 C 3.157958872179734e-06 2.942381620407104 0.07001315802335739 2.772881746292114 0.1920831650495529 2.650671720504761 L 2.650743246078491 0.1919717341661453 C 2.772623062133789 0.07002172619104385 2.94191312789917 1.729736368361046e-06 3.115233182907104 1.729736368361046e-06 L 15.54471302032471 1.729736368361046e-06 C 15.90675354003906 1.729736368361046e-06 16.2012825012207 0.2945517301559448 16.2012825012207 0.6565317511558533 L 16.2012825012207 21.76219177246094 C 16.2012825012207 22.12443161010742 15.90675354003906 22.41898155212402 15.54471302032471 22.41898155212402 Z" stroke="none" fill="#b1b1b3"/>
    </g>
    <path id="Subtraction_14" data-name="Subtraction 14" d="M10.29,6.568H.657a.657.657,0,0,1,0-1.314H10.29a.657.657,0,0,1,0,1.314Zm0-2.627H.657a.657.657,0,0,1,0-1.313H10.29a.657.657,0,0,1,0,1.313Zm0-2.628h-3.5A.657.657,0,1,1,6.787,0h3.5a.657.657,0,1,1,0,1.313Z" transform="translate(2.748 12.698)" fill="#b1b1b3"/>
    <path id="人民币_3_" data-name="人民币 (3)" d="M170.78,83.467h-1.959a.537.537,0,0,1-.421-.228.992.992,0,0,1-.178-.462.732.732,0,0,1,.178-.416.6.6,0,0,1,.421-.183h1.959v-.64l-1.959-.01a.584.584,0,0,1-.421-.193.8.8,0,0,1-.178-.437.732.732,0,0,1,.178-.416.6.6,0,0,1,.421-.183h1.462l-1.36-2.4a1.524,1.524,0,0,1-.193-.31.837.837,0,0,1-.081-.411.951.951,0,0,1,.2-.462.874.874,0,0,1,.568-.228.817.817,0,0,1,.436.167,1.477,1.477,0,0,1,.315.32l1.543,2.822,1.7-2.842a1.23,1.23,0,0,1,.315-.3.975.975,0,0,1,.436-.162,1.677,1.677,0,0,1,.279.041.613.613,0,0,1,.223.1.553.553,0,0,1,.162.2,1.141,1.141,0,0,1,.1.345.9.9,0,0,1-.2.558L173.145,80.3h1.492a.611.611,0,0,1,.416.183.666.666,0,0,1,.173.416.753.753,0,0,1-.178.447.591.591,0,0,1-.421.2l-1.939.01v.619h1.949a.574.574,0,0,1,.416.2.758.758,0,0,1,.173.436.747.747,0,0,1-.173.442.582.582,0,0,1-.416.2l-1.949-.01v1.076a.823.823,0,0,1-.944.863,1.035,1.035,0,0,1-.7-.213.865.865,0,0,1-.269-.65V83.467Zm0,0" transform="translate(-165.715 -73.089)" fill="#b1b1b3"/>
  </g>
</svg>
