<svg xmlns="http://www.w3.org/2000/svg" width="34" height="34" viewBox="0 0 34 34">
  <g id="Group_21989" data-name="Group 21989" transform="translate(-870 -737)">
    <g id="Rectangle_5313" data-name="Rectangle 5313" transform="translate(870 737)" fill="#00a6ff" stroke="#707070" stroke-width="1" opacity="0">
      <rect width="34" height="34" stroke="none"/>
      <rect x="0.5" y="0.5" width="33" height="33" fill="none"/>
    </g>
    <path id="Subtraction_31" data-name="Subtraction 31" d="M-3621.856,53.163a.8.8,0,0,1-.106-.007.769.769,0,0,1-.444-.219.8.8,0,0,1-.124-.165l-1.871-3.281-.016.016a.759.759,0,0,1-.521.2.768.768,0,0,1-.548-.228c0-.006-.165-.173-1.22-1.229l3.179-3.18a.78.78,0,0,0,.231-.556.78.78,0,0,0-.231-.556.781.781,0,0,0-.556-.231.78.78,0,0,0-.556.231l-3.181,3.18c-.314-.314-1.265-1.261-1.277-1.268a.773.773,0,0,1-.024-1.071l-3.214-1.833a.7.7,0,0,1-.164-.125.77.77,0,0,1-.219-.443.766.766,0,0,1,.219-.653l1.963-1.964a.77.77,0,0,1,.549-.226.8.8,0,0,1,.152.015l4.662.934c.692-.749,1.434-1.554,2.192-2.377l.109-.118.419-.454L-3630.434,32a.968.968,0,0,1-.1-.087.786.786,0,0,1-.224-.479.776.776,0,0,1,.224-.618l2.242-2.242a.77.77,0,0,1,.546-.227.766.766,0,0,1,.221.033l10.668,3.149c1.022-1.093,1.8-1.909,2.185-2.295a7.1,7.1,0,0,1,3.647-1.977,5.317,5.317,0,0,1,.976-.094,3.338,3.338,0,0,1,2.4.876,3.711,3.711,0,0,1,.782,3.372,7.1,7.1,0,0,1-1.978,3.648c-.353.352-1.052,1.017-2.267,2.157l3.172,10.745a.777.777,0,0,1-.194.767l-2.243,2.243a.785.785,0,0,1-.552.227l-.065,0a.764.764,0,0,1-.476-.222.9.9,0,0,1-.09-.1l-5.6-8.039-1.292,1.191c-.563.52-1.112,1.026-1.635,1.507l.954,4.745a.777.777,0,0,1-.211.7l-1.963,1.964A.77.77,0,0,1-3621.856,53.163Zm10.656-22.382a.742.742,0,0,1,.539.193.9.9,0,0,1,.149.872.778.778,0,0,0,.2.738.761.761,0,0,0,.362.2.783.783,0,0,0,.187.023.772.772,0,0,0,.752-.588,2.4,2.4,0,0,0-.558-2.341,2.25,2.25,0,0,0-1.632-.648,2.978,2.978,0,0,0-.71.089.778.778,0,0,0-.565.94.772.772,0,0,0,.752.588.785.785,0,0,0,.187-.023A1.371,1.371,0,0,1-3611.2,30.781Z" transform="translate(4506.751 713.837)" fill="#1da6ff"/>
  </g>
</svg>
