<svg xmlns="http://www.w3.org/2000/svg" width="26" height="26" viewBox="0 0 26 26">
  <g id="Group_13097" data-name="Group 13097" transform="translate(0.25 0)">
    <g id="Rectangle_5312" data-name="Rectangle 5312" transform="translate(-0.25 0)" fill="#fff" stroke="#707070" stroke-width="1" opacity="0">
      <rect width="26" height="26" stroke="none"/>
      <rect x="0.5" y="0.5" width="25" height="25" fill="none"/>
    </g>
    <path id="Union_149" data-name="Union 149" d="M-221.721-701.1a.588.588,0,0,1-.341-.168.629.629,0,0,1-.1-.127l-1.439-2.523-.012.011a.593.593,0,0,1-.822-.017l-.948-.948-.37.37a.6.6,0,0,1-.843,0,.6.6,0,0,1,0-.843l.37-.37-.985-.985a.6.6,0,0,1-.019-.824l-2.471-1.41a.549.549,0,0,1-.127-.1.6.6,0,0,1-.168-.341.594.594,0,0,1,.168-.5l1.51-1.51a.6.6,0,0,1,.538-.163l3.586.718c.655-.708,1.368-1.483,2.092-2.269l-6.139-4.275a.717.717,0,0,1-.078-.067.605.605,0,0,1-.173-.368.6.6,0,0,1,.173-.475l1.725-1.726a.593.593,0,0,1,.59-.149l8.205,2.422c.771-.824,1.372-1.456,1.681-1.765a5.469,5.469,0,0,1,2.805-1.521,2.863,2.863,0,0,1,2.595.6,2.857,2.857,0,0,1,.6,2.595,5.464,5.464,0,0,1-1.521,2.806c-.3.3-.932.9-1.744,1.659l2.439,8.265a.6.6,0,0,1-.149.59l-1.725,1.725a.6.6,0,0,1-.476.173.593.593,0,0,1-.366-.171.72.72,0,0,1-.069-.08l-4.306-6.185c-.78.719-1.546,1.428-2.252,2.076l.734,3.651a.6.6,0,0,1-.163.538l-1.51,1.51a.592.592,0,0,1-.421.174A.613.613,0,0,1-221.721-701.1Zm-.973-3.644,1.185,2.081.731-.732-.527-2.627Zm5.552-5.115,3.992,5.731.971-.971-2.169-7.351C-215.2-711.656-216.165-710.763-217.142-709.857Zm-5.8,1.709a.6.6,0,0,1,0,.843l-1.59,1.59.545.546c1.961-1.8,10.152-9.323,11.517-10.69a4.317,4.317,0,0,0,1.194-2.183,1.745,1.745,0,0,0-.274-1.531,1.748,1.748,0,0,0-1.531-.274,4.327,4.327,0,0,0-2.183,1.194c-1.37,1.363-8.894,9.554-10.693,11.514l.58.58,1.59-1.59a.6.6,0,0,1,.422-.175A.6.6,0,0,1-222.945-708.149Zm-5.485-1.433,2.029,1.159c.343-.373.774-.843,1.266-1.376l-2.562-.515Zm1.461-8.36,5.687,3.963c.9-.975,1.79-1.935,2.58-2.782l-7.3-2.152Zm14.521,1.2a.592.592,0,0,1-.278-.155.6.6,0,0,1-.156-.568.7.7,0,0,0-.115-.671.7.7,0,0,0-.671-.115.6.6,0,0,1-.722-.435.6.6,0,0,1,.435-.722,1.851,1.851,0,0,1,1.8.429,1.846,1.846,0,0,1,.43,1.8.6.6,0,0,1-.579.452A.6.6,0,0,1-212.447-716.737Z" transform="translate(232.768 724.093)" fill="#b1b1b3"/>
  </g>
</svg>
