<svg width="113" height="26" viewBox="0 0 113 26" fill="none" xmlns="http://www.w3.org/2000/svg">
<path d="M9.91899 5.456L22.503 5.40101L23.065 0.237984L8.52799 0.311012L6.71399 0.319984C1.45699 0.728984 0.994987 6.473 0.994987 6.473L0.166992 24.468L7.25899 24.505L7.67999 15.943L21.454 15.873L21.771 10.754L7.88999 10.839C7.88999 10.839 7.90699 9.33899 8.07899 7.64799C8.10855 7.13313 8.30364 6.64161 8.6352 6.24662C8.96676 5.85163 9.41705 5.57433 9.91899 5.456Z" fill="white"/>
<path d="M46.396 0.236984L45.065 13.66C44.308 21.3 43.065 24.691 33.529 24.691C25.45 24.691 22.971 21.157 23.707 13.731L25.045 0.236008H32.058L30.688 14.052C30.264 18.336 30.661 19.223 33.766 19.223C36.755 19.223 37.876 18.23 38.291 14.052L39.66 0.236008L46.396 0.236984Z" fill="white"/>
<path d="M63.07 0.250988L62.358 7.36201C62.0219 9.72383 61.8528 12.1064 61.852 14.492C61.122 12.686 60.265 11.127 59.379 9.21299L55.197 0.250988H48.739L46.289 24.705H52.204L53.218 17.34C53.484 14.688 53.818 12.279 54.05 10.001C54.829 11.824 55.717 13.638 56.45 15.272L60.499 23.272C60.7457 23.8213 61.1552 24.2817 61.6721 24.5907C62.189 24.8998 62.7883 25.0426 63.389 25C64.2738 25.0121 65.1297 24.6847 65.7806 24.0853C66.4316 23.4858 66.8282 22.6598 66.889 21.777L68.981 0.250988H63.07Z" fill="white"/>
<path d="M71.482 12.625C70.9893 12.8979 70.57 13.286 70.2598 13.7562C69.9497 14.2264 69.7579 14.7646 69.701 15.325L69.112 21.879C69.065 22.2738 69.1028 22.674 69.2229 23.053C69.343 23.432 69.5427 23.781 69.8085 24.0766C70.0743 24.3723 70.4002 24.6078 70.7643 24.7673C71.1284 24.9269 71.5224 25.0069 71.92 25.002H85.72C86.566 24.982 87.3755 24.6536 87.9961 24.0784C88.6168 23.5032 89.0058 22.721 89.09 21.879L89.68 15.325C89.7383 14.7983 89.6474 14.2659 89.4175 13.7884C89.1876 13.311 88.8281 12.9078 88.38 12.625C88.8727 12.3521 89.292 11.964 89.6022 11.4938C89.9123 11.0236 90.104 10.4854 90.161 9.925L90.751 3.37101C90.798 2.97623 90.7602 2.57596 90.64 2.19697C90.5199 1.81798 90.3203 1.46899 90.0545 1.17335C89.7887 0.877715 89.4628 0.642229 89.0987 0.482648C88.7345 0.323067 88.3405 0.243074 87.943 0.247998H74.143C73.297 0.267951 72.4875 0.596435 71.8669 1.17161C71.2462 1.74679 70.8571 2.52901 70.773 3.37101L70.183 9.925C70.1245 10.4516 70.2153 10.984 70.445 11.4614C70.6747 11.9388 71.0341 12.3421 71.482 12.625ZM75.262 15.864C75.3128 15.5135 75.4898 15.1935 75.7596 14.9641C76.0295 14.7347 76.3739 14.6117 76.728 14.618H82.777C82.9439 14.6069 83.1112 14.6317 83.2677 14.6906C83.4243 14.7495 83.5664 14.8413 83.6845 14.9597C83.8026 15.0781 83.894 15.2204 83.9526 15.3771C84.0111 15.5338 84.0355 15.7011 84.024 15.868L83.789 18.484C83.7382 18.8347 83.5611 19.1548 83.291 19.3842C83.0209 19.6136 82.6763 19.7366 82.322 19.73H76.273C76.1059 19.7414 75.9384 19.7169 75.7816 19.6581C75.6248 19.5993 75.4825 19.5076 75.3641 19.3891C75.2458 19.2707 75.1542 19.1282 75.0955 18.9714C75.0368 18.8146 75.0125 18.647 75.024 18.48L75.262 15.864ZM76.094 6.619C76.1446 6.26828 76.3214 5.94808 76.5913 5.71849C76.8613 5.48889 77.2057 5.36568 77.56 5.37199H83.609C83.7752 5.36168 83.9417 5.38694 84.0974 5.44603C84.2531 5.50512 84.3944 5.59671 84.5119 5.7147C84.6295 5.8327 84.7205 5.97436 84.7789 6.13029C84.8374 6.28622 84.862 6.45283 84.851 6.619L84.616 9.235C84.5654 9.58589 84.3884 9.90623 84.1183 10.1358C83.8481 10.3655 83.5035 10.4886 83.149 10.482H77.1C76.9338 10.4923 76.7673 10.4671 76.6116 10.408C76.4559 10.3489 76.3146 10.2573 76.1971 10.1393C76.0795 10.0213 75.9885 9.87964 75.93 9.72371C75.8716 9.56777 75.847 9.40117 75.858 9.235L76.094 6.619Z" fill="white"/>
<path d="M93.552 12.625C93.0593 12.898 92.6401 13.2862 92.33 13.7563C92.0198 14.2265 91.8281 14.7647 91.771 15.325L91.182 21.879C91.135 22.2738 91.1728 22.674 91.2929 23.053C91.413 23.432 91.6127 23.781 91.8785 24.0767C92.1443 24.3723 92.4702 24.6078 92.8343 24.7674C93.1985 24.9269 93.5925 25.0069 93.99 25.002H107.79C108.636 24.9821 109.445 24.6536 110.066 24.0784C110.687 23.5032 111.076 22.721 111.16 21.879L111.749 15.325C111.807 14.7983 111.716 14.2659 111.487 13.7884C111.257 13.311 110.897 12.9079 110.449 12.625C110.942 12.3521 111.361 11.964 111.671 11.4938C111.981 11.0236 112.173 10.4854 112.23 9.92501L112.82 3.37103C112.867 2.97616 112.829 2.5758 112.709 2.19674C112.589 1.81768 112.389 1.46865 112.123 1.173C111.857 0.877345 111.531 0.641873 111.167 0.482355C110.803 0.322837 110.409 0.242943 110.011 0.24801H96.211C95.3651 0.267964 94.5555 0.596448 93.9349 1.17162C93.3142 1.7468 92.9252 2.52902 92.841 3.37103L92.251 9.92501C92.1928 10.4518 92.2839 10.9843 92.5139 11.4618C92.744 11.9392 93.1037 12.3423 93.552 12.625ZM97.333 15.864C97.3838 15.5135 97.5608 15.1935 97.8307 14.9641C98.1006 14.7347 98.4449 14.6117 98.799 14.618H104.852C105.018 14.6077 105.185 14.6329 105.34 14.6919C105.496 14.751 105.637 14.8425 105.755 14.9604C105.872 15.0783 105.963 15.2198 106.022 15.3756C106.08 15.5314 106.105 15.6979 106.094 15.864L105.859 18.48C105.808 18.8306 105.631 19.1506 105.361 19.38C105.091 19.6094 104.746 19.7324 104.392 19.726H98.343C98.1769 19.7363 98.0105 19.7111 97.8549 19.6521C97.6992 19.593 97.558 19.5015 97.4405 19.3837C97.323 19.2658 97.2319 19.1242 97.1734 18.9684C97.1149 18.8126 97.0902 18.6461 97.101 18.48L97.333 15.864ZM98.164 6.61901C98.2146 6.26829 98.3915 5.94809 98.6614 5.7185C98.9313 5.48891 99.2757 5.36569 99.63 5.372H105.679C105.845 5.36169 106.012 5.38695 106.167 5.44604C106.323 5.50513 106.464 5.59672 106.582 5.71472C106.699 5.83271 106.79 5.97437 106.849 6.1303C106.907 6.28624 106.932 6.45284 106.921 6.61901L106.686 9.23501C106.635 9.58573 106.459 9.90593 106.189 10.1355C105.919 10.3651 105.574 10.4883 105.22 10.482H99.17C99.0039 10.4922 98.8375 10.4668 98.6819 10.4077C98.5263 10.3485 98.3851 10.2569 98.2677 10.1389C98.1503 10.021 98.0594 9.87933 98.001 9.72347C97.9426 9.56762 97.9181 9.40109 97.929 9.23501L98.164 6.61901Z" fill="white"/>
</svg>
