<?xml version="1.0" encoding="UTF-8"?><svg id="_" xmlns="http://www.w3.org/2000/svg" xmlns:xlink="http://www.w3.org/1999/xlink" viewBox="0 0 4055.66 2040.67"><defs><style>.cls-1{opacity:.68;}.cls-2{fill:url(#_åçûìÿííûé_ãðàäèåíò_84);}.cls-2,.cls-3,.cls-4,.cls-5,.cls-6,.cls-7,.cls-8,.cls-9,.cls-10,.cls-11,.cls-12,.cls-13,.cls-14,.cls-15,.cls-16,.cls-17,.cls-18,.cls-19,.cls-20,.cls-21,.cls-22,.cls-23,.cls-24,.cls-25,.cls-26,.cls-27{mix-blend-mode:multiply;}.cls-28{fill:url(#_åçûìÿííûé_ãðàäèåíò_37-7);}.cls-28,.cls-29,.cls-30,.cls-31,.cls-32,.cls-33,.cls-34,.cls-35,.cls-36,.cls-37,.cls-38{opacity:.44;}.cls-39{fill:url(#_åçûìÿííûé_ãðàäèåíò_48);}.cls-40{fill:url(#_åçûìÿííûé_ãðàäèåíò_41);}.cls-41{fill:url(#_åçûìÿííûé_ãðàäèåíò_38-6);}.cls-3{fill:url(#_åçûìÿííûé_ãðàäèåíò_78);}.cls-42{fill:url(#_åçûìÿííûé_ãðàäèåíò_38-4);}.cls-29{fill:url(#_åçûìÿííûé_ãðàäèåíò_37-3);}.cls-30{fill:url(#_åçûìÿííûé_ãðàäèåíò_37-4);}.cls-43{mask:url(#mask-23);}.cls-4{fill:url(#_åçûìÿííûé_ãðàäèåíò_76);}.cls-44{mask:url(#mask-27);}.cls-5{fill:url(#_åçûìÿííûé_ãðàäèåíò_14);}.cls-45{mask:url(#mask-10);}.cls-46{mask:url(#mask-26);}.cls-47{fill:url(#_åçûìÿííûé_ãðàäèåíò_38-9);}.cls-48,.cls-33,.cls-49{fill:#0047d6;}.cls-48,.cls-50{opacity:.25;}.cls-51{fill:url(#_åçûìÿííûé_ãðàäèåíò_48-2);}.cls-52{mask:url(#mask-46);}.cls-6{fill:url(#_åçûìÿííûé_ãðàäèåíò_16);}.cls-53{filter:url(#luminosity-noclip-20);}.cls-7{fill:url(#_åçûìÿííûé_ãðàäèåíò_3-3);}.cls-8{fill:url(#_åçûìÿííûé_ãðàäèåíò_3-2);}.cls-54{mask:url(#mask-17);}.cls-9{fill:url(#_åçûìÿííûé_ãðàäèåíò_77);}.cls-55{fill:url(#_åçûìÿííûé_ãðàäèåíò_40);}.cls-56{mask:url(#mask-43);}.cls-57{mask:url(#mask-41);}.cls-10{fill:url(#_åçûìÿííûé_ãðàäèåíò_7);}.cls-58{mask:url(#mask-49);}.cls-59{fill:#002f6f;}.cls-60{mask:url(#mask-47);}.cls-61{filter:url(#luminosity-noclip-24);}.cls-31{fill:url(#_åçûìÿííûé_ãðàäèåíò_42);}.cls-62{fill:url(#_åçûìÿííûé_ãðàäèåíò_48-5);}.cls-63{mask:url(#mask-2);}.cls-64{fill:url(#_åçûìÿííûé_ãðàäèåíò_43-2);}.cls-64,.cls-65,.cls-66,.cls-67,.cls-68,.cls-69,.cls-70,.cls-71,.cls-72,.cls-73{opacity:.46;}.cls-65{fill:url(#_åçûìÿííûé_ãðàäèåíò_45);}.cls-74{mask:url(#mask-45);}.cls-75{mask:url(#mask-34);}.cls-76{mask:url(#mask-33);}.cls-32{fill:url(#_åçûìÿííûé_ãðàäèåíò_37-9);}.cls-77{filter:url(#luminosity-noclip-46);}.cls-11{fill:url(#_åçûìÿííûé_ãðàäèåíò_82);}.cls-78{filter:url(#luminosity-noclip-22);}.cls-79{mask:url(#mask-13);}.cls-12{fill:url(#_åçûìÿííûé_ãðàäèåíò_80);}.cls-80{fill:url(#_åçûìÿííûé_ãðàäèåíò_38-8);}.cls-81{mask:url(#mask-3);}.cls-82{filter:url(#luminosity-noclip-50);}.cls-34{fill:url(#_åçûìÿííûé_ãðàäèåíò_37);}.cls-83{filter:url(#luminosity-noclip-44);}.cls-84{fill:url(#_åçûìÿííûé_ãðàäèåíò_41-4);}.cls-85{mask:url(#mask-31);}.cls-86{opacity:.35;}.cls-87{fill:url(#_åçûìÿííûé_ãðàäèåíò_22-3);}.cls-88{mask:url(#mask-30);}.cls-89{mask:url(#mask-32);}.cls-90{fill:url(#_åçûìÿííûé_ãðàäèåíò_46);}.cls-91{filter:url(#luminosity-noclip-38);}.cls-92{mask:url(#mask-9);}.cls-66{fill:url(#_åçûìÿííûé_ãðàäèåíò_39);}.cls-93{fill:url(#_åçûìÿííûé_ãðàäèåíò_22-2);}.cls-67{fill:url(#_åçûìÿííûé_ãðàäèåíò_37-10);}.cls-94{mask:url(#mask-48);}.cls-95{filter:url(#luminosity-noclip-34);}.cls-96{fill:url(#_åçûìÿííûé_ãðàäèåíò_41-2);}.cls-97{mask:url(#mask-39);}.cls-98{mask:url(#mask-12);}.cls-99{filter:url(#luminosity-noclip-14);}.cls-100{opacity:.48;}.cls-101{opacity:.34;}.cls-13{fill:url(#_åçûìÿííûé_ãðàäèåíò_18);}.cls-102{mask:url(#mask-5);}.cls-14{fill:url(#_åçûìÿííûé_ãðàäèåíò_79);}.cls-103{fill:url(#_åçûìÿííûé_ãðàäèåíò_38-11);}.cls-15{fill:url(#_åçûìÿííûé_ãðàäèåíò_17);}.cls-104{opacity:.23;}.cls-16{fill:url(#_åçûìÿííûé_ãðàäèåíò_20);}.cls-68{fill:url(#_åçûìÿííûé_ãðàäèåíò_44);}.cls-105{mask:url(#mask-36);}.cls-106{filter:url(#luminosity-noclip-32);}.cls-107{fill:url(#_åçûìÿííûé_ãðàäèåíò_41-3);}.cls-108{fill:url(#_åçûìÿííûé_ãðàäèåíò_38-16);}.cls-109{fill:url(#_åçûìÿííûé_ãðàäèåíò_38-15);}.cls-110{fill:url(#_åçûìÿííûé_ãðàäèåíò_38-13);}.cls-111{filter:url(#luminosity-noclip-12);}.cls-112{mask:url(#mask-35);}.cls-113{mask:url(#mask-40);}.cls-114{mask:url(#mask-20);}.cls-115{filter:url(#luminosity-noclip-16);}.cls-116{mask:url(#mask-38);}.cls-117{opacity:.32;}.cls-118{filter:url(#luminosity-noclip-4);}.cls-50{fill:url(#_åçûìÿííûé_ãðàäèåíò_46-2);}.cls-119{mask:url(#mask-44);}.cls-17{fill:url(#_åçûìÿííûé_ãðàäèåíò_85);}.cls-120{fill:url(#_åçûìÿííûé_ãðàäèåíò_22);}.cls-121{mask:url(#mask-25);}.cls-122{filter:url(#luminosity-noclip-8);}.cls-123{fill:url(#_åçûìÿííûé_ãðàäèåíò_38-14);}.cls-124{mask:url(#mask-8);}.cls-125{filter:url(#luminosity-noclip-6);}.cls-126{fill:#002758;}.cls-127{filter:url(#luminosity-noclip-18);}.cls-128{mask:url(#mask-4);}.cls-18{fill:url(#_åçûìÿííûé_ãðàäèåíò_12);}.cls-19{fill:url(#_åçûìÿííûé_ãðàäèåíò_81);}.cls-129{mask:url(#mask-24);}.cls-130{fill:url(#_åçûìÿííûé_ãðàäèåíò_48-3);}.cls-131{fill:url(#_åçûìÿííûé_ãðàäèåíò_48-4);}.cls-132{filter:url(#luminosity-noclip-52);}.cls-20{fill:url(#_åçûìÿííûé_ãðàäèåíò_11);}.cls-133{mask:url(#mask-19);}.cls-134{mask:url(#mask-15);}.cls-135{fill:url(#_åçûìÿííûé_ãðàäèåíò_38);}.cls-69{fill:url(#_åçûìÿííûé_ãðàäèåíò_45-2);}.cls-136{filter:url(#luminosity-noclip-26);}.cls-21{fill:url(#_åçûìÿííûé_ãðàäèåíò_83);}.cls-137{fill:url(#_åçûìÿííûé_ãðàäèåíò_38-7);}.cls-138{mask:url(#mask-6);}.cls-139{fill:url(#_åçûìÿííûé_ãðàäèåíò_38-10);}.cls-140{fill:url(#_åçûìÿííûé_ãðàäèåíò_38-12);}.cls-22{fill:url(#_åçûìÿííûé_ãðàäèåíò_13);}.cls-141{mask:url(#mask-42);}.cls-70{fill:url(#_åçûìÿííûé_ãðàäèåíò_37-6);}.cls-142{mask:url(#mask-16);}.cls-143{mask:url(#mask-18);}.cls-144{filter:url(#luminosity-noclip-48);}.cls-145{fill:url(#_åçûìÿííûé_ãðàäèåíò_38-5);}.cls-146{mask:url(#mask-37);}.cls-147{fill:url(#_åçûìÿííûé_ãðàäèåíò_38-3);}.cls-148{filter:url(#luminosity-noclip-40);}.cls-23{fill:url(#_åçûìÿííûé_ãðàäèåíò_8);}.cls-149{filter:url(#luminosity-noclip-2);}.cls-150{fill:url(#_åçûìÿííûé_ãðàäèåíò_48-6);}.cls-151{mask:url(#mask-1);}.cls-152{mask:url(#mask);}.cls-153{mask:url(#mask-22);}.cls-71{fill:url(#_åçûìÿííûé_ãðàäèåíò_37-8);}.cls-24{fill:url(#_åçûìÿííûé_ãðàäèåíò_75);}.cls-36{fill:url(#_åçûìÿííûé_ãðàäèåíò_43);}.cls-154{mask:url(#mask-29);}.cls-37{fill:url(#_åçûìÿííûé_ãðàäèåíò_37-2);}.cls-155{mask:url(#mask-7);}.cls-156{filter:url(#luminosity-noclip-30);}.cls-73{fill:url(#_åçûìÿííûé_ãðàäèåíò_42-2);}.cls-157{fill:url(#_åçûìÿííûé_ãðàäèåíò_38-2);}.cls-158{filter:url(#luminosity-noclip-28);}.cls-25{fill:url(#_åçûìÿííûé_ãðàäèåíò_5);}.cls-38{fill:url(#_åçûìÿííûé_ãðàäèåíò_37-5);}.cls-26{fill:url(#_åçûìÿííûé_ãðàäèåíò_74);}.cls-159{mask:url(#mask-14);}.cls-160{mask:url(#mask-21);}.cls-161{mask:url(#mask-11);}.cls-162{mask:url(#mask-28);}.cls-27{fill:url(#_åçûìÿííûé_ãðàäèåíò_3);}.cls-163{filter:url(#luminosity-noclip-10);}.cls-164{filter:url(#luminosity-noclip-42);}.cls-165{mask:url(#mask-50);}.cls-166{filter:url(#luminosity-noclip-36);}.cls-167{mask:url(#mask-51);}</style><linearGradient id="_åçûìÿííûé_ãðàäèåíò_48" x1="3084.98" y1="849.7" x2="3290.22" y2="849.7" gradientTransform="matrix(1, 0, 0, 1, 0, 0)" gradientUnits="userSpaceOnUse"><stop offset="0" stop-color="#0047d6"/><stop offset="1" stop-color="#002f6f"/></linearGradient><linearGradient id="_åçûìÿííûé_ãðàäèåíò_48-2" x1="3102.97" y1="893.4" x2="3334.52" y2="893.4" xlink:href="#_åçûìÿííûé_ãðàäèåíò_48"/><linearGradient id="_åçûìÿííûé_ãðàäèåíò_48-3" x1="3194.47" y1="967.52" x2="3352.17" y2="967.52" xlink:href="#_åçûìÿííûé_ãðàäèåíò_48"/><linearGradient id="_åçûìÿííûé_ãðàäèåíò_48-4" x1="3066.63" y1="804.11" x2="3243.25" y2="804.11" xlink:href="#_åçûìÿííûé_ãðàäèåíò_48"/><linearGradient id="_åçûìÿííûé_ãðàäèåíò_48-5" x1="3285.42" y1="1010.83" x2="3323.72" y2="1010.83" xlink:href="#_åçûìÿííûé_ãðàäèåíò_48"/><linearGradient id="_åçûìÿííûé_ãðàäèåíò_48-6" x1="3119.95" y1="931.16" x2="3372.69" y2="931.16" xlink:href="#_åçûìÿííûé_ãðàäèåíò_48"/><linearGradient id="_åçûìÿííûé_ãðàäèåíò_45" x1="1544.82" y1="468.5" x2="1544.82" y2="1027.77" gradientTransform="matrix(1, 0, 0, 1, 0, 0)" gradientUnits="userSpaceOnUse"><stop offset=".2" stop-color="#0047d6"/><stop offset="1" stop-color="#002f6f"/></linearGradient><linearGradient id="_åçûìÿííûé_ãðàäèåíò_38" x1="679.7" y1="807.93" x2="742.06" y2="807.93" gradientTransform="matrix(1, 0, 0, 1, 0, 0)" gradientUnits="userSpaceOnUse"><stop offset="1" stop-color="#002758"/><stop offset="1" stop-color="#002f6f"/></linearGradient><linearGradient id="_åçûìÿííûé_ãðàäèåíò_38-2" x1="687.3" y1="959.85" x2="734.45" y2="959.85" xlink:href="#_åçûìÿííûé_ãðàäèåíò_38"/><filter id="luminosity-noclip-2" x="3642.03" y="525.01" width="413.63" height="464.08" color-interpolation-filters="sRGB" filterUnits="userSpaceOnUse"><feFlood flood-color="#fff" result="bg"/><feBlend in="SourceGraphic" in2="bg"/></filter><filter id="luminosity-noclip-3" x="3642.03" y="-9213" width="413.63" height="32766" color-interpolation-filters="sRGB" filterUnits="userSpaceOnUse"><feFlood flood-color="#fff" result="bg"/><feBlend in="SourceGraphic" in2="bg"/></filter><mask id="mask-1" x="3642.03" y="-9213" width="413.63" height="32766" maskUnits="userSpaceOnUse"/><linearGradient id="_åçûìÿííûé_ãðàäèåíò_5" x1="3848.84" y1="525.01" x2="3848.84" y2="989.1" gradientTransform="matrix(1, 0, 0, 1, 0, 0)" gradientUnits="userSpaceOnUse"><stop offset="0" stop-color="#e6e6e6"/><stop offset=".53" stop-color="#f1f1f1"/><stop offset="1" stop-color="#fff"/></linearGradient><mask id="mask" x="3642.03" y="525.01" width="413.63" height="464.08" maskUnits="userSpaceOnUse"><g class="cls-149"><g class="cls-151"><path class="cls-25" d="M3935.24,533.15c-123.61-33.54-251.49,39.62-285.06,163.08-33.58,123.46,39.67,251.19,163.28,284.72,91.86,24.92,186.08-9.08,242.2-78.87v-80.15c-24.49,68.41-84.97,115.51-153.87,125.51,15.29-46.45,45.82-81.8,90.86-105.19,26.46-13.75,51.07-19.47,63.01-21.62v-33.17c-35.93-30.1-57.23-69.87-63.34-118.46-3.4-27.05-1.03-50.33,1.03-63.23,28.62,22.52,50.15,52.69,62.31,86.55v-80.2c-29.7-37.18-71.04-65.6-120.41-78.99Zm-10.4,38.26c15.05,4.08,29.19,9.86,42.29,17.06-40.66,28.95-86.99,39.32-137.87,30.83-29.82-4.98-53.17-15.41-63.8-20.8,45.01-30.79,102.73-42.45,159.38-27.09Zm-236.36,135.22c9.65-35.47,28.69-65.93,53.71-89.44,16.5,47.86,13.1,95.72-10.17,142.4-14.8,29.69-33.62,49.99-40.73,57.09-11.31-34.47-13.03-72.49-2.82-110.04Zm6.44,120.14l1.46,1.64,.03,2.06c-.51-1.23-1.01-2.46-1.49-3.69Zm128.94,115.94c-56.03-15.2-99.57-53.74-122.99-102.28,52.08,.35,96.97,20.19,133.5,59.03,17.76,18.89,29.3,38.09,35.5,49.93-15.23-.35-30.65-2.52-46-6.68Zm55.57-77.46l-105.04-68.7,32.34-122.8,126.34-5.74,46.02,118.38-99.66,78.86Z"/></g></g></mask><linearGradient id="_åçûìÿííûé_ãðàäèåíò_46" x1="3848.84" y1="525.01" x2="3848.84" y2="989.1" gradientTransform="matrix(1, 0, 0, 1, 0, 0)" gradientUnits="userSpaceOnUse"><stop offset="0" stop-color="#0047d6"/><stop offset=".17" stop-color="#0044ca"/><stop offset=".48" stop-color="#003dad"/><stop offset=".88" stop-color="#00327d"/><stop offset="1" stop-color="#002f6f"/></linearGradient><filter id="luminosity-noclip-4" x="-15.88" y="7.75" width="445.35" height="537.55" color-interpolation-filters="sRGB" filterUnits="userSpaceOnUse"><feFlood flood-color="#fff" result="bg"/><feBlend in="SourceGraphic" in2="bg"/></filter><filter id="luminosity-noclip-5" x="-15.88" y="-9213" width="445.35" height="32766" color-interpolation-filters="sRGB" filterUnits="userSpaceOnUse"><feFlood flood-color="#fff" result="bg"/><feBlend in="SourceGraphic" in2="bg"/></filter><mask id="mask-3" x="-15.88" y="-9213" width="445.35" height="32766" maskUnits="userSpaceOnUse"/><linearGradient id="_åçûìÿííûé_ãðàäèåíò_3" x1="269.6" y1="435.11" x2="269.6" y2="-10.24" gradientTransform="translate(-5.64 546.12) rotate(-90)" gradientUnits="userSpaceOnUse"><stop offset="0" stop-color="#e6e6e6"/><stop offset=".53" stop-color="#f1f1f1"/><stop offset="1" stop-color="#fff"/></linearGradient><mask id="mask-2" x="-15.88" y="7.75" width="445.35" height="537.55" maskUnits="userSpaceOnUse"><g class="cls-118"><g class="cls-81"><path class="cls-27" d="M128.88,264.09H-15.88v95.23H128.88c11.72,74.41,50.47,139.85,105.9,185.99h194.69v-24.87c-115.42,0-208.98-93.45-208.98-208.73s93.56-208.73,208.98-208.73V7.75c-151.85,0-277.71,111.09-300.59,256.34Z"/></g></g></mask><linearGradient id="_åçûìÿííûé_ãðàäèåíò_46-2" x1="269.6" y1="435.11" x2="269.6" y2="5.64" gradientTransform="translate(-5.64 546.12) rotate(-90)" xlink:href="#_åçûìÿííûé_ãðàäèåíò_46"/><filter id="luminosity-noclip-6" x="3325.77" y="295.58" width="267.4" height="267.08" color-interpolation-filters="sRGB" filterUnits="userSpaceOnUse"><feFlood flood-color="#fff" result="bg"/><feBlend in="SourceGraphic" in2="bg"/></filter><filter id="luminosity-noclip-7" x="3325.77" y="-9213" width="267.4" height="32766" color-interpolation-filters="sRGB" filterUnits="userSpaceOnUse"><feFlood flood-color="#fff" result="bg"/><feBlend in="SourceGraphic" in2="bg"/></filter><mask id="mask-5" x="3325.77" y="-9213" width="267.4" height="32766" maskUnits="userSpaceOnUse"/><linearGradient id="_åçûìÿííûé_ãðàäèåíò_20" x1="3325.77" y1="429.12" x2="3593.17" y2="429.12" gradientTransform="matrix(1, 0, 0, 1, 0, 0)" gradientUnits="userSpaceOnUse"><stop offset=".41" stop-color="#fff"/><stop offset="1" stop-color="gray"/></linearGradient><mask id="mask-4" x="3325.77" y="295.58" width="267.4" height="267.08" maskUnits="userSpaceOnUse"><g class="cls-125"><g class="cls-102"><path class="cls-16" d="M3459.47,295.58s-36.38,16.08-76.99,56.64c-40.61,40.57-56.71,76.9-56.71,76.9,0,0,21.12,40.98,56.89,76.71,35.78,35.73,76.81,56.83,76.81,56.83,0,0,34.35-15.54,76.7-57.84,42.34-42.29,57.01-75.7,57.01-75.7,0,0-15.43-34.31-57.55-76.38-42.12-42.06-76.15-57.16-76.15-57.16Z"/></g></g></mask><linearGradient id="_åçûìÿííûé_ãðàäèåíò_37" x1="3325.77" y1="429.12" x2="3593.17" y2="429.12" gradientTransform="matrix(1, 0, 0, 1, 0, 0)" gradientUnits="userSpaceOnUse"><stop offset=".41" stop-color="#002758"/><stop offset="1" stop-color="#002f6f"/></linearGradient><filter id="luminosity-noclip-8" x="3225.59" y="1.38" width="538.2" height="444.82" color-interpolation-filters="sRGB" filterUnits="userSpaceOnUse"><feFlood flood-color="#fff" result="bg"/><feBlend in="SourceGraphic" in2="bg"/></filter><filter id="luminosity-noclip-9" x="3225.59" y="-9213" width="538.2" height="32766" color-interpolation-filters="sRGB" filterUnits="userSpaceOnUse"><feFlood flood-color="#fff" result="bg"/><feBlend in="SourceGraphic" in2="bg"/></filter><mask id="mask-7" x="3225.59" y="-9213" width="538.2" height="32766" maskUnits="userSpaceOnUse"/><linearGradient id="_åçûìÿííûé_ãðàäèåíò_3-2" x1="154.78" y1="3786.11" x2="154.78" y2="3341.29" gradientTransform="translate(3339.91 -3339.91)" xlink:href="#_åçûìÿííûé_ãðàäèåíò_3"/><mask id="mask-6" x="3225.59" y="1.38" width="538.2" height="444.82" maskUnits="userSpaceOnUse"><g class="cls-122"><g class="cls-155"><path class="cls-8" d="M3507.14,145.97V1.38h-95.34V145.97c-74.5,11.71-140.02,50.41-186.21,105.77v194.46h24.9c0-115.28,93.56-208.73,208.98-208.73s208.98,93.45,208.98,208.73h95.34c0-151.67-111.22-277.38-256.64-300.23Z"/></g></g></mask><filter id="luminosity-noclip-10" x="3225.59" y="1.38" width="538.2" height="444.82" color-interpolation-filters="sRGB" filterUnits="userSpaceOnUse"><feFlood flood-color="#fff" result="bg"/><feBlend in="SourceGraphic" in2="bg"/></filter><filter id="luminosity-noclip-11" x="3225.59" y="-9213" width="538.2" height="32766" color-interpolation-filters="sRGB" filterUnits="userSpaceOnUse"><feFlood flood-color="#fff" result="bg"/><feBlend in="SourceGraphic" in2="bg"/></filter><mask id="mask-9" x="3225.59" y="-9213" width="538.2" height="32766" maskUnits="userSpaceOnUse"/><linearGradient id="_åçûìÿííûé_ãðàäèåíò_18" x1="154.78" y1="3786.11" x2="154.78" y2="3341.29" gradientTransform="translate(3339.91 -3339.91)" gradientUnits="userSpaceOnUse"><stop offset=".41" stop-color="#fff"/><stop offset="1" stop-color="gray"/></linearGradient><mask id="mask-8" x="3225.59" y="1.38" width="538.2" height="444.82" maskUnits="userSpaceOnUse"><g class="cls-163"><g class="cls-92"><path class="cls-13" d="M3507.14,145.97V1.38h-95.34V145.97c-74.5,11.71-140.02,50.41-186.21,105.77v194.46h24.9c0-115.28,93.56-208.73,208.98-208.73s208.98,93.45,208.98,208.73h95.34c0-151.67-111.22-277.38-256.64-300.23Z"/></g></g></mask><linearGradient id="_åçûìÿííûé_ãðàäèåíò_37-2" x1="154.78" y1="3786.11" x2="154.78" y2="3341.29" gradientTransform="translate(3339.91 -3339.91)" xlink:href="#_åçûìÿííûé_ãðàäèåíò_37"/><linearGradient id="_åçûìÿííûé_ãðàäèåíò_45-2" x1="1464.3" y1="1484.46" x2="1464.3" y2="2169.96" gradientTransform="translate(2031.44 3170.32) rotate(-180)" xlink:href="#_åçûìÿííûé_ãðàäèåíò_45"/><filter id="luminosity-noclip-12" x="1474.94" y="1582.89" width="267.4" height="267.08" color-interpolation-filters="sRGB" filterUnits="userSpaceOnUse"><feFlood flood-color="#fff" result="bg"/><feBlend in="SourceGraphic" in2="bg"/></filter><filter id="luminosity-noclip-13" x="1474.94" y="-9213" width="267.4" height="32766" color-interpolation-filters="sRGB" filterUnits="userSpaceOnUse"><feFlood flood-color="#fff" result="bg"/><feBlend in="SourceGraphic" in2="bg"/></filter><mask id="mask-11" x="1474.94" y="-9213" width="267.4" height="32766" maskUnits="userSpaceOnUse"/><linearGradient id="_åçûìÿííûé_ãðàäèåíò_17" x1="1474.94" y1="1716.43" x2="1742.34" y2="1716.43" gradientTransform="matrix(1, 0, 0, 1, 0, 0)" gradientUnits="userSpaceOnUse"><stop offset=".41" stop-color="#fff"/><stop offset="1" stop-color="gray"/></linearGradient><mask id="mask-10" x="1474.94" y="1582.89" width="267.4" height="267.08" maskUnits="userSpaceOnUse"><g class="cls-111"><g class="cls-161"><path class="cls-15" d="M1742.34,1716.43s-16.1-36.33-56.71-76.9c-40.61-40.57-76.99-56.64-76.99-56.64,0,0-41.03,21.09-76.81,56.83-35.78,35.73-56.89,76.71-56.89,76.71,0,0,15.56,34.31,57.91,76.6,42.34,42.29,75.79,56.94,75.79,56.94,0,0,34.35-15.41,76.47-57.48,42.12-42.06,57.23-76.06,57.23-76.06Z"/></g></g></mask><linearGradient id="_åçûìÿííûé_ãðàäèåíò_37-3" x1="1474.94" y1="1716.43" x2="1742.34" y2="1716.43" xlink:href="#_åçûìÿííûé_ãðàäèåíò_37"/><linearGradient id="_åçûìÿííûé_ãðàäèåíò_38-3" x1="679.91" y1="1949.8" x2="742.19" y2="1949.8" gradientTransform="translate(-700.92 1859.09) rotate(-90)" xlink:href="#_åçûìÿííûé_ãðàäèåíò_38"/><linearGradient id="_åçûìÿííûé_ãðàäèåíò_38-4" x1="687.5" y1="2101.9" x2="734.6" y2="2101.9" gradientTransform="translate(-700.92 1859.09) rotate(-90)" xlink:href="#_åçûìÿííûé_ãðàäèåíò_38"/><filter id="luminosity-noclip-14" x="1602.54" y="1482.83" width="445.35" height="537.55" color-interpolation-filters="sRGB" filterUnits="userSpaceOnUse"><feFlood flood-color="#fff" result="bg"/><feBlend in="SourceGraphic" in2="bg"/></filter><filter id="luminosity-noclip-15" x="1602.54" y="-9213" width="445.35" height="32766" color-interpolation-filters="sRGB" filterUnits="userSpaceOnUse"><feFlood flood-color="#fff" result="bg"/><feBlend in="SourceGraphic" in2="bg"/></filter><mask id="mask-13" x="1602.54" y="-9213" width="445.35" height="32766" maskUnits="userSpaceOnUse"/><linearGradient id="_åçûìÿííûé_ãðàäèåíò_3-3" x1="268.98" y1="1576.11" x2="268.98" y2="1130.76" gradientTransform="translate(3178.65 1482.63) rotate(90)" xlink:href="#_åçûìÿííûé_ãðàäèåíò_3"/><mask id="mask-12" x="1602.54" y="1482.83" width="445.35" height="537.55" maskUnits="userSpaceOnUse"><g class="cls-99"><g class="cls-79"><path class="cls-7" d="M1903.13,1764.05h144.76v-95.23h-144.76c-11.72-74.41-50.47-139.85-105.9-185.99h-194.69v24.87c115.42,0,208.98,93.45,208.98,208.73s-93.56,208.73-208.98,208.73v95.22c151.85,0,277.71-111.09,300.59-256.34Z"/></g></g></mask><filter id="luminosity-noclip-16" x="1602.54" y="1482.83" width="445.35" height="537.55" color-interpolation-filters="sRGB" filterUnits="userSpaceOnUse"><feFlood flood-color="#fff" result="bg"/><feBlend in="SourceGraphic" in2="bg"/></filter><filter id="luminosity-noclip-17" x="1602.54" y="-9213" width="445.35" height="32766" color-interpolation-filters="sRGB" filterUnits="userSpaceOnUse"><feFlood flood-color="#fff" result="bg"/><feBlend in="SourceGraphic" in2="bg"/></filter><mask id="mask-15" x="1602.54" y="-9213" width="445.35" height="32766" maskUnits="userSpaceOnUse"/><linearGradient id="_åçûìÿííûé_ãðàäèåíò_16" x1="268.98" y1="1576.11" x2="268.98" y2="1130.76" gradientTransform="translate(3178.65 1482.63) rotate(90)" gradientUnits="userSpaceOnUse"><stop offset=".41" stop-color="#fff"/><stop offset="1" stop-color="gray"/></linearGradient><mask id="mask-14" x="1602.54" y="1482.83" width="445.35" height="537.55" maskUnits="userSpaceOnUse"><g class="cls-115"><g class="cls-134"><path class="cls-6" d="M1903.13,1764.05h144.76v-95.23h-144.76c-11.72-74.41-50.47-139.85-105.9-185.99h-194.69v24.87c115.42,0,208.98,93.45,208.98,208.73s-93.56,208.73-208.98,208.73v95.22c151.85,0,277.71-111.09,300.59-256.34Z"/></g></g></mask><linearGradient id="_åçûìÿííûé_ãðàäèåíò_37-4" x1="268.98" y1="1576.11" x2="268.98" y2="1130.76" gradientTransform="translate(3178.65 1482.63) rotate(90)" xlink:href="#_åçûìÿííûé_ãðàäèåíò_37"/><linearGradient id="_åçûìÿííûé_ãðàäèåíò_38-5" x1="115.34" y1="831.27" x2="210.87" y2="831.27" xlink:href="#_åçûìÿííûé_ãðàäèåíò_38"/><linearGradient id="_åçûìÿííûé_ãðàäèåíò_38-6" x1="124.3" y1="966.93" x2="201.91" y2="966.93" xlink:href="#_åçûìÿííûé_ãðàäèåíò_38"/><linearGradient id="_åçûìÿííûé_ãðàäèåíò_38-7" x1="133.64" y1="1106.18" x2="192.57" y2="1106.18" xlink:href="#_åçûìÿííûé_ãðàäèåíò_38"/><linearGradient id="_åçûìÿííûé_ãðàäèåíò_38-8" x1="140.82" y1="1249.73" x2="185.38" y2="1249.73" xlink:href="#_åçûìÿííûé_ãðàäèåíò_38"/><linearGradient id="_åçûìÿííûé_ãðàäèåíò_38-9" x1="3883.56" y1="128.41" x2="3979.09" y2="128.41" xlink:href="#_åçûìÿííûé_ãðàäèåíò_38"/><linearGradient id="_åçûìÿííûé_ãðàäèåíò_38-10" x1="3892.52" y1="264.07" x2="3970.13" y2="264.07" xlink:href="#_åçûìÿííûé_ãðàäèåíò_38"/><linearGradient id="_åçûìÿííûé_ãðàäèåíò_38-11" x1="3901.86" y1="403.32" x2="3960.78" y2="403.32" xlink:href="#_åçûìÿííûé_ãðàäèåíò_38"/><linearGradient id="_åçûìÿííûé_ãðàäèåíò_38-12" x1="3909.04" y1="546.87" x2="3953.6" y2="546.87" xlink:href="#_åçûìÿííûé_ãðàäèåíò_38"/><linearGradient id="_åçûìÿííûé_ãðàäèåíò_44" x1="4708.44" y1="-2218.42" x2="5071.05" y2="-2218.42" gradientTransform="translate(5523.39 4970.31) rotate(-109.85)" gradientUnits="userSpaceOnUse"><stop offset=".4" stop-color="#002758"/><stop offset=".68" stop-color="#00295f"/><stop offset="1" stop-color="#002f6f"/></linearGradient><filter id="luminosity-noclip-18" x="790.21" y="640.88" width="507.53" height="506.92" color-interpolation-filters="sRGB" filterUnits="userSpaceOnUse"><feFlood flood-color="#fff" result="bg"/><feBlend in="SourceGraphic" in2="bg"/></filter><filter id="luminosity-noclip-19" x="790.21" y="-9213" width="507.53" height="32766" color-interpolation-filters="sRGB" filterUnits="userSpaceOnUse"><feFlood flood-color="#fff" result="bg"/><feBlend in="SourceGraphic" in2="bg"/></filter><mask id="mask-17" x="790.21" y="-9213" width="507.53" height="32766" maskUnits="userSpaceOnUse"/><linearGradient id="_åçûìÿííûé_ãðàäèåíò_14" x1="790.21" y1="894.34" x2="1297.74" y2="894.34" gradientTransform="matrix(1, 0, 0, 1, 0, 0)" gradientUnits="userSpaceOnUse"><stop offset=".41" stop-color="#fff"/><stop offset="1" stop-color="gray"/></linearGradient><mask id="mask-16" x="790.21" y="640.88" width="507.53" height="506.92" maskUnits="userSpaceOnUse"><g class="cls-127"><g class="cls-54"><path class="cls-5" d="M1043.98,640.88s-69.04,30.51-146.13,107.51c-77.09,76.99-107.64,145.95-107.64,145.95,0,0,40.08,77.78,107.99,145.6,67.9,67.82,145.78,107.86,145.78,107.86,0,0,65.2-29.5,145.57-109.78,80.37-80.27,108.2-143.68,108.2-143.68,0,0-29.29-65.12-109.23-144.96-79.93-79.84-144.54-108.5-144.54-108.5Z"/></g></g></mask><linearGradient id="_åçûìÿííûé_ãðàäèåíò_37-5" x1="790.21" y1="894.34" x2="1297.74" y2="894.34" xlink:href="#_åçûìÿííûé_ãðàäèåíò_37"/><filter id="luminosity-noclip-20" x="466.39" y="1.88" width="1155.18" height="911.82" color-interpolation-filters="sRGB" filterUnits="userSpaceOnUse"><feFlood flood-color="#fff" result="bg"/><feBlend in="SourceGraphic" in2="bg"/></filter><filter id="luminosity-noclip-21" x="466.39" y="-9213" width="1155.18" height="32766" color-interpolation-filters="sRGB" filterUnits="userSpaceOnUse"><feFlood flood-color="#fff" result="bg"/><feBlend in="SourceGraphic" in2="bg"/></filter><mask id="mask-19" x="466.39" y="-9213" width="1155.18" height="32766" maskUnits="userSpaceOnUse"/><linearGradient id="_åçûìÿííûé_ãðàäèåíò_13" x1="466.39" y1="457.79" x2="1621.57" y2="457.79" gradientTransform="matrix(1, 0, 0, 1, 0, 0)" gradientUnits="userSpaceOnUse"><stop offset=".41" stop-color="#fff"/><stop offset="1" stop-color="gray"/></linearGradient><mask id="mask-18" x="466.39" y="1.88" width="1155.18" height="911.82" maskUnits="userSpaceOnUse"><g class="cls-53"><g class="cls-133"><path class="cls-22" d="M466.39,913.71h180.95c0-218.8,177.58-396.17,396.64-396.17s396.64,177.37,396.64,396.17h180.95c0-287.86-211.1-526.46-487.11-569.83V1.88h-180.96V343.87c-276.01,43.38-487.11,281.97-487.11,569.83Z"/></g></g></mask><linearGradient id="_åçûìÿííûé_ãðàäèåíò_37-6" x1="466.39" y1="457.79" x2="1621.57" y2="457.79" xlink:href="#_åçûìÿííûé_ãðàäèåíò_37"/><filter id="luminosity-noclip-22" x="1981.47" y="788.85" width="540.32" height="539.67" color-interpolation-filters="sRGB" filterUnits="userSpaceOnUse"><feFlood flood-color="#fff" result="bg"/><feBlend in="SourceGraphic" in2="bg"/></filter><filter id="luminosity-noclip-23" x="1981.47" y="-9213" width="540.32" height="32766" color-interpolation-filters="sRGB" filterUnits="userSpaceOnUse"><feFlood flood-color="#fff" result="bg"/><feBlend in="SourceGraphic" in2="bg"/></filter><mask id="mask-21" x="1981.47" y="-9213" width="540.32" height="32766" maskUnits="userSpaceOnUse"/><linearGradient id="_åçûìÿííûé_ãðàäèåíò_85" x1="3514.93" y1="1767.47" x2="4054.61" y2="1767.47" gradientTransform="translate(4019.09 -2726.09) rotate(90)" gradientUnits="userSpaceOnUse"><stop offset=".2" stop-color="#ccc"/><stop offset="1" stop-color="#fff"/></linearGradient><mask id="mask-20" x="1981.47" y="788.85" width="540.32" height="539.67" maskUnits="userSpaceOnUse"><g class="cls-78"><g class="cls-160"><path class="cls-17" d="M2521.78,1058.68s-32.52-73.41-114.59-155.38c-82.07-81.97-155.57-114.45-155.57-114.45,0,0-82.91,42.62-155.2,114.82-72.29,72.2-114.96,155.01-114.96,155.01,0,0,31.45,69.33,117.01,154.79,85.56,85.46,153.15,115.05,153.15,115.05,0,0,69.42-31.15,154.51-116.15,85.1-85,115.65-153.69,115.65-153.69Z"/></g></g></mask><linearGradient id="_åçûìÿííûé_ãðàäèåíò_43" x1="3514.93" y1="1767.47" x2="4054.61" y2="1767.47" gradientTransform="translate(4019.09 -2726.09) rotate(90)" gradientUnits="userSpaceOnUse"><stop offset=".2" stop-color="#0047d6"/><stop offset="1" stop-color="#002f6f"/></linearGradient><filter id="luminosity-noclip-24" x="2230.98" y="444.51" width="971.9" height="1228.34" color-interpolation-filters="sRGB" filterUnits="userSpaceOnUse"><feFlood flood-color="#fff" result="bg"/><feBlend in="SourceGraphic" in2="bg"/></filter><filter id="luminosity-noclip-25" x="2230.98" y="-9213" width="971.9" height="32766" color-interpolation-filters="sRGB" filterUnits="userSpaceOnUse"><feFlood flood-color="#fff" result="bg"/><feBlend in="SourceGraphic" in2="bg"/></filter><mask id="mask-23" x="2230.98" y="-9213" width="971.9" height="32766" maskUnits="userSpaceOnUse"/><linearGradient id="_åçûìÿííûé_ãðàäèåíò_84" x1="3170.6" y1="1302.16" x2="4398.94" y2="1302.16" gradientTransform="translate(4019.09 -2726.09) rotate(90)" gradientUnits="userSpaceOnUse"><stop offset=".2" stop-color="#ccc"/><stop offset="1" stop-color="#fff"/></linearGradient><mask id="mask-22" x="2230.98" y="444.51" width="971.9" height="1228.34" maskUnits="userSpaceOnUse"><g class="cls-61"><g class="cls-43"><path class="cls-2" d="M2230.98,444.51v192.41c233.21,0,422.27,188.83,422.27,421.76s-189.06,421.76-422.27,421.76v192.41c306.83,0,561.14-224.47,607.38-517.96h364.52v-192.42h-364.52c-46.23-293.49-300.55-517.96-607.38-517.96Z"/></g></g></mask><linearGradient id="_åçûìÿííûé_ãðàäèåíò_43-2" x1="3170.6" y1="1302.16" x2="4398.94" y2="1302.16" xlink:href="#_åçûìÿííûé_ãðàäèåíò_43"/><filter id="luminosity-noclip-26" x="3435.01" y="1051.44" width="438.94" height="438.42" color-interpolation-filters="sRGB" filterUnits="userSpaceOnUse"><feFlood flood-color="#fff" result="bg"/><feBlend in="SourceGraphic" in2="bg"/></filter><filter id="luminosity-noclip-27" x="3435.01" y="-9213" width="438.94" height="32766" color-interpolation-filters="sRGB" filterUnits="userSpaceOnUse"><feFlood flood-color="#fff" result="bg"/><feBlend in="SourceGraphic" in2="bg"/></filter><mask id="mask-25" x="3435.01" y="-9213" width="438.94" height="32766" maskUnits="userSpaceOnUse"/><linearGradient id="_åçûìÿííûé_ãðàäèåíò_83" x1="4051.05" y1="663.37" x2="4490" y2="663.37" gradientTransform="translate(7925 1934.03) rotate(-180)" gradientUnits="userSpaceOnUse"><stop offset=".2" stop-color="#999"/><stop offset="1" stop-color="#fff"/></linearGradient><mask id="mask-24" x="3435.01" y="1051.44" width="438.94" height="438.42" maskUnits="userSpaceOnUse"><g class="cls-136"><g class="cls-121"><path class="cls-21" d="M3654.48,1489.86s59.71-26.39,126.38-92.98c66.67-66.59,93.09-126.23,93.09-126.23,0,0-34.67-67.27-93.39-125.93-58.73-58.66-126.08-93.28-126.08-93.28,0,0-56.39,25.52-125.9,94.94-69.51,69.43-93.58,124.27-93.58,124.27,0,0,25.33,56.32,94.47,125.37,69.13,69.05,125.01,93.84,125.01,93.84Z"/></g></g></mask><linearGradient id="_åçûìÿííûé_ãðàäèåíò_42" x1="4051.05" y1="663.37" x2="4490" y2="663.37" gradientTransform="translate(7925 1934.03) rotate(-180)" gradientUnits="userSpaceOnUse"><stop offset=".2" stop-color="#0047d6"/><stop offset="1" stop-color="#002f6f"/></linearGradient><filter id="luminosity-noclip-28" x="3154.94" y="1253.9" width="900.72" height="785.47" color-interpolation-filters="sRGB" filterUnits="userSpaceOnUse"><feFlood flood-color="#fff" result="bg"/><feBlend in="SourceGraphic" in2="bg"/></filter><filter id="luminosity-noclip-29" x="3154.94" y="-9213" width="900.72" height="32766" color-interpolation-filters="sRGB" filterUnits="userSpaceOnUse"><feFlood flood-color="#fff" result="bg"/><feBlend in="SourceGraphic" in2="bg"/></filter><mask id="mask-27" x="3154.94" y="-9213" width="900.72" height="32766" maskUnits="userSpaceOnUse"/><linearGradient id="_åçûìÿííûé_ãðàäèåíò_82" x1="3869.34" y1="287.39" x2="4770.06" y2="287.39" gradientTransform="translate(7925 1934.03) rotate(-180)" gradientUnits="userSpaceOnUse"><stop offset=".2" stop-color="#999"/><stop offset="1" stop-color="#fff"/></linearGradient><mask id="mask-26" x="3154.94" y="1253.9" width="900.72" height="785.47" maskUnits="userSpaceOnUse"><g class="cls-158"><g class="cls-44"><path class="cls-11" d="M4055.65,1253.9h-58.13c0,189.23-153.59,342.63-343.04,342.63s-343.04-153.4-343.04-342.63h-156.49c0,248.96,182.57,455.32,421.28,492.83v292.63h156.51v-292.63c131.88-20.73,246.63-92.99,322.92-195.5v-297.33Z"/></g></g></mask><linearGradient id="_åçûìÿííûé_ãðàäèåíò_42-2" x1="3869.34" y1="287.39" x2="4770.06" y2="287.39" xlink:href="#_åçûìÿííûé_ãðàäèåíò_42"/><filter id="luminosity-noclip-30" x="3135.28" y="536.34" width="43.24" height="43.18" color-interpolation-filters="sRGB" filterUnits="userSpaceOnUse"><feFlood flood-color="#fff" result="bg"/><feBlend in="SourceGraphic" in2="bg"/></filter><filter id="luminosity-noclip-31" x="3135.28" y="-9213" width="43.24" height="32766" color-interpolation-filters="sRGB" filterUnits="userSpaceOnUse"><feFlood flood-color="#fff" result="bg"/><feBlend in="SourceGraphic" in2="bg"/></filter><mask id="mask-29" x="3135.28" y="-9213" width="43.24" height="32766" maskUnits="userSpaceOnUse"/><linearGradient id="_åçûìÿííûé_ãðàäèåíò_81" x1="3135.28" y1="557.93" x2="3178.52" y2="557.93" gradientTransform="matrix(1, 0, 0, 1, 0, 0)" gradientUnits="userSpaceOnUse"><stop offset="0" stop-color="#fff"/><stop offset="1" stop-color="#b7b7b7"/></linearGradient><mask id="mask-28" x="3135.28" y="536.34" width="43.24" height="43.18" maskUnits="userSpaceOnUse"><g class="cls-156"><g class="cls-154"><path class="cls-19" d="M3178.52,536.34h-43.24v43.18s4.89-10.99,18.51-24.6c13.62-13.6,24.73-18.59,24.73-18.59Z"/></g></g></mask><linearGradient id="_åçûìÿííûé_ãðàäèåíò_41" x1="3135.28" y1="557.93" x2="3178.52" y2="557.93" gradientTransform="matrix(1, 0, 0, 1, 0, 0)" gradientUnits="userSpaceOnUse"><stop offset="0" stop-color="#002758"/><stop offset="1" stop-color="#00295e"/></linearGradient><filter id="luminosity-noclip-32" x="3178.52" y="536.34" width="43.24" height="43.18" color-interpolation-filters="sRGB" filterUnits="userSpaceOnUse"><feFlood flood-color="#fff" result="bg"/><feBlend in="SourceGraphic" in2="bg"/></filter><filter id="luminosity-noclip-33" x="3178.52" y="-9213" width="43.24" height="32766" color-interpolation-filters="sRGB" filterUnits="userSpaceOnUse"><feFlood flood-color="#fff" result="bg"/><feBlend in="SourceGraphic" in2="bg"/></filter><mask id="mask-31" x="3178.52" y="-9213" width="43.24" height="32766" maskUnits="userSpaceOnUse"/><linearGradient id="_åçûìÿííûé_ãðàäèåíò_80" x1="3178.52" y1="557.93" x2="3221.76" y2="557.93" gradientTransform="matrix(1, 0, 0, 1, 0, 0)" gradientUnits="userSpaceOnUse"><stop offset="0" stop-color="#fff"/><stop offset="1" stop-color="#b7b7b7"/></linearGradient><mask id="mask-30" x="3178.52" y="536.34" width="43.24" height="43.18" maskUnits="userSpaceOnUse"><g class="cls-106"><g class="cls-85"><path class="cls-12" d="M3221.76,579.52v-43.18h-43.24s10.82,4.74,24.51,18.41c13.69,13.68,18.73,24.77,18.73,24.77Z"/></g></g></mask><linearGradient id="_åçûìÿííûé_ãðàäèåíò_41-2" x1="3178.52" x2="3221.76" xlink:href="#_åçûìÿííûé_ãðàäèåíò_41"/><filter id="luminosity-noclip-34" x="3178.52" y="579.52" width="43.24" height="43.18" color-interpolation-filters="sRGB" filterUnits="userSpaceOnUse"><feFlood flood-color="#fff" result="bg"/><feBlend in="SourceGraphic" in2="bg"/></filter><filter id="luminosity-noclip-35" x="3178.52" y="-9213" width="43.24" height="32766" color-interpolation-filters="sRGB" filterUnits="userSpaceOnUse"><feFlood flood-color="#fff" result="bg"/><feBlend in="SourceGraphic" in2="bg"/></filter><mask id="mask-33" x="3178.52" y="-9213" width="43.24" height="32766" maskUnits="userSpaceOnUse"/><linearGradient id="_åçûìÿííûé_ãðàäèåíò_79" x1="3178.52" y1="601.11" x2="3221.76" y2="601.11" gradientTransform="matrix(1, 0, 0, 1, 0, 0)" gradientUnits="userSpaceOnUse"><stop offset="0" stop-color="#fff"/><stop offset="1" stop-color="#b7b7b7"/></linearGradient><mask id="mask-32" x="3178.52" y="579.52" width="43.24" height="43.18" maskUnits="userSpaceOnUse"><g class="cls-95"><g class="cls-76"><path class="cls-14" d="M3221.76,579.52s-6.83,13.25-18.4,24.81c-11.57,11.56-24.84,18.38-24.84,18.38h43.24v-43.18Z"/></g></g></mask><linearGradient id="_åçûìÿííûé_ãðàäèåíò_41-3" x1="3178.52" y1="601.11" x2="3221.76" y2="601.11" xlink:href="#_åçûìÿííûé_ãðàäèåíò_41"/><filter id="luminosity-noclip-36" x="3135.28" y="579.52" width="43.24" height="43.18" color-interpolation-filters="sRGB" filterUnits="userSpaceOnUse"><feFlood flood-color="#fff" result="bg"/><feBlend in="SourceGraphic" in2="bg"/></filter><filter id="luminosity-noclip-37" x="3135.28" y="-9213" width="43.24" height="32766" color-interpolation-filters="sRGB" filterUnits="userSpaceOnUse"><feFlood flood-color="#fff" result="bg"/><feBlend in="SourceGraphic" in2="bg"/></filter><mask id="mask-35" x="3135.28" y="-9213" width="43.24" height="32766" maskUnits="userSpaceOnUse"/><linearGradient id="_åçûìÿííûé_ãðàäèåíò_78" x1="3135.28" y1="601.11" x2="3178.52" y2="601.11" gradientTransform="matrix(1, 0, 0, 1, 0, 0)" gradientUnits="userSpaceOnUse"><stop offset="0" stop-color="#fff"/><stop offset="1" stop-color="#b7b7b7"/></linearGradient><mask id="mask-34" x="3135.28" y="579.52" width="43.24" height="43.18" maskUnits="userSpaceOnUse"><g class="cls-166"><g class="cls-112"><path class="cls-3" d="M3135.28,579.52v43.18h43.24s-11.76-5.2-24.9-18.32c-13.13-13.12-18.34-24.87-18.34-24.87Z"/></g></g></mask><linearGradient id="_åçûìÿííûé_ãðàäèåíò_41-4" y1="601.11" y2="601.11" xlink:href="#_åçûìÿííûé_ãðàäèåíò_41"/><filter id="luminosity-noclip-38" x="1732.54" y="1546.09" width="770.53" height="144.84" color-interpolation-filters="sRGB" filterUnits="userSpaceOnUse"><feFlood flood-color="#fff" result="bg"/><feBlend in="SourceGraphic" in2="bg"/></filter><filter id="luminosity-noclip-39" x="1732.54" y="-9213" width="770.53" height="32766" color-interpolation-filters="sRGB" filterUnits="userSpaceOnUse"><feFlood flood-color="#fff" result="bg"/><feBlend in="SourceGraphic" in2="bg"/></filter><mask id="mask-37" x="1732.54" y="-9213" width="770.53" height="32766" maskUnits="userSpaceOnUse"/><linearGradient id="_åçûìÿííûé_ãðàäèåíò_77" x1="1732.54" y1="1618.51" x2="2503.06" y2="1618.51" gradientTransform="matrix(1, 0, 0, 1, 0, 0)" gradientUnits="userSpaceOnUse"><stop offset="0" stop-color="#b3b3b3"/><stop offset=".28" stop-color="#b6b6b6"/><stop offset=".49" stop-color="#bfbfbf"/><stop offset=".68" stop-color="#cfcfcf"/><stop offset=".86" stop-color="#e6e6e6"/><stop offset="1" stop-color="#fff"/></linearGradient><mask id="mask-36" x="1732.54" y="1546.09" width="770.53" height="144.84" maskUnits="userSpaceOnUse"><g class="cls-91"><g class="cls-146"><polygon class="cls-9" points="1939.02 1690.93 1826.8 1578.85 1745.26 1660.29 1732.54 1647.58 1826.8 1553.42 1939.02 1665.51 2048.8 1555.86 2154.7 1661.64 2270.38 1546.09 2384.01 1659.58 2490.33 1553.38 2503.06 1566.09 2384.01 1685 2270.38 1571.52 2154.7 1687.06 2048.8 1581.28 1939.02 1690.93"/></g></g></mask><linearGradient id="_åçûìÿííûé_ãðàäèåíò_40" x1="1732.54" y1="1618.51" x2="2503.06" y2="1618.51" gradientTransform="matrix(1, 0, 0, 1, 0, 0)" gradientUnits="userSpaceOnUse"><stop offset="0" stop-color="#0047d6"/><stop offset=".25" stop-color="#0046d2"/><stop offset=".44" stop-color="#0044c9"/><stop offset=".61" stop-color="#0040b9"/><stop offset=".76" stop-color="#003aa2"/><stop offset=".91" stop-color="#003484"/><stop offset="1" stop-color="#002f6f"/></linearGradient><filter id="luminosity-noclip-40" x="2415.86" y="1440.53" width="316.91" height="316.53" color-interpolation-filters="sRGB" filterUnits="userSpaceOnUse"><feFlood flood-color="#fff" result="bg"/><feBlend in="SourceGraphic" in2="bg"/></filter><filter id="luminosity-noclip-41" x="2415.86" y="-9213" width="316.91" height="32766" color-interpolation-filters="sRGB" filterUnits="userSpaceOnUse"><feFlood flood-color="#fff" result="bg"/><feBlend in="SourceGraphic" in2="bg"/></filter><mask id="mask-39" x="2415.86" y="-9213" width="316.91" height="32766" maskUnits="userSpaceOnUse"/><linearGradient id="_åçûìÿííûé_ãðàäèåíò_12" x1="2415.86" y1="1598.79" x2="2732.77" y2="1598.79" gradientTransform="matrix(1, 0, 0, 1, 0, 0)" gradientUnits="userSpaceOnUse"><stop offset=".41" stop-color="#fff"/><stop offset="1" stop-color="gray"/></linearGradient><mask id="mask-38" x="2415.86" y="1440.53" width="316.91" height="316.53" maskUnits="userSpaceOnUse"><g class="cls-148"><g class="cls-97"><path class="cls-18" d="M2415.86,1598.79s19.08,43.06,67.21,91.14c48.13,48.08,91.24,67.13,91.24,67.13,0,0,48.63-25,91.03-67.35,42.4-42.35,67.43-90.92,67.43-90.92,0,0-18.44-40.66-68.63-90.79-50.18-50.12-89.83-67.48-89.83-67.48,0,0-40.71,18.27-90.63,68.12-49.91,49.85-67.83,90.14-67.83,90.14Z"/></g></g></mask><linearGradient id="_åçûìÿííûé_ãðàäèåíò_37-7" x1="2415.86" y1="1598.79" x2="2732.77" y2="1598.79" xlink:href="#_åçûìÿííûé_ãðàäèåíò_37"/><filter id="luminosity-noclip-42" x="2016.39" y="1238.57" width="570.04" height="720.45" color-interpolation-filters="sRGB" filterUnits="userSpaceOnUse"><feFlood flood-color="#fff" result="bg"/><feBlend in="SourceGraphic" in2="bg"/></filter><filter id="luminosity-noclip-43" x="2016.39" y="-9213" width="570.04" height="32766" color-interpolation-filters="sRGB" filterUnits="userSpaceOnUse"><feFlood flood-color="#fff" result="bg"/><feBlend in="SourceGraphic" in2="bg"/></filter><mask id="mask-41" x="2016.39" y="-9213" width="570.04" height="32766" maskUnits="userSpaceOnUse"/><linearGradient id="_åçûìÿííûé_ãðàäèåíò_11" x1="4324.88" y1="1432.66" x2="4324.88" y2="2002.7" gradientTransform="translate(4019.09 -2726.09) rotate(90)" gradientUnits="userSpaceOnUse"><stop offset=".41" stop-color="#fff"/><stop offset="1" stop-color="gray"/></linearGradient><mask id="mask-40" x="2016.39" y="1238.57" width="570.04" height="720.45" maskUnits="userSpaceOnUse"><g class="cls-164"><g class="cls-57"><path class="cls-20" d="M2586.43,1959.02v-112.85c-136.78,0-247.67-110.75-247.67-247.37s110.89-247.37,247.67-247.37v-112.85c-179.96,0-329.12,131.66-356.24,303.79h-213.8v112.86h213.8c27.12,172.14,176.28,303.79,356.24,303.79Z"/></g></g></mask><linearGradient id="_åçûìÿííûé_ãðàäèåíò_37-8" x1="4324.88" y1="1432.66" x2="4324.88" y2="2002.7" gradientTransform="translate(4019.09 -2726.09) rotate(90)" xlink:href="#_åçûìÿííûé_ãðàäèåíò_37"/><linearGradient id="_åçûìÿííûé_ãðàäèåíò_39" x1="7223.51" y1="-3201.94" x2="7223.51" y2="-2712.28" gradientTransform="translate(5818.1 7491.46) rotate(-90)" gradientUnits="userSpaceOnUse"><stop offset=".2" stop-color="#0047d6"/><stop offset="1" stop-color="#002f6f"/></linearGradient><linearGradient id="_åçûìÿííûé_ãðàäèåíò_38-13" x1="4531.38" y1="1817.24" x2="4634.18" y2="1817.24" gradientTransform="translate(4019.09 -2726.09) rotate(90)" xlink:href="#_åçûìÿííûé_ãðàäèåíò_38"/><linearGradient id="_åçûìÿííûé_ãðàäèåíò_38-14" x1="4541.02" y1="1963.56" x2="4624.54" y2="1963.56" gradientTransform="translate(4019.09 -2726.09) rotate(90)" xlink:href="#_åçûìÿííûé_ãðàäèåíò_38"/><linearGradient id="_åçûìÿííûé_ãðàäèåíò_38-15" x1="3402.35" y1="1778.63" x2="3465.76" y2="1778.63" gradientTransform="translate(4019.09 -2726.09) rotate(90)" xlink:href="#_åçûìÿííûé_ãðàäèåíò_38"/><linearGradient id="_åçûìÿííûé_ãðàäèåíò_38-16" x1="3410.08" y1="1933.48" x2="3458.02" y2="1933.48" gradientTransform="translate(4019.09 -2726.09) rotate(90)" xlink:href="#_åçûìÿííûé_ãðàäèåíò_38"/><filter id="luminosity-noclip-44" x="3246.18" y="1702.92" width="159.18" height="158.99" color-interpolation-filters="sRGB" filterUnits="userSpaceOnUse"><feFlood flood-color="#fff" result="bg"/><feBlend in="SourceGraphic" in2="bg"/></filter><filter id="luminosity-noclip-45" x="3246.18" y="-9213" width="159.18" height="32766" color-interpolation-filters="sRGB" filterUnits="userSpaceOnUse"><feFlood flood-color="#fff" result="bg"/><feBlend in="SourceGraphic" in2="bg"/></filter><mask id="mask-43" x="3246.18" y="-9213" width="159.18" height="32766" maskUnits="userSpaceOnUse"/><linearGradient id="_åçûìÿííûé_ãðàäèåíò_8" x1="3246.18" y1="1782.41" x2="3405.36" y2="1782.41" gradientTransform="matrix(1, 0, 0, 1, 0, 0)" gradientUnits="userSpaceOnUse"><stop offset=".41" stop-color="#fff"/><stop offset="1" stop-color="gray"/></linearGradient><mask id="mask-42" x="3246.18" y="1702.92" width="159.18" height="158.99" maskUnits="userSpaceOnUse"><g class="cls-83"><g class="cls-56"><path class="cls-23" d="M3325.77,1861.91s21.65-9.57,45.83-33.72c24.18-24.15,33.76-45.78,33.76-45.78,0,0-12.57-24.4-33.87-45.67-21.3-21.27-45.72-33.83-45.72-33.83,0,0-20.45,9.25-45.66,34.43s-33.93,45.07-33.93,45.07c0,0,9.19,20.43,34.26,45.47s45.33,34.03,45.33,34.03Z"/></g></g></mask><linearGradient id="_åçûìÿííûé_ãðàäèåíò_37-9" x1="3246.18" y1="1782.41" x2="3405.36" y2="1782.41" xlink:href="#_åçûìÿííûé_ãðàäèåíò_37"/><filter id="luminosity-noclip-46" x="3144.62" y="1776.34" width="362.31" height="264.03" color-interpolation-filters="sRGB" filterUnits="userSpaceOnUse"><feFlood flood-color="#fff" result="bg"/><feBlend in="SourceGraphic" in2="bg"/></filter><filter id="luminosity-noclip-47" x="3144.62" y="-9213" width="362.31" height="32766" color-interpolation-filters="sRGB" filterUnits="userSpaceOnUse"><feFlood flood-color="#fff" result="bg"/><feBlend in="SourceGraphic" in2="bg"/></filter><mask id="mask-45" x="3144.62" y="-9213" width="362.31" height="32766" maskUnits="userSpaceOnUse"/><linearGradient id="_åçûìÿííûé_ãðàäèåíò_7" x1="3325.77" y1="1776.34" x2="3325.77" y2="2040.37" gradientTransform="matrix(1, 0, 0, 1, 0, 0)" gradientUnits="userSpaceOnUse"><stop offset=".41" stop-color="#fff"/><stop offset="1" stop-color="gray"/></linearGradient><mask id="mask-44" x="3144.62" y="1776.34" width="362.31" height="264.03" maskUnits="userSpaceOnUse"><g class="cls-77"><g class="cls-74"><path class="cls-10" d="M3506.93,1776.34h-56.75c0,68.62-55.7,124.25-124.4,124.25s-124.4-55.63-124.4-124.25h-56.75c0,90.29,66.21,165.12,152.78,178.72v85.3h56.76v-85.3c86.57-13.6,152.78-88.44,152.78-178.72Z"/></g></g></mask><linearGradient id="_åçûìÿííûé_ãðàäèåíò_37-10" y1="1776.34" x2="3325.77" y2="2040.37" xlink:href="#_åçûìÿííûé_ãðàäèåíò_37"/><filter id="luminosity-noclip-48" x="1808.42" y="1" width="473.01" height="430.97" color-interpolation-filters="sRGB" filterUnits="userSpaceOnUse"><feFlood flood-color="#fff" result="bg"/><feBlend in="SourceGraphic" in2="bg"/></filter><filter id="luminosity-noclip-49" x="1808.42" y="-9213" width="473.01" height="32766" color-interpolation-filters="sRGB" filterUnits="userSpaceOnUse"><feFlood flood-color="#fff" result="bg"/><feBlend in="SourceGraphic" in2="bg"/></filter><mask id="mask-47" x="1808.42" y="-9213" width="473.01" height="32766" maskUnits="userSpaceOnUse"/><linearGradient id="_åçûìÿííûé_ãðàäèåíò_76" x1="2044.92" y1="431.97" x2="2044.92" y2="1" gradientTransform="matrix(1, 0, 0, 1, 0, 0)" gradientUnits="userSpaceOnUse"><stop offset="0" stop-color="#e6e6e6"/><stop offset="1" stop-color="#fff"/></linearGradient><mask id="mask-46" x="1808.42" y="1" width="473.01" height="430.97" maskUnits="userSpaceOnUse"><g class="cls-144"><g class="cls-60"><path class="cls-4" d="M2096.32,6.75c36.16,9.81,67.2,29.17,91.16,54.62-48.78,16.78-97.56,13.32-145.14-10.34-30.26-15.05-50.96-34.18-58.18-41.41,12.94-4.24,26.38-7.15,40.1-8.62h-112.95c-44.77,30.59-79.31,76.57-94.6,132.83-34.18,125.69,40.39,255.71,166.22,289.85,125.84,34.14,256.02-40.34,290.2-166.02,27.02-99.34-13.92-201.38-94.39-256.66h-113.01c10.18,1.09,20.4,2.99,30.59,5.75Zm-122.45,6.55l-1.67,1.49-2.1,.03c1.25-.52,2.5-1.03,3.77-1.52Zm-118.17,131.11c15.49-56.97,54.77-101.25,104.25-125.06-.36,52.95-20.58,98.6-60.16,135.74-19.25,18.06-38.82,29.79-50.9,36.09,.36-15.49,2.57-31.17,6.81-46.77Zm-4.84,79.23c47.34,15.54,83.37,46.59,107.22,92.39,14.21,27.28,20,52.64,22.12,64.57-70.49-24.57-119.08-86.43-129.34-156.96Zm83.8-22.73l70.02-106.8,125.16,32.88,5.85,128.47-120.66,46.79-80.38-101.33Zm72.94,187.1c31.35-41.34,74.06-65.66,127.05-72.31,27.57-3.46,51.3-1.05,64.45,1.04-44.4,56.28-117.91,85.57-191.5,71.27Zm226.54-140.92c-4.16,15.3-10.05,29.68-17.38,43-29.5-41.34-40.08-88.45-31.42-140.19,5.07-30.32,15.71-54.06,21.2-64.88,31.38,45.77,43.27,104.46,27.61,162.06Z"/></g></g></mask><linearGradient id="_åçûìÿííûé_ãðàäèåíò_22" x1="2044.92" y1="431.97" x2="2044.92" y2="1" gradientTransform="matrix(1, 0, 0, 1, 0, 0)" gradientUnits="userSpaceOnUse"><stop offset="0" stop-color="#0047d6"/><stop offset=".3" stop-color="#0040ba"/><stop offset=".94" stop-color="#003075"/><stop offset="1" stop-color="#002f6f"/></linearGradient><filter id="luminosity-noclip-50" x="2648.77" y="1608.6" width="473.01" height="430.97" color-interpolation-filters="sRGB" filterUnits="userSpaceOnUse"><feFlood flood-color="#fff" result="bg"/><feBlend in="SourceGraphic" in2="bg"/></filter><filter id="luminosity-noclip-51" x="2648.77" y="-9213" width="473.01" height="32766" color-interpolation-filters="sRGB" filterUnits="userSpaceOnUse"><feFlood flood-color="#fff" result="bg"/><feBlend in="SourceGraphic" in2="bg"/></filter><mask id="mask-49" x="2648.77" y="-9213" width="473.01" height="32766" maskUnits="userSpaceOnUse"/><linearGradient id="_åçûìÿííûé_ãðàäèåíò_75" x1="2529.65" y1="1926.3" x2="3002.67" y2="1926.3" gradientTransform="translate(5651.43 3750.38) rotate(-180)" gradientUnits="userSpaceOnUse"><stop offset="0" stop-color="#e6e6e6"/><stop offset="1" stop-color="#fff"/></linearGradient><mask id="mask-48" x="2648.77" y="1608.6" width="473.01" height="430.97" maskUnits="userSpaceOnUse"><g class="cls-82"><g class="cls-58"><path class="cls-24" d="M2833.88,2033.82c-36.16-9.81-67.2-29.17-91.16-54.62,48.78-16.78,97.56-13.32,145.14,10.34,30.26,15.05,50.96,34.18,58.18,41.41-12.94,4.24-26.38,7.15-40.1,8.62h112.95c44.77-30.59,79.31-76.57,94.6-132.83,34.18-125.69-40.39-255.71-166.22-289.85-125.84-34.14-256.02,40.34-290.2,166.02-27.02,99.34,13.92,201.38,94.39,256.66h113.01c-10.18-1.09-20.4-2.99-30.59-5.75Zm122.45-6.55l1.67-1.49,2.1-.03c-1.25,.52-2.5,1.03-3.77,1.52Zm118.17-131.11c-15.49,56.97-54.77,101.25-104.25,125.06,.36-52.95,20.58-98.6,60.16-135.74,19.25-18.06,38.82-29.79,50.9-36.09-.36,15.49-2.57,31.17-6.81,46.77Zm4.84-79.23c-47.34-15.54-83.37-46.59-107.22-92.39-14.21-27.28-20-52.64-22.12-64.57,70.49,24.57,119.08,86.43,129.34,156.96Zm-83.8,22.73l-70.02,106.8-125.16-32.88-5.85-128.47,120.66-46.79,80.38,101.33Zm-72.94-187.1c-31.35,41.34-74.06,65.66-127.05,72.31-27.57,3.46-51.3,1.05-64.45-1.04,44.4-56.28,117.91-85.57,191.5-71.27Zm-226.54,140.92c4.16-15.3,10.05-29.68,17.38-43,29.5,41.34,40.08,88.45,31.42,140.19-5.07,30.33-15.71,54.06-21.2,64.88-31.38-45.77-43.27-104.46-27.61-162.06Z"/></g></g></mask><linearGradient id="_åçûìÿííûé_ãðàäèåíò_22-2" x1="2529.65" y1="1926.3" x2="3002.67" y2="1926.3" gradientTransform="translate(5651.43 3750.38) rotate(-180)" xlink:href="#_åçûìÿííûé_ãðàäèåíò_22"/><filter id="luminosity-noclip-52" y="1713.29" width="358.84" height="327.38" color-interpolation-filters="sRGB" filterUnits="userSpaceOnUse"><feFlood flood-color="#fff" result="bg"/><feBlend in="SourceGraphic" in2="bg"/></filter><filter id="luminosity-noclip-53" y="-9213" width="358.84" height="32766" color-interpolation-filters="sRGB" filterUnits="userSpaceOnUse"><feFlood flood-color="#fff" result="bg"/><feBlend in="SourceGraphic" in2="bg"/></filter><mask id="mask-51" y="-9213" width="358.84" height="32766" maskUnits="userSpaceOnUse"/><linearGradient id="_åçûìÿííûé_ãðàäèåíò_74" x1="179.42" y1="2040.67" x2="179.42" y2="1713.29" gradientTransform="matrix(1, 0, 0, 1, 0, 0)" gradientUnits="userSpaceOnUse"><stop offset="0" stop-color="#e6e6e6"/><stop offset="1" stop-color="#fff"/></linearGradient><mask id="mask-50" y="1713.29" width="358.84" height="327.38" maskUnits="userSpaceOnUse"><g class="cls-132"><g class="cls-167"><path class="cls-26" d="M187.42,1721.43c-66.32-17.99-133.86-5.27-187.42,29.46v49.51c27.81-24.15,62.24-40.11,99.09-45.46-15.29,46.45-45.82,81.8-90.86,105.19-2.77,1.44-5.51,2.78-8.22,4.05v130.9c4.01,12.08,6.87,24.85,8.56,38.29,.31,2.47,.57,4.9,.79,7.3H249.07c-2.86-32.93,3.73-65.68,19.78-97.86,14.8-29.69,33.62-49.99,40.73-57.09,11.31,34.47,13.03,72.49,2.82,110.04-4.37,16.06-10.68,31.08-18.58,44.91h44.5c4.96-11,9.12-22.52,12.39-34.52,33.58-123.46-39.67-251.19-163.28-284.72Zm6.73,307.22l-126.34,5.74-46.02-118.38,99.66-78.86,105.04,68.7-32.34,122.8Zm111.81-153.03l-1.46-1.64-.03-2.06c.51,1.23,1.01,2.46,1.49,3.69Zm-139.44-72.69c-17.76-18.89-29.3-38.09-35.5-49.93,15.23,.35,30.65,2.52,46,6.68,56.03,15.2,99.57,53.74,122.99,102.28-52.08-.35-96.97-20.19-133.5-59.03Z"/></g></g></mask><linearGradient id="_åçûìÿííûé_ãðàäèåíò_22-3" x1="179.42" y1="2040.67" x2="179.42" y2="1713.29" xlink:href="#_åçûìÿííûé_ãðàäèåíò_22"/></defs><rect class="cls-59" x="1007.49" y="-1007.49" width="2040.67" height="4055.65" transform="translate(3048.16 -1007.49) rotate(90)"/><g class="cls-104"><path class="cls-49" d="M1132.08,357.33v50.26h50.32s-12.81-5.68-28.66-21.51c-15.85-15.83-21.66-28.74-21.66-28.74Z"/><path class="cls-49" d="M1182.4,307.07h-50.32v50.26s5.52-12.57,21.45-28.49c15.94-15.92,28.86-21.77,28.86-21.77Z"/><path class="cls-49" d="M1182.4,307.07s15.44,7.94,28.91,21.39c13.46,13.45,21.41,28.87,21.41,28.87v-50.26h-50.32Z"/><path class="cls-49" d="M1182.4,407.58h50.32v-50.26s-6.06,13.67-21.34,28.94c-15.28,15.27-28.97,21.32-28.97,21.32Z"/></g><g class="cls-104"><path class="cls-49" d="M429.46,620.79v75.49h75.58s-19.24-8.54-43.05-32.31c-23.81-23.78-32.53-43.18-32.53-43.18Z"/><path class="cls-49" d="M505.04,545.3h-75.58v75.49s8.29-18.89,32.22-42.79c23.94-23.91,43.36-32.7,43.36-32.7Z"/><path class="cls-49" d="M505.04,545.3s23.19,11.92,43.42,32.12c20.22,20.2,32.16,43.37,32.16,43.37v-75.49h-75.58Z"/><path class="cls-49" d="M505.04,696.28h75.58v-75.49s-9.1,20.54-32.06,43.47c-22.96,22.93-43.52,32.02-43.52,32.02Z"/></g><polygon class="cls-126" points="707.87 518.2 659.29 469.68 718.15 410.89 660.57 353.39 716.11 297.91 655.44 237.3 715.03 177.78 658.4 121.22 663.35 116.27 724.93 177.78 665.34 237.3 726.01 297.91 670.47 353.39 728.05 410.89 669.19 469.68 712.82 513.26 707.87 518.2"/><polygon class="cls-126" points="1371.36 287.98 1340.37 257.03 1376.78 220.66 1341.16 185.09 1375.52 150.77 1337.99 113.29 1374.85 76.47 1340.77 42.42 1345.72 37.48 1384.75 76.47 1347.89 113.29 1385.42 150.77 1351.06 185.09 1386.68 220.66 1350.27 257.03 1376.31 283.04 1371.36 287.98"/><g><polygon class="cls-126" points="410.44 249.51 415.25 264.47 523.61 184.54 511.06 175.29 410.44 249.51"/><polygon class="cls-126" points="548.05 202.54 536.95 194.37 420.36 280.38 424.61 293.59 548.05 202.54"/><polygon class="cls-126" points="494.01 316.74 550.52 275.05 557.78 252.78 470.82 316.93 494.01 316.74"/><polygon class="cls-126" points="497.72 165.46 484.71 155.87 400.32 218.05 405.33 233.61 497.72 165.46"/><polygon class="cls-126" points="520.97 316.52 537.05 316.39 542.09 300.95 520.97 316.52"/><polygon class="cls-126" points="566.21 226.89 569.09 218.05 561.39 212.37 429.72 309.49 432.21 317.24 443.85 317.14 566.21 226.89"/></g><g><polygon class="cls-126" points="1211.43 763.41 1217.1 781.05 1344.86 686.81 1330.06 675.9 1211.43 763.41"/><polygon class="cls-126" points="1373.67 708.03 1360.59 698.4 1223.13 799.8 1228.14 815.38 1373.67 708.03"/><polygon class="cls-126" points="1309.96 842.67 1376.59 793.52 1385.14 767.26 1282.61 842.89 1309.96 842.67"/><polygon class="cls-126" points="1314.33 664.31 1298.99 653.01 1199.5 726.31 1205.4 744.66 1314.33 664.31"/><polygon class="cls-126" points="1341.74 842.42 1360.71 842.26 1366.64 824.05 1341.74 842.42"/><polygon class="cls-126" points="1395.09 736.73 1398.48 726.31 1389.4 719.62 1234.17 834.13 1237.1 843.26 1250.83 843.15 1395.09 736.73"/></g><g class="cls-117"><polygon class="cls-39" points="3084.98 903.43 3093.7 930.56 3290.22 785.6 3267.45 768.83 3084.98 903.43"/><polygon class="cls-51" points="3334.52 818.25 3314.41 803.43 3102.97 959.4 3110.68 983.37 3334.52 818.25"/><polygon class="cls-130" points="3236.52 1025.35 3339.01 949.75 3352.17 909.36 3194.47 1025.69 3236.52 1025.35"/><polygon class="cls-131" points="3243.25 751 3219.66 733.62 3066.63 846.37 3075.7 874.6 3243.25 751"/><polygon class="cls-62" points="3285.42 1024.95 3314.59 1024.72 3323.72 996.7 3285.42 1024.95"/><polygon class="cls-150" points="3367.47 862.4 3372.69 846.37 3358.72 836.08 3119.95 1012.21 3124.46 1026.25 3145.57 1026.08 3367.47 862.4"/></g><g><polygon class="cls-126" points="1499.18 131.77 1501.7 139.59 1558.36 97.79 1551.79 92.96 1499.18 131.77"/><polygon class="cls-126" points="1571.13 107.21 1565.33 102.93 1504.37 147.9 1506.59 154.81 1571.13 107.21"/><polygon class="cls-126" points="1542.88 166.92 1572.43 145.12 1576.22 133.47 1530.75 167.01 1542.88 166.92"/><polygon class="cls-126" points="1544.82 87.82 1538.01 82.8 1493.89 115.31 1496.51 123.45 1544.82 87.82"/><polygon class="cls-126" points="1556.97 166.8 1565.39 166.74 1568.02 158.66 1556.97 166.8"/><polygon class="cls-126" points="1580.63 119.93 1582.14 115.31 1578.11 112.35 1509.26 163.13 1510.57 167.18 1516.65 167.13 1580.63 119.93"/></g><g class="cls-101"><path class="cls-33" d="M1544.82,635.84s42.35-18.72,89.63-65.94c47.28-47.23,66.02-89.52,66.02-89.52,0,0-24.59-47.71-66.23-89.31-41.65-41.6-89.42-66.15-89.42-66.15,0,0-39.99,18.1-89.29,67.33-49.3,49.24-66.36,88.13-66.36,88.13,0,0,17.97,39.94,67,88.91,49.03,48.97,88.65,66.55,88.65,66.55Z"/><path class="cls-65" d="M1899.09,468.5h-110.99c0,134.2-108.92,242.99-243.29,242.99s-243.29-108.79-243.29-242.99h-110.99c0,176.56,129.48,322.91,298.77,349.51v209.76h111v-209.76c169.29-26.61,298.77-172.95,298.77-349.51Z"/></g><path class="cls-48" d="M289.66,311.7s16.1,36.33,56.71,76.9c40.61,40.57,76.99,56.64,76.99,56.64,0,0,41.03-21.09,76.81-56.83,35.78-35.73,56.89-76.71,56.89-76.71,0,0-15.56-34.31-57.91-76.6-42.34-42.29-75.79-56.94-75.79-56.94,0,0-34.35,15.41-76.47,57.48-42.12,42.06-57.23,76.06-57.23,76.06Z"/><polygon class="cls-135" points="710.88 839.08 679.7 807.93 710.88 776.79 742.06 807.93 710.88 839.08"/><polygon class="cls-157" points="710.88 983.4 687.3 959.85 710.88 936.3 734.45 959.85 710.88 983.4"/><g class="cls-86"><g class="cls-152"><path class="cls-90" d="M3935.24,533.15c-123.61-33.54-251.49,39.62-285.06,163.08-33.58,123.46,39.67,251.19,163.28,284.72,91.86,24.92,186.08-9.08,242.2-78.87v-80.15c-24.49,68.41-84.97,115.51-153.87,125.51,15.29-46.45,45.82-81.8,90.86-105.19,26.46-13.75,51.07-19.47,63.01-21.62v-33.17c-35.93-30.1-57.23-69.87-63.34-118.46-3.4-27.05-1.03-50.33,1.03-63.23,28.62,22.52,50.15,52.69,62.31,86.55v-80.2c-29.7-37.18-71.04-65.6-120.41-78.99Zm-10.4,38.26c15.05,4.08,29.19,9.86,42.29,17.06-40.66,28.95-86.99,39.32-137.87,30.83-29.82-4.98-53.17-15.41-63.8-20.8,45.01-30.79,102.73-42.45,159.38-27.09Zm-236.36,135.22c9.65-35.47,28.69-65.93,53.71-89.44,16.5,47.86,13.1,95.72-10.17,142.4-14.8,29.69-33.62,49.99-40.73,57.09-11.31-34.47-13.03-72.49-2.82-110.04Zm6.44,120.14l1.46,1.64,.03,2.06c-.51-1.23-1.01-2.46-1.49-3.69Zm128.94,115.94c-56.03-15.2-99.57-53.74-122.99-102.28,52.08,.35,96.97,20.19,133.5,59.03,17.76,18.89,29.3,38.09,35.5,49.93-15.23-.35-30.65-2.52-46-6.68Zm55.57-77.46l-105.04-68.7,32.34-122.8,126.34-5.74,46.02,118.38-99.66,78.86Z"/></g></g><g class="cls-63"><path class="cls-50" d="M128.88,264.09H0v95.23H128.88c11.72,74.41,50.47,139.85,105.9,185.99h194.69v-24.87c-115.42,0-208.98-93.45-208.98-208.73s93.56-208.73,208.98-208.73V7.75c-151.85,0-277.71,111.09-300.59,256.34Z"/></g><g class="cls-128"><path class="cls-34" d="M3459.47,295.58s-36.38,16.08-76.99,56.64c-40.61,40.57-56.71,76.9-56.71,76.9,0,0,21.12,40.98,56.89,76.71,35.78,35.73,76.81,56.83,76.81,56.83,0,0,34.35-15.54,76.7-57.84,42.34-42.29,57.01-75.7,57.01-75.7,0,0-15.43-34.31-57.55-76.38-42.12-42.06-76.15-57.16-76.15-57.16Z"/></g><g class="cls-138"><g class="cls-124"><path class="cls-37" d="M3507.14,145.97V1.38h-95.34V145.97c-74.5,11.71-140.02,50.41-186.21,105.77v194.46h24.9c0-115.28,93.56-208.73,208.98-208.73s208.98,93.45,208.98,208.73h95.34c0-151.67-111.22-277.38-256.64-300.23Z"/></g></g><g class="cls-104"><path class="cls-49" d="M1154.89,1762.53v-76.67h-76.76s19.54,8.67,43.72,32.82c24.18,24.15,33.04,43.85,33.04,43.85Z"/><path class="cls-49" d="M1078.13,1839.2h76.76v-76.67s-8.42,19.18-32.73,43.46c-24.31,24.28-44.03,33.21-44.03,33.21Z"/><path class="cls-49" d="M1078.13,1839.2s-23.56-12.11-44.1-32.63c-20.54-20.52-32.67-44.05-32.67-44.05v76.67h76.76Z"/><path class="cls-49" d="M1078.13,1685.86h-76.76v76.67s9.24-20.86,32.56-44.15,44.2-32.52,44.2-32.52Z"/></g><g class="cls-104"><path class="cls-49" d="M1569.81,1390.99v-59.14h-59.21s15.07,6.69,33.73,25.32c18.65,18.63,25.49,33.83,25.49,33.83Z"/><path class="cls-49" d="M1510.59,1450.13h59.21v-59.14s-6.49,14.8-25.25,33.53c-18.75,18.73-33.97,25.61-33.97,25.61Z"/><path class="cls-49" d="M1510.59,1450.13s-18.17-9.34-34.02-25.17c-15.84-15.83-25.2-33.98-25.2-33.98v59.14h59.21Z"/><path class="cls-49" d="M1510.59,1331.85h-59.21v59.14s7.13-16.09,25.12-34.06,34.1-25.09,34.1-25.09Z"/></g><polygon class="cls-126" points="1310.76 1407.34 1371.73 1468.24 1297.85 1542.04 1370.13 1614.22 1300.4 1683.86 1376.57 1759.94 1301.76 1834.65 1372.85 1905.65 1366.63 1911.86 1289.34 1834.65 1364.14 1759.94 1287.98 1683.86 1357.7 1614.22 1285.43 1542.04 1359.31 1468.24 1304.54 1413.54 1310.76 1407.34"/><polygon class="cls-126" points="799.85 1727.59 830.84 1758.54 794.43 1794.91 830.05 1830.48 795.69 1864.8 833.22 1902.29 796.36 1939.11 830.44 1973.15 825.49 1978.09 786.46 1939.11 823.32 1902.29 785.79 1864.8 820.15 1830.48 784.53 1794.91 820.94 1758.54 794.9 1732.53 799.85 1727.59"/><g><polygon class="cls-126" points="1621.57 1778.62 1616.76 1763.66 1508.39 1843.59 1520.95 1852.84 1621.57 1778.62"/><polygon class="cls-126" points="1483.96 1825.59 1495.05 1833.76 1611.64 1747.76 1607.39 1734.54 1483.96 1825.59"/><polygon class="cls-126" points="1538 1711.39 1481.48 1753.08 1474.23 1775.35 1561.19 1711.21 1538 1711.39"/><polygon class="cls-126" points="1534.29 1862.67 1547.3 1872.26 1631.68 1810.09 1626.68 1794.52 1534.29 1862.67"/><polygon class="cls-126" points="1511.04 1711.61 1494.95 1711.74 1489.92 1727.19 1511.04 1711.61"/><polygon class="cls-126" points="1465.8 1801.25 1462.92 1810.09 1470.62 1815.76 1602.28 1718.64 1599.79 1710.89 1588.15 1710.99 1465.8 1801.25"/></g><g><polygon class="cls-126" points="838.16 1261.65 831.35 1240.47 677.93 1353.64 695.7 1366.74 838.16 1261.65"/><polygon class="cls-126" points="643.34 1328.16 659.04 1339.73 824.12 1217.96 818.1 1199.24 643.34 1328.16"/><polygon class="cls-126" points="719.85 1166.47 639.83 1225.49 629.56 1257.03 752.68 1166.21 719.85 1166.47"/><polygon class="cls-126" points="714.59 1380.66 733.01 1394.23 852.49 1306.2 845.4 1284.16 714.59 1380.66"/><polygon class="cls-126" points="681.67 1166.78 658.9 1166.96 651.77 1188.83 681.67 1166.78"/><polygon class="cls-126" points="617.62 1293.69 613.54 1306.2 624.45 1314.24 810.86 1176.73 807.34 1165.77 790.86 1165.9 617.62 1293.69"/></g><g><polygon class="cls-126" points="532.83 1896.37 530.31 1888.54 473.65 1930.34 480.21 1935.18 532.83 1896.37"/><polygon class="cls-126" points="460.87 1920.93 466.67 1925.2 527.64 1880.23 525.42 1873.32 460.87 1920.93"/><polygon class="cls-126" points="489.13 1861.22 459.58 1883.01 455.79 1894.66 501.26 1861.12 489.13 1861.22"/><polygon class="cls-126" points="487.19 1940.32 493.99 1945.33 538.12 1912.82 535.5 1904.68 487.19 1940.32"/><polygon class="cls-126" points="475.03 1861.33 466.62 1861.4 463.99 1869.47 475.03 1861.33"/><polygon class="cls-126" points="451.38 1908.2 449.87 1912.82 453.9 1915.79 522.74 1865 521.44 1860.96 515.35 1861 451.38 1908.2"/></g><g class="cls-101"><path class="cls-33" d="M567.14,1480.75s-51.9,22.94-109.86,80.82c-57.95,57.88-80.92,109.73-80.92,109.73,0,0,30.13,58.48,81.18,109.46,51.05,50.99,109.59,81.08,109.59,81.08,0,0,49.02-22.18,109.44-82.53,60.42-60.35,81.34-108.02,81.34-108.02,0,0-22.02-48.96-82.12-108.98-60.09-60.02-108.66-81.57-108.66-81.57Z"/><path class="cls-69" d="M132.92,1685.86h136.03c0-164.49,133.5-297.83,298.19-297.83s298.19,133.34,298.19,297.83h136.03c0-216.41-158.7-395.78-366.2-428.39v-257.1h-136.04v257.1c-207.5,32.61-366.2,211.98-366.2,428.39Z"/></g><g class="cls-45"><path class="cls-29" d="M1742.34,1716.43s-16.1-36.33-56.71-76.9c-40.61-40.57-76.99-56.64-76.99-56.64,0,0-41.03,21.09-76.81,56.83-35.78,35.73-56.89,76.71-56.89,76.71,0,0,15.56,34.31,57.91,76.6,42.34,42.29,75.79,56.94,75.79,56.94,0,0,34.35-15.41,76.47-57.48,42.12-42.06,57.23-76.06,57.23-76.06Z"/></g><polygon class="cls-147" points="1280.06 1148.04 1248.88 1179.18 1217.7 1148.04 1248.88 1116.89 1280.06 1148.04"/><polygon class="cls-42" points="1424.56 1148.04 1400.98 1171.59 1377.41 1148.04 1400.98 1124.49 1424.56 1148.04"/><g class="cls-98"><g class="cls-159"><path class="cls-30" d="M1903.13,1764.05h144.76v-95.23h-144.76c-11.72-74.41-50.47-139.85-105.9-185.99h-194.69v24.87c115.42,0,208.98,93.45,208.98,208.73s-93.56,208.73-208.98,208.73v95.22c151.85,0,277.71-111.09,300.59-256.34Z"/></g></g><g><polygon class="cls-145" points="163.1 878.98 115.34 831.27 163.1 783.56 210.87 831.27 163.1 878.98"/><polygon class="cls-41" points="163.1 1005.69 124.3 966.93 163.1 928.17 201.91 966.93 163.1 1005.69"/><polygon class="cls-137" points="163.1 1135.61 133.64 1106.18 163.1 1076.75 192.57 1106.18 163.1 1135.61"/><polygon class="cls-80" points="163.1 1271.98 140.82 1249.73 163.1 1227.48 185.38 1249.73 163.1 1271.98"/></g><g><polygon class="cls-47" points="3931.32 176.12 3883.56 128.41 3931.32 80.7 3979.09 128.41 3931.32 176.12"/><polygon class="cls-139" points="3931.32 302.83 3892.52 264.07 3931.32 225.31 3970.13 264.07 3931.32 302.83"/><polygon class="cls-103" points="3931.32 432.75 3901.86 403.32 3931.32 373.89 3960.78 403.32 3931.32 432.75"/><polygon class="cls-140" points="3931.32 569.12 3909.04 546.87 3931.32 524.62 3953.6 546.87 3931.32 569.12"/></g><path class="cls-68" d="M1761.96,943.51c-99.74,8.1-174.28,95.74-166.17,195.36,8.11,99.62,95.86,174.07,195.6,165.97,99.74-8.1,174.28-95.74,166.17-195.36-8.11-99.62-95.86-174.07-195.59-165.97Zm147.52,110.03c-38.23,1.1-72.33-11.94-101.49-38.79-17.37-15.99-28.17-32.79-32.81-40.85,57.29-.61,108.5,31.4,134.31,79.64Zm-220.57,192.62c-34.59-24.87-58.48-64.14-62.2-109.79-.99-12.13-.49-24.04,1.33-35.57,32.08,22.16,52,53.42,59.25,93.01,4.25,23.21,2.77,43.11,1.62,52.35Zm-55.08-169.19c17.36-52.18,62.79-92.45,119.64-101.28-11.85,38-36.33,66.67-72.85,85.26-19,9.67-36.76,14.11-46.79,16.02Zm136.64-37.44l84.45,52.23-22.68,95.31-98.92,8.84-37.74-91.21,74.89-65.17Zm18.41,234.45c-28.66,2.33-56.12-3.57-80.05-15.7,30.83-24.8,66.95-35.01,107.46-30.31,25.77,2.99,45.7,11.41,52.8,14.75-22.36,17.45-49.88,28.79-80.21,31.26Zm86.68-36.59l.82-1.51,1.51-.57c-.77,.7-1.54,1.39-2.32,2.08Zm8.47-7.99c-13.55-38.32-10.87-76.53,8.02-113.64,9.18-18.05,20.25-31.61,27.32-39.3,3.78,11.27,6.28,23.17,7.28,35.54,3.68,45.15-13.12,87.33-42.62,117.4Z"/><g><g class="cls-142"><path class="cls-38" d="M1043.98,640.88s-69.04,30.51-146.13,107.51c-77.09,76.99-107.64,145.95-107.64,145.95,0,0,40.08,77.78,107.99,145.6,67.9,67.82,145.78,107.86,145.78,107.86,0,0,65.2-29.5,145.57-109.78,80.37-80.27,108.2-143.68,108.2-143.68,0,0-29.29-65.12-109.23-144.96-79.93-79.84-144.54-108.5-144.54-108.5Z"/></g><g class="cls-143"><path class="cls-70" d="M466.39,913.71h180.95c0-218.8,177.58-396.17,396.64-396.17s396.64,177.37,396.64,396.17h180.95c0-287.86-211.1-526.46-487.11-569.83V1.88h-180.96V343.87c-276.01,43.38-487.11,281.97-487.11,569.83Z"/></g></g><g class="cls-72"><g class="cls-114"><path class="cls-36" d="M2521.78,1058.68s-32.52-73.41-114.59-155.38c-82.07-81.97-155.57-114.45-155.57-114.45,0,0-82.91,42.62-155.2,114.82-72.29,72.2-114.96,155.01-114.96,155.01,0,0,31.45,69.33,117.01,154.79,85.56,85.46,153.15,115.05,153.15,115.05,0,0,69.42-31.15,154.51-116.15,85.1-85,115.65-153.69,115.65-153.69Z"/></g><g class="cls-153"><path class="cls-64" d="M2230.98,444.51v192.41c233.21,0,422.27,188.83,422.27,421.76s-189.06,421.76-422.27,421.76v192.41c306.83,0,561.14-224.47,607.38-517.96h364.52v-192.42h-364.52c-46.23-293.49-300.55-517.96-607.38-517.96Z"/></g></g><g class="cls-72"><g class="cls-129"><path class="cls-31" d="M3654.48,1489.86s59.71-26.39,126.38-92.98c66.67-66.59,93.09-126.23,93.09-126.23,0,0-34.67-67.27-93.39-125.93-58.73-58.66-126.08-93.28-126.08-93.28,0,0-56.39,25.52-125.9,94.94-69.51,69.43-93.58,124.27-93.58,124.27,0,0,25.33,56.32,94.47,125.37,69.13,69.05,125.01,93.84,125.01,93.84Z"/></g><g class="cls-46"><path class="cls-73" d="M4055.65,1253.9h-58.13c0,189.23-153.59,342.63-343.04,342.63s-343.04-153.4-343.04-342.63h-156.49c0,248.96,182.57,455.32,421.28,492.83v292.63h156.51v-292.63c131.88-20.73,246.63-92.99,322.92-195.5v-297.33Z"/></g></g><g class="cls-86"><path class="cls-49" d="M2699.73,1136.24h-51.22v51.16s5.79-13.02,21.93-29.14c16.14-16.12,29.3-22.02,29.3-22.02Z"/><path class="cls-49" d="M2750.96,1187.4v-51.16h-51.22s12.82,5.61,29.04,21.81c16.22,16.2,22.19,29.35,22.19,29.35Z"/><path class="cls-49" d="M2750.96,1187.4s-8.09,15.7-21.8,29.39-29.43,21.77-29.43,21.77h51.22v-51.16Z"/><path class="cls-49" d="M2648.51,1187.4v51.16h51.22s-13.94-6.16-29.5-21.7c-15.56-15.54-21.73-29.46-21.73-29.46Z"/></g><g class="cls-86"><path class="cls-49" d="M2415.52,414.37h-76.94v76.85s8.7-19.56,32.94-43.77c24.24-24.21,44.01-33.08,44.01-33.08Z"/><path class="cls-49" d="M2492.46,491.22v-76.85h-76.94s19.25,8.43,43.62,32.77c24.37,24.34,33.32,44.08,33.32,44.08Z"/><path class="cls-49" d="M2492.46,491.22s-12.15,23.58-32.74,44.15c-20.59,20.56-44.2,32.7-44.2,32.7h76.94v-76.85Z"/><path class="cls-49" d="M2338.58,491.22v76.85h76.94s-20.93-9.25-44.31-32.6c-23.37-23.35-32.64-44.25-32.64-44.25Z"/></g><g class="cls-35"><g class="cls-162"><path class="cls-40" d="M3178.52,536.34h-43.24v43.18s4.89-10.99,18.51-24.6c13.62-13.6,24.73-18.59,24.73-18.59Z"/></g><g class="cls-88"><path class="cls-96" d="M3221.76,579.52v-43.18h-43.24s10.82,4.74,24.51,18.41c13.69,13.68,18.73,24.77,18.73,24.77Z"/></g><g class="cls-89"><path class="cls-107" d="M3221.76,579.52s-6.83,13.25-18.4,24.81c-11.57,11.56-24.84,18.38-24.84,18.38h43.24v-43.18Z"/></g><g class="cls-75"><path class="cls-84" d="M3135.28,579.52v43.18h43.24s-11.76-5.2-24.9-18.32c-13.13-13.12-18.34-24.87-18.34-24.87Z"/></g></g><polygon class="cls-126" points="2645.14 730.27 2585.22 670.43 2543.23 712.36 2533.33 702.48 2585.22 650.65 2645.14 710.5 2703.75 651.95 2760.3 708.43 2822.07 646.74 2882.74 707.34 2937.96 652.18 2947.86 662.07 2882.74 727.11 2822.07 666.51 2760.3 728.21 2703.75 671.73 2645.14 730.27"/><polygon class="cls-126" points="2839.03 1399.97 2801.96 1362.95 2777.88 1387.01 2767.98 1377.12 2801.96 1343.18 2839.03 1380.2 2875.29 1343.98 2910.26 1378.92 2948.47 1340.76 2986 1378.24 3018.27 1346.01 3028.17 1355.9 2986 1398.01 2948.47 1360.53 2910.26 1398.69 2875.29 1363.76 2839.03 1399.97"/><g class="cls-72"><g class="cls-105"><polygon class="cls-55" points="1939.02 1690.93 1826.8 1578.85 1745.26 1660.29 1732.54 1647.58 1826.8 1553.42 1939.02 1665.51 2048.8 1555.86 2154.7 1661.64 2270.38 1546.09 2384.01 1659.58 2490.33 1553.38 2503.06 1566.09 2384.01 1685 2270.38 1571.52 2154.7 1687.06 2048.8 1581.28 1939.02 1690.93"/></g></g><g><polygon class="cls-126" points="2809.62 402.48 2794.37 407.37 2875.85 517.55 2885.27 504.79 2809.62 402.48"/><polygon class="cls-126" points="2857.5 542.4 2865.83 531.12 2778.17 412.57 2764.69 416.89 2857.5 542.4"/><polygon class="cls-126" points="2741.1 487.45 2783.59 544.91 2806.29 552.29 2740.91 463.87 2741.1 487.45"/><polygon class="cls-126" points="2895.29 491.22 2905.06 477.99 2841.7 392.19 2825.83 397.28 2895.29 491.22"/><polygon class="cls-126" points="2741.32 514.86 2741.46 531.22 2757.2 536.34 2741.32 514.86"/><polygon class="cls-126" points="2832.69 560.87 2841.7 563.79 2847.48 555.96 2748.49 422.08 2740.6 424.62 2740.69 436.45 2832.69 560.87"/></g><g><polygon class="cls-126" points="2275.78 1159.45 2246.2 1168.94 2404.27 1382.71 2422.56 1357.95 2275.78 1159.45"/><polygon class="cls-126" points="2368.67 1430.91 2384.83 1409.03 2214.76 1179.03 2188.62 1187.41 2368.67 1430.91"/><polygon class="cls-126" points="2142.85 1324.31 2225.28 1435.8 2269.32 1450.11 2142.48 1278.56 2142.85 1324.31"/><polygon class="cls-126" points="2441.99 1331.63 2460.95 1305.96 2338.01 1139.49 2307.23 1149.37 2441.99 1331.63"/><polygon class="cls-126" points="2143.27 1377.5 2143.53 1409.23 2174.08 1419.16 2143.27 1377.5"/><polygon class="cls-126" points="2320.53 1466.75 2338.01 1472.43 2349.23 1457.23 2157.17 1197.5 2141.86 1202.41 2142.05 1225.37 2320.53 1466.75"/></g><g><polygon class="cls-126" points="2929.64 1509.51 2921.66 1512.07 2964.26 1569.68 2969.19 1563.01 2929.64 1509.51"/><polygon class="cls-126" points="2954.67 1582.67 2959.03 1576.78 2913.19 1514.79 2906.15 1517.05 2954.67 1582.67"/><polygon class="cls-126" points="2893.81 1553.94 2916.03 1583.99 2927.9 1587.85 2893.71 1541.61 2893.81 1553.94"/><polygon class="cls-126" points="2974.43 1555.92 2979.54 1549 2946.41 1504.14 2938.11 1506.8 2974.43 1555.92"/><polygon class="cls-126" points="2893.93 1568.28 2893.99 1576.83 2902.23 1579.51 2893.93 1568.28"/><polygon class="cls-126" points="2941.7 1592.33 2946.41 1593.86 2949.43 1589.77 2897.67 1519.77 2893.54 1521.09 2893.59 1527.28 2941.7 1592.33"/></g><g class="cls-72"><g class="cls-116"><path class="cls-28" d="M2415.86,1598.79s19.08,43.06,67.21,91.14c48.13,48.08,91.24,67.13,91.24,67.13,0,0,48.63-25,91.03-67.35,42.4-42.35,67.43-90.92,67.43-90.92,0,0-18.44-40.66-68.63-90.79-50.18-50.12-89.83-67.48-89.83-67.48,0,0-40.71,18.27-90.63,68.12-49.91,49.85-67.83,90.14-67.83,90.14Z"/></g><g class="cls-113"><path class="cls-71" d="M2586.43,1959.02v-112.85c-136.78,0-247.67-110.75-247.67-247.37s110.89-247.37,247.67-247.37v-112.85c-179.96,0-329.12,131.66-356.24,303.79h-213.8v112.86h213.8c27.12,172.14,176.28,303.79,356.24,303.79Z"/></g></g><g class="cls-100"><path class="cls-33" d="M2762.67,225.47s-16.39-36.99-57.73-78.28c-41.35-41.3-78.38-57.66-78.38-57.66,0,0-41.77,21.47-78.19,57.85-36.42,36.38-57.92,78.1-57.92,78.1,0,0,15.84,34.93,58.95,77.98,43.11,43.06,77.16,57.96,77.16,57.96,0,0,34.97-15.69,77.85-58.52,42.87-42.82,58.26-77.43,58.26-77.43Z"/><path class="cls-66" d="M2616.16,1V12.98c117.5,0,212.75,95.14,212.75,212.49s-95.25,212.49-212.75,212.49v96.94c154.59,0,282.71-113.09,306.01-260.96h183.65v-96.95h-183.65c-10.83-68.75-44.32-129.98-92.61-175.83l-213.4-.17Z"/></g><polygon class="cls-110" points="2150.4 1856.69 2201.86 1805.29 2253.32 1856.69 2201.86 1908.09 2150.4 1856.69"/><polygon class="cls-123" points="2013.72 1856.69 2055.53 1814.93 2097.34 1856.69 2055.53 1898.45 2013.72 1856.69"/><polygon class="cls-109" points="2208.72 707.96 2240.46 676.26 2272.2 707.96 2240.46 739.67 2208.72 707.96"/><polygon class="cls-108" points="2061.62 707.96 2085.62 683.99 2109.62 707.96 2085.62 731.94 2061.62 707.96"/><g class="cls-1"><g class="cls-141"><path class="cls-32" d="M3325.77,1861.91s21.65-9.57,45.83-33.72c24.18-24.15,33.76-45.78,33.76-45.78,0,0-12.57-24.4-33.87-45.67-21.3-21.27-45.72-33.83-45.72-33.83,0,0-20.45,9.25-45.66,34.43s-33.93,45.07-33.93,45.07c0,0,9.19,20.43,34.26,45.47s45.33,34.03,45.33,34.03Z"/></g><g class="cls-119"><path class="cls-67" d="M3506.93,1776.34h-56.75c0,68.62-55.7,124.25-124.4,124.25s-124.4-55.63-124.4-124.25h-56.75c0,90.29,66.21,165.12,152.78,178.72v85.3h56.76v-85.3c86.57-13.6,152.78-88.44,152.78-178.72Z"/></g></g><g class="cls-86"><g class="cls-52"><path class="cls-120" d="M2096.32,6.75c36.16,9.81,67.2,29.17,91.16,54.62-48.78,16.78-97.56,13.32-145.14-10.34-30.26-15.05-50.96-34.18-58.18-41.41,12.94-4.24,26.38-7.15,40.1-8.62h-112.95c-44.77,30.59-79.31,76.57-94.6,132.83-34.18,125.69,40.39,255.71,166.22,289.85,125.84,34.14,256.02-40.34,290.2-166.02,27.02-99.34-13.92-201.38-94.39-256.66h-113.01c10.18,1.09,20.4,2.99,30.59,5.75Zm-122.45,6.55l-1.67,1.49-2.1,.03c1.25-.52,2.5-1.03,3.77-1.52Zm-118.17,131.11c15.49-56.97,54.77-101.25,104.25-125.06-.36,52.95-20.58,98.6-60.16,135.74-19.25,18.06-38.82,29.79-50.9,36.09,.36-15.49,2.57-31.17,6.81-46.77Zm-4.84,79.23c47.34,15.54,83.37,46.59,107.22,92.39,14.21,27.28,20,52.64,22.12,64.57-70.49-24.57-119.08-86.43-129.34-156.96Zm83.8-22.73l70.02-106.8,125.16,32.88,5.85,128.47-120.66,46.79-80.38-101.33Zm72.94,187.1c31.35-41.34,74.06-65.66,127.05-72.31,27.57-3.46,51.3-1.05,64.45,1.04-44.4,56.28-117.91,85.57-191.5,71.27Zm226.54-140.92c-4.16,15.3-10.05,29.68-17.38,43-29.5-41.34-40.08-88.45-31.42-140.19,5.07-30.32,15.71-54.06,21.2-64.88,31.38,45.77,43.27,104.46,27.61,162.06Z"/></g></g><g class="cls-86"><g class="cls-94"><path class="cls-93" d="M2833.88,2033.82c-36.16-9.81-67.2-29.17-91.16-54.62,48.78-16.78,97.56-13.32,145.14,10.34,30.26,15.05,50.96,34.18,58.18,41.41-12.94,4.24-26.38,7.15-40.1,8.62h112.95c44.77-30.59,79.31-76.57,94.6-132.83,34.18-125.69-40.39-255.71-166.22-289.85-125.84-34.14-256.02,40.34-290.2,166.02-27.02,99.34,13.92,201.38,94.39,256.66h113.01c-10.18-1.09-20.4-2.99-30.59-5.75Zm122.45-6.55l1.67-1.49,2.1-.03c-1.25,.52-2.5,1.03-3.77,1.52Zm118.17-131.11c-15.49,56.97-54.77,101.25-104.25,125.06,.36-52.95,20.58-98.6,60.16-135.74,19.25-18.06,38.82-29.79,50.9-36.09-.36,15.49-2.57,31.17-6.81,46.77Zm4.84-79.23c-47.34-15.54-83.37-46.59-107.22-92.39-14.21-27.28-20-52.64-22.12-64.57,70.49,24.57,119.08,86.43,129.34,156.96Zm-83.8,22.73l-70.02,106.8-125.16-32.88-5.85-128.47,120.66-46.79,80.38,101.33Zm-72.94-187.1c-31.35,41.34-74.06,65.66-127.05,72.31-27.57,3.46-51.3,1.05-64.45-1.04,44.4-56.28,117.91-85.57,191.5-71.27Zm-226.54,140.92c4.16-15.3,10.05-29.68,17.38-43,29.5,41.34,40.08,88.45,31.42,140.19-5.07,30.33-15.71,54.06-21.2,64.88-31.38-45.77-43.27-104.46-27.61-162.06Z"/></g></g><g class="cls-86"><g class="cls-165"><path class="cls-87" d="M187.42,1721.43c-66.32-17.99-133.86-5.27-187.42,29.46v49.51c27.81-24.15,62.24-40.11,99.09-45.46-15.29,46.45-45.82,81.8-90.86,105.19-2.77,1.44-5.51,2.78-8.22,4.05v130.9c4.01,12.08,6.87,24.85,8.56,38.29,.31,2.47,.57,4.9,.79,7.3H249.07c-2.86-32.93,3.73-65.68,19.78-97.86,14.8-29.69,33.62-49.99,40.73-57.09,11.31,34.47,13.03,72.49,2.82,110.04-4.37,16.06-10.68,31.08-18.58,44.91h44.5c4.96-11,9.12-22.52,12.39-34.52,33.58-123.46-39.67-251.19-163.28-284.72Zm6.73,307.22l-126.34,5.74-46.02-118.38,99.66-78.86,105.04,68.7-32.34,122.8Zm111.81-153.03l-1.46-1.64-.03-2.06c.51,1.23,1.01,2.46,1.49,3.69Zm-139.44-72.69c-17.76-18.89-29.3-38.09-35.5-49.93,15.23,.35,30.65,2.52,46,6.68,56.03,15.2,99.57,53.74,122.99,102.28-52.08-.35-96.97-20.19-133.5-59.03Z"/></g></g></svg>