<?xml version="1.0" encoding="UTF-8"?><svg id="Button-R" xmlns="http://www.w3.org/2000/svg" xmlns:xlink="http://www.w3.org/1999/xlink" viewBox="0 0 200.37 66.82"><defs><style>.cls-1{fill:#fff5cb;}.cls-1,.cls-2,.cls-3{fill-rule:evenodd;}.cls-4{clip-path:url(#clippath);}.cls-5{fill:none;}.cls-2{fill:#ffe786;}.cls-3{fill:#fffae8;}</style><clipPath id="clippath"><rect class="cls-5" x="0" y=".24" width="200.37" height="66.57"/></clipPath></defs><g class="cls-4"><g><path class="cls-2" d="M158.52,2.16h0c35.26,0,22.24,18.55,36.36,31.37-14.12,12.82-1.09,31.37-36.36,31.37H41.85c-35.27,0-22.24-18.55-36.36-31.37C19.61,20.71,6.59,2.16,41.85,2.16h116.67Z"/><path class="cls-3" d="M12.43,31.07c1.36,0,2.46,1.1,2.46,2.46s-1.1,2.46-2.46,2.46-2.46-1.1-2.46-2.46,1.1-2.46,2.46-2.46h0"/><path class="cls-3" d="M187.94,31.07c-1.36,0-2.46,1.1-2.46,2.46,0,1.36,1.1,2.46,2.46,2.46,1.36,0,2.46-1.1,2.46-2.46h0c0-1.36-1.1-2.46-2.46-2.46"/><path class="cls-1" d="M158.52,66.82c25.61,0,28.5-8.23,31.89-18.67,1.88-5.5,5.23-10.37,9.68-14.1,.28-.19,.36-.57,.18-.85-.05-.07-.11-.14-.19-.18-4.45-3.73-7.79-8.6-9.67-14.09C187.21,9.05,184.28,0,158.52,.24H41.85C16.09,0,13.16,9.05,9.96,18.91c-1.88,5.49-5.22,10.36-9.67,14.09-.29,.18-.38,.56-.2,.85,.05,.08,.11,.14,.18,.19,4.45,3.73,7.8,8.61,9.68,14.1,3.38,10.44,6.28,18.67,31.89,18.67h116.68Zm0-64.66h0c35.26,0,22.24,18.55,36.36,31.37-14.12,12.82-1.09,31.37-36.36,31.37H41.85c-35.27,0-22.24-18.55-36.36-31.37C19.61,20.71,6.59,2.16,41.85,2.16h116.67Z"/></g></g></svg>