<?xml version="1.0" encoding="UTF-8"?><svg xmlns="http://www.w3.org/2000/svg" xmlns:xlink="http://www.w3.org/1999/xlink" viewBox="0 0 50 50"><defs><style>.cls-1{fill:url(#linear-gradient-2);}.cls-2{fill:#fff;}.cls-3{opacity:0;}.cls-4{fill:url(#linear-gradient-3);}.cls-5{fill:url(#linear-gradient);}</style><linearGradient id="linear-gradient" x1="25" y1="0" x2="25" y2="49.97" gradientTransform="matrix(1, 0, 0, 1, 0, 0)" gradientUnits="userSpaceOnUse"><stop offset="0" stop-color="#f2d8b0"/><stop offset="1" stop-color="#baa277"/></linearGradient><linearGradient id="linear-gradient-2" x1="11.02" y1="26.48" x2="11.02" y2="50" xlink:href="#linear-gradient"/><linearGradient id="linear-gradient-3" x1="38.97" y1="26.5" x2="38.97" y2="50" xlink:href="#linear-gradient"/></defs><g id="Bounding_Box" class="cls-3"><rect class="cls-2" x=".16" y="0" width="49.67" height="49.67"/></g><g id="Layer_2"><g><path class="cls-5" d="M22.09,49.97V11.73l.74-.03c-.1-.25-.17-.47-.27-.68-.75-1.74-1.47-3.49-2.26-5.22-.26-.57-.62-1.12-1.03-1.59-1.55-1.79-4.61-1.73-6.28,.13-1.25,1.39-1.55,3.01-.82,4.71,.74,1.72,2.14,2.61,4.02,2.67,.96,.03,1.92,0,2.91,0v11.82h-.43c-4.67,0-9.34,0-14.02,0-1.87,0-3.36-.76-4.18-2.5-.28-.58-.43-1.27-.46-1.92-.05-1.22-.01-2.44,.07-3.65,.12-1.78,1.86-3.56,3.63-3.64,2.03-.1,4.06-.08,6.1-.1,.16,0,.32,0,.51,0-.3-.57-.61-1.08-.85-1.61C7.56,5.79,10.56,.59,15.26,.08c1.91-.21,3.7,.07,5.25,1.28,.97,.75,1.7,1.71,2.23,2.81,.73,1.52,1.38,3.07,2.07,4.61,.06,.13,.11,.25,.2,.45,.48-1.15,.88-2.24,1.39-3.28,.55-1.12,1.13-2.24,1.84-3.25C29.67,.62,31.78-.15,34.22,.02c3.46,.24,6.05,2.55,6.75,5.94,.37,1.78,.02,3.45-.9,5.01-.12,.21-.26,.41-.38,.62,0,.01,0,.03,0,.09,.15,0,.3,.02,.45,.02,1.76,0,3.52-.01,5.27,0,1.51,.02,2.78,.56,3.71,1.79,.59,.78,.86,1.68,.87,2.64,.01,1.23,0,2.47-.09,3.7-.12,1.7-1.89,3.44-3.6,3.59-.63,.06-1.26,.09-1.9,.09-4.3,0-8.6,0-12.89,0h-.62V11.71c.97,0,1.94,.02,2.91,0,1.71-.05,3.02-.82,3.85-2.32,1.55-2.81-.47-6.32-3.67-6.46-1.67-.07-2.92,.57-3.79,2-1.3,2.12-2.04,4.47-3.03,6.77l.74,.04V49.97h-5.81Z"/><path class="cls-1" d="M2.96,26.48H19.11v23.5c-.16,0-.32,.02-.48,.02-3.68,0-7.35,0-11.03,0-1.06,0-2.05-.25-2.92-.91-1.17-.89-1.74-2.1-1.75-3.53-.02-6.3,0-12.59,0-18.89,0-.05,.01-.09,.03-.19Z"/><path class="cls-4" d="M30.87,49.98V26.5h16.18c0,.12,.03,.26,.03,.4,0,6.15,0,12.3,0,18.45,0,2.2-1.24,3.85-3.36,4.46-.4,.11-.83,.18-1.25,.18-3.78,.01-7.55,0-11.33,0-.08,0-.16-.01-.27-.02Z"/></g></g></svg>