<?xml version="1.0" encoding="UTF-8"?><svg id="Layer_1" xmlns="http://www.w3.org/2000/svg" xmlns:xlink="http://www.w3.org/1999/xlink" viewBox="0 0 42.14 49.95"><defs><style>.cls-1{fill:url(#linear-gradient-2);}.cls-2{fill:url(#linear-gradient-3);}.cls-3{fill:url(#linear-gradient);}.cls-4{fill:url(#linear-gradient-4);}</style><linearGradient id="linear-gradient" x1="21.1" y1="19.21" x2="21.04" y2="49.99" gradientTransform="matrix(1, 0, 0, 1, 0, 0)" gradientUnits="userSpaceOnUse"><stop offset="0" stop-color="#f2d8b0"/><stop offset="1" stop-color="#baa277"/></linearGradient><linearGradient id="linear-gradient-2" x1="9.46" y1="2.62" x2="9.46" y2="15.01" gradientTransform="matrix(1, 0, 0, 1, 0, 0)" gradientUnits="userSpaceOnUse"><stop offset="0" stop-color="#f2d8b0"/><stop offset=".91" stop-color="#f0d6ae"/><stop offset="1" stop-color="#efd5ad"/><stop offset="1" stop-color="#ebd1a9"/><stop offset="1" stop-color="#e1c79e"/><stop offset="1" stop-color="#cfb68d"/><stop offset="1" stop-color="#baa277"/></linearGradient><linearGradient id="linear-gradient-3" x1="32.68" y1="2.59" x2="32.68" y2="15.01" gradientTransform="matrix(1, 0, 0, 1, 0, 0)" gradientUnits="userSpaceOnUse"><stop offset="1" stop-color="#f2d8b0"/><stop offset="1" stop-color="#f0d6ae"/><stop offset="1" stop-color="#e9cfa7"/><stop offset="1" stop-color="#ddc49b"/><stop offset="1" stop-color="#cdb48a"/><stop offset="1" stop-color="#baa277"/></linearGradient><linearGradient id="linear-gradient-4" x1="21.08" y1="0" x2="21.08" y2="13.05" gradientTransform="matrix(1, 0, 0, 1, 0, 0)" gradientUnits="userSpaceOnUse"><stop offset="1" stop-color="#f2d8b0"/><stop offset="1" stop-color="#f0d6ae"/><stop offset="1" stop-color="#e9cfa7"/><stop offset="1" stop-color="#ddc49b"/><stop offset="1" stop-color="#cdb48a"/><stop offset="1" stop-color="#baa277"/></linearGradient></defs><path class="cls-3" d="M21.11,49.95c-6.19,0-12.37,0-18.56,0-1.01,0-1.85-.3-2.27-1.3-.14-.34-.2-.73-.2-1.1-.02-3.55-.02-7.1-.02-10.65,0-.47,0-.95-.04-1.42-.07-.94,.16-1.83,.56-2.66,1.92-4.03,3.88-8.05,5.78-12.09,.51-1.09,1.35-1.49,2.47-1.49,4.65,0,9.29,0,13.94,0,3.32,0,6.64,0,9.96-.01,.26,0,.52,0,.78,.02,1.13,.05,1.9,.6,2.38,1.61,.93,1.97,1.87,3.93,2.8,5.89,.99,2.08,1.97,4.17,2.97,6.25,.31,.65,.47,1.31,.47,2.03-.02,4.16-.02,8.31-.04,12.47,0,1.58-.85,2.42-2.44,2.42-6.19,0-12.37,0-18.56,0h0Zm0-17.93c4.76,0,9.52,0,14.29,0,.72,0,.77-.08,.47-.72-1-2.1-2.04-4.17-2.99-6.3-.39-.88-.93-1.19-1.88-1.18-6.74,.04-13.48,.03-20.23,.03-.56,0-.92,.19-1.17,.7-1.08,2.24-2.18,4.47-3.27,6.7-.33,.68-.28,.77,.5,.77,4.76,0,9.52,0,14.29,0Z"/><path class="cls-1" d="M10.93,15.01c-.79-.02-1.51-.49-1.9-1.37-.58-1.3-1.12-2.61-1.67-3.92-.54-1.28-1.08-2.56-1.61-3.85-.53-1.3-.03-2.55,1.19-3.06,1.21-.51,2.49,0,3.03,1.28,.89,2.07,1.74,4.16,2.6,6.25,.24,.57,.47,1.15,.67,1.74,.5,1.46-.59,2.95-2.32,2.94Z"/><path class="cls-2" d="M31.12,15.01c-1.58,.01-2.82-1.51-2.2-3.01,.82-2.01,1.65-4.02,2.48-6.03,.29-.69,.58-1.39,.9-2.07,.47-1,1.97-1.58,2.98-1.18,1.01,.4,1.65,1.81,1.21,2.89-1.06,2.62-2.17,5.22-3.28,7.83-.12,.28-.31,.54-.49,.79-.39,.55-.93,.8-1.6,.79Z"/><path class="cls-4" d="M23.34,6.56c0,1.41,.04,2.82,0,4.22-.05,1.65-1.5,2.66-2.99,2.13-.85-.3-1.35-.92-1.45-1.81-.07-.62-.08-1.24-.09-1.86-.01-2.21-.04-4.42,0-6.63,.01-.55,.17-1.15,.43-1.62,.45-.8,1.45-1.14,2.3-.92,1.02,.25,1.67,.96,1.77,1.98,.05,.59,.04,1.18,.05,1.77,0,.92,0,1.83,0,2.75h-.03Z"/></svg>