<?xml version="1.0" encoding="UTF-8"?><svg xmlns="http://www.w3.org/2000/svg" xmlns:xlink="http://www.w3.org/1999/xlink" viewBox="0 0 50 50"><defs><style>.cls-1{fill:#fff;}.cls-2{opacity:0;}.cls-3{fill:url(#linear-gradient);}</style><linearGradient id="linear-gradient" x1="25" y1="2.61" x2="25" y2="47.39" gradientTransform="matrix(1, 0, 0, 1, 0, 0)" gradientUnits="userSpaceOnUse"><stop offset="0" stop-color="#f2d8b0"/><stop offset="1" stop-color="#baa277"/></linearGradient></defs><g id="Bounding_Box" class="cls-2"><rect class="cls-1" x=".16" y="0" width="49.67" height="49.67"/></g><g id="Layer_1"><path class="cls-3" d="M6.86,16.08c-.58-.1-1.13-.17-1.66-.3C2.29,15.08,.06,12.13,.17,9.17c.12-3.2,2.44-5.9,5.51-6.4,.6-.1,1.22-.16,1.83-.16,8.52,0,17.04,0,25.56,0,2.66,0,4.75,1.04,6.14,3.35,.69,1.14,.88,2.4,.88,3.72,0,7.87,0,15.75,0,23.62v.69c.47,0,.88-.02,1.29,0,1.17,.06,2.37,0,3.51,.25,2.6,.55,4.52,2.88,4.88,5.51,.48,3.52-1.82,6.91-5.47,7.53-.48,.08-.96,.11-1.45,.11-9.67,0-19.34,0-29.01,0-3.46,0-6.1-2.06-6.84-5.34-.11-.48-.15-.99-.15-1.49,0-7.97,0-15.94,0-23.92v-.56ZM27.52,6.2c-.07-.01-.1-.03-.13-.03-6.9,0-13.8-.02-20.71,0-2.17,0-3.6,2.47-2.62,4.43,.65,1.29,1.78,1.78,3.14,1.79,6.64,.02,13.29,0,19.93,0,.12,0,.25-.02,.38-.03-1.06-3.27-.77-3.84,0-6.18ZM11.03,22.43h24.32v-3.51H11.03v3.51Zm24.33,3.58H11.04v3.52h24.32v-3.52Zm-24.33,10.68h24.32v-3.53H11.03v3.53Zm29.13,.85c0,1.11-.05,2.17,.01,3.23,.1,1.71,1.48,2.97,3.12,2.95,1.62-.02,2.97-1.31,3.06-2.92,.09-1.64-1.07-3.1-2.74-3.25-1.12-.1-2.26-.02-3.45-.02Z"/></g></svg>