<svg id="WC_2022_Logo" xmlns="http://www.w3.org/2000/svg" width="1920" height="540.7"><defs><clipPath id="clippath"><path class="cls-65" d="M1650.1 156.7c-10.4 7.3-15.2 14.7-24.9 22.4-18.7 14.8-37.5 33.9-39.2 52.7-1.3 14.3 5.8 30 22 40l7.5 4.6-3.5-6.3c-3.8-6.8-5.4-14.6-4.7-21.9 1.5-17.4 12.7-36.2 28.8-50.5 4-3.6 8.2-7.1 12.5-10.6 3.1 2.9 6.1 5.8 9 8.8 22 22.2 31.1 57.2 6 81.2 32.6-10.9 39.6-31 39.7-46.2-.7-21.1-11.6-42.1-31.6-58.5-6.2-5.1-12.4-10.2-17.8-15.6l-1.4-1.4c-.7.3-1.3.7-2 1l-.5.3z"/></clipPath><clipPath id="clippath-1"><path class="cls-65" d="M1574 177.1c-.9.7-1.7 1.3-2.6 2 17.5-20.8 33.1-32.1 59-52.6 18.7-14.8 37.5-33.9 39.2-52.7 1.3-14.3-5.8-30-22-40l-7.5-4.6 3.5 6.3c3.8 6.8 5.4 14.6 4.7 21.9-1.9 21.6-26 43.7-47.2 61.1-3-2.9-6.1-5.8-9-8.8-19.2-19.5-28.6-48.7-13.8-71.9-23.3 17.5-26.8 44-25 65 5.8 11.3 14.3 21.8 24.6 30.3.9.7 1.7 1.4 2.6 2.2-35.8 25.8-55.1 62.8-54.1 97.4 10.6-19.7 28.2-38.5 47.6-55.6z"/></clipPath><clipPath id="clippath-2"><path class="cls-65" d="M1851.6 156.7c-10.4 7.3-15.2 14.7-24.9 22.4-18.7 14.8-37.5 33.9-39.2 52.7-1.3 14.3 5.8 30 22 40l7.5 4.6-3.5-6.3c-3.8-6.8-5.4-14.6-4.7-21.9 1.5-17.4 12.7-36.2 28.8-50.5 4-3.6 8.2-7.1 12.5-10.6 3.1 2.9 6.1 5.8 9 8.8 22 22.2 31.1 57.2 6 81.2 32.6-10.9 39.6-31 39.7-46.2-.7-21.1-11.6-42.1-31.6-58.5-6.2-5.1-12.4-10.2-17.8-15.6l-1.4-1.4c-.7.3-1.3.7-2 1l-.5.3z"/></clipPath><clipPath id="clippath-3"><path class="cls-65" d="M1775.5 177.1c-.9.7-1.7 1.3-2.6 2 17.5-20.8 33.1-32.1 59-52.6 18.7-14.8 37.5-33.9 39.2-52.7 1.3-14.3-5.8-30-22-40l-7.5-4.6 3.5 6.3c3.8 6.8 5.4 14.6 4.7 21.9-1.9 21.6-26 43.7-47.2 61.1-3-2.9-6.1-5.8-9-8.8-19.2-19.5-28.6-48.7-13.8-71.9-23.3 17.5-26.8 44-25 65 5.8 11.3 14.3 21.8 24.6 30.3.9.7 1.7 1.4 2.6 2.2-35.8 25.8-55.1 62.8-54.1 97.4 10.6-19.7 28.2-38.5 47.6-55.6z"/></clipPath><style>.cls-1{fill:#acaeb0}.cls-2{fill:#9b9da0}.cls-3{fill:#949699}.cls-4{fill:#a8aaad}.cls-5{fill:#bcbebf}.cls-6{fill:#b6b8ba}.cls-7,.cls-8{fill:#fff}.cls-9{fill:#9d9fa2}.cls-10{fill:#9c9ea1}.cls-11{fill:#8a8c8f}.cls-12{fill:#9ea0a3}.cls-13{fill:#a7a9ac}.cls-14{fill:#abadb0}.cls-15{fill:#96989b}.cls-16{fill:#939598}.cls-17{fill:#c7c9ca}.cls-8{fill-rule:evenodd}.cls-18{fill:#95979a}.cls-19{fill:#ced0d1}.cls-21{fill:#b8babb}.cls-22{fill:#a1a3a6}.cls-23{fill:#aeb0b3}.cls-24{fill:#929497}.cls-25{fill:#b2b4b5}.cls-26{fill:#cdcfd0}.cls-27{fill:#c4c6c7}.cls-28{fill:#9fa1a4}.cls-29{fill:#a6a8ab}.cls-30{fill:#b1b3b6}.cls-31{fill:#afb1b4}.cls-32{fill:#cfd1d2}.cls-33{fill:#c0c2c3}.cls-34{fill:#999b9e}.cls-35{fill:#888a8d}.cls-36{fill:#8b8d90}.cls-37{fill:#b0b2b3}.cls-38{fill:#bdbfc0}.cls-40{fill:#bfc1c2}.cls-41{fill:#d0d2d3}.cls-42{fill:#bec0c1}.cls-43{fill:#9a9c9f}.cls-44{fill:#b1b3b4}.cls-45{fill:#8f9194}.cls-46{fill:#acaeb1}.cls-47{fill:#c2c4c5}.cls-48{fill:#8c8e91}.cls-49{fill:#b2b4b7}.cls-50{fill:#a9abae}.cls-51{fill:#919396}.cls-52{fill:#8d8f92}.cls-53{fill:#b4b6b9}.cls-54{fill:#a3a5a8}.cls-55{fill:#b3b5b8}.cls-56{fill:#a0a2a5}.cls-57{fill:#898b8e}.cls-58{fill:#8e9093}.cls-59{fill:#aeb0b1}.cls-60{fill:#c9cbcc}.cls-61{fill:#c1c3c4}.cls-62{fill:#cbcdce}.cls-63{fill:#adafb2}.cls-65{clip-rule:evenodd;fill:none}.cls-66{fill:#a5a7aa}.cls-67{fill:#b7b9ba}.cls-68{fill:#989a9d}.cls-69{fill:#b3b5b6}.cls-70{fill:#bbbdbe}.cls-71{fill:#c8cacb}.cls-72{fill:#b5b7b8}.cls-74{fill:#97999c}.cls-75{fill:#d1d3d4}.cls-76{fill:#b9bbbc}.cls-77{fill:#b0b2b5}.cls-78{fill:#cccecf}.cls-79{fill:#b5b7ba}.cls-80{fill:#cacccd}.cls-81{fill:#b4b6b7}.cls-82{fill:#c3c5c6}.cls-83{fill:#c5c7c8}.cls-84{fill:#909295}.cls-85{fill:#b6b8b9}.cls-86{fill:#c6c8c9}.cls-87{fill:#a2a4a7}.cls-88{fill:#babcbd}.cls-89{fill:#afb1b2}.cls-90{fill:#a4a6a9}.cls-91{fill:#aaacaf}</style></defs><g id="LeParadise"><path class="cls-7" d="M371.4 142.7H268.9l-4.2 41.7 105.4.9-.6 18.9c-3.2 7.5-12.6 26.3-31 40.4-.2.2-.5.4-.7.6-28.7 23.8-79.8 18.1-79.8 18.1-.2-1.2-.5-2.6-.7-4.2-2.2-14.7-3.3-47.2-3.7-59 0-2.8-.1-4.4-.1-4.4l-47.5 1.5.5 17.4h4.9l6 79.7s17.3 9.5 59.4 7.3c31-.8 84.5-8.9 117.2-51.9 17.8 21.8 43.9 34.4 67.8 41.6h-.3c36 10.7 58.9 9.9 58.9 9.9l203.2.5 3.6-40.8H644l.8-13.9 80.4-.5 3.1-28.1h-81.9l.6-9.6 70.7-.2 1.7-25.8h-.1l1.2-23h-1l.2-4.1 1.1-1.1 1-19.2 9.9-.4 2.6-52.8h-24.1l2.3-16.8h-38.9l-2.3 16.8h-24.5l1.8-16.8h-38.9l-2.3 16.8h-25.7l1.8-16.2h-38.8l-2.4 16.2h-19.6v1l-2.7 53h8.9l-2.4 53.1-.4 8.3h-.6l-.8 11.4h7.6l.2-.2 75.8-.2-.5 9.5H519l-3.2 29.4 90.6-.6-.7 13.6h-87.8c-3 0-7.4-.2-12.9-.7-52.8-5.4-76.6-33.1-86.7-51.7l.8-23 99.2.8 4.5-43.8H420.7l1.3-35.8 89.6-.3 3.1-35.5-252.8-2.3-4.6 38.7 115.4-.4-1.1 35.6zm178.7-29.9 153.3.5-.9 19.7H548.8l1.3-20.2zm11.7 70.6 1.1-23.2h127.5l-1.1 23-127.6.2z"/><path class="cls-7" d="M145.2 213v.7l-1.8 20.3c-3.9 9.4-13.6 18.6-36.4 19.4l-1 45.6s84.8-6.2 87.7-53.9v-.1l2.5-29 3.3-37.8 57.5-.4 5.1-40h-59l4.4-50.8-51.2.7-4.4 50.1H88.4L92.7 80c77.4 2.1 163.9-15 163.9-15l-7-35.7C216.9 43.9 52.9 48.7 52.9 48.7l-.2 2.9v1.8h-.1l-6.2 84.3H29.7l-4.6 41.6 123.1-.9-3 34.3zm13.2 0h1.8-1.8z"/><path class="cls-7" d="M36.1 288c.9-.1 1.8-.4 2.8-.6 5.3-1.2 14.8-4.7 20.1-14.5 0-.1.1-.2.2-.4 1.2-1.8 2.3-3.8 3.3-6l40.9-79H57.7l-22.3 43.9-8.4 16.9c-1.9 2.9-4.5 5.4-8 5.8H3.9l-2.2 34h34.4z"/></g><g id="World_Cup"><g id="_"><path class="cls-7" d="M908.7 517.1c-5.6 1.4-11.7 2.7-18.3 3.9-6.7 1.2-14.8 1.8-24.5 1.8s-19.1-1.3-28.7-3.9c-9.6-2.6-18.1-6.7-25.5-12.5-7.4-5.7-13.3-13.3-17.7-22.6-4.4-9.3-6-20.8-5.1-34.3.9-12.4 3.7-23.3 8.4-32.6 4.7-9.4 11-17.1 18.7-23.4 7.7-6.2 16.7-10.8 27-13.9 10.2-3.1 21.2-4.6 33-4.6s14.5.7 21.3 2.1c6.9 1.4 13.7 3.2 20.5 5.2l-5.2 30.9c-5.9-3.4-11.8-6-17.8-7.6-6-1.6-12.2-2.5-18.8-2.5s-13 1.2-18.7 3.5c-5.6 2.3-10.5 5.5-14.7 9.6-4.2 4.1-7.5 9-10 14.7-2.5 5.6-4 11.8-4.4 18.5-.5 7 .3 13.2 2.3 18.8 2 5.6 4.9 10.3 8.8 14.2 3.9 3.9 8.7 6.9 14.4 8.9 5.7 2 12.1 3.1 19 3.1s12.5-.7 18.8-2.2c6.2-1.4 12-3.2 17.3-5.2l-.3 29.9z" id="path26"/></g><g id="_-2"><path class="cls-7" d="M1049.4 466.2c-.7 9.8-2.8 18.3-6.3 25.4-3.5 7.1-8.2 13-14 17.6-5.9 4.7-12.7 8.1-20.6 10.3-7.9 2.3-16.5 3.4-25.7 3.4s-17.7-1.1-25.3-3.4c-7.5-2.2-13.9-5.7-19.1-10.3-5.2-4.6-9-10.5-11.5-17.6-2.5-7.1-3.4-15.6-2.7-25.4l6.2-88.6h38.1l-5.8 82.3c-.3 4.8-.3 9.2.2 13.4.4 4.2 1.5 7.8 3.1 11.1 1.6 3.2 3.9 5.7 6.9 7.6 3 1.9 7 2.8 11.9 2.8s9-.9 12.3-2.8c3.3-1.8 5.9-4.4 8-7.6 2-3.2 3.6-6.9 4.7-11.1 1-4.2 1.7-8.6 2.1-13.4l5.8-82.3h38.1l-6.2 88.6z" id="path30"/></g><g id="_-3"><path class="cls-7" d="M1108.1 443.4h9.8c3.3 0 6.4-.3 9.3-.9 2.9-.6 5.5-1.7 7.7-3.3 2.2-1.6 4-3.6 5.5-6.2 1.4-2.5 2.2-5.6 2.5-9.3.3-3.7-.1-6.8-1.2-9.2-1.1-2.5-2.6-4.4-4.6-6-2-1.5-4.4-2.6-7.2-3.2-2.8-.6-5.9-.9-9.2-.9h-9.8l-2.7 38.9zm-33.5-65.9h45.4c22 0 37.9 3.8 47.7 11.4 9.8 7.6 14.2 19.4 13.1 35.5-1 14.5-6.8 25.8-17.3 33.9-10.6 8.1-24.8 12.2-42.6 12.2h-14.7l-3.5 49.9h-38.1l10-142.9z" id="path34"/></g><g id="_-4"><path class="cls-7" d="M0 377.5h38.9l10.8 109.7h.4L77 377.5h48.3l12.4 109.7h.4l26.3-109.7h37.1l-41.9 142.9h-48.9L98.1 410.7h-.4L71.2 520.4H21.7L0 377.5z" id="path38"/></g><g id="_-5"><path class="cls-7" d="M237.2 449c-.4 5.9-.2 11.6.7 17.1.8 5.5 2.4 10.4 4.7 14.6 2.3 4.2 5.4 7.6 9.3 10.1 3.9 2.5 8.7 3.8 14.5 3.8s10.7-1.3 15-3.8c4.3-2.5 7.8-5.9 10.7-10.1 2.9-4.2 5.2-9.1 6.8-14.6 1.6-5.5 2.6-11.2 3-17.1.4-6.1.2-12-.6-17.5s-2.4-10.4-4.7-14.6c-2.3-4.1-5.4-7.5-9.3-9.9-3.9-2.5-8.8-3.7-14.5-3.7s-10.7 1.2-15 3.7c-4.3 2.5-7.9 5.8-10.7 9.9-2.9 4.2-5.1 9-6.7 14.6-1.6 5.5-2.6 11.4-3.1 17.5m-39.3 0c.8-11.5 3.1-21.8 6.8-30.9 3.7-9.1 8.8-16.9 15.2-23.2 6.4-6.3 14.3-11.2 23.4-14.6 9.2-3.4 19.6-5.1 31.4-5.1s21.9 1.7 30.6 5.1c8.7 3.4 15.8 8.3 21.4 14.6 5.6 6.3 9.6 14.1 12 23.2 2.4 9.1 3.2 19.4 2.4 30.9-.8 11.3-3 21.6-6.7 30.7-3.7 9.2-8.9 16.9-15.4 23.3-6.5 6.4-14.4 11.3-23.6 14.7-9.2 3.4-19.6 5.1-31.1 5.1s-21.9-1.7-30.6-5.1c-8.6-3.4-15.7-8.3-21.4-14.7-5.6-6.4-9.7-14.2-12.1-23.3-2.4-9.2-3.3-19.4-2.5-30.7" id="path42"/></g><g id="_-6"><path class="cls-7" d="M394.4 436.9h10c3 0 6.2-.1 9.5-.3 3.4-.2 6.4-.8 9.2-1.9 2.7-1.1 5.1-2.7 7-4.9 1.9-2.2 3-5.3 3.3-9.4.2-3.3-.4-6-1.8-8.1-1.4-2.1-3.3-3.7-5.8-4.8-2.5-1.1-5.3-1.8-8.7-2.2-3.3-.4-6.8-.6-10.5-.6h-10l-2.3 32.3zm-33.9-59.4h68c6.3 0 12.2.7 17.7 2.1 5.5 1.4 10.3 3.7 14.3 6.7s7.1 6.7 9.1 11.2c2.1 4.5 2.9 9.8 2.5 16-.7 9.5-3.5 17.4-8.4 23.6-4.9 6.1-12.1 10.3-21.5 12.5v.4c2.9.8 5.2 2.1 7 3.9 1.7 1.8 3.2 4 4.3 6.6 1.2 2.7 2.2 5.7 3.1 9.2.9 3.5 2.1 7.4 3.6 11.8l11.2 38.9h-39.7l-6.4-25.8c-1.5-6.2-2.9-11.2-4.4-15.2-1.4-3.9-3.1-7.1-4.9-9.4-1.8-2.3-4-3.9-6.4-4.8-2.5-.9-5.4-1.3-9-1.3h-8l-3.9 56.5h-38.1l10-142.9z" id="path46"/></g><g id="_-7"><path class="cls-7" d="M497.6 377.5h38.1l-8 114.6h59l-2 28.2h-97l10-142.9z" id="path50"/></g><g id="_-8"><path class="cls-7" d="M638 492.2h14.7c14.3 0 25.6-3.6 33.7-10.9 8.1-7.2 12.7-18 13.7-32.3 1-14.3-2.2-25.1-9.4-32.3-7.3-7.2-17.9-10.9-32-10.9H644l-6 86.4zm-30.1-114.6h52c12.4 0 23.8 1.1 34 3.3 10.2 2.2 18.9 6 25.9 11.4s12.4 12.7 15.9 21.8c3.5 9.1 4.8 20.6 3.9 34.4-.9 13.4-3.9 24.6-8.7 33.8-4.9 9.2-11.2 16.5-19.2 22.2-7.9 5.7-17.1 9.7-27.7 12.3-10.5 2.5-21.9 3.8-34 3.8h-52l10-142.9z" id="path54"/></g></g><g id="_022"><path class="cls-7" d="M1915.1 405.2c2.6-37.1-21.6-59.6-67.6-59.6s-44.5 5.4-56.3 10.9c-7.1 9.2-10.9 19.8-16.1 36.5 17.8-6.8 35-12.2 60.4-12.2s36 8.7 34.3 32.5c-1.8 25.7-19.1 44.4-109.6 94.8-.4 5.4-.9 16.3.6 29.8h143.5c4.9-12.2 8.4-23 10.6-35.2h-122.2c62.5-20.9 118.4-42.7 122.2-97.5M1502.2 345.7c-54.1 0-97.1 32.5-100.8 85.3-4.8 69.1 58.7 109.7 87.1 109.7s97.6-40.6 102.5-109.7c3.7-52.8-34.6-85.3-88.8-85.3zm-12.5 178.8c-12.2 0-48.4-24.7-43.8-90.7 2.3-32.5 22.7-52.8 53.8-52.8s48.7 20.3 46.4 52.8c-4.6 66.1-44.3 90.7-56.5 90.7z"/><path class="cls-7" d="M1497.6 419.5c-9.9 6.8-18.6 14.6-26.4 23.7 6.5 9 14.1 16.9 23.1 23.7 9.9-6.8 18.6-14.6 26.5-23.7-6.6-9-14.1-16.9-23.1-23.7M1747.2 405.2c2.6-37.1-21.6-59.6-67.6-59.6s-44.5 5.4-56.3 10.9c-7.1 9.2-10.9 19.8-16.1 36.5 17.8-6.8 35-12.2 60.5-12.2s36 8.7 34.3 32.5c-1.8 25.7-19.1 44.4-109.6 94.8-.4 5.4-.9 16.3.6 29.8h143.6c4.9-12.2 8.4-23 10.6-35.2H1625c62.5-20.9 118.4-42.7 122.2-97.5M1381.5 405.2c2.6-37.1-21.5-59.6-67.6-59.6s-44.5 5.4-56.3 10.9c-7.2 9.2-10.9 19.8-16.1 36.5 17.8-6.8 35-12.2 60.4-12.2s35.9 8.7 34.3 32.5c-1.8 25.7-19.1 44.4-109.5 94.8-.4 5.4-.9 16.3.6 29.8h143.6c4.9-12.2 8.4-23 10.6-35.2h-122.2c62.5-20.9 118.4-42.7 122.2-97.5"/></g><g id="FUN"><path class="cls-7" d="m850.1 205 145.9-1.3 3.1-54.2-147 1.5s.1-15.9 1.9-33.8c2-20.1 19.5-23.3 19.5-23.3l133.3-1.1 5.7-54.7-154 1.4-19.2.2c-55.7 4.5-60.3 65.4-60.3 65.4l-8 190.7h75.1l4.1-90.6zM1246.1 179.4l13.6-142.2-71.3.3-14 146.4c-4.2 44.3-16.1 54.8-47.7 55-32.9.1-37.1-9.2-32.8-54.6l14-146.4-74.3.3-13.6 143c-7.5 78.7 18.9 116 104.5 115.7 101-.4 114-36.4 121.8-117.3zM1410 280.6c4.9 11 15.5 18.5 30.7 18.2 19.7-.4 36.5-15.3 37-34.3L1499 36.4l-62.7.2-7.3 75.4c-3.8 39-5.2 41.8-5.1 75.5-7.8-19.1-16.9-35.6-26.4-55.8l-44.7-94.8-68.4.3-25 259.1 62.7-.2 10.5-78.1c2.7-28.1 6.1-53.6 8.5-77.8 8.3 19.3 17.8 38.5 25.6 55.7l43.2 84.6z"/></g><g id="_8"><g style="clip-path:url(#clippath)"><path class="cls-75" d="m1584.8 222 3.3-39.5 115.3 9.6V269l-.7 8.1h-117.9V222z"/><path class="cls-75" d="M1588.1 182.5v-.6l115.3 9.6v.6l-115.3-9.6z"/><path class="cls-41" d="m1588.1 181.9.1-.6 115.2 9.6v.6l-115.3-9.6z"/><path class="cls-32" d="M1588.2 181.3v-.6l115.2 9.6v.6l-115.2-9.6z"/><path class="cls-19" d="m1588.2 180.7.1-.6 115.1 9.6v.6l-115.2-9.6z"/><path class="cls-26" d="M1588.3 180.1v-.6l115.1 9.6v.6l-115.1-9.6z"/><path class="cls-78" d="m1588.3 179.5.1-.6 115 9.6v.6l-115.1-9.6z"/><path class="cls-62" d="M1588.4 178.9v-.6l115 9.6v.6l-115-9.6z"/><path class="cls-80" d="m1588.4 178.3.1-.6 114.9 9.6v.6l-115-9.6z"/><path class="cls-60" d="M1588.5 177.7v-.6l114.9 9.6v.6l-114.9-9.6z"/><path class="cls-71" d="m1588.5 177.1.1-.6 114.8 9.6v.6l-114.9-9.6z"/><path class="cls-17" d="M1588.6 176.5v-.6l114.8 9.6v.6l-114.8-9.6z"/><path class="cls-86" d="m1588.6 175.9.1-.6 114.7 9.6v.6l-114.8-9.6z"/><path class="cls-83" d="M1588.7 175.3v-.6l114.7 9.6v.6l-114.7-9.6z"/><path class="cls-27" d="m1588.7 174.7.1-.6 114.6 9.6v.6l-114.7-9.6z"/><path class="cls-82" d="M1588.8 174.1v-.6l114.6 9.6v.6l-114.6-9.6z"/><path class="cls-47" d="m1588.8 173.5.1-.6 114.5 9.6v.6l-114.6-9.6z"/><path class="cls-61" d="M1588.9 172.9v-.6l114.5 9.6v.6l-114.5-9.6z"/><path class="cls-33" d="m1588.9 172.3.1-.5 114.4 9.5v.6l-114.5-9.6z"/><path class="cls-40" d="M1589 171.8v-.6l114.4 9.5v.6l-114.4-9.5z"/><path class="cls-42" d="M1589 171.2v-.6l114.4 9.5v.6l-114.4-9.5z"/><path class="cls-38" d="m1589 170.6.1-.6 114.3 9.5v.6l-114.4-9.5z"/><path class="cls-5" d="M1589.1 170v-.6l114.3 9.5v.6l-114.3-9.5z"/><path class="cls-70" d="m1589.1 169.4.1-.6 114.2 9.5v.6l-114.3-9.5z"/><path class="cls-88" d="M1589.2 168.8v-.6l114.2 9.5v.6l-114.2-9.5z"/><path class="cls-76" d="m1589.2 168.2.1-.6 114.1 9.5v.6l-114.2-9.5z"/><path class="cls-21" d="M1589.3 167.6v-.6l114.1 9.5v.6l-114.1-9.5z"/><path class="cls-6" d="m1589.3 167 .1-.6 114 9.5v.6l-114.1-9.5z"/><path class="cls-79" d="M1589.4 166.4v-.6l114 9.5v.6l-114-9.5z"/><path class="cls-53" d="m1589.4 165.8.1-.6 113.9 9.5v.6l-114-9.5z"/><path class="cls-55" d="M1589.5 165.2v-.6l113.9 9.5v.6l-113.9-9.5z"/><path class="cls-49" d="m1589.5 164.6.1-.6 113.8 9.5v.6l-113.9-9.5z"/><path class="cls-30" d="M1589.6 164v-.6l113.8 9.5v.6l-113.8-9.5z"/><path class="cls-77" d="m1589.6 163.4.1-.6 113.7 9.5v.6l-113.8-9.5z"/><path class="cls-31" d="M1589.7 162.8v-.6l113.7 9.5v.6l-113.7-9.5z"/><path class="cls-23" d="m1589.7 162.2.1-.6 113.6 9.5v.6l-113.7-9.5z"/><path class="cls-63" d="M1589.8 161.6v-.6l113.6 9.5v.6l-113.6-9.5z"/><path class="cls-46" d="m1589.8 161 .1-.6 113.5 9.5v.6l-113.6-9.5z"/><path class="cls-14" d="M1589.9 160.4v-.6l113.5 9.5v.6l-113.5-9.5z"/><path class="cls-91" d="m1589.9 159.8.1-.6 113.4 9.5v.6l-113.5-9.5z"/><path class="cls-50" d="M1590 159.2v-.6l113.4 9.5v.6l-113.4-9.5z"/><path class="cls-4" d="m1590 158.6.1-.6 113.3 9.5v.6l-113.4-9.5z"/><path class="cls-13" d="M1590.1 158v-.6l113.3 9.5v.6l-113.3-9.5z"/><path class="cls-29" d="m1590.1 157.4.1-.5 113.2 9.4v.6l-113.3-9.5z"/><path class="cls-66" d="M1590.2 156.9v-.6l113.2 9.4v.6l-113.2-9.4z"/><path class="cls-90" d="m1590.2 156.3.1-.6 113.1 9.4v.6l-113.2-9.4z"/><path class="cls-54" d="M1590.3 155.7v-.3h4l109.1 9.1v.6l-113.1-9.4z"/><path class="cls-87" d="m1601.5 155.4 101.9 8.5v.6l-109.1-9.1h7.2z"/><path class="cls-22" d="m1608.7 155.4 94.7 7.9v.6l-101.9-8.5h7.2z"/><path class="cls-56" d="m1615.9 155.4 87.5 7.3v.6l-94.7-7.9h7.2z"/><path class="cls-28" d="m1623.2 155.4 80.2 6.7v.6l-87.5-7.3h7.3z"/><path class="cls-12" d="m1630.4 155.4 73 6.1v.6l-80.2-6.7h7.2z"/><path class="cls-9" d="m1637.6 155.4 65.8 5.5v.6l-73-6.1h7.2z"/><path class="cls-10" d="m1644.8 155.4 58.6 4.9v.6l-65.8-5.5h7.2zM1703.4 160.3l-58.6-4.9h58.6v4.9z"/></g><g style="clip-path:url(#clippath-1)"><path class="cls-75" d="m1670.8 91.8-46 73.2-99.4-62.5v-3.8l43.6-69.5h101.8v62.6z"/><path class="cls-75" d="m1624.8 165-.7 1.1-98.7-62v-1.6l99.4 62.5z"/><path class="cls-41" d="m1624.1 166.1-.7 1.2-98-61.7v-1.5l98.7 62z"/><path class="cls-32" d="m1623.4 167.3-.7 1.1-97.3-61.2v-1.6l98 61.7z"/><path class="cls-19" d="m1622.7 168.4-.7 1.1-96.6-60.7v-1.6l97.3 61.2z"/><path class="cls-26" d="m1622 169.5-.7 1.1-95.9-60.3v-1.5l96.6 60.7z"/><path class="cls-78" d="m1621.3 170.6-.7 1.2-95.2-59.9v-1.6l95.9 60.3z"/><path class="cls-62" d="m1620.6 171.8-.7 1.1-94.5-59.4v-1.6l95.2 59.9z"/><path class="cls-80" d="m1619.9 172.9-.7 1.1-93.8-59v-1.5l94.5 59.4z"/><path class="cls-60" d="m1619.2 174-.8 1.1-93-58.5V115l93.8 59z"/><path class="cls-71" d="m1618.4 175.1-.7 1.1-92.3-58v-1.6l93 58.5z"/><path class="cls-17" d="m1617.7 176.2-.7 1.2-91.6-57.7v-1.5l92.3 58z"/><path class="cls-86" d="m1617 177.4-.7 1.1-90.9-57.2v-1.6l91.6 57.7z"/><path class="cls-83" d="m1616.3 178.5-.7 1.1-90.2-56.7v-1.6l90.9 57.2z"/><path class="cls-27" d="m1615.6 179.6-.7 1.1-89.5-56.3v-1.5l90.2 56.7z"/><path class="cls-82" d="m1614.9 180.7-.7 1.2-88.8-55.9v-1.6l89.5 56.3z"/><path class="cls-47" d="m1614.2 181.9-.7 1.1-88.1-55.4V126l88.8 55.9z"/><path class="cls-61" d="m1613.5 183-.7 1.1-87.4-55v-1.5l88.1 55.4z"/><path class="cls-33" d="m1612.8 184.1-.7 1.1-86.7-54.5v-1.6l87.4 55z"/><path class="cls-40" d="m1612.1 185.2-.7 1.2-86-54.1v-1.6l86.7 54.5z"/><path class="cls-42" d="m1611.4 186.4-.7 1.1-85.3-53.7v-1.5l86 54.1z"/><path class="cls-38" d="m1610.7 187.5-.7 1.1-84.6-53.2v-1.6l85.3 53.7z"/><path class="cls-5" d="m1610 188.6-.7 1.1-83.9-52.7v-1.6l84.6 53.2z"/><path class="cls-70" d="m1609.3 189.7-.7 1.1-83.2-52.3V137l83.9 52.7z"/><path class="cls-88" d="m1608.6 190.8-.7 1.2-82.5-51.9v-1.6l83.2 52.3z"/><path class="cls-76" d="m1607.9 192-.7 1.1-81.8-51.4v-1.6l82.5 51.9z"/><path class="cls-21" d="m1607.2 193.1-.8 1.1-81-51v-1.5l81.8 51.4z"/><path class="cls-67" d="m1606.4 194.2-.7 1.1-80.3-50.5v-1.6l81 51z"/><path class="cls-85" d="m1605.7 195.3-.7 1.2-79.6-50.1v-1.6l80.3 50.5z"/><path class="cls-72" d="m1605 196.5-.7 1.1-78.9-49.7v-1.5l79.6 50.1z"/><path class="cls-81" d="m1604.3 197.6-.7 1.1-78.2-49.2v-1.6l78.9 49.7z"/><path class="cls-69" d="m1603.6 198.7-.7 1.1-77.5-48.7v-1.6l78.2 49.2z"/><path class="cls-25" d="m1602.9 199.8-.7 1.2-76.8-48.4v-1.5l77.5 48.7z"/><path class="cls-44" d="m1602.2 201-.7 1.1-76.1-47.9v-1.6l76.8 48.4z"/><path class="cls-37" d="m1601.5 202.1-.7 1.1-75.4-47.4v-1.6l76.1 47.9z"/><path class="cls-89" d="m1600.8 203.2-.7 1.1-74.7-47v-1.5l75.4 47.4z"/><path class="cls-59" d="m1600.1 204.3-.7 1.1-74-46.5v-1.6l74.7 47z"/><path class="cls-1" d="m1599.4 205.4-.7 1.2-73.3-46.1v-1.6l74 46.5z"/><path class="cls-14" d="m1598.7 206.6-.7 1.1-72.6-45.7v-1.5l73.3 46.1z"/><path class="cls-91" d="m1598 207.7-.7 1.1-71.9-45.2V162l72.6 45.7z"/><path class="cls-50" d="m1597.3 208.8-.7 1.1-71.2-44.7v-1.6l71.9 45.2z"/><path class="cls-4" d="m1596.6 209.9-.7 1.2-70.5-44.4v-1.5l71.2 44.7z"/><path class="cls-13" d="m1595.9 211.1-.7 1.1-69.8-43.9v-1.6l70.5 44.4z"/><path class="cls-29" d="m1595.2 212.2-.8 1.1-69-43.4v-1.6l69.8 43.9z"/><path class="cls-66" d="m1594.4 213.3-.7 1.1-68.3-43v-1.5l69 43.4z"/><path class="cls-90" d="m1593.7 214.4-.7 1.2-67.6-42.6v-1.6l68.3 43z"/><path class="cls-54" d="m1593 215.6-.7 1.1-66.9-42.1V173l67.6 42.6z"/><path class="cls-87" d="m1592.3 216.7-.7 1.1-66.2-41.7v-1.5l66.9 42.1z"/><path class="cls-22" d="m1591.6 217.8-.7 1.1-65.5-41.2v-1.6l66.2 41.7z"/><path class="cls-56" d="m1590.9 218.9-.7 1.1-64.8-40.7v-1.6l65.5 41.2z"/><path class="cls-28" d="m1590.2 220-.7 1.2-64.1-40.4v-1.5l64.8 40.7z"/><path class="cls-12" d="m1589.5 221.2-.7 1.1-63.4-39.9v-1.6l64.1 40.4z"/><path class="cls-9" d="m1588.8 222.3-.7 1.1-62.7-39.4v-1.6l63.4 39.9z"/><path class="cls-10" d="m1588.1 223.4-.7 1.1-62-39V184l62.7 39.4z"/><path class="cls-2" d="m1587.4 224.5-.7 1.2-61.3-38.6v-1.6l62 39z"/><path class="cls-43" d="m1586.7 225.7-.7 1.1-60.6-38.1v-1.6l61.3 38.6z"/><path class="cls-34" d="m1586 226.8-.7 1.1-59.9-37.7v-1.5l60.6 38.1z"/><path class="cls-68" d="m1585.3 227.9-.7 1.1-59.2-37.2v-1.6l59.9 37.7z"/><path class="cls-74" d="m1584.6 229-.7 1.1-58.5-36.7v-1.6l59.2 37.2z"/><path class="cls-15" d="m1583.9 230.1-.8 1.2-57.7-36.4v-1.5l58.5 36.7z"/><path class="cls-18" d="m1583.1 231.3-.7 1.1-57-35.9v-1.6l57.7 36.4z"/><path class="cls-3" d="m1582.4 232.4-.2.3h-1.7l-55.1-34.6v-1.6l57 35.9z"/><path class="cls-16" d="m1578 232.7-52.6-33.1v-1.5l55.1 34.6h-2.5z"/><path class="cls-24" d="m1575.5 232.7-50.1-31.5v-1.6l52.6 33.1h-2.5z"/><path class="cls-51" d="m1573 232.7-47.6-29.9v-1.6l50.1 31.5h-2.5z"/><path class="cls-84" d="m1570.5 232.7-45.1-28.4v-1.5l47.6 29.9h-2.5z"/><path class="cls-45" d="m1568 232.7-42.6-26.8v-1.6l45.1 28.4h-2.5z"/><path class="cls-58" d="m1565.5 232.7-40.1-25.2v-1.6l42.6 26.8h-2.5z"/><path class="cls-52" d="m1563 232.7-37.6-23.7v-1.5l40.1 25.2h-2.5z"/><path class="cls-48" d="m1560.5 232.7-35.1-22.1V209l37.6 23.7h-2.5z"/><path class="cls-36" d="m1558.1 232.7-32.7-20.5v-1.6l35.1 22.1h-2.4z"/><path class="cls-11" d="m1555.6 232.7-30.2-19v-1.5l32.7 20.5h-2.5z"/><path class="cls-57" d="m1553.1 232.7-27.7-17.4v-1.6l30.2 19h-2.5z"/><path class="cls-35" d="m1550.6 232.7-25.2-15.8v-1.6l27.7 17.4h-2.5z"/><path class="cls-35" d="m1525.4 216.9 25.2 15.8h-25.2v-15.8z"/></g><path class="cls-8" d="M1663.7 277.1c-4.9 4.7-11.1 9-18.7 12.7-9.5 4.6-15 7.3-26.8 7.3-18.5 0-33.5-6.4-43.1-15.7-14-13.6-15.5-31.8-12.1-47.9 1.8-8.5 6.4-17.2 12.8-24.9 21.6-26.4 64.3-50.8 96.5-73.2 30.3-21.1 47.6-48.6 46.3-76.1-1.1-21.1-14.3-44.7-45.6-54.7-19.1-6.2-40.8-5.6-61.5-.9-67.2 15.4-77.1 62-58.1 99.3-1.8-21 1.7-47.6 25-65 5.4-8.4 14-16 26.5-22 9.6-4.6 20.9-7.3 32.7-7.3 18.4 0 33.5 6.5 43.1 15.7 14 13.6 15.5 31.8 12.1 47.9-1.8 8.5-6.4 17.2-12.8 24.9-7.5 9.2-18.8 18.4-31.5 27.4-22.9 16.1-44.8 31.7-65 45.8-3.2 2.2-6.4 4.5-9.4 6.9-19.4 17.1-37 36-47.6 55.6.4 13.7 4.9 26.9 14.4 39 12.5 15.8 33 28.7 61.9 32.3 20.8 2.6 36.1 1.1 54.7-6.5 29.5-12.1 42.9-35.3 45.5-55.8.5-3.6.6-7.2.5-10.8 0 15.2-7.2 35.3-39.7 46.2zm-107.1-71.2c1.8 3.6 4.5 6.4 8.2 8.2-3.6 1.8-6.4 4.5-8.2 8.2-1.8-3.6-4.5-6.4-8.2-8.2 3.6-1.8 6.4-4.5 8.2-8.2zm-17.7 36.1c2.4-2.6 3.8-5.7 4.1-9.3 2.6 2.4 5.7 3.8 9.3 4.1-2.4 2.6-3.8 5.7-4.1 9.3-2.6-2.4-5.7-3.8-9.3-4.1zm15.4 25.3c-3-1.5-6.1-1.9-9.4-1.3 1.5-3 1.9-6.1 1.3-9.4 3 1.5 6.1 1.9 9.4 1.3-1.5 3-1.9 6.1-1.3 9.4zm10.1 16.1c-2.5-1.2-5.1-1.6-7.8-1.1 1.2-2.5 1.6-5.1 1.1-7.8 2.5 1.2 5.1 1.6 7.8 1.1-1.2 2.5-1.6 5.1-1.1 7.8z"/><g style="clip-path:url(#clippath-2)"><path class="cls-75" d="m1786.2 222 3.3-39.5 115.4 9.6V269l-.7 8.1h-118V222z"/><path class="cls-75" d="m1789.5 182.5.1-.6 115.3 9.6v.6l-115.4-9.6z"/><path class="cls-41" d="M1789.6 181.9v-.6l115.3 9.6v.6l-115.3-9.6z"/><path class="cls-32" d="m1789.6 181.3.1-.6 115.2 9.6v.6l-115.3-9.6z"/><path class="cls-19" d="M1789.7 180.7v-.6l115.2 9.6v.6l-115.2-9.6z"/><path class="cls-26" d="m1789.7 180.1.1-.6 115.1 9.6v.6l-115.2-9.6z"/><path class="cls-78" d="M1789.8 179.5v-.6l115.1 9.6v.6l-115.1-9.6z"/><path class="cls-62" d="m1789.8 178.9.1-.6 115 9.6v.6l-115.1-9.6z"/><path class="cls-80" d="M1789.9 178.3v-.6l115 9.6v.6l-115-9.6z"/><path class="cls-60" d="m1789.9 177.7.1-.6 114.9 9.6v.6l-115-9.6z"/><path class="cls-71" d="M1790 177.1v-.6l114.9 9.6v.6l-114.9-9.6z"/><path class="cls-17" d="m1790 176.5.1-.6 114.8 9.6v.6l-114.9-9.6z"/><path class="cls-86" d="M1790.1 175.9v-.6l114.8 9.6v.6l-114.8-9.6z"/><path class="cls-83" d="m1790.1 175.3.1-.6 114.7 9.6v.6l-114.8-9.6z"/><path class="cls-27" d="M1790.2 174.7v-.6l114.7 9.6v.6l-114.7-9.6z"/><path class="cls-82" d="m1790.2 174.1.1-.6 114.6 9.6v.6l-114.7-9.6z"/><path class="cls-47" d="M1790.3 173.5v-.6l114.6 9.6v.6l-114.6-9.6z"/><path class="cls-61" d="m1790.3 172.9.1-.6 114.5 9.6v.6l-114.6-9.6z"/><path class="cls-33" d="M1790.4 172.3v-.5l114.5 9.5v.6l-114.5-9.6z"/><path class="cls-40" d="m1790.4 171.8.1-.6 114.4 9.5v.6l-114.5-9.5z"/><path class="cls-42" d="M1790.5 171.2v-.6l114.4 9.5v.6l-114.4-9.5z"/><path class="cls-38" d="m1790.5 170.6.1-.6 114.3 9.5v.6l-114.4-9.5z"/><path class="cls-5" d="M1790.6 170v-.6l114.3 9.5v.6l-114.3-9.5z"/><path class="cls-70" d="m1790.6 169.4.1-.6 114.2 9.5v.6l-114.3-9.5z"/><path class="cls-88" d="M1790.7 168.8v-.6l114.2 9.5v.6l-114.2-9.5z"/><path class="cls-76" d="m1790.7 168.2.1-.6 114.1 9.5v.6l-114.2-9.5z"/><path class="cls-21" d="M1790.8 167.6v-.6l114.1 9.5v.6l-114.1-9.5z"/><path class="cls-6" d="m1790.8 167 .1-.6 114 9.5v.6l-114.1-9.5z"/><path class="cls-79" d="M1790.9 166.4v-.6l114 9.5v.6l-114-9.5z"/><path class="cls-53" d="m1790.9 165.8.1-.6 113.9 9.5v.6l-114-9.5z"/><path class="cls-55" d="M1791 165.2v-.6l113.9 9.5v.6l-113.9-9.5z"/><path class="cls-49" d="m1791 164.6.1-.6 113.8 9.5v.6l-113.9-9.5z"/><path class="cls-30" d="M1791.1 164v-.6l113.8 9.5v.6l-113.8-9.5z"/><path class="cls-77" d="m1791.1 163.4.1-.6 113.7 9.5v.6l-113.8-9.5z"/><path class="cls-31" d="M1791.2 162.8v-.6l113.7 9.5v.6l-113.7-9.5z"/><path class="cls-23" d="m1791.2 162.2.1-.6 113.6 9.5v.6l-113.7-9.5z"/><path class="cls-63" d="M1791.3 161.6v-.6l113.6 9.5v.6l-113.6-9.5z"/><path class="cls-46" d="m1791.3 161 .1-.6 113.5 9.5v.6l-113.6-9.5z"/><path class="cls-14" d="M1791.4 160.4v-.6l113.5 9.5v.6l-113.5-9.5z"/><path class="cls-91" d="m1791.4 159.8.1-.6 113.4 9.5v.6l-113.5-9.5z"/><path class="cls-50" d="M1791.5 159.2v-.6l113.4 9.5v.6l-113.4-9.5z"/><path class="cls-4" d="m1791.5 158.6.1-.6 113.3 9.5v.6l-113.4-9.5z"/><path class="cls-13" d="M1791.6 158v-.6l113.3 9.5v.6l-113.3-9.5z"/><path class="cls-29" d="m1791.6 157.4.1-.5 113.2 9.4v.6l-113.3-9.5z"/><path class="cls-66" d="M1791.7 156.9v-.6l113.2 9.4v.6l-113.2-9.4z"/><path class="cls-90" d="m1791.7 156.3.1-.6 113.1 9.4v.6l-113.2-9.4z"/><path class="cls-54" d="M1791.8 155.7v-.3h3.9l109.2 9.1v.6l-113.1-9.4z"/><path class="cls-87" d="m1802.9 155.4 102 8.5v.6l-109.2-9.1h7.2z"/><path class="cls-22" d="m1810.2 155.4 94.7 7.9v.6l-102-8.5h7.3z"/><path class="cls-56" d="m1817.4 155.4 87.5 7.3v.6l-94.7-7.9h7.2z"/><path class="cls-28" d="m1824.6 155.4 80.3 6.7v.6l-87.5-7.3h7.2z"/><path class="cls-12" d="m1831.8 155.4 73.1 6.1v.6l-80.3-6.7h7.2z"/><path class="cls-9" d="m1839.1 155.4 65.8 5.5v.6l-73.1-6.1h7.3z"/><path class="cls-10" d="m1846.3 155.4 58.6 4.9v.6l-65.8-5.5h7.2zM1904.9 160.3l-58.6-4.9h58.6v4.9z"/></g><g style="clip-path:url(#clippath-3)"><path class="cls-75" d="m1872.3 91.8-46 73.2-99.5-62.5v-3.8l43.7-69.5h101.8v62.6z"/><path class="cls-75" d="m1826.3 165-.7 1.1-98.8-62v-1.6l99.5 62.5z"/><path class="cls-41" d="m1825.6 166.1-.7 1.2-98.1-61.7v-1.5l98.8 62z"/><path class="cls-32" d="m1824.9 167.3-.7 1.1-97.4-61.2v-1.6l98.1 61.7z"/><path class="cls-19" d="m1824.2 168.4-.8 1.1-96.6-60.7v-1.6l97.4 61.2z"/><path class="cls-26" d="m1823.4 169.5-.7 1.1-95.9-60.3v-1.5l96.6 60.7z"/><path class="cls-78" d="m1822.7 170.6-.7 1.2-95.2-59.9v-1.6l95.9 60.3z"/><path class="cls-62" d="m1822 171.8-.7 1.1-94.5-59.4v-1.6l95.2 59.9z"/><path class="cls-80" d="m1821.3 172.9-.7 1.1-93.8-59v-1.5l94.5 59.4z"/><path class="cls-60" d="m1820.6 174-.7 1.1-93.1-58.5V115l93.8 59z"/><path class="cls-71" d="m1819.9 175.1-.7 1.1-92.4-58v-1.6l93.1 58.5z"/><path class="cls-17" d="m1819.2 176.2-.7 1.2-91.7-57.7v-1.5l92.4 58z"/><path class="cls-86" d="m1818.5 177.4-.7 1.1-91-57.2v-1.6l91.7 57.7z"/><path class="cls-83" d="m1817.8 178.5-.7 1.1-90.3-56.7v-1.6l91 57.2z"/><path class="cls-27" d="m1817.1 179.6-.7 1.1-89.6-56.3v-1.5l90.3 56.7z"/><path class="cls-82" d="m1816.4 180.7-.7 1.2-88.9-55.9v-1.6l89.6 56.3z"/><path class="cls-47" d="m1815.7 181.9-.7 1.1-88.2-55.4V126l88.9 55.9z"/><path class="cls-61" d="m1815 183-.7 1.1-87.5-55v-1.5L1815 183z"/><path class="cls-33" d="m1814.3 184.1-.7 1.1-86.8-54.5v-1.6l87.5 55z"/><path class="cls-40" d="m1813.6 185.2-.7 1.2-86.1-54.1v-1.6l86.8 54.5z"/><path class="cls-42" d="m1812.9 186.4-.8 1.1-85.3-53.7v-1.5l86.1 54.1z"/><path class="cls-38" d="m1812.1 187.5-.7 1.1-84.6-53.2v-1.6l85.3 53.7z"/><path class="cls-5" d="m1811.4 188.6-.7 1.1-83.9-52.7v-1.6l84.6 53.2z"/><path class="cls-70" d="m1810.7 189.7-.7 1.1-83.2-52.3V137l83.9 52.7z"/><path class="cls-88" d="m1810 190.8-.7 1.2-82.5-51.9v-1.6l83.2 52.3z"/><path class="cls-76" d="m1809.3 192-.7 1.1-81.8-51.4v-1.6l82.5 51.9z"/><path class="cls-21" d="m1808.6 193.1-.7 1.1-81.1-51v-1.5l81.8 51.4z"/><path class="cls-67" d="m1807.9 194.2-.7 1.1-80.4-50.5v-1.6l81.1 51z"/><path class="cls-85" d="m1807.2 195.3-.7 1.2-79.7-50.1v-1.6l80.4 50.5z"/><path class="cls-72" d="m1806.5 196.5-.7 1.1-79-49.7v-1.5l79.7 50.1z"/><path class="cls-81" d="m1805.8 197.6-.7 1.1-78.3-49.2v-1.6l79 49.7z"/><path class="cls-69" d="m1805.1 198.7-.7 1.1-77.6-48.7v-1.6l78.3 49.2z"/><path class="cls-25" d="m1804.4 199.8-.7 1.2-76.9-48.4v-1.5l77.6 48.7z"/><path class="cls-44" d="m1803.7 201-.7 1.1-76.2-47.9v-1.6l76.9 48.4z"/><path class="cls-37" d="m1803 202.1-.7 1.1-75.5-47.4v-1.6l76.2 47.9z"/><path class="cls-89" d="m1802.3 203.2-.7 1.1-74.8-47v-1.5l75.5 47.4z"/><path class="cls-59" d="m1801.6 204.3-.7 1.1-74.1-46.5v-1.6l74.8 47z"/><path class="cls-1" d="m1800.9 205.4-.8 1.2-73.3-46.1v-1.6l74.1 46.5z"/><path class="cls-14" d="m1800.1 206.6-.7 1.1-72.6-45.7v-1.5l73.3 46.1z"/><path class="cls-91" d="m1799.4 207.7-.7 1.1-71.9-45.2V162l72.6 45.7z"/><path class="cls-50" d="m1798.7 208.8-.7 1.1-71.2-44.7v-1.6l71.9 45.2z"/><path class="cls-4" d="m1798 209.9-.7 1.2-70.5-44.4v-1.5l71.2 44.7z"/><path class="cls-13" d="m1797.3 211.1-.7 1.1-69.8-43.9v-1.6l70.5 44.4z"/><path class="cls-29" d="m1796.6 212.2-.7 1.1-69.1-43.4v-1.6l69.8 43.9z"/><path class="cls-66" d="m1795.9 213.3-.7 1.1-68.4-43v-1.5l69.1 43.4z"/><path class="cls-90" d="m1795.2 214.4-.7 1.2-67.7-42.6v-1.6l68.4 43z"/><path class="cls-54" d="m1794.5 215.6-.7 1.1-67-42.1V173l67.7 42.6z"/><path class="cls-87" d="m1793.8 216.7-.7 1.1-66.3-41.7v-1.5l67 42.1z"/><path class="cls-22" d="m1793.1 217.8-.7 1.1-65.6-41.2v-1.6l66.3 41.7z"/><path class="cls-56" d="m1792.4 218.9-.7 1.1-64.9-40.7v-1.6l65.6 41.2z"/><path class="cls-28" d="m1791.7 220-.7 1.2-64.2-40.4v-1.5l64.9 40.7z"/><path class="cls-12" d="m1791 221.2-.7 1.1-63.5-39.9v-1.6l64.2 40.4z"/><path class="cls-9" d="m1790.3 222.3-.7 1.1-62.8-39.4v-1.6l63.5 39.9z"/><path class="cls-10" d="m1789.6 223.4-.7 1.1-62.1-39V184l62.8 39.4z"/><path class="cls-2" d="m1788.9 224.5-.8 1.2-61.3-38.6v-1.6l62.1 39z"/><path class="cls-43" d="m1788.1 225.7-.7 1.1-60.6-38.1v-1.6l61.3 38.6z"/><path class="cls-34" d="m1787.4 226.8-.7 1.1-59.9-37.7v-1.5l60.6 38.1z"/><path class="cls-68" d="m1786.7 227.9-.7 1.1-59.2-37.2v-1.6l59.9 37.7z"/><path class="cls-74" d="m1786 229-.7 1.1-58.5-36.7v-1.6L1786 229z"/><path class="cls-15" d="m1785.3 230.1-.7 1.2-57.8-36.4v-1.5l58.5 36.7z"/><path class="cls-18" d="m1784.6 231.3-.7 1.1-57.1-35.9v-1.6l57.8 36.4z"/><path class="cls-3" d="m1783.9 232.4-.2.3h-1.7l-55.2-34.6v-1.6l57.1 35.9z"/><path class="cls-16" d="m1779.5 232.7-52.7-33.1v-1.5l55.2 34.6h-2.5z"/><path class="cls-24" d="m1777 232.7-50.2-31.5v-1.6l52.7 33.1h-2.5z"/><path class="cls-51" d="m1774.5 232.7-47.7-29.9v-1.6l50.2 31.5h-2.5z"/><path class="cls-84" d="m1772 232.7-45.2-28.4v-1.5l47.7 29.9h-2.5z"/><path class="cls-45" d="m1769.5 232.7-42.7-26.8v-1.6l45.2 28.4h-2.5z"/><path class="cls-58" d="m1767 232.7-40.2-25.2v-1.6l42.7 26.8h-2.5z"/><path class="cls-52" d="m1764.5 232.7-37.7-23.7v-1.5l40.2 25.2h-2.5z"/><path class="cls-48" d="m1762 232.7-35.2-22.1V209l37.7 23.7h-2.5z"/><path class="cls-36" d="m1759.5 232.7-32.7-20.5v-1.6l35.2 22.1h-2.5z"/><path class="cls-11" d="m1757 232.7-30.2-19v-1.5l32.7 20.5h-2.5z"/><path class="cls-57" d="m1754.5 232.7-27.7-17.4v-1.6l30.2 19h-2.5z"/><path class="cls-35" d="m1752 232.7-25.2-15.8v-1.6l27.7 17.4h-2.5zM1726.8 216.9l25.2 15.8h-25.2v-15.8z"/></g><path class="cls-8" d="M1865.1 277.1c-4.9 4.7-11.1 9-18.7 12.7-9.5 4.6-15 7.3-26.8 7.3-18.5 0-33.5-6.4-43.1-15.7-14-13.6-15.5-31.8-12.1-47.9 1.8-8.5 6.4-17.2 12.8-24.9 21.6-26.4 64.3-50.8 96.5-73.2 30.3-21.1 47.6-48.6 46.3-76.1-1.1-21.1-14.3-44.7-45.6-54.7-19.1-6.2-40.8-5.6-61.5-.9-67.2 15.4-77.1 62-58.1 99.3-1.8-21 1.7-47.6 25-65 5.4-8.4 14-16 26.5-22 9.6-4.6 20.9-7.3 32.7-7.3 18.4 0 33.5 6.5 43.1 15.7 14 13.6 15.5 31.8 12.1 47.9-1.8 8.5-6.4 17.2-12.8 24.9-7.5 9.2-18.8 18.4-31.5 27.4-22.9 16.1-44.8 31.7-65 45.8-3.2 2.2-6.4 4.5-9.4 6.9-19.4 17.1-37 36-47.6 55.6.4 13.7 4.9 26.9 14.4 39 12.5 15.8 33 28.7 61.9 32.3 20.8 2.6 36.1 1.1 54.7-6.5 29.5-12.1 42.9-35.3 45.5-55.8.5-3.6.6-7.2.5-10.8 0 15.2-7.2 35.3-39.7 46.2zM1758 205.9c1.8 3.6 4.5 6.4 8.2 8.2-3.6 1.8-6.4 4.5-8.2 8.2-1.8-3.6-4.5-6.4-8.2-8.2 3.6-1.8 6.4-4.5 8.2-8.2zm-17.7 36.1c2.4-2.6 3.8-5.7 4.1-9.3 2.6 2.4 5.7 3.8 9.3 4.1-2.4 2.6-3.8 5.7-4.1 9.3-2.6-2.4-5.7-3.8-9.3-4.1zm15.4 25.3c-3-1.5-6.1-1.9-9.4-1.3 1.5-3 1.9-6.1 1.3-9.4 3 1.5 6.1 1.9 9.4 1.3-1.5 3-1.9 6.1-1.3 9.4zm10.1 16.1c-2.5-1.2-5.1-1.6-7.8-1.1 1.2-2.5 1.6-5.1 1.1-7.8 2.5 1.2 5.1 1.6 7.8 1.1-1.2 2.5-1.6 5.1-1.1 7.8z"/></g></svg>