<?xml version="1.0" encoding="UTF-8"?><svg id="Layer_2" xmlns="http://www.w3.org/2000/svg" xmlns:xlink="http://www.w3.org/1999/xlink" viewBox="0 0 140.11 54.56"><defs><style>.cls-1{fill:#ffe786;}.cls-2{clip-path:url(#clippath);}.cls-3{fill:none;}</style><clipPath id="clippath"><rect class="cls-3" x=".38" y=".73" width="139.69" height="53.83"/></clipPath></defs><g transform="translate(0 0)"><g class="cls-2"><g transform="translate(0 0)"><path class="cls-1" d="M.38,27.64c8.27,10.04,17.69,19.07,28.06,26.91,10.21-7.92,19.52-16.95,27.76-26.91C47.9,17.74,38.6,8.73,28.45,.73,18.13,8.64,8.72,17.67,.38,27.64"/><path class="cls-1" d="M104,27.64c5.35,6.49,11.44,12.32,18.16,17.39,6.6-5.12,12.62-10.95,17.95-17.39-5.37-6.39-11.39-12.21-17.95-17.38-6.67,5.11-12.76,10.94-18.16,17.38"/></g></g></g></svg>