<svg xmlns="http://www.w3.org/2000/svg" width="16" height="16" viewBox="0 0 16 16">
  <g id="Group_13430" data-name="Group 13430" transform="translate(-861 -1587)">
    <g id="Rectangle_16784" data-name="Rectangle 16784" transform="translate(861 1587)" fill="#fff" stroke="#707070" stroke-width="1" opacity="0">
      <rect width="16" height="16" stroke="none"/>
      <rect x="0.5" y="0.5" width="15" height="15" fill="none"/>
    </g>
    <path id="Subtraction_1" data-name="Subtraction 1" d="M8.866,9.6H1.115a1.11,1.11,0,0,1-.624-.191,1.119,1.119,0,0,1-.4-.491A1.108,1.108,0,0,1,0,8.484V1.116A1.111,1.111,0,0,1,.19.492a1.119,1.119,0,0,1,.491-.4A1.108,1.108,0,0,1,1.115,0H8.866A1.11,1.11,0,0,1,9.49.191a1.119,1.119,0,0,1,.4.491,1.109,1.109,0,0,1,.088.434V1.7l.859-.669a1.115,1.115,0,0,1,1.8.881v5.9a1.115,1.115,0,0,1-1.8.88l-.859-.669v.462a1.111,1.111,0,0,1-.19.624,1.119,1.119,0,0,1-.491.4A1.108,1.108,0,0,1,8.866,9.6ZM3.745,2.922a.372.372,0,0,0-.372.372V6.367a.372.372,0,0,0,.579.309h0l2.3-1.551a.372.372,0,0,0,0-.619L3.95,2.984A.371.371,0,0,0,3.745,2.922Z" transform="translate(862.6 1590.2)" fill="#fff"/>
  </g>
</svg>
