<?xml version="1.0" standalone="no"?><!DOCTYPE svg PUBLIC "-//W3C//DTD SVG 1.1//EN" "http://www.w3.org/Graphics/SVG/1.1/DTD/svg11.dtd"><svg t="1621387852742" class="icon" viewBox="0 0 1024 1024" version="1.1" xmlns="http://www.w3.org/2000/svg" p-id="1717" xmlns:xlink="http://www.w3.org/1999/xlink" width="200" height="200"><defs><style type="text/css"></style></defs><path d="M814.08 959.853714H209.846857a146.285714 146.285714 0 0 1-145.846857-145.846857V209.773714A146.285714 146.285714 0 0 1 209.846857 64h604.379429a146.285714 146.285714 0 0 1 145.846857 145.846857v604.379429a146.285714 146.285714 0 0 1-145.993143 145.627428zM209.846857 160.841143a49.078857 49.078857 0 0 0-49.005714 49.005714v604.379429a49.078857 49.078857 0 0 0 49.005714 49.005714h604.379429a49.078857 49.078857 0 0 0 49.005714-49.005714V209.846857a49.078857 49.078857 0 0 0-49.005714-49.005714z" fill="#666666" p-id="1718"></path><path d="M297.398857 647.241143a48.347429 48.347429 0 0 1-34.230857-82.505143l151.04-151.113143a49.810286 49.810286 0 0 1 68.388571 0l93.330286 93.403429 116.224-116.150857a48.420571 48.420571 0 0 1 68.388572 68.461714L610.084571 609.718857a48.493714 48.493714 0 0 1-68.388571 0L448.292571 516.315429l-117.028571 117.028571a48.713143 48.713143 0 0 1-33.865143 13.897143z" fill="#666666" p-id="1719"></path></svg>