<?xml version="1.0" standalone="no"?><!DOCTYPE svg PUBLIC "-//W3C//DTD SVG 1.1//EN" "http://www.w3.org/Graphics/SVG/1.1/DTD/svg11.dtd"><svg t="1621387865327" class="icon" viewBox="0 0 1024 1024" version="1.1" xmlns="http://www.w3.org/2000/svg" p-id="1988" xmlns:xlink="http://www.w3.org/1999/xlink" width="200" height="200"><defs><style type="text/css"></style></defs><path d="M365.714286 73.142857H170.642286A97.792 97.792 0 0 0 73.142857 170.642286V365.714286a97.792 97.792 0 0 0 97.499429 97.499428H365.714286A97.865143 97.865143 0 0 0 463.213714 365.714286V170.642286A97.865143 97.865143 0 0 0 365.714286 73.142857z m0 292.571429H170.642286V170.642286H365.714286z m195.072-243.785143h292.571428V219.428571h-292.571428z m0 195.072H950.857143v97.499428H560.786286z m0 292.571428h195.072v97.572572H560.786286z m0 195.072h292.571428v97.499429h-292.571428zM365.714286 560.859429H170.642286A97.792 97.792 0 0 0 73.142857 658.285714v195.072A97.865143 97.865143 0 0 0 170.642286 950.857143H365.714286a97.865143 97.865143 0 0 0 97.499428-97.499429V658.285714A97.865143 97.865143 0 0 0 365.714286 560.786286z m0 292.571428H170.642286V658.285714H365.714286z" fill="#666666" p-id="1989"></path></svg>