<?xml version="1.0" standalone="no"?><!DOCTYPE svg PUBLIC "-//W3C//DTD SVG 1.1//EN" "http://www.w3.org/Graphics/SVG/1.1/DTD/svg11.dtd"><svg t="1621387843629" class="icon" viewBox="0 0 1024 1024" version="1.1" xmlns="http://www.w3.org/2000/svg" p-id="1582" xmlns:xlink="http://www.w3.org/1999/xlink" width="200" height="200"><defs><style type="text/css"></style></defs><path d="M888.539429 732.818286h-26.038858V699.977143a141.312 141.312 0 0 0-141.165714-141.165714H543.232V437.248h78.116571a69.924571 69.924571 0 0 0 69.851429-69.851429V197.851429a69.924571 69.924571 0 0 0-69.851429-69.851429H412.745143a69.924571 69.924571 0 0 0-69.851429 69.851429v169.545142a69.924571 69.924571 0 0 0 69.851429 69.851429H490.788571V558.811429H302.226286a141.312 141.312 0 0 0-141.165715 141.165714v32.841143H133.851429a69.924571 69.924571 0 0 0-69.851429 69.851428v81.334857a69.924571 69.924571 0 0 0 69.851429 69.851429h106.861714a69.924571 69.924571 0 0 0 69.851428-69.851429v-81.188571a69.924571 69.924571 0 0 0-69.851428-69.851429h-27.209143v-32.841142a88.795429 88.795429 0 0 1 88.722286-88.722286H490.788571v121.563428h-27.209142a69.924571 69.924571 0 0 0-69.851429 69.851429v81.188571a69.924571 69.924571 0 0 0 69.851429 69.851429h106.861714a69.924571 69.924571 0 0 0 69.851428-69.851429v-81.188571a69.924571 69.924571 0 0 0-69.851428-69.851429h-27.209143V611.254857h178.176a88.795429 88.795429 0 0 1 88.649143 88.649143v32.841143h-28.379429a69.924571 69.924571 0 0 0-69.851428 69.851428v81.408a69.924571 69.924571 0 0 0 69.851428 69.851429h106.861715a69.924571 69.924571 0 0 0 69.851428-69.851429v-81.188571a69.924571 69.924571 0 0 0-69.851428-69.997714z m-647.899429 52.443428a17.408 17.408 0 0 1 17.408 17.408v81.334857a17.408 17.408 0 0 1-17.408 17.408H133.851429a17.408 17.408 0 0 1-17.408-17.408v-81.188571a17.408 17.408 0 0 1 17.408-17.408z m329.728 0a17.408 17.408 0 0 1 17.408 17.408v81.334857a17.408 17.408 0 0 1-17.408 17.408h-106.788571a17.408 17.408 0 0 1-17.334858-17.408v-81.188571a17.408 17.408 0 0 1 17.408-17.408zM412.745143 384.731429a17.408 17.408 0 0 1-17.408-17.408V197.851429a17.408 17.408 0 0 1 17.408-17.408h208.603428a17.408 17.408 0 0 1 17.408 17.408v169.545142a17.408 17.408 0 0 1-17.408 17.408H412.745143z m493.202286 499.273142a17.408 17.408 0 0 1-17.408 17.408h-106.861715a17.408 17.408 0 0 1-17.334857-17.408v-81.188571a17.408 17.408 0 0 1 17.408-17.408h106.861714a17.408 17.408 0 0 1 17.408 17.408z" fill="#666666" p-id="1583"></path></svg>