<?xml version="1.0" standalone="no"?><!DOCTYPE svg PUBLIC "-//W3C//DTD SVG 1.1//EN" "http://www.w3.org/Graphics/SVG/1.1/DTD/svg11.dtd"><svg t="1621387858738" class="icon" viewBox="0 0 1024 1024" version="1.1" xmlns="http://www.w3.org/2000/svg" p-id="1855" xmlns:xlink="http://www.w3.org/1999/xlink" width="200" height="200"><defs><style type="text/css"></style></defs><path d="M697.929143 590.116571H347.428571a43.885714 43.885714 0 0 0 0 87.771429h350.72a43.885714 43.885714 0 0 0 0-87.771429z m0-175.542857h-263.314286a43.885714 43.885714 0 0 0 0 87.771429h263.314286a43.885714 43.885714 0 1 0 0-87.771429z m175.542857-263.314285h-131.657143v-43.885715a43.885714 43.885714 0 0 0-87.771428 0v43.885715h-87.771429v-43.885715a43.885714 43.885714 0 1 0-87.771429 0v43.885715h-87.771428v-43.885715a43.885714 43.885714 0 1 0-87.771429 0v43.885715h-131.657143a43.885714 43.885714 0 0 0-43.885714 43.885714v613.741714a131.657143 131.657143 0 0 0 131.657143 131.657143h526.043429a131.657143 131.657143 0 0 0 131.657142-131.657143V195.510857a43.885714 43.885714 0 0 0-43.446857-43.812571z m-43.885714 657.627428a43.885714 43.885714 0 0 1-43.885715 43.885714H259.657143a43.885714 43.885714 0 0 1-43.885714-43.885714V239.396571h87.771428v43.885715a43.885714 43.885714 0 1 0 87.771429 0v-43.885715h87.771428v43.885715a43.885714 43.885714 0 0 0 87.771429 0v-43.885715h87.771428v43.885715a43.885714 43.885714 0 0 0 87.771429 0v-43.885715h87.771429z" fill="#666666" p-id="1856"></path></svg>