<svg xmlns="http://www.w3.org/2000/svg" width="20.778" height="16.914" viewBox="0 0 20.778 16.914"><defs><style>.a{fill:#fff;}</style></defs><path class="a" d="M40.447,53.3H40.09a8.57,8.57,0,0,0-7.743-5.7A8.57,8.57,0,0,0,24.6,53.3h-.357A1.347,1.347,0,0,0,22.9,54.645v4.716a1.35,1.35,0,0,0,1.347,1.351h.929l4.009,3.283h1.6v.069a.452.452,0,0,0,.45.45H33.37a.452.452,0,0,0,.45-.45v-.787a.449.449,0,0,0-.45-.446H31.24a.449.449,0,0,0-.45.446v.069H29.417L26.057,60.6a1.348,1.348,0,0,0,.816-1.238V54.649A1.353,1.353,0,0,0,25.81,53.33a7.363,7.363,0,0,1,6.534-4.606,7.347,7.347,0,0,1,6.534,4.606,1.357,1.357,0,0,0-1.063,1.319v4.716a1.354,1.354,0,0,0,1.339,1.351h1.286a1.351,1.351,0,0,0,1.351-1.351V54.649A1.341,1.341,0,0,0,40.447,53.3Z" transform="translate(-21.971 -47.6)"/><path class="a" d="M497.108,242a.308.308,0,0,0-.308.308v2.658a.308.308,0,0,0,.617,0v-2.658A.308.308,0,0,0,497.108,242Z" transform="translate(-476.639 -234.111)"/><path class="a" d="M.308,242a.308.308,0,0,0-.308.308v2.658a.308.308,0,0,0,.308.308.312.312,0,0,0,.312-.308v-2.658A.314.314,0,0,0,.308,242Z" transform="translate(0 -234.111)"/></svg>