<svg xmlns="http://www.w3.org/2000/svg" width="186" height="53.631" viewBox="0 0 186 53.631">
  <g id="Group_11081" data-name="Group 11081" transform="translate(0 0)">
    <g id="Group_11056" data-name="Group 11056" transform="translate(0 13.367)">
      <g id="Group_11050" data-name="Group 11050" transform="translate(44.725 2.092)">
        <path id="Path_5230" data-name="Path 5230" d="M284.131,397.168h7l-7.285,13.011h1.533l-4.857,22.194h-6.737l4.077-18.673h-3.181ZM281.5,429.261l9.6-21.021h6.736l-9.511,21.021Zm22.261-8.189h4.192l-1.185,5.459h-4.192l-1.273,5.816h-6.735l1.272-5.816H291.3l1.185-5.459h4.539l3.237-14.771H288.237l1.157-5.308h12l.839-3.853h6.737l-.839,3.853h12.115l-1.157,5.308H306.971Zm4.741,8.189-.578-21.021h6.737l.578,21.021Z" transform="translate(-273.781 -397.141)" fill="#fff"/>
        <path id="Path_5231" data-name="Path 5231" d="M489.157,412.439h37.67l-4.509,20.589H511.042l.84-3.8h4.538l.174-.791h-24.2l-1.012,4.618h-6.736Zm11.535-6.174h17.549l-.26-1.275h7.371l2.111,6.1h-38.74l5.783-6.913h-5.263l1.04-4.743h16.74l-.318-1.456h7.72l.607,1.456h16.19l-1.041,4.743H502.341Zm-7,16.3-.318,1.455h24.2l.318-1.455Zm1.243-5.791-.318,1.454h24.2l.318-1.454Z" transform="translate(-440.673 -397.821)" fill="#fff"/>
      </g>
      <g id="Group_11055" data-name="Group 11055" transform="translate(0 0)">
        <g id="Group_11053" data-name="Group 11053">
          <g id="Group_11051" data-name="Group 11051" transform="translate(5.84)">
            <path id="Path_5232" data-name="Path 5232" d="M105.645,411.337h0l-.029.1h0l-.665,2.832c-.809,1.3-2.515,2.6-6.129,2.7l-1.041,6.355s13.53-.868,14.918-7.527h0l.954-4.03h0l1.243-5.256,9.107-.051,1.561-5.561h-9.338l1.677-7.093-8.1.1-1.677,6.991H98.1l1.792-8.062c12.2.306,26.193-2.093,26.193-2.093l-.4-4.975c-5.435,2.042-31.456,2.7-31.456,2.7l-.087.409h0l-.029.178v.052h0l-2.631,11.761H88.847l-1.532,5.816,19.486-.126Zm2.081-.025Z" transform="translate(-87.315 -385.774)" fill="#fff"/>
          </g>
          <g id="Group_11052" data-name="Group 11052" transform="translate(0 21.966)">
            <path id="Path_5233" data-name="Path 5233" d="M64.775,519.171a3.731,3.731,0,0,0,.463-.1,5.845,5.845,0,0,0,3.47-2.015c.029-.024.029-.024.029-.049a6.963,6.963,0,0,0,.636-.844h0l8.008-11.02H70.153l-4.366,6.123h0l-1.648,2.348a2.184,2.184,0,0,1-1.388.816H60.323l-1.012,4.745h5.464Z" transform="translate(-59.311 -505.139)" fill="#fff"/>
          </g>
        </g>
        <g id="Group_11054" data-name="Group 11054" transform="translate(33.999 22.068)">
          <path id="Path_5234" data-name="Path 5234" d="M229.054,520.977h-6.708l1.243-12.859-.751-.024.347-2.4h7.372c0,.18,0,.434-.029.74h0c-.087,1.633-.289,4.516-.289,4.516l-.463,4.132Z" transform="translate(-222.347 -505.695)" fill="#fff"/>
        </g>
      </g>
    </g>
    <g id="Group_11062" data-name="Group 11062" transform="translate(131.965 0)">
      <g id="Group_11057" data-name="Group 11057" transform="translate(38.617 36.085)">
        <path id="Path_5235" data-name="Path 5235" d="M884.741,509.227a10.9,10.9,0,0,0-7.44,2.7c.318-.02.637-.039.958-.039,5.57,0,9.61,2.984,9.013,6.681-.043.206-.085.43-.149.636,2.573-.917,4.509-2.644,4.828-4.632C892.418,511.612,889.187,509.227,884.741,509.227Z" transform="translate(-877.301 -509.227)" fill="#fff"/>
      </g>
      <g id="Group_11058" data-name="Group 11058" transform="translate(0 37.879)">
        <path id="Path_5238" data-name="Path 5238" d="M5.676.014C8.984.219,11.811,2.7,11.989,5.546S9.63,10.541,6.322,10.335.187,7.653.009,4.8,2.368-.192,5.676.014Z" transform="matrix(0.731, -0.682, 0.682, 0.731, 0, 8.181)" fill="#fff"/>
      </g>
      <g id="Group_11059" data-name="Group 11059" transform="translate(8.269 0)">
        <path id="Path_5239" data-name="Path 5239" d="M4.381.01C6.934.169,9.116,2.082,9.254,4.283S7.433,8.139,4.88,7.981.145,5.91.007,3.709,1.827-.148,4.381.01Z" transform="matrix(0.731, -0.682, 0.682, 0.731, 0, 6.314)" fill="#fff"/>
      </g>
      <g id="Group_11060" data-name="Group 11060" transform="translate(10.61 20.466)">
        <path id="Path_5236" data-name="Path 5236" d="M773.26,434.716c6.357-8.764-6.55-16.1-22.156-4.017-5.869,4.544-10.76,9.776-6.485,12.066,3.891,2.082,14.33-4.015,14.33-4.015s-5.889,1.012-4.55,0a123.318,123.318,0,0,1,10.249-7.056s-.594,6.906-17.372,23.155C747.254,454.848,760.544,452.259,773.26,434.716Z" transform="translate(-742.998 -424.348)" fill="#fff"/>
      </g>
      <g id="Group_11061" data-name="Group 11061" transform="translate(5.71 4.086)">
        <path id="Path_5237" data-name="Path 5237" d="M731.334,357.8s-6.631.188-2.125-4.371c11.5-11.595,38.614-16.361,38.614-16.361s-13.991-5.911-34.872,4.09C713.112,350.655,717.513,359.718,731.334,357.8Z" transform="translate(-719.499 -335.336)" fill="#fff"/>
      </g>
    </g>
  </g>
</svg>
