<svg xmlns="http://www.w3.org/2000/svg" width="84" height="34" viewBox="0 0 84 34"><defs><style>.a{fill:#fff;}</style></defs><g transform="translate(-56.73 -242.766)"><g transform="translate(57.85 242.766)"><g transform="translate(0 6.37)"><g transform="translate(19.375 1.027)"><path class="a" d="M283.3,322.931h3.031l-3.156,6.387h.664l-2.1,10.9h-2.918l1.766-9.168H279.2Zm-1.14,15.756,4.158-10.32h2.918l-4.12,10.32Zm9.644-4.02h1.816l-.514,2.68h-1.816l-.551,2.856h-2.918l.551-2.856H286.4l.513-2.68h1.966l1.4-7.252h-5.21l.5-2.605h5.2l.363-1.891h2.918l-.363,1.891h5.248l-.5,2.605h-5.248Zm2.054,4.02-.25-10.32h2.918l.251,10.32Z" transform="translate(-278.814 -322.918)"/><path class="a" d="M487.191,330.833H503.51l-1.954,10.107h-4.885l.363-1.866H499l.075-.388H488.594l-.438,2.267h-2.918Zm5-3.031h7.6l-.113-.626h3.194l.914,2.993H487l2.5-3.394h-2.279l.451-2.33h7.252l-.138-.714h3.344l.263.714h7.014l-.451,2.33H492.9Zm-3.031,8-.138.714H499.5l.138-.714Zm.539-2.843-.138.714h10.483l.138-.714Z" transform="translate(-466.187 -323.657)"/></g><g transform="translate(2.53)"><path class="a" d="M104.218,324.339h0l-.013.05h0l-.288,1.39a2.844,2.844,0,0,1-2.655,1.328l-.451,3.119s5.861-.426,6.463-3.695h0l.413-1.979h0l.539-2.58,3.945-.025.676-2.73H108.8l.726-3.482-3.507.05-.726,3.432h-4.346l.776-3.958a61.006,61.006,0,0,0,11.347-1.027l-.175-2.442c-2.355,1-13.627,1.328-13.627,1.328l-.038.2h0l-.013.088v.025h0l-1.14,5.774h-1.14l-.664,2.856,8.441-.063Zm.9-.013Z" transform="translate(-96.277 -311.789)"/></g><g transform="translate(0 10.784)"><path class="a" d="M71.23,435.528a1.556,1.556,0,0,0,.2-.05,2.478,2.478,0,0,0,1.5-.99c.013-.013.013-.013.013-.025a3.386,3.386,0,0,0,.276-.413h0l3.469-5.411H73.56l-1.891,3.006h0l-.714,1.152a.93.93,0,0,1-.6.4H69.3l-.438,2.33H71.23Z" transform="translate(-68.863 -428.64)"/></g><g transform="translate(14.729 10.834)"><path class="a" d="M231.37,436.685h-2.906l.539-6.312-.326-.013.15-1.177h3.194c0,.088,0,.213-.013.363h0c-.038.8-.125,2.217-.125,2.217l-.2,2.029Z" transform="translate(-228.464 -429.183)"/></g></g><g transform="translate(56.934 0)"><g transform="translate(16.935 17.523)"><path class="a" d="M872.841,432.641a4.418,4.418,0,0,0-3.224,1.326c.138-.009.276-.018.414-.018,2.413,0,4.164,1.465,3.906,3.279-.018.1-.037.212-.065.313a3.153,3.153,0,0,0,2.091-2.275C876.166,433.811,874.766,432.641,872.841,432.641Z" transform="translate(-869.617 -432.641)"/></g><g transform="translate(0 18.653)"><ellipse class="a" cx="2.745" cy="2.386" rx="2.745" ry="2.386" transform="matrix(0.731, -0.682, 0.682, 0.731, 0, 3.744)"/></g><g transform="translate(3.629)"><ellipse class="a" cx="2.119" cy="1.842" rx="2.119" ry="1.842" transform="matrix(0.731, -0.682, 0.682, 0.731, 0, 2.889)"/></g><g transform="translate(4.802 9.855)"><path class="a" d="M751.254,354.64c2.754-4.3-2.837-7.9-9.6-1.971-2.542,2.229-4.661,4.8-2.809,5.923,1.686,1.022,6.208-1.971,6.208-1.971s-2.552.5-1.971,0a53.558,53.558,0,0,1,4.44-3.463s-.258,3.39-7.526,11.367C739.989,364.524,745.746,363.253,751.254,354.64Z" transform="translate(-738.145 -349.552)"/></g><g transform="translate(2.679 1.813)"><path class="a" d="M720.268,273.444s-2.874.092-.921-2.146c4.983-5.693,16.728-8.032,16.728-8.032s-6.061-2.9-15.107,2.008C712.374,269.934,714.281,274.384,720.268,273.444Z" transform="translate(-715.141 -262.414)"/></g></g></g><g transform="translate(56.73 269.022)"><g transform="translate(0 0)"><g transform="translate(22.743 0.008)"><path class="a" d="M309.016,535.9a2.889,2.889,0,0,0-1.97-.619,3.76,3.76,0,0,0-2.014.53,2.238,2.238,0,0,0-1.072,1.492,1.617,1.617,0,0,0,.467,1.587,5.075,5.075,0,0,0,1.888,1.016,3.066,3.066,0,0,1,.888.449.512.512,0,0,1-.165.8,1.131,1.131,0,0,1-.575.149,1.579,1.579,0,0,1-.8-.185c-.11-.063-.246-.19-.17-.55l.042-.2h-1.92l-.045.118-.019.054a1.572,1.572,0,0,0,.6,1.812,3.571,3.571,0,0,0,2.041.558,3.847,3.847,0,0,0,2.026-.51,2.241,2.241,0,0,0,1.069-1.513,1.774,1.774,0,0,0-.384-1.638,4.053,4.053,0,0,0-1.721-.99,5,5,0,0,1-1.109-.489.368.368,0,0,1-.126-.421.488.488,0,0,1,.262-.307,1.079,1.079,0,0,1,.565-.15.864.864,0,0,1,.637.211.544.544,0,0,1,.136.527l-.037.2h1.921l.045-.117.019-.054A1.681,1.681,0,0,0,309.016,535.9Z" transform="translate(-303.487 -535.278)"/><path class="a" d="M370.739,536.385h-2.851l-1.5,7.422h1.991l.487-2.426h.916a3.729,3.729,0,0,0,2.235-.654,2.88,2.88,0,0,0,1.151-1.817,1.933,1.933,0,0,0-.47-1.828A2.623,2.623,0,0,0,370.739,536.385Zm.449,2.485a1.111,1.111,0,0,1-1.132.9h-.865l.362-1.781h.912a.738.738,0,0,1,.626.229A.8.8,0,0,1,371.188,538.87Z" transform="translate(-360.583 -536.283)"/><path class="a" d="M445.975,536.2a2.535,2.535,0,0,0-2.1-.919,3.758,3.758,0,0,0-2.47.869,3.87,3.87,0,0,0-1.327,2.282l-.256,1.273a2.629,2.629,0,0,0,.457,2.285,2.566,2.566,0,0,0,2.112.918,3.727,3.727,0,0,0,2.453-.864,3.916,3.916,0,0,0,1.329-2.286l.257-1.275A2.666,2.666,0,0,0,445.975,536.2Zm-4.173,3.557.257-1.283a2.286,2.286,0,0,1,.57-1.152,1.293,1.293,0,0,1,.977-.432.793.793,0,0,1,.77.388,1.7,1.7,0,0,1,.083,1.146L444.2,539.7a2.337,2.337,0,0,1-.576,1.161,1.27,1.27,0,0,1-.957.434.812.812,0,0,1-.788-.388A1.7,1.7,0,0,1,441.8,539.753Z" transform="translate(-427.174 -535.278)"/><path class="a" d="M515.821,537a2.761,2.761,0,0,0-1.923-.616h-2.613l-1.5,7.422h1.991l.546-2.713h.737a.76.76,0,0,1,.608.2.777.777,0,0,1,.072.643l-.091.428a4.581,4.581,0,0,0-.09.748.811.811,0,0,0,.2.652l.047.043h1.91l.068-.339-.071-.062a.527.527,0,0,1-.131-.384,2.523,2.523,0,0,1,.042-.6l.092-.449a1.848,1.848,0,0,0-.1-1.162,1.254,1.254,0,0,0-.532-.551,2.554,2.554,0,0,0,.683-.506,2.167,2.167,0,0,0,.534-1.051A1.708,1.708,0,0,0,515.821,537Zm-1.517,1.755a.848.848,0,0,1-.334.537,1.149,1.149,0,0,1-.687.194h-.636l.3-1.494h.674a.732.732,0,0,1,.585.2A.648.648,0,0,1,514.3,538.756Z" transform="translate(-490.746 -536.283)"/><path class="a" d="M584.047,537.992h1.838l-1.175,5.815H586.7l1.175-5.815h1.872l.325-1.608h-5.7Z" transform="translate(-558.156 -536.283)"/><path class="a" d="M647.084,537.819H649l.045-.117.019-.054a1.681,1.681,0,0,0-.477-1.75,2.89,2.89,0,0,0-1.97-.619,3.76,3.76,0,0,0-2.014.53,2.239,2.239,0,0,0-1.072,1.492,1.617,1.617,0,0,0,.467,1.587,5.074,5.074,0,0,0,1.888,1.016,3.069,3.069,0,0,1,.888.449.486.486,0,0,1,.1.488.481.481,0,0,1-.266.307,1.131,1.131,0,0,1-.575.149,1.579,1.579,0,0,1-.8-.185c-.11-.063-.246-.19-.17-.55l.042-.2h-1.92l-.045.118-.018.054a1.572,1.572,0,0,0,.6,1.812,3.571,3.571,0,0,0,2.041.558,3.846,3.846,0,0,0,2.026-.51,2.241,2.241,0,0,0,1.07-1.513,1.774,1.774,0,0,0-.384-1.638,4.053,4.053,0,0,0-1.721-.99,5,5,0,0,1-1.109-.489.367.367,0,0,1-.125-.421.488.488,0,0,1,.261-.307,1.079,1.079,0,0,1,.565-.15.864.864,0,0,1,.637.211.544.544,0,0,1,.136.527Z" transform="translate(-611.725 -535.278)"/></g><path class="a" d="M59.876,535.209l-.568,0a2.263,2.263,0,0,0-1.923,1.924l-.656,5.675h2.218l.322-2.714,4.309-.022.211-1.6-4.343.026s.038-.47.129-1a.82.82,0,0,1,.625-.685l3.936-.017.289-1.615-4.548.023Z" transform="translate(-56.73 -535.186)"/><path class="a" d="M143.4,535.186l-.73,4.32c-.221,1.306-.593,1.617-1.528,1.617-.971,0-1.076-.277-.849-1.617l.73-4.32h-2.193l-.713,4.22c-.392,2.322.305,3.427,2.832,3.427,2.983,0,3.445-1.061,3.849-3.45l.71-4.2Z" transform="translate(-130.509 -535.186)"/><path class="a" d="M218.451,537.455a16.2,16.2,0,0,0-.314,2.229c-.189-.565-.423-1.052-.658-1.651l-1.112-2.8h-2.02l-1.3,7.621h1.85l.477-2.277c.141-.829.3-1.583.421-2.295.2.57.442,1.137.635,1.648l1.091,2.5h0a.847.847,0,0,0,.866.541,1.18,1.18,0,0,0,1.165-1.008l1.125-6.731h-1.85Z" transform="translate(-198.623 -535.227)"/></g><g transform="translate(60.464 0)"><g transform="translate(0 5.98)"><path class="a" d="M715.772,603h-1.72l.219-1.449h1.72Z" transform="translate(-713.884 -601.407)"/><path class="a" d="M714.243,601.724h-2.012l.263-1.738h2.012Zm-1.676-.289h1.427l.176-1.16h-1.427Z" transform="translate(-712.231 -599.986)"/></g><g transform="translate(2.544)"><path class="a" d="M746.95,542.733h-2.2l-.648,1.444h-1.816l3.536-7.43h.924v.005l.005-.005h.924l1.317,7.43h-1.816Zm-1.612-1.327h1.414l-.342-2.3-.031-.005Z" transform="translate(-742.052 -536.604)"/><path class="a" d="M746.909,542.9H744.8l-.219-1.444H742.59l-.648,1.444H739.8l3.674-7.718h2.065Zm-1.865-.289h1.52l-1.265-7.141h-.742l-.2.208,0-.208h-.69l-3.4,7.141h1.494l.648-1.444h2.422Zm-.375-2.482h-1.8l1.179-2.612.244.04Zm-1.357-.289h1.022l-.253-1.7Z" transform="translate(-739.803 -535.183)"/></g><g transform="translate(9.956)"><path class="a" d="M824.033,541.631l-.378,2.546h-1.725l1.112-7.43h2.837a2.7,2.7,0,0,1,1.97.681,1.93,1.93,0,0,1,.541,1.763,2.643,2.643,0,0,1-1.038,1.789,3.562,3.562,0,0,1-2.2.651Zm.2-1.327h1.117a1.274,1.274,0,0,0,1.317-1.1,1.036,1.036,0,0,0-.174-.819.976.976,0,0,0-.811-.309h-1.113Z" transform="translate(-821.763 -536.604)"/><path class="a" d="M822.131,542.9h-2.017l1.156-7.718h2.962a2.855,2.855,0,0,1,2.07.722,2.075,2.075,0,0,1,.583,1.887,2.8,2.8,0,0,1-1.094,1.883,3.719,3.719,0,0,1-2.289.68h-.993Zm-1.682-.289h1.432l.378-2.546H823.5a3.437,3.437,0,0,0,2.115-.622,2.515,2.515,0,0,0,.983-1.695,1.778,1.778,0,0,0-.5-1.638,2.579,2.579,0,0,0-1.869-.64h-2.713Zm3.251-3.584h-1.285l.38-2.519h1.237a1.114,1.114,0,0,1,.924.363,1.179,1.179,0,0,1,.2.929,1.418,1.418,0,0,1-1.46,1.227Zm-.95-.289h.95a1.143,1.143,0,0,0,.8-.277,1.13,1.13,0,0,0,.377-.7.891.891,0,0,0-.144-.708.847.847,0,0,0-.7-.254h-.988Z" transform="translate(-820.114 -535.183)"/></g><g transform="translate(16.735)"><path class="a" d="M897.492,541.631l-.378,2.546H895.39l1.112-7.43h2.837a2.7,2.7,0,0,1,1.97.681,1.93,1.93,0,0,1,.541,1.763,2.643,2.643,0,0,1-1.038,1.789,3.562,3.562,0,0,1-2.2.651Zm.2-1.327h1.117a1.274,1.274,0,0,0,1.317-1.1,1.036,1.036,0,0,0-.174-.819.975.975,0,0,0-.811-.309h-1.113Z" transform="translate(-895.222 -536.604)"/><path class="a" d="M895.589,542.9h-2.017l1.156-7.718h2.962a2.854,2.854,0,0,1,2.07.722,2.075,2.075,0,0,1,.583,1.887,2.8,2.8,0,0,1-1.094,1.883,3.719,3.719,0,0,1-2.289.68h-.993Zm-1.682-.289h1.432l.378-2.546h1.242a3.438,3.438,0,0,0,2.115-.622,2.515,2.515,0,0,0,.982-1.695,1.778,1.778,0,0,0-.5-1.638,2.579,2.579,0,0,0-1.869-.64h-2.713Zm3.251-3.584h-1.285l.38-2.519h1.237a1.114,1.114,0,0,1,.924.363,1.177,1.177,0,0,1,.2.929,1.418,1.418,0,0,1-1.46,1.227Zm-.95-.289h.95a1.143,1.143,0,0,0,.8-.277,1.129,1.129,0,0,0,.377-.7.891.891,0,0,0-.144-.708.847.847,0,0,0-.7-.254H896.5Z" transform="translate(-893.572 -535.183)"/></g></g></g></g></svg>