<?xml version="1.0" encoding="utf-8"?>
<!-- Generator: Adobe Illustrator 26.1.0, SVG Export Plug-In . SVG Version: 6.00 Build 0)  -->
<svg version="1.1" id="Layer_1" xmlns="http://www.w3.org/2000/svg" xmlns:xlink="http://www.w3.org/1999/xlink" x="0px" y="0px"
	 viewBox="0 0 15 15" style="enable-background:new 0 0 15 15;" xml:space="preserve">
<style type="text/css">
	.st0{fill:#0C2274;}
</style>
<g>
	<path class="st0" d="M7.5,15c-4.1,0.02-7.49-3.35-7.5-7.45C-0.01,3.38,3.32,0.03,7.5,0c4.1-0.02,7.49,3.36,7.5,7.48
		C15.01,11.62,11.66,14.98,7.5,15z M7.51,1.37c-3.38,0-6.14,2.74-6.14,6.12c0,3.4,2.74,6.15,6.12,6.15c3.4,0,6.15-2.75,6.15-6.14
		C13.64,4.12,10.88,1.37,7.51,1.37z"/>
	<path class="st0" d="M7.48,6.56c0.53-0.53,1.02-1.02,1.51-1.51c0.14-0.14,0.27-0.27,0.41-0.41c0.31-0.3,0.72-0.32,1-0.04
		c0.28,0.28,0.27,0.69-0.03,1C9.78,6.19,9.19,6.78,8.6,7.37C8.56,7.41,8.52,7.45,8.47,7.5C8.52,7.55,8.55,7.59,8.6,7.63
		c0.59,0.59,1.17,1.18,1.76,1.76c0.19,0.19,0.28,0.4,0.23,0.66c-0.06,0.26-0.22,0.44-0.47,0.51c-0.26,0.08-0.49,0.01-0.68-0.17
		C9.1,10.07,8.77,9.74,8.44,9.41C8.13,9.1,7.82,8.79,7.5,8.47C7.46,8.51,7.41,8.55,7.37,8.59c-0.6,0.6-1.2,1.2-1.8,1.8
		c-0.19,0.19-0.42,0.26-0.69,0.18c-0.26-0.08-0.42-0.25-0.47-0.51C4.36,9.8,4.45,9.59,4.63,9.41C5.22,8.82,5.81,8.22,6.4,7.63
		C6.44,7.59,6.48,7.55,6.53,7.5C6.48,7.45,6.44,7.41,6.4,7.37c-0.59-0.6-1.19-1.19-1.78-1.79C4.43,5.39,4.35,5.16,4.43,4.9
		C4.5,4.64,4.68,4.48,4.94,4.42C5.2,4.36,5.42,4.45,5.6,4.64C6.19,5.23,6.78,5.81,7.36,6.4C7.4,6.44,7.43,6.5,7.48,6.56z"/>
</g>
</svg>
