<svg xmlns="http://www.w3.org/2000/svg" width="18" height="18" viewBox="0 0 18 18">
  <g id="Group_7754" data-name="Group 7754" transform="translate(-532 -560)">
    <path id="Path_4830" data-name="Path 4830" d="M0,0H18V18H0Z" transform="translate(532 560)" fill="#78909c" opacity="0"/>
    <g id="个人资料" transform="translate(532.205 560.643)">
      <path id="Path_4826" data-name="Path 4826" d="M5.413,50.742H2.669A2.658,2.658,0,0,1,0,48.073V36.8a2.658,2.658,0,0,1,2.669-2.669h11.27A2.658,2.658,0,0,1,16.608,36.8v1.854a.585.585,0,0,1-.593.593.546.546,0,0,1-.593-.593V36.8a1.566,1.566,0,0,0-1.557-1.557H2.669A1.566,1.566,0,0,0,1.112,36.8v11.27A1.566,1.566,0,0,0,2.669,49.63H5.487a.585.585,0,0,1,.593.593c0,.371-.3.519-.667.519Z" transform="translate(0 -34.133)" fill="#78909c"/>
      <path id="Union_7" data-name="Union 7" d="M8.9,11.209A3.955,3.955,0,0,0,4.968,7.279a3.83,3.83,0,0,0-3.781,3.929.585.585,0,0,1-.593.593A.546.546,0,0,1,0,11.209,4.994,4.994,0,0,1,1.483,7.65,5.08,5.08,0,0,1,2.969,6.614a3.633,3.633,0,1,1,4.146,0A5.083,5.083,0,0,1,8.6,7.65a5,5,0,0,1,1.483,3.559.546.546,0,0,1-.593.593A.585.585,0,0,1,8.9,11.209ZM3.262,1.853a2.589,2.589,0,0,0-.742,1.78,2.588,2.588,0,0,0,.742,1.779,2.736,2.736,0,0,0,1.78.742A2.532,2.532,0,0,0,7.563,3.633a2.589,2.589,0,0,0-.742-1.78,2.737,2.737,0,0,0-1.779-.741A2.737,2.737,0,0,0,3.262,1.853Z" transform="translate(7.711 4.806)" fill="#78909c"/>
      <path id="Path_4829" data-name="Path 4829" d="M133.412,316.919h-4.819a.593.593,0,1,1,0-1.186h4.894a.585.585,0,0,1,.593.593A.7.7,0,0,1,133.412,316.919Zm-1.483,3.337h-3.337a.585.585,0,0,1-.593-.593.529.529,0,0,1,.593-.519h3.337a.507.507,0,0,1,.519.519.529.529,0,0,1-.519.593Z" transform="translate(-125.775 -310.84)" fill="#00a6ff"/>
    </g>
  </g>
</svg>
