<svg xmlns="http://www.w3.org/2000/svg" width="18.428" height="17.506" viewBox="0 0 18.428 17.506">
  <g id="Group_12627" data-name="Group 12627" transform="translate(-4684 1653.504)">
    <g id="Group_12741" data-name="Group 12741" transform="translate(3490.857 -2268.363)">
      <g id="Layer_2_copy" data-name="Layer 2 copy" transform="translate(1193.143 615.209)">
        <g id="Group_12740" data-name="Group 12740" transform="translate(0)">
          <path id="Path_5411" data-name="Path 5411" d="M1450.311,846.781c-.366-.385-.746-.757-1.13-1.142l-.928.622,1.292,1.291a.675.675,0,0,1,.1.958.647.647,0,0,1-.884.108,1.609,1.609,0,0,1-.188-.17l-2.481-2.5-.811.809a.474.474,0,0,1,.131.078q1.361,1.352,2.719,2.708a.707.707,0,0,1,.244.65.654.654,0,0,1-1.027.421,1.637,1.637,0,0,1-.188-.171q-1.333-1.328-2.665-2.658a1.718,1.718,0,0,1-.114-.137l-.81.805a.735.735,0,0,1,.14.094q1.174,1.166,2.344,2.336a.713.713,0,0,1,.248.489.634.634,0,0,1-.355.625.652.652,0,0,1-.73-.088c-.051-.043-.1-.091-.145-.138q-1.146-1.143-2.29-2.288a.754.754,0,0,1-.1-.159l-.8.8c.032.034.075.081.12.126q.894.893,1.79,1.785a.718.718,0,0,1,.254.5.656.656,0,0,1-1.064.542c-.239-.2-.467-.4-.7-.613a.238.238,0,0,1-.072-.137,1.607,1.607,0,0,0-.028-.165l-.251,1.442a1.891,1.891,0,0,0,1.716.686,1.749,1.749,0,0,0,1.426-1.217,1.8,1.8,0,0,0,2.292-1.269,1.779,1.779,0,0,0,2.093-2c.056-.017.1-.032.148-.045a1.736,1.736,0,0,0,1.079-2.481A2.386,2.386,0,0,0,1450.311,846.781Z" transform="translate(-1432.834 -837.593)" fill="#78909c"/>
          <path id="Path_5412" data-name="Path 5412" d="M1195.934,632.573c-.462-.788-.935-1.569-1.411-2.364l4.435-4.306.8.6c-.042.047-.074.088-.11.124l-.46.462,1.391-1.381h0a.437.437,0,0,1-.206-.1c-.489-.386-.993-.753-1.5-1.134l-5.723,5.559,1.794,3-.107.105c.444-.134.925-.284,1.24-.4A.521.521,0,0,1,1195.934,632.573Z" transform="translate(-1193.143 -624.47)" fill="#78909c"/>
        </g>
      </g>
      <path id="Path_5413" data-name="Path 5413" d="M1204.9,856.57c-.023,0-.046-.013-.036-.01a5.785,5.785,0,0,0-.274-.766,1.579,1.579,0,0,0-1.232-.856c-.115-.017-.194-.035-.213-.183a1.654,1.654,0,0,0-1.436-1.467c-.153-.022-.2-.076-.209-.222a1.665,1.665,0,0,0-1.3-1.4.5.5,0,0,1-.208-.086c-.315.114-.8.264-1.24.4-.341.335-.672.656-.994.985a1.666,1.666,0,0,0-.478,1.7,1.629,1.629,0,0,0,1.3,1.225c.118.026.118.087.126.176a1.683,1.683,0,0,0,1.526,1.644c.134.02.13.1.139.188a1.675,1.675,0,0,0,1.491,1.454,7.113,7.113,0,0,0,.76-.026c.006.012.02.039.031.066a1.692,1.692,0,0,0,2.691.672,10.882,10.882,0,0,0,.762-.782l.058.061.251-1.442A1.71,1.71,0,0,0,1204.9,856.57Zm-6.407-1.912a.613.613,0,0,1,.021-.9c.292-.3.587-.594.89-.882a.575.575,0,0,1,.673-.106.655.655,0,0,1,.366.648,1.7,1.7,0,0,1-.213.365c-.269.295-.557.572-.845.85A.614.614,0,0,1,1198.493,854.658Zm2.328,1.813a1.061,1.061,0,0,1-.329.162.641.641,0,0,1-.631-.359.548.548,0,0,1,.082-.644q.549-.581,1.131-1.13a.6.6,0,0,1,.826.032.594.594,0,0,1,.03.838Q1201.392,855.937,1200.821,856.471Zm1.69,1.614a.616.616,0,1,1-.879-.863c.341-.353.69-.7,1.042-1.04a.582.582,0,0,1,.687-.125.654.654,0,0,1,.372.645,1.547,1.547,0,0,1-.208.365C1203.2,857.418,1202.854,857.753,1202.51,858.085Zm2.707.58a5.682,5.682,0,0,1-.566.561,1.28,1.28,0,0,1-.329.164.647.647,0,0,1-.621-.345.559.559,0,0,1,.063-.647,5.927,5.927,0,0,1,.614-.615.612.612,0,0,1,.839.882Z" transform="translate(-3.925 -228.109)" fill="#00a6ff"/>
      <g id="Layer_2" data-name="Layer 2" transform="translate(1197.724 614.859)">
        <path id="Path_5414" data-name="Path 5414" d="M1322.271,621.293c.479-.481.948-.972,1.431-1.45a.449.449,0,0,1,.28-.118q.809-.017,1.618,0a.425.425,0,0,1,.266.112q2.028,2.017,4.05,4.04l.928-.623-.027-.028,2.108-1.958-.15-.533-5.757-5.878c-.368.372-.734.733-1.087,1.106a.524.524,0,0,1-.427.174c-.739-.009-1.479,0-2.219,0a2.2,2.2,0,0,0-1.1.246.4.4,0,0,1-.252.065h0l-1.391,1.381c-.3.305-.609.61-.909.92a1.836,1.836,0,1,0,2.645,2.547Zm-1.938-1.7a2.036,2.036,0,0,1,.148-.16c.558-.564,1.125-1.12,1.673-1.694a1.582,1.582,0,0,1,1.246-.516c.878.018,1.757.009,2.636,0a.457.457,0,0,0,.28-.117c.233-.219.45-.455.688-.7l4.55,4.645-1.513,1.406c-.054-.052-.1-.1-.149-.142q-1.781-1.78-3.56-3.562a.385.385,0,0,0-.3-.128q-1.245.008-2.49,0a.4.4,0,0,0-.316.136c-.574.591-1.155,1.175-1.73,1.766a.763.763,0,0,1-.771.252A.741.741,0,0,1,1320.334,619.592Z" transform="translate(-1319.078 -614.859)" fill="#00a6ff"/>
      </g>
    </g>
  </g>
</svg>
