<svg xmlns="http://www.w3.org/2000/svg" width="18" height="18" viewBox="0 0 18 18">
  <g id="Group_12636" data-name="Group 12636" transform="translate(-7374 -1212)">
    <g id="Rectangle_5493" data-name="Rectangle 5493" transform="translate(7374 1212)" fill="#fff" stroke="#707070" stroke-width="1" opacity="0">
      <rect width="18" height="18" stroke="none"/>
      <rect x="0.5" y="0.5" width="17" height="17" fill="none"/>
    </g>
    <g id="Group_12636-2" data-name="Group 12636" transform="translate(-17.745 10.569)">
      <path id="apps" d="M133.068,103.988h-4.154a2.079,2.079,0,0,1-2.077-2.077V97.757a2.079,2.079,0,0,1,2.077-2.077h4.154a2.079,2.079,0,0,1,2.077,2.077v4.154A2.079,2.079,0,0,1,133.068,103.988Zm-4.154-6.923a.693.693,0,0,0-.692.692v4.154a.693.693,0,0,0,.692.692h4.154a.693.693,0,0,0,.692-.692V97.757a.693.693,0,0,0-.692-.692Z" transform="translate(7274.531 1105.751)" fill="#00a6ff"/>
      <path id="apps-2" data-name="apps" d="M105.495,103.988h-4.154a2.079,2.079,0,0,1-2.077-2.077V97.757a2.079,2.079,0,0,1,2.077-2.077h4.154a2.079,2.079,0,0,1,2.077,2.077v4.154A2.079,2.079,0,0,1,105.495,103.988Zm-4.154-6.923a.693.693,0,0,0-.692.692v4.154a.693.693,0,0,0,.692.692h4.154a.693.693,0,0,0,.692-.692V97.757a.693.693,0,0,0-.692-.692Zm4.154,16.615h-4.154a2.079,2.079,0,0,1-2.077-2.077v-4.154a2.079,2.079,0,0,1,2.077-2.077h4.154a2.079,2.079,0,0,1,2.077,2.077V111.6A2.079,2.079,0,0,1,105.495,113.68Zm-4.154-6.923a.693.693,0,0,0-.692.692V111.6a.693.693,0,0,0,.692.692h4.154a.693.693,0,0,0,.692-.692v-4.154a.693.693,0,0,0-.692-.692Zm13.778,6.923h-4.154a2.079,2.079,0,0,1-2.077-2.077v-4.154a2.079,2.079,0,0,1,2.077-2.077h4.154a2.079,2.079,0,0,1,2.077,2.077V111.6A2.079,2.079,0,0,1,115.119,113.68Zm-4.154-6.923a.693.693,0,0,0-.692.692V111.6a.693.693,0,0,0,.692.692h4.154a.693.693,0,0,0,.692-.692v-4.154a.693.693,0,0,0-.692-.692Z" transform="translate(7292.48 1105.751)" fill="#859aa5"/>
    </g>
  </g>
</svg>
