<svg xmlns="http://www.w3.org/2000/svg" width="26" height="26" viewBox="0 0 26 26">
  <g id="Group_11049" data-name="Group 11049" transform="translate(-853 11035)">
    <rect id="Rectangle_5224" data-name="Rectangle 5224" width="26" height="26" transform="translate(853 -11035)" fill="#fff" opacity="0"/>
    <g id="man_2_" data-name="man (2)" transform="translate(778.972 -11035)">
      <path id="Path_5220" data-name="Path 5220" d="M95.285,23.352v2.2a.448.448,0,0,1-.448.448H78.476a.448.448,0,0,1-.448-.448v-2.2a4.179,4.179,0,0,1,4.179-4.178,2.32,2.32,0,0,0,1.948-1.057,2.634,2.634,0,0,0,.373-1.642l.008-.021a5.547,5.547,0,0,1-3.426-5.127v-.175a1.382,1.382,0,0,1-1.4-1.375V7.449a7.755,7.755,0,0,1,2.084-5.661C84.194-.526,88-.337,90.756.9a.112.112,0,0,1,0,.206l-.719.3a.112.112,0,0,0,.031.215l.349.038a5.654,5.654,0,0,1,4.22,2.65.035.035,0,0,1-.006.041A3.389,3.389,0,0,0,93.66,6.72V9.7A1.456,1.456,0,0,1,92.2,11.153v.175a5.547,5.547,0,0,1-3.426,5.127l.008.021a2.633,2.633,0,0,0,.373,1.642,2.32,2.32,0,0,0,1.948,1.057,4.179,4.179,0,0,1,4.179,4.178Z" transform="translate(0 0)" fill="#ffd6a6"/>
      <path id="Path_5221" data-name="Path 5221" d="M122.915,4.307a.034.034,0,0,1-.006.041,3.391,3.391,0,0,0-.968,2.373V9.7a1.456,1.456,0,0,1-1.457,1.456c0-1.7,0-2.581,0-3.058a.448.448,0,0,0-.578-.428,6.019,6.019,0,0,1-3.064.18c-1.949-.424-2.5-1.187-4.09-1.569a2.729,2.729,0,0,0-3.376,2.675c0,.572.013,1.287.014,2.2a1.382,1.382,0,0,1-1.4-1.375V7.45a7.755,7.755,0,0,1,2.084-5.661c2.4-2.315,6.207-2.125,8.963-.887a.112.112,0,0,1,0,.206l-.719.3a.112.112,0,0,0,.031.215l.349.037a5.653,5.653,0,0,1,4.22,2.65Z" transform="translate(-28.282 -0.001)" fill="#42434d"/>
      <path id="Path_5222" data-name="Path 5222" d="M143.306,112.118a.447.447,0,0,1,.578.428c0,.493,0,1.424,0,3.233a5.547,5.547,0,1,1-11.094,0c0-1.023-.01-1.749-.014-2.375a2.729,2.729,0,0,1,3.376-2.675c1.59.382,2.141,1.145,4.09,1.569A6.02,6.02,0,0,0,143.306,112.118Z" transform="translate(-51.681 -104.452)" fill="#ffdfba"/>
      <path id="Path_5223" data-name="Path 5223" d="M95.285,328.6v2.2a.448.448,0,0,1-.448.448H78.476a.448.448,0,0,1-.448-.448v-2.2a4.179,4.179,0,0,1,4.179-4.178,2.32,2.32,0,0,0,1.948-1.057,3.846,3.846,0,0,0,5,0,2.32,2.32,0,0,0,1.948,1.057,4.179,4.179,0,0,1,4.179,4.178Z" transform="translate(0 -305.249)" fill="#00a6ff"/>
      <path id="Path_5224" data-name="Path 5224" d="M282.821,431.952h-1.345a.448.448,0,0,1,0-.9h1.345a.448.448,0,0,1,0,.9Z" transform="translate(-191.626 -406.905)" fill="#fff"/>
      <path id="Path_5225" data-name="Path 5225" d="M84.465,325.776a2.279,2.279,0,0,1-.668.1,4.19,4.19,0,0,0-4.2,4.164v.421a.784.784,0,0,1-.784.784h-.336a.448.448,0,0,1-.448-.448v-2.2a4.179,4.179,0,0,1,4.179-4.178,2.32,2.32,0,0,0,1.948-1.057,3.878,3.878,0,0,0,.533.382A1.119,1.119,0,0,1,84.465,325.776Z" transform="translate(0 -305.249)" fill="#4ac0ff"/>
      <path id="Path_5226" data-name="Path 5226" d="M258.133,325.776a2.279,2.279,0,0,0,.668.1,4.19,4.19,0,0,1,4.2,4.164v.421a.784.784,0,0,0,.784.784h.336a.448.448,0,0,0,.448-.448v-2.2a4.179,4.179,0,0,0-4.179-4.178,2.32,2.32,0,0,1-1.948-1.057,3.88,3.88,0,0,1-.533.382A1.119,1.119,0,0,0,258.133,325.776Z" transform="translate(-169.285 -305.249)" fill="#0792dc"/>
      <path id="Path_5227" data-name="Path 5227" d="M197.283,294.627a5.562,5.562,0,0,1-4.385,0,3.472,3.472,0,0,0,.063-.92l.008-.021a5.558,5.558,0,0,0,4.241,0l.008.021A3.471,3.471,0,0,0,197.283,294.627Z" transform="translate(-108.434 -277.232)" fill="#f7c388"/>
      <path id="Path_5228" data-name="Path 5228" d="M119.033,1.108c-.528.217-.645.294-.888.254C113.7.63,110.2,2.954,109.72,7.5a.683.683,0,0,1-.064.23,4,4,0,0,0-.273,2.062.7.7,0,0,1-1.392.059c0-.056,0,.092,0-2.4a7.755,7.755,0,0,1,2.084-5.661c2.4-2.315,6.207-2.125,8.963-.887a.112.112,0,0,1,0,.206Z" transform="translate(-28.281 0)" fill="#4d4e59"/>
      <path id="Path_5229" data-name="Path 5229" d="M137.084,135.059a.886.886,0,0,1-.806,1.569,5.548,5.548,0,0,1-3.486-5.151c0-1.024-.01-1.747-.014-2.375a2.73,2.73,0,0,1,.448-1.521.674.674,0,0,1,1.232.4c0,.631.014,1.35.014,2.375A5.507,5.507,0,0,0,137.084,135.059Z" transform="translate(-51.682 -120.149)" fill="#ffebd2"/>
    </g>
  </g>
</svg>
