<svg xmlns="http://www.w3.org/2000/svg" xmlns:xlink="http://www.w3.org/1999/xlink" width="52" height="52" viewBox="0 0 52 52">
  <defs>
    <linearGradient id="linear-gradient" x1="0.092" y1="0.052" x2="1.473" y2="1.773" gradientUnits="objectBoundingBox">
      <stop offset="0" stop-color="#ffb858"/>
      <stop offset="1" stop-color="#ff8b62"/>
    </linearGradient>
    <filter id="Rectangle_12" x="0" y="0" width="52" height="52" filterUnits="userSpaceOnUse">
      <feOffset dy="3" input="SourceAlpha"/>
      <feGaussianBlur stdDeviation="3" result="blur"/>
      <feFlood flood-color="#020202" flood-opacity="0.102"/>
      <feComposite operator="in" in2="blur"/>
      <feComposite in="SourceGraphic"/>
    </filter>
    <linearGradient id="linear-gradient-2" x1="0.5" x2="0.5" y2="1" gradientUnits="objectBoundingBox">
      <stop offset="0" stop-color="#fff"/>
      <stop offset="0.599" stop-color="#fff" stop-opacity="0.906"/>
      <stop offset="1" stop-color="#fff" stop-opacity="0.82"/>
    </linearGradient>
  </defs>
  <g id="Group_10848" data-name="Group 10848" transform="translate(-284 -50)">
    <g id="Group_7038" data-name="Group 7038" transform="translate(293 56)">
      <g transform="matrix(1, 0, 0, 1, -9, -6)" filter="url(#Rectangle_12)">
        <rect id="Rectangle_12-2" data-name="Rectangle 12" width="34" height="34" rx="8" transform="translate(9 6)" fill="url(#linear-gradient)"/>
      </g>
    </g>
    <g id="Group_7930" data-name="Group 7930" transform="translate(302.154 65.154)">
      <g id="Group_7" data-name="Group 7">
        <rect id="Rectangle_5" data-name="Rectangle 5" width="15.385" height="15.385" opacity="0" fill="url(#linear-gradient-2)"/>
        <path id="wallet" d="M166.765,163.279a7.941,7.941,0,0,0-3.907-4.96c-.232-.13-.477-.239-.716-.358a.038.038,0,0,1,.007-.015l.122-.111a3.594,3.594,0,0,0,.982-1.341,5.793,5.793,0,0,0,.183-.6,1.461,1.461,0,0,0-.475-1.561,1.925,1.925,0,0,0-2.058-.268c-.051.021-.085.036-.137-.011a2.616,2.616,0,0,0-3.441-.019.107.107,0,0,1-.135.024,1.982,1.982,0,0,0-1.214-.126,1.542,1.542,0,0,0-1.33,1.688,3.532,3.532,0,0,0,.943,2c.109.117.226.229.343.348l-.088.041a8.019,8.019,0,0,0-4.777,6.753,7.292,7.292,0,0,0,.2,2.429,2.976,2.976,0,0,0,2.88,2.206c3.271-.007,6.542,0,9.813,0a2.867,2.867,0,0,0,2.447-1.28,3.239,3.239,0,0,0,.519-1.4A7.938,7.938,0,0,0,166.765,163.279Zm-5.431,2a.546.546,0,0,1-.333.1h-1.413v.43a.585.585,0,0,1-.151.376.433.433,0,0,1-.394.161.665.665,0,0,1-.4-.118.534.534,0,0,1-.182-.419v-.43h-1.372a.479.479,0,0,1-.333-.118.32.32,0,0,1-.111-.29.4.4,0,0,1,.131-.312.452.452,0,0,1,.313-.118h1.372v-.752h-1.372a.427.427,0,0,1-.444-.43.483.483,0,0,1,.131-.322.4.4,0,0,1,.313-.15h1.372l.02-.451q-.363-.387-.666-.731-.243-.279-.484-.559l-.3-.3a1.273,1.273,0,0,1-.182-.355.494.494,0,0,1,.081-.462.368.368,0,0,1,.444-.118,1.245,1.245,0,0,1,.424.247q.081.107.283.322l.969,1.032q.312-.313.626-.623.239-.234.484-.462t.343-.312a.574.574,0,0,1,.4-.172.432.432,0,0,1,.363.193q.262.322-.2.752-.121.108-.363.376t-.484.526q-.283.322-.626.666v.408H160.9a.544.544,0,0,1,.414.14.445.445,0,0,1,.131.312.492.492,0,0,1-.121.333.461.461,0,0,1-.4.118l-1.312.022-.02.731h1.292q.565,0,.565.451A.321.321,0,0,1,161.334,165.28Z" transform="translate(-151.045 -153.405)" fill="url(#linear-gradient-2)"/>
      </g>
    </g>
  </g>
</svg>
