<svg xmlns="http://www.w3.org/2000/svg" xmlns:xlink="http://www.w3.org/1999/xlink" width="52" height="52" viewBox="0 0 52 52">
  <defs>
    <linearGradient id="linear-gradient" x1="0.1" y1="0.058" x2="0.917" y2="0.925" gradientUnits="objectBoundingBox">
      <stop offset="0" stop-color="#ffe5aa"/>
      <stop offset="1" stop-color="#ffa816"/>
    </linearGradient>
    <filter id="Rectangle_13" x="0" y="0" width="52" height="52" filterUnits="userSpaceOnUse">
      <feOffset dy="3" input="SourceAlpha"/>
      <feGaussianBlur stdDeviation="3" result="blur"/>
      <feFlood flood-color="#020202" flood-opacity="0.102"/>
      <feComposite operator="in" in2="blur"/>
      <feComposite in="SourceGraphic"/>
    </filter>
    <linearGradient id="linear-gradient-2" x1="0.5" x2="0.5" y2="1" gradientUnits="objectBoundingBox">
      <stop offset="0" stop-color="#fff"/>
      <stop offset="0.599" stop-color="#fff" stop-opacity="0.906"/>
      <stop offset="1" stop-color="#fff" stop-opacity="0.82"/>
    </linearGradient>
  </defs>
  <g id="Group_10851" data-name="Group 10851" transform="translate(-191 -262)">
    <g transform="matrix(1, 0, 0, 1, 191, 262)" filter="url(#Rectangle_13)">
      <rect id="Rectangle_13-2" data-name="Rectangle 13" width="34" height="34" rx="8" transform="translate(9 6)" fill="url(#linear-gradient)"/>
    </g>
    <g id="Group_12616" data-name="Group 12616" transform="translate(-1626 12669)">
      <g id="Rectangle_5454" data-name="Rectangle 5454" transform="translate(1835 -12392)" fill="#fff" stroke="#707070" stroke-width="1" opacity="0">
        <rect width="16" height="16" stroke="none"/>
        <rect x="0.5" y="0.5" width="15" height="15" fill="none"/>
      </g>
      <g id="Group_12354" data-name="Group 12354" transform="translate(1835 -12390.224)">
        <path id="Exclusion_2" data-name="Exclusion 2" d="M8,13.177H8a.825.825,0,0,1-.619-.269L.181,4.856a.683.683,0,0,1-.067-.841l2.4-3.66A.821.821,0,0,1,3.2,0h9.6a.823.823,0,0,1,.687.355l2.4,3.66a.685.685,0,0,1-.067.842l-7.2,8.051A.825.825,0,0,1,8,13.177ZM5.029,2.823a.794.794,0,0,0,0,1.589h5.942a.794.794,0,1,0,0-1.589Z" transform="translate(0 0.001)" fill="url(#linear-gradient-2)"/>
      </g>
    </g>
  </g>
</svg>
