<svg xmlns="http://www.w3.org/2000/svg" width="18" height="18" viewBox="0 0 18 18">
  <g id="Group_12742" data-name="Group 12742" transform="translate(-1215 -2307)">
    <rect id="Rectangle_5508" data-name="Rectangle 5508" width="18" height="18" transform="translate(1215 2307)" fill="#fff" opacity="0"/>
    <g id="Group_12742-2" data-name="Group 12742" transform="translate(28.892)">
      <g id="版本" transform="translate(1133.931 2295.326)" fill="#859aa5">
        <path d="M 61.17697906494141 21.91179275512695 C 60.94649124145508 21.91179275512695 60.71816253662109 21.85261344909668 60.51670074462891 21.74064254760742 L 54.33153915405273 18.30351257324219 C 54.0141716003418 18.12713241577148 53.78446960449219 17.83774375915527 53.68477249145508 17.48862266540527 C 53.5850715637207 17.13950347900391 53.62729263305664 16.77246284484863 53.80366134643555 16.45513343811035 C 53.92697143554688 16.23315238952637 54.10947036743164 16.05058288574219 54.33143997192383 15.92719268798828 L 60.51678085327148 12.49011325836182 C 60.7182502746582 12.37815284729004 60.94657135009766 12.31897354125977 61.17707061767578 12.31897354125977 C 61.40756225585938 12.31897354125977 61.63587951660156 12.37815284729004 61.83735275268555 12.49012279510498 L 68.02251434326172 15.92717361450195 C 68.67754364013672 16.2912425994873 68.91429901123047 17.12045288085938 68.55030822753906 17.7756233215332 C 68.42696380615234 17.99760246276855 68.24442291259766 18.18013381958008 68.02243804931641 18.30350303649902 L 61.83727264404297 21.74065399169922 C 61.63579940795898 21.85261344909668 61.407470703125 21.91179275512695 61.17697906494141 21.91179275512695 Z M 61.17697906494141 13.36959362030029 C 61.12464141845703 13.36959362030029 61.07279205322266 13.38303279876709 61.02705001831055 13.4084529876709 L 54.84188079833984 16.84552383422852 C 54.74397277832031 16.89993286132812 54.68313980102539 17.00332260131836 54.68313980102539 17.11534309387207 C 54.68313980102539 17.22736358642578 54.74397277832031 17.33076286315918 54.84188079833984 17.38518333435059 L 61.02704238891602 20.82231330871582 C 61.07279205322266 20.84774398803711 61.12464141845703 20.86117362976074 61.17697906494141 20.86117362976074 C 61.22932052612305 20.86117362976074 61.28116989135742 20.84774398803711 61.32691955566406 20.82231330871582 L 67.51209259033203 17.38517379760742 C 67.60999298095703 17.33076286315918 67.67082214355469 17.22736358642578 67.67082214355469 17.11534309387207 C 67.67082214355469 17.00332260131836 67.60999298095703 16.89993286132812 67.51207733154297 16.84551239013672 L 61.32691955566406 13.40846347808838 C 61.28116989135742 13.38303279876709 61.22932052612305 13.36959362030029 61.17697906494141 13.36959362030029 Z" stroke="none"/>
        <path d="M 61.17706680297852 12.46897506713867 C 60.97468185424805 12.46897506713867 60.77229690551758 12.51972770690918 60.58964157104492 12.6212329864502 L 54.40431213378906 16.05829238891602 C 54.20703125 16.16797256469727 54.04438018798828 16.3306827545166 53.93476867675781 16.52800369262695 C 53.6103515625 17.11171340942383 53.82060241699219 17.84796333312988 54.40438842773438 18.17239379882812 L 60.58956146240234 21.60953330993652 C 60.95485305786133 21.81254196166992 61.39909744262695 21.81254577636719 61.76441192626953 21.60953330993652 L 67.94956970214844 18.17239379882812 C 68.14686584472656 18.06274223327637 68.30955505371094 17.90007400512695 68.419189453125 17.70277404785156 C 68.7435302734375 17.11897277832031 68.53335571289062 16.38272285461426 67.94956970214844 16.05829238891602 L 67.94964599609375 16.05829238891602 L 61.76449203491211 12.6212329864502 C 61.58183670043945 12.51972770690918 61.37945175170898 12.46897506713867 61.17706680297852 12.46897506713867 M 61.17697906494141 21.01117706298828 C 61.1002197265625 21.01117706298828 61.02345657348633 20.99192810058594 60.95418167114258 20.95343399047852 L 54.76902770996094 17.51629257202148 C 54.62342834472656 17.43538284301758 54.53314208984375 17.28190231323242 54.53314208984375 17.11534309387207 C 54.53314208984375 16.94878387451172 54.62342834472656 16.79531288146973 54.76902770996094 16.71440315246582 L 60.95418167114258 13.2773323059082 C 61.09273910522461 13.20034408569336 61.26123809814453 13.20034790039062 61.3997802734375 13.2773323059082 L 67.58494567871094 16.71440315246582 C 67.73052978515625 16.79531288146973 67.82081604003906 16.94878387451172 67.82081604003906 17.11534309387207 C 67.82081604003906 17.28190231323242 67.73052978515625 17.43538284301758 67.58494567871094 17.51629257202148 L 61.3997802734375 20.95343399047852 C 61.33050537109375 20.99192810058594 61.25374221801758 21.01117706298828 61.17697906494141 21.01117706298828 M 61.17705917358398 12.16897392272949 C 61.43299102783203 12.16897392272949 61.6865119934082 12.23468399047852 61.91022109985352 12.3590030670166 L 68.09535980224609 15.79606246948242 C 68.82269287109375 16.20030403137207 69.08558654785156 17.12100219726562 68.68144226074219 17.84847259521484 C 68.54447174072266 18.09494400024414 68.34178924560547 18.29762268066406 68.09530639648438 18.43461227416992 L 61.91012954711914 21.87176322937012 C 61.6864128112793 21.9960823059082 61.43289184570312 22.06179428100586 61.17697906494141 22.06179428100586 C 60.92107009887695 22.06179428100586 60.66754913330078 21.9960823059082 60.44384002685547 21.87176322937012 L 54.25867462158203 18.43462371826172 C 53.90627288818359 18.23879241943359 53.65123748779297 17.91745376586914 53.54052734375 17.52981376647949 C 53.42983245849609 17.14216232299805 53.47670745849609 16.73462295532227 53.67255401611328 16.38226318359375 C 53.8094482421875 16.13582229614258 54.01209259033203 15.93310356140137 54.25853729248047 15.79609298706055 L 60.44392013549805 12.3590030670166 C 60.6676025390625 12.23468399047852 60.92111968994141 12.16897392272949 61.17705917358398 12.16897392272949 Z M 61.17697906494141 20.71117401123047 C 61.20389175415039 20.71117401123047 61.23055267333984 20.70426177978516 61.25408172607422 20.69118309020996 L 67.43922424316406 17.25406265258789 C 67.48954772949219 17.22609329223633 67.52082061767578 17.17293357849121 67.52082061767578 17.11534309387207 C 67.52082061767578 17.05775260925293 67.48954772949219 17.00460243225098 67.439208984375 16.97663307189941 L 61.25406265258789 13.5395622253418 C 61.2070426940918 13.51344108581543 61.14691925048828 13.51343536376953 61.09992218017578 13.53955268859863 L 54.91474914550781 16.97663307189941 C 54.86441040039062 17.00461387634277 54.83313751220703 17.05776405334473 54.83313751220703 17.11534309387207 C 54.83313751220703 17.17293357849121 54.86441040039062 17.22608375549316 54.91474914550781 17.25406265258789 L 61.09989929199219 20.69120407104492 C 61.12340927124023 20.70426177978516 61.15007019042969 20.71117401123047 61.17697906494141 20.71117401123047 Z" stroke="none" fill="#859aa5"/>
      </g>
      <path id="版本-2" data-name="版本" d="M67.149,23.611a.375.375,0,1,1,.365-.656l.48.267a1.16,1.16,0,0,1,.432,1.671,1.245,1.245,0,0,1-.431.394l-6.163,3.425a1.356,1.356,0,0,1-1.307,0l-6.163-3.425a1.16,1.16,0,0,1-.431-1.671,1.245,1.245,0,0,1,.431-.394l.486-.27a.375.375,0,1,1,.365.656l-.486.27a.5.5,0,0,0-.172.156.41.41,0,0,0,.172.6l6.163,3.425a.606.606,0,0,0,.578,0l6.163-3.425a.5.5,0,0,0,.172-.156.41.41,0,0,0-.172-.6l-.48-.267Z" transform="translate(1133.931 2295.326)" fill="#00a6ff" stroke="#00a6ff" stroke-width="0.3"/>
      <path id="版本-3" data-name="版本" d="M67.149,23.611a.375.375,0,1,1,.365-.656l.48.267a1.16,1.16,0,0,1,.432,1.671,1.245,1.245,0,0,1-.431.394l-6.163,3.425a1.356,1.356,0,0,1-1.307,0l-6.163-3.425a1.16,1.16,0,0,1-.431-1.671,1.245,1.245,0,0,1,.431-.394l.486-.27a.375.375,0,1,1,.365.656l-.486.27a.5.5,0,0,0-.172.156.41.41,0,0,0,.172.6l6.163,3.425a.606.606,0,0,0,.578,0l6.163-3.425a.5.5,0,0,0,.172-.156.41.41,0,0,0-.172-.6l-.48-.267Z" transform="translate(1133.931 2291.696)" fill="#00a6ff" stroke="#00a6ff" stroke-width="0.3"/>
    </g>
  </g>
</svg>
