<svg xmlns="http://www.w3.org/2000/svg" width="18" height="18" viewBox="0 0 18 18">
  <g id="信息" transform="translate(-75 -75)">
    <path id="Path_4840" data-name="Path 4840" d="M464.018,291.189a.907.907,0,0,1,.914.9v4.579a.914.914,0,0,1-1.828,0v-4.579A.907.907,0,0,1,464.018,291.189Zm0-1.186a1,1,0,1,1,1.018-1A1.01,1.01,0,0,1,464.018,290Z" transform="translate(-380.018 -208.576)" fill="#00a6ff"/>
    <path id="Path_4841" data-name="Path 4841" d="M84,93a9,9,0,1,0-9-9A9,9,0,0,0,84,93Zm0-1.359A7.641,7.641,0,1,1,91.641,84,7.641,7.641,0,0,1,84,91.641Z" fill="#859aa5"/>
  </g>
</svg>
