<svg xmlns="http://www.w3.org/2000/svg" width="18" height="18" viewBox="0 0 18 18">
  <g id="Group_12628" data-name="Group 12628" transform="translate(-45 -326)">
    <rect id="Rectangle_2412" data-name="Rectangle 2412" width="18" height="18" transform="translate(45 326)" fill="#78909c" opacity="0"/>
    <path id="朋友" d="M77.556,153.088a.622.622,0,0,1-.621-.621,7.158,7.158,0,0,1,1.442-4.331,7.311,7.311,0,0,1,1.617-1.572,7.147,7.147,0,0,1,1.654-.875,4.643,4.643,0,0,1-1.363-1.4,4.587,4.587,0,1,1,6.433,1.385,7.246,7.246,0,0,1,3.243,2.439,7.153,7.153,0,0,1,1.445,4.331.621.621,0,1,1-1.242,0,5.99,5.99,0,0,0-5.836-5.989l-.017.008a.71.71,0,0,1-.14.016l-.052,0a5.9,5.9,0,0,0-4.189,1.756,5.973,5.973,0,0,0-1.751,4.233A.622.622,0,0,1,77.556,153.088Zm6.62-14.57a3.344,3.344,0,1,0,3.345,3.344,3.348,3.348,0,0,0-3.345-3.344Z" transform="translate(-31.929 189.659)" fill="#78909c"/>
    <path id="朋友-2" data-name="朋友" d="M100.676,152.233a.622.622,0,0,1-.621-.621,4.837,4.837,0,0,0-4.665-4.982.622.622,0,1,1,0-1.245,2.747,2.747,0,0,0,0-5.48.621.621,0,0,1,0-1.242,3.9,3.9,0,0,1,3.794,3.982,4.114,4.114,0,0,1-.514,2,3.937,3.937,0,0,1-1.034,1.209,5.968,5.968,0,0,1,2.531,2.1,6.379,6.379,0,0,1,1.132,3.662A.622.622,0,0,1,100.676,152.233Z" transform="translate(-38.297 189.164)" fill="#00a6ff"/>
  </g>
</svg>
