<svg xmlns="http://www.w3.org/2000/svg" width="18" height="18" viewBox="0 0 18 18">
  <g id="Group_12630" data-name="Group 12630" transform="translate(-45 -325)">
    <rect id="Rectangle_2411" data-name="Rectangle 2411" width="18" height="18" transform="translate(45 325)" fill="#333" opacity="0"/>
    <g id="控制_1_" data-name="控制 (1)" transform="translate(45 325)">
      <path id="Path_4833" data-name="Path 4833" d="M3.566,0H14.434A3.566,3.566,0,0,1,18,3.566V14.434A3.566,3.566,0,0,1,14.434,18H3.566A3.566,3.566,0,0,1,0,14.434V3.566A3.566,3.566,0,0,1,3.566,0Zm0,1.337A2.229,2.229,0,0,0,1.337,3.566V14.434a2.229,2.229,0,0,0,2.229,2.229H14.434a2.229,2.229,0,0,0,2.229-2.229V3.566a2.229,2.229,0,0,0-2.229-2.229H3.566Z" fill="#78909c" opacity="0.9"/>
      <path id="Path_4834" data-name="Path 4834" d="M306.737,219.429m.818,0h0a.712.712,0,0,1,.818.792v8.234a.712.712,0,0,1-.818.792h0a.712.712,0,0,1-.818-.792v-8.234A.712.712,0,0,1,307.555,219.429Z" transform="translate(-301.345 -215.572)" fill="#00a6ff" opacity="0.5"/>
      <path id="Path_4835" data-name="Path 4835" d="M243.81,513.856A1.938,1.938,0,1,0,245.746,512,1.9,1.9,0,0,0,243.81,513.856Z" transform="translate(-239.524 -503)" fill="#00a6ff"/>
      <path id="Path_4836" data-name="Path 4836" d="M621.4,219.429m.818,0h0a.712.712,0,0,1,.819.792v8.234a.712.712,0,0,1-.819.792h0a.712.712,0,0,1-.818-.792v-8.234A.711.711,0,0,1,622.215,219.429Z" transform="translate(-610.474 -215.572)" fill="#00a6ff" opacity="0.5"/>
      <path id="Path_4837" data-name="Path 4837" d="M558.47,367.57a1.938,1.938,0,1,0,1.937-1.856A1.9,1.9,0,0,0,558.47,367.57Z" transform="translate(-548.653 -359.285)" fill="#00a6ff"/>
    </g>
  </g>
</svg>
