<svg width="18" height="18" viewBox="0 0 18 18" fill="none" xmlns="http://www.w3.org/2000/svg">
<path d="M15.6241 17.2305L3.17393 17.1602C2.73252 17.1602 2.32334 16.9316 2.08897 16.5547C1.86045 16.1797 1.83897 15.7109 2.04014 15.3125L2.07823 15.2422L3.38682 13.0117C3.56065 12.7129 3.9376 12.6094 4.23741 12.7676C4.54209 12.9297 4.66221 13.3066 4.50987 13.6113L4.48741 13.6602L3.17979 15.8848L15.629 15.9551L14.256 13.6016C14.0812 13.3008 14.1847 12.9082 14.4903 12.7344C14.7735 12.5645 15.1437 12.6465 15.3351 12.9199L15.3624 12.9629L16.7306 15.3125C16.9542 15.6934 16.9649 16.168 16.7579 16.5547C16.545 16.9473 16.1524 17.2031 15.7052 17.2305H15.6241ZM8.43369 14.1621L4.68955 9.80664L4.67881 9.79102C4.65147 9.76367 4.62901 9.73633 4.61338 9.70898L4.58604 9.66016L4.54795 9.60547L4.48741 9.51758C3.85557 8.58594 3.51768 7.50195 3.51768 6.36719C3.53428 3.19531 6.15537 0.644531 9.4044 0.644531C12.6417 0.644531 15.2745 3.20117 15.2745 6.37891C15.2589 7.56055 14.8878 8.68359 14.2286 9.60547C14.2286 9.60547 14.2062 9.64258 14.1954 9.66016L14.1681 9.70898C14.1358 9.75195 14.1026 9.79102 14.0646 9.82812L14.0919 9.80078L10.3692 14.1562C10.129 14.4395 9.77549 14.6035 9.4044 14.6035C9.02842 14.6035 8.67393 14.4395 8.43369 14.1621ZM4.79307 6.36719C4.79307 7.27148 5.07627 8.15625 5.60557 8.89062L5.62119 8.91797L5.65928 8.97266L9.39854 13.3281L13.1222 8.97852L13.1769 8.89062C13.6993 8.15039 13.9884 7.27148 13.9991 6.36719C13.9991 3.91406 11.9444 1.92578 9.4044 1.92578C6.85362 1.92578 4.80381 3.91016 4.79307 6.36719Z" fill="#78909C"/>
<path d="M9.40767 3.93073C7.99796 3.93091 6.85532 5.07384 6.85547 6.48357C6.85565 7.8933 7.99857 9.03593 9.40829 9.03575C10.818 9.0356 11.9607 7.89265 11.9605 6.48293C11.9603 5.0732 10.8174 3.93053 9.40767 3.93073ZM9.40767 5.20682C9.86368 5.20691 10.285 5.45035 10.5129 5.84528C10.7408 6.24031 10.7407 6.72691 10.5126 7.12175C10.2845 7.5166 9.86304 7.75974 9.40704 7.75966C8.70212 7.75948 8.13077 7.18791 8.13092 6.48293C8.1311 5.77803 8.70276 5.20662 9.40767 5.20682Z" fill="#00A6FF"/>
</svg>
