<svg xmlns="http://www.w3.org/2000/svg" width="18" height="18" viewBox="0 0 18 18">
  <g id="Group_12631" data-name="Group 12631" transform="translate(-634 -622)">
    <rect id="Rectangle_2482" data-name="Rectangle 2482" width="18" height="18" transform="translate(634 622)" fill="#333" opacity="0"/>
    <g id="Group_7760" data-name="Group 7760" transform="translate(634 622.643)">
      <path id="文件" d="M38.553,29.613h-11.3A3.353,3.353,0,0,1,23.9,26.265V16.391a3.353,3.353,0,0,1,3.349-3.348h4.174a1.083,1.083,0,0,1,1.013.689l.2.5-1.148.453-.161-.41H27.251a2.121,2.121,0,0,0-2.119,2.118v9.874a2.121,2.121,0,0,0,2.119,2.118h11.3a2.121,2.121,0,0,0,2.119-2.118V17.528h-.344V16.3h.485A1.09,1.09,0,0,1,41.9,17.389v8.878a3.353,3.353,0,0,1-3.35,3.346ZM41.009,17.53H33.351a1.082,1.082,0,0,1-1.011-.689l-1.185-3h6.454a3.338,3.338,0,0,1,3.331,3.011l.069.678ZM33.448,16.3h6.079a2.14,2.14,0,0,0-1.918-1.231H32.964Z" transform="translate(-23.902 -13.042)" fill="#859aa5"/>
      <path id="箭头" d="M238.374,72.769V68.053l1.912,1.986a.13.13,0,0,0,.184,0l.4-.4a.13.13,0,0,0,0-.184l-2.407-2.5-.008-.008-.013-.013-.371-.386a.15.15,0,0,0-.2,0l-.384.4-.007.008-2.407,2.5a.13.13,0,0,0,0,.184l.4.4a.13.13,0,0,0,.184,0l1.894-1.967v4.7a.13.13,0,0,0,.13.13h.564A.13.13,0,0,0,238.374,72.769Z" transform="translate(-228.842 -59.903)" fill="#00a6ff"/>
    </g>
  </g>
</svg>
