<svg xmlns="http://www.w3.org/2000/svg" width="18" height="18" viewBox="0 0 18 18">
  <g id="Group_12626" data-name="Group 12626" transform="translate(-48 -598)">
    <path id="Path_4963" data-name="Path 4963" d="M84,93a9,9,0,1,0-9-9A9,9,0,0,0,84,93Zm0-1.359A7.641,7.641,0,1,1,91.641,84,7.641,7.641,0,0,1,84,91.641Z" transform="translate(-27 523)" fill="#78909c"/>
    <path id="Path_5248" data-name="Path 5248" d="M706.771,211.924v-1.673H699.5v1.673h2.679v1.093c-2.178.092-3.818.5-3.818.982s1.64.89,3.818.982v3.507h1.909V214.98c2.17-.094,3.8-.5,3.8-.982s-1.632-.888-3.8-.982v-1.094Zm.3,1.976c0,.319-1.268.587-2.981.661l-.111,0h-.012l-.1,0h-.011l-.234.006h-.005l-.106,0h-.756l-.1,0h-.011l-.347-.01h0l-.113,0c-1.721-.073-3-.342-3-.663s1.277-.589,3-.663v1.015c.3.015.617.023.946.023s.659-.008.963-.024v-1.011c1.714.074,2.982.342,2.982.661Zm0,0" transform="translate(-646.213 393.42)" fill="#00a6ff"/>
  </g>
</svg>
