<svg xmlns="http://www.w3.org/2000/svg" width="12" height="12" viewBox="0 0 12 12"><defs><style>.a{fill:#eb2121;}.b{fill:#fff;}</style></defs><g transform="translate(-80 -565)"><g transform="translate(-953 -18)"><circle class="a" cx="6" cy="6" r="6" transform="translate(1033 583)"/><path class="b" d="M238.871,180.774l-2.2,1.713a.856.856,0,0,1-1.035,0l-2.2-1.713a.691.691,0,0,1-.092-1.033.851.851,0,0,1,1.127-.084l.883.688v-2.951a.8.8,0,0,1,1.6,0v2.951l.884-.688a.851.851,0,0,1,1.127.084A.691.691,0,0,1,238.871,180.774Z" transform="translate(802.847 409.339)"/></g></g></svg>