<svg xmlns="http://www.w3.org/2000/svg" width="14" height="14" viewBox="0 0 14 14"><defs><style>.a{fill:#fff;}.b,.c{stroke:none;}.c{fill:#000;}</style></defs><g transform="translate(-1647 -1185)"><g class="a" transform="translate(1646.712 1184.856)"><path class="b" d="M 7.290292263031006 13.64400100708008 C 6.413382053375244 13.64400100708008 5.56223201751709 13.47210025787354 4.760482311248779 13.13306045532227 C 3.986592054367065 12.80557060241699 3.291822195053101 12.33693027496338 2.695612192153931 11.74021053314209 C 2.098512172698975 11.1433801651001 1.629832148551941 10.44831085205078 1.302352070808411 9.674070358276367 C 0.9637221097946167 8.872840881347656 0.7919921278953552 8.021510124206543 0.7919921278953552 7.143860340118408 C 0.7919921278953552 6.266250610351562 0.9637120962142944 5.415090560913086 1.302382111549377 4.614050388336182 C 1.629822134971619 3.839750528335571 2.098502159118652 3.144630432128906 2.695382118225098 2.548030614852905 C 3.292142152786255 1.950730562210083 3.98687219619751 1.482090473175049 4.760502338409424 1.154900550842285 C 5.562112331390381 0.8158905506134033 6.413261890411377 0.6440005302429199 7.290292263031006 0.6440005302429199 C 8.167572021484375 0.6440005302429199 9.018631935119629 0.8158805370330811 9.819822311401367 1.154870510101318 C 10.59341239929199 1.482050538063049 11.28848171234131 1.950680494308472 11.8858118057251 2.54779052734375 C 12.48226165771484 3.144730567932129 12.95073223114014 3.839930534362793 13.2780122756958 4.613860607147217 C 13.6166820526123 5.414200305938721 13.78837203979492 6.265380382537842 13.78837203979492 7.143860340118408 C 13.78837203979492 8.022470474243164 13.6166820526123 8.873720169067383 13.27806186676025 9.6739501953125 C 12.95066165924072 10.44791030883789 12.4821720123291 11.1430606842041 11.88560199737549 11.74015045166016 C 11.28848171234131 12.33698081970215 10.5933723449707 12.80570030212402 9.819791793823242 13.13306045532227 C 9.018092155456543 13.4720401763916 8.167001724243164 13.64395046234131 7.290292263031006 13.64395046234131 L 7.290292263031006 13.64400100708008 Z"/><path class="c" d="M 7.290292263031006 13.14400100708008 L 7.290292263031006 13.14395046234131 C 8.09974193572998 13.14395046234131 8.885322570800781 12.98532009124756 9.624932289123535 12.67260074615479 C 10.33898258209229 12.3704309463501 10.98073196411133 11.93765068054199 11.53189182281494 11.38675022125244 C 12.08279228210449 10.83538055419922 12.51534175872803 10.19359016418457 12.81759166717529 9.479100227355957 C 13.12998199462891 8.740860939025879 13.28837203979492 7.955170631408691 13.28837203979492 7.143860340118408 C 13.28837203979492 6.332680702209473 13.12998199462891 5.547060489654541 12.81750202178955 4.808600425720215 C 12.51540184020996 4.094220638275146 12.08286190032959 3.45240044593811 11.53233242034912 2.901410579681396 C 10.98074245452881 2.350030422210693 10.33907222747803 1.917360544204712 9.624992370605469 1.615350484848022 C 8.885782241821289 1.30258047580719 8.100272178649902 1.14400053024292 7.290292263031006 1.14400053024292 C 6.480532169342041 1.14400053024292 5.694911956787109 1.302610516548157 4.955272197723389 1.615410566329956 C 4.241312026977539 1.917360544204712 3.600062131881714 2.349960565567017 3.048852205276489 2.901660442352295 C 2.497782230377197 3.452480554580688 2.065112113952637 4.094150543212891 1.762912154197693 4.808750629425049 C 1.450432062149048 5.547850608825684 1.29199206829071 6.333500385284424 1.29199206829071 7.143860340118408 C 1.29199206829071 7.954280376434326 1.450452089309692 8.740120887756348 1.762852072715759 9.479300498962402 C 2.065112113952637 10.1939001083374 2.497782230377197 10.83552074432373 3.049322128295898 11.38681030273438 C 3.599762201309204 11.93772029876709 4.241082191467285 12.37034034729004 4.955212116241455 12.67254066467285 C 5.695012092590332 12.98538017272949 6.480652332305908 13.14400100708008 7.290292263031006 13.14400100708008 M 7.290292263031006 14.14400100708008 C 6.345652103424072 14.14400100708008 5.428781986236572 13.95853042602539 4.565742015838623 13.59358024597168 C 3.732612133026123 13.24102020263672 2.984062194824219 12.7363109588623 2.341912031173706 12.0936107635498 C 1.698882102966309 11.4508810043335 1.19431209564209 10.70216083526611 0.8418521285057068 9.868850708007812 C 0.4769921004772186 9.005560874938965 0.2919921278953552 8.0885009765625 0.2919921278953552 7.143860340118408 C 0.2919921278953552 6.199010372161865 0.4769921004772186 5.282330513000488 0.8418521285057068 4.41934061050415 C 1.194342136383057 3.585810422897339 1.698912143707275 2.837090492248535 2.341912031173706 2.194390535354614 C 2.984062194824219 1.551660537719727 3.732582092285156 1.046760559082031 4.565742015838623 0.6943905353546143 C 5.429222106933594 0.3292205333709717 6.345652103424072 0.1440005302429199 7.290292263031006 0.1440005302429199 C 8.235152244567871 0.1440005302429199 9.151581764221191 0.3292205333709717 10.01465225219727 0.6943905353546143 C 10.84780216217041 1.046760559082031 11.59633255004883 1.551440477371216 12.23930168151855 2.194170475006104 C 12.88148212432861 2.836880445480347 13.38605213165283 3.585590600967407 13.73853206634521 4.419120311737061 C 14.1038122177124 5.282360553741455 14.28837203979492 6.199010372161865 14.28837203979492 7.143860340118408 C 14.28837203979492 8.0885009765625 14.1038122177124 9.005560874938965 13.73853206634521 9.868800163269043 C 13.38602256774902 10.70211029052734 12.88148212432861 11.45082092285156 12.23930168151855 12.09355068206787 C 11.5963020324707 12.73625087738037 10.84778213500977 13.24097061157227 10.01465225219727 13.59353065490723 C 9.151601791381836 13.95845031738281 8.235152244567871 14.14395046234131 7.290292263031006 14.14395046234131 L 7.290292263031006 14.14400100708008 Z M 7.290292263031006 0.1440005302429199 L 7.289852142333984 0.1440005302429199 L 7.290292263031006 0.1440005302429199 Z"/></g><path d="M9.048,5.391,6.241,4.479a.291.291,0,0,0-.326.106L4.181,6.972a.292.292,0,0,0,0,.343L5.916,9.7a.291.291,0,0,0,.235.12.3.3,0,0,0,.09-.015L9.048,8.9a.292.292,0,0,0,.2-.278V5.669A.292.292,0,0,0,9.048,5.391ZM.98,4.766A.292.292,0,0,0,.654,4.66L.6,4.678a.289.289,0,0,0-.185.182c-.014.04-.027.08-.041.12a6.944,6.944,0,0,0,.04,4.447A.292.292,0,0,0,.6,9.61l.056.018a.3.3,0,0,0,.09.015A.292.292,0,0,0,.98,9.522l1.6-2.206a.292.292,0,0,0,0-.343L.98,4.766Zm4.838,6.66a.292.292,0,0,0-.326-.106L2.9,12.163a.292.292,0,0,0-.2.277V12.5a.291.291,0,0,0,.116.232l.1.076a6.945,6.945,0,0,0,4.108,1.337h.133a.291.291,0,0,0,.23-.121l.034-.047a.29.29,0,0,0,0-.343Zm7.862-2.5-.034-.047a.292.292,0,0,0-.326-.106l-2.593.843a.29.29,0,0,0-.2.277v2.727a.292.292,0,0,0,.2.278l.055.018a.3.3,0,0,0,.257-.038l.1-.074a6.938,6.938,0,0,0,2.581-3.621.291.291,0,0,0-.043-.256ZM10.727,4.668l2.593.843a.291.291,0,0,0,.326-.106l.034-.047a.29.29,0,0,0,.043-.256q-.018-.061-.038-.121a6.94,6.94,0,0,0-2.646-3.574.291.291,0,0,0-.257-.038l-.056.018a.292.292,0,0,0-.2.278V4.391a.292.292,0,0,0,.2.277ZM2.9,2.125l2.593.843a.291.291,0,0,0,.326-.106L7.42.655a.291.291,0,0,0,0-.343L7.387.265a.292.292,0,0,0-.231-.12H7.029A6.937,6.937,0,0,0,2.813,1.557a.291.291,0,0,0-.116.232v.058a.292.292,0,0,0,.2.278Z" transform="translate(1646.973 1184.856)"/></g></svg>