<svg xmlns="http://www.w3.org/2000/svg" width="18" height="18" viewBox="0 0 18 18"><defs><style>.a,.c{fill:#fff;}.a{stroke:#707070;opacity:0;}.b{fill:#eb2121;}.d{fill:#0ccc3c;}.e{stroke:none;}.f{fill:none;}</style></defs><g transform="translate(-177 -426)"><g class="a" transform="translate(177 426)"><rect class="e" width="18" height="18"/><rect class="f" x="0.5" y="0.5" width="17" height="17"/></g><g transform="translate(177 428.25)"><g transform="translate(9 4.5)"><circle class="b" cx="4.5" cy="4.5" r="4.5"/><path class="c" d="M237.441,179.745l-1.65,1.285a.642.642,0,0,1-.776,0l-1.65-1.285a.519.519,0,0,1-.069-.775.638.638,0,0,1,.845-.063l.663.516v-2.213a.6.6,0,0,1,1.2,0v2.213l.663-.516a.638.638,0,0,1,.845.063A.519.519,0,0,1,237.441,179.745Z" transform="translate(-230.903 -174.411)"/></g><g transform="translate(0)"><circle class="d" cx="4.5" cy="4.5" r="4.5"/><path class="c" d="M237.441,178.076l-1.65-1.285a.642.642,0,0,0-.776,0l-1.65,1.285a.519.519,0,0,0-.069.775.638.638,0,0,0,.845.063l.663-.516v2.213a.6.6,0,0,0,1.2,0V178.4l.663.516a.638.638,0,0,0,.845-.063A.519.519,0,0,0,237.441,178.076Z" transform="translate(-230.903 -174.411)"/></g></g></g></svg>