<?xml version="1.0" standalone="no"?><!DOCTYPE svg PUBLIC "-//W3C//DTD SVG 1.1//EN" "http://www.w3.org/Graphics/SVG/1.1/DTD/svg11.dtd"><svg t="1602137795388" class="icon" viewBox="0 0 1024 1024" version="1.1" xmlns="http://www.w3.org/2000/svg" p-id="812" xmlns:xlink="http://www.w3.org/1999/xlink" width="200" height="200"><defs><style type="text/css"></style></defs><path d="M303.104 247.808h12.8c18.944 0 26.624-28.672 26.624-48.128V41.472C342.528 22.016 332.8 0 313.856 0h-12.8c-18.9952 0-27.648 22.016-27.648 41.472v164.352c0 13.312 10.752 41.984 29.696 41.984z m408.0128 0h12.8c18.9952 0 27.6992-28.672 27.6992-48.128V41.472c0-19.968-7.168-41.472-26.624-41.472h-12.8c-18.944 0-28.7232 22.016-28.7232 41.472v164.352c0.5632 13.312 15.4112 41.984 27.648 41.984z m-61.44-176.64h-273.408v70.144h273.4592z m243.2 0H786.944v70.144h105.984a77.4144 77.4144 0 0 1 70.144 78.336v65.536H65.536V219.136a77.3632 77.3632 0 0 1 70.144-78.336h103.936V71.168h-97.28A159.4368 159.4368 0 0 0 0 225.792v637.952C0 935.936 65.536 1024 142.336 1024h756.736c70.144 0 124.928-81.408 124.928-160.256V225.792c-6.144-72.192-54.784-154.624-131.072-154.624z m65.9968 785.92c0 46.08-22.016 96.768-66.56 96.768H142.336c-38.4 0-74.24-50.688-74.24-90.112V350.72h891.392v506.368h-0.5632zM258.56 797.696H778.24c10.7008 0 34.816-9.216 34.816-26.112v-11.264c0-16.896-23.552-23.552-39.936-23.552H258.56c-16.384 0-34.816 8.704-34.816 25.6v11.264c0 16.384 18.432 24.064 34.816 24.064z m0-219.648H778.24c10.7008 0 34.816-9.216 34.816-26.112v-11.264c0-16.896-23.552-23.552-39.936-23.552H258.56c-16.384 0-34.816 8.704-34.816 25.088v11.264c0 17.408 18.432 24.576 34.816 24.576z" fill="#FFFFFF" p-id="813"></path></svg>