<?xml version="1.0" standalone="no"?><!DOCTYPE svg PUBLIC "-//W3C//DTD SVG 1.1//EN" "http://www.w3.org/Graphics/SVG/1.1/DTD/svg11.dtd"><svg t="1602614398497" class="icon" viewBox="0 0 1024 1024" version="1.1" xmlns="http://www.w3.org/2000/svg" p-id="840" xmlns:xlink="http://www.w3.org/1999/xlink" width="200" height="200"><defs><style type="text/css"></style></defs><path d="M620.587514 512.098733L948.726585 183.635947l67.656428-67.656428a25.573482 25.573482 0 0 0 0-36.148171L943.978765 7.4271a25.573482 25.573482 0 0 0-36.148171 0L512.035095 403.546314 116.239596 7.750815a25.573482 25.573482 0 0 0-36.148171 0L7.687177 80.155063a25.573482 25.573482 0 0 0 0 36.148171l395.795499 395.795499L7.579272 907.894232a25.573482 25.573482 0 0 0 0 36.148171l72.404248 72.404248a25.573482 25.573482 0 0 0 36.148171 0L512.035095 620.651152l328.139071 328.139071 67.656428 67.656428a25.573482 25.573482 0 0 0 36.148171 0l72.404248-72.404248a25.573482 25.573482 0 0 0 0-36.148171z" fill="#666666" p-id="841"></path></svg>