<svg xmlns="http://www.w3.org/2000/svg" width="34" height="34" viewBox="0 0 34 34"><defs><style>.a,.b{fill:#fff;}.a{opacity:0;}</style></defs><g transform="translate(-366 -239)"><rect class="a" width="34" height="34" transform="translate(366 239)"/><g transform="translate(372.041 243.592)"><path class="b" d="M147.815,120.533H130.831A2.834,2.834,0,0,1,128,117.7V98.831A2.834,2.834,0,0,1,130.831,96h16.984a2.834,2.834,0,0,1,2.831,2.831V117.7A2.834,2.834,0,0,1,147.815,120.533ZM130.831,97.887a.945.945,0,0,0-.944.944V117.7a.945.945,0,0,0,.944.944h16.984a.944.944,0,0,0,.944-.944V98.831a.945.945,0,0,0-.944-.944Z" transform="translate(-128 -96)"/><path class="b" d="M267.011,265.822H256.6a.944.944,0,1,1,0-1.887h10.415a.944.944,0,1,1,0,1.887Zm2.768,5.622H256.592a.944.944,0,0,1,0-1.887h13.188a.944.944,0,1,1,0,1.887ZM255.65,258.759a1.415,1.415,0,1,0,1.415-1.415A1.415,1.415,0,0,0,255.65,258.759Zm6.115,0a1.415,1.415,0,1,0,1.415-1.415A1.415,1.415,0,0,0,261.765,258.759Zm6.137,0a1.415,1.415,0,1,0,1.415-1.415A1.415,1.415,0,0,0,267.9,258.759Z" transform="translate(-251.884 -252.587)"/></g></g></svg>