<svg xmlns="http://www.w3.org/2000/svg" width="34" height="34" viewBox="0 0 34 34"><defs><style>.a{fill:rgba(0,0,0,0.5);opacity:0;}.b{fill:#fff;}</style></defs><g transform="translate(0 0.212)"><rect class="a" width="34" height="34" rx="17" transform="translate(0 -0.212)"/><g transform="translate(5 4.788)"><path class="b" d="M10.232-15.8a.645.645,0,0,0,.643-.643v-.429a.645.645,0,0,0-.643-.643H4.018v-6.214a.645.645,0,0,0-.643-.643H2.946a.645.645,0,0,0-.643.643v6.643A1.283,1.283,0,0,0,3.589-15.8ZM-4.554-17.089v-6.643a.645.645,0,0,0-.643-.643h-.429a.645.645,0,0,0-.643.643v6.214h-6.214a.645.645,0,0,0-.643.643v.429a.645.645,0,0,0,.643.643h6.643A1.283,1.283,0,0,0-4.554-17.089Zm0,16.071V-7.661A1.283,1.283,0,0,0-5.839-8.946h-6.643a.645.645,0,0,0-.643.643v.429a.645.645,0,0,0,.643.643h6.214v6.214a.645.645,0,0,0,.643.643H-5.2A.645.645,0,0,0-4.554-1.018Zm8.571,0V-7.232h6.214a.645.645,0,0,0,.643-.643V-8.3a.645.645,0,0,0-.643-.643H3.589A1.283,1.283,0,0,0,2.3-7.661v6.643a.645.645,0,0,0,.643.643h.429A.645.645,0,0,0,4.018-1.018Z" transform="translate(13.125 24.375)"/></g></g></svg>