<svg xmlns="http://www.w3.org/2000/svg" width="28" height="28" viewBox="0 0 28 28"><g transform="translate(-366 -239)"><rect class="a" width="28" height="28" transform="translate(366 239)"/><path class="b" d="M144.736,96H130.391A2.394,2.394,0,0,0,128,98.391V114.33a2.394,2.394,0,0,0,2.391,2.391h14.345a2.394,2.394,0,0,0,2.391-2.391V98.391A2.394,2.394,0,0,0,144.736,96Zm-3.163,10.382a.8.8,0,0,1-.8.8h-8.8a.8.8,0,0,1,0-1.594h8.8A.8.8,0,0,1,141.573,106.382Zm-4.032-6.4a1.2,1.2,0,1,1-1.2,1.2A1.2,1.2,0,0,1,137.541,99.985Zm-5.165,0a1.2,1.2,0,1,1-1.2,1.2A1.2,1.2,0,0,1,132.376,99.985Zm10.738,11.943H131.976a.8.8,0,1,1,0-1.594h11.138a.8.8,0,1,1,0,1.594Zm-.39-9.551a1.2,1.2,0,1,1,1.2-1.2A1.2,1.2,0,0,1,142.725,102.377Z" transform="translate(242.769 146.635)"/></g></svg>