<?xml version="1.0" standalone="no"?><!DOCTYPE svg PUBLIC "-//W3C//DTD SVG 1.1//EN" "http://www.w3.org/Graphics/SVG/1.1/DTD/svg11.dtd"><svg t="1602672141034" class="icon" viewBox="0 0 1024 1024" version="1.1" xmlns="http://www.w3.org/2000/svg" p-id="2355" xmlns:xlink="http://www.w3.org/1999/xlink" width="200" height="200"><defs><style type="text/css"></style></defs><path d="M800 640h192v-256h-192zM32 640h192v-256H32zM512 416a96 96 0 1 0 0 192 96 96 0 0 0 0-192" fill="#d81e06" p-id="2356" data-spm-anchor-id="a313x.7781069.0.i2" class=""></path><path d="M544 800v-164.544c55.04-14.304 96-64 96-123.456s-40.96-109.152-96-123.456V224h384v128h-128a32 32 0 0 0-32 32v256a32 32 0 0 0 32 32h128v128H544zM96 672h128a32 32 0 0 0 32-32v-256a32 32 0 0 0-32-32H96V224h384v164.544c-55.04 14.304-96 64-96 123.456s40.96 109.152 96 123.456V800H96v-128z m0-64h96v-192H96v192z m416-32c-35.296 0-64-28.704-64-64s28.704-64 64-64 64 28.704 64 64-28.704 64-64 64z m320 32h96v-192h-96v192z m128-448H64a32 32 0 0 0-32 32v640a32 32 0 0 0 32 32h896a32 32 0 0 0 32-32V192a32 32 0 0 0-32-32z" fill="#d81e06" p-id="2357" data-spm-anchor-id="a313x.7781069.0.i1" class="selected"></path><path d="M96 416h96v192H96zM832 416h96v192h-96z" fill="#d81e06" p-id="2358" data-spm-anchor-id="a313x.7781069.0.i0" class="selected"></path></svg>