<svg xmlns="http://www.w3.org/2000/svg" width="34" height="34" viewBox="0 0 34 34"><defs><style>.a{fill:rgba(0,0,0,0.5);opacity:0;}.b{fill:#fff;}</style></defs><g transform="translate(0.06 -0.467)"><rect class="a" width="34" height="34" rx="17" transform="translate(-0.06 0.467)"/><path class="b" d="M11.21.171l.965.965a.585.585,0,0,1,0,.828L3.365,10.8l8.811,8.832a.585.585,0,0,1,0,.828l-.965.965a.585.585,0,0,1-.828,0L.171,11.21a.585.585,0,0,1,0-.828L10.383.171A.585.585,0,0,1,11.21.171Z" transform="translate(6.404 23.982) rotate(-90)"/></g></svg>