<?xml version="1.0" standalone="no"?><!DOCTYPE svg PUBLIC "-//W3C//DTD SVG 1.1//EN" "http://www.w3.org/Graphics/SVG/1.1/DTD/svg11.dtd"><svg t="1603417400901" class="icon" viewBox="0 0 1024 1024" version="1.1" xmlns="http://www.w3.org/2000/svg" p-id="1316" xmlns:xlink="http://www.w3.org/1999/xlink" width="200" height="200"><defs><style type="text/css"></style></defs><path d="M512 0a512 512 0 0 0-512 512 512 512 0 0 0 512 512 512 512 0 0 0 512-512 512 512 0 0 0-512-512z m251.050667 646.371556a24.803556 24.803556 0 0 1 0 35.100444l-81.749334 81.578667a24.803556 24.803556 0 0 1-35.100444 0L512 627.541333l-134.428444 135.509334a24.803556 24.803556 0 0 1-35.100445 0l-81.521778-81.749334a24.803556 24.803556 0 0 1 0-35.100444L396.344889 512l-135.395556-134.428444a24.803556 24.803556 0 0 1 0-35.100445l81.749334-81.749333a24.803556 24.803556 0 0 1 35.100444 0L512 396.344889l134.371556-135.395556a24.803556 24.803556 0 0 1 35.100444 0l81.749333 81.749334a24.803556 24.803556 0 0 1 0 35.100444L627.598222 512z" fill="#d81e06" p-id="1317"></path></svg>