<?xml version="1.0" standalone="no"?><!DOCTYPE svg PUBLIC "-//W3C//DTD SVG 1.1//EN" "http://www.w3.org/Graphics/SVG/1.1/DTD/svg11.dtd"><svg t="1604593414296" class="icon" viewBox="0 0 1024 1024" version="1.1" xmlns="http://www.w3.org/2000/svg" p-id="1303" xmlns:xlink="http://www.w3.org/1999/xlink" width="200" height="200"><defs><style type="text/css"></style></defs><path d="M160 832a128 128 0 0 0 128 128h184a8 8 0 0 0 8-8V584a8 8 0 0 0-8-8H176a16 16 0 0 0-16 16zM480 504V288h64v216a8 8 0 0 0 8 8h280a95.86 95.86 0 0 0 32-5.5A96.18 96.18 0 0 0 928 416v-32a96 96 0 0 0-96-96h-81.08a4 4 0 0 1-3.4-6A144 144 0 0 0 512 117.64 144 144 0 0 0 276.48 282a4 4 0 0 1-3.4 6H192a96 96 0 0 0-96 96v32a96.18 96.18 0 0 0 64 90.5A95.86 95.86 0 0 0 192 512h280a8 8 0 0 0 8-8z m64-296a80 80 0 1 1 80 80h-80z m-149.72-79.8A80 80 0 0 1 480 208v80h-80a80 80 0 0 1-5.72-159.78zM552 960h184a128 128 0 0 0 128-128V592a16 16 0 0 0-16-16H552a8 8 0 0 0-8 8v368a8 8 0 0 0 8 8z" p-id="1304" fill="#ffffff"></path></svg>