<?xml version="1.0" standalone="no"?><!DOCTYPE svg PUBLIC "-//W3C//DTD SVG 1.1//EN" "http://www.w3.org/Graphics/SVG/1.1/DTD/svg11.dtd"><svg t="1601263368111" class="icon" viewBox="0 0 1024 1024" version="1.1" xmlns="http://www.w3.org/2000/svg" p-id="913" xmlns:xlink="http://www.w3.org/1999/xlink" width="200" height="200"><defs><style type="text/css"></style></defs><path d="M229.115141 559.651343a21.594264 21.594264 0 0 0 0 30.735835l35.414593 35.414593a21.594264 21.594264 0 0 0 30.879798-0.359904L464.996485 449.952481v449.736539a21.594264 21.594264 0 0 0 21.594264 21.594264h50.386616a21.594264 21.594264 0 0 0 21.594264-21.594264V449.952481l170.018839 175.489386a21.594264 21.594264 0 0 0 30.879798 0.719809l35.486574-35.99044a21.594264 21.594264 0 0 0 0-30.735836L527.403908 291.378603a21.594264 21.594264 0 0 0-30.735835 0z m-42.468719-354.14593h650.779137a21.594264 21.594264 0 0 0 21.594264-21.594264v-50.386616a21.594264 21.594264 0 0 0-21.594264-21.594264H186.50246a21.594264 21.594264 0 0 0-21.594264 21.594264v50.386616a21.594264 21.594264 0 0 0 21.594264 21.594264z" fill="#999999" p-id="914"></path></svg>