<?xml version="1.0" standalone="no"?><!DOCTYPE svg PUBLIC "-//W3C//DTD SVG 1.1//EN" "http://www.w3.org/Graphics/SVG/1.1/DTD/svg11.dtd"><svg t="1602680801754" class="icon" viewBox="0 0 1024 1024" version="1.1" xmlns="http://www.w3.org/2000/svg" p-id="873" xmlns:xlink="http://www.w3.org/1999/xlink" width="200" height="200"><defs><style type="text/css"></style></defs><path d="M844.887405 1024H164.886363a30.02602 30.02602 0 0 1-29.993906-29.993907V142.326867a29.704886 29.704886 0 0 1 8.799069-21.226951l112.396866-112.396866A29.704886 29.704886 0 0 1 277.219003 0.000321h567.668402a30.02602 30.02602 0 0 1 29.993906 29.993907v964.011865a30.02602 30.02602 0 0 1-29.993906 29.993907zM284.894103 820.015744a29.993907 29.993907 0 0 0 0 59.987814h439.953448a29.993907 29.993907 0 0 0 0-59.987814z m0-120.007739a29.993907 29.993907 0 0 0 0 59.987813h439.953448a29.993907 29.993907 0 0 0 0-59.987813z m279.996651-120.00774a29.993907 29.993907 0 1 0 0 59.987813h159.988911a29.993907 29.993907 0 1 0 0-59.987813z m-293.644842-164.838033a27.585402 27.585402 0 0 0-19.268034 8.317368 33.558493 33.558493 0 0 0-8.124688 19.011127 45.504674 45.504674 0 0 0 8.124688 21.098498 24.566744 24.566744 0 0 0 19.268034 10.436851h89.500019v48.170086a39.820604 39.820604 0 0 0 12.299429 29.672773 47.431478 47.431478 0 0 0 31.72803 9.634017 37.70112 37.70112 0 0 0 43.128283-39.435244v-49.133487l89.050431 0.449588a26.718341 26.718341 0 0 0 18.979014-9.055976 34.072307 34.072307 0 0 0 7.899894-20.16721 34.714575 34.714575 0 0 0-7.899894-19.942415 26.23664 26.23664 0 0 0-18.979014-9.248656h-89.050431v-28.291897l88.56873-0.449588a27.071588 27.071588 0 0 0 19.268035-9.28077 34.393441 34.393441 0 0 0 8.124687-20.392003 30.507721 30.507721 0 0 0-7.899894-19.011127 27.906536 27.906536 0 0 0-18.979013-8.317368h-68.112501l71.869767-116.860627a41.29782 41.29782 0 0 0 9.28077-25.498032 51.895239 51.895239 0 0 0-4.431648-15.767675 25.369578 25.369578 0 0 0-7.386079-9.28077 28.677258 28.677258 0 0 0-10.212059-4.624328 77.361157 77.361157 0 0 0-12.845356-1.862577 44.669726 44.669726 0 0 0-19.910302 7.418194 56.808588 56.808588 0 0 0-14.386799 13.905098l-77.457497 129.995004-70.456779-128.903149a67.43812 67.43812 0 0 0-14.354685-14.579479 37.347873 37.347873 0 0 0-19.910302-7.675101 40.109625 40.109625 0 0 0-25.979733 10.436852 43.545757 43.545757 0 0 0-9.344997 21.098498 38.247048 38.247048 0 0 0 3.69304 18.75422 70.296212 70.296212 0 0 0 8.799069 14.162005l62.107297 109.410321H271.245912a27.585402 27.585402 0 0 0-19.268034 8.317368 33.71906 33.71906 0 0 0-8.124688 19.011127 36.545038 36.545038 0 0 0 8.124688 19.942415 26.814681 26.814681 0 0 0 19.268034 8.799069l89.467906 0.449588v29.223185z" fill="#FFFFFF" p-id="874"></path></svg>