<?xml version="1.0" standalone="no"?><!DOCTYPE svg PUBLIC "-//W3C//DTD SVG 1.1//EN" "http://www.w3.org/Graphics/SVG/1.1/DTD/svg11.dtd"><svg t="1601432764734" class="icon" viewBox="0 0 1024 1024" version="1.1" xmlns="http://www.w3.org/2000/svg" p-id="993" xmlns:xlink="http://www.w3.org/1999/xlink" width="200" height="200"><defs><style type="text/css"></style></defs><path d="M512 803.584A35.648 35.648 0 0 0 547.584 768v-113.792A35.648 35.648 0 0 0 512 618.624a35.648 35.648 0 0 0-35.584 35.584V768a35.648 35.648 0 0 0 35.584 35.584z m398.208-263.104a85.376 85.376 0 0 0-85.312-85.376h-28.416V344A286.208 286.208 0 0 0 512.896 56.896a284.672 284.672 0 0 0-285.312 284.416v113.792h-28.416a85.376 85.376 0 0 0-85.376 85.376v341.312a85.376 85.376 0 0 0 85.312 85.312h625.792a85.376 85.376 0 0 0 85.312-85.312zM284.416 455.168V341.312A227.776 227.776 0 0 1 512 113.728a227.776 227.776 0 0 1 227.584 227.584v113.792z m568.896 426.688a28.544 28.544 0 0 1-28.416 28.416H199.104a28.544 28.544 0 0 1-28.416-28.416V540.48a28.544 28.544 0 0 1 28.416-28.416h625.792a28.544 28.544 0 0 1 28.416 28.416z" fill="#BCBEC3" p-id="994"></path></svg>