<svg xmlns="http://www.w3.org/2000/svg" width="14" height="14" viewBox="0 0 14 14"><defs><style>.a,.b{fill:#bcbec3;}.a{opacity:0;}</style></defs><g transform="translate(-885 -1272)"><rect class="a" width="14" height="14" transform="translate(885 1272)"/><path class="b" d="M148.351,79.507h5.091V77.6a2.545,2.545,0,0,0-5.091,0v1.909Zm8.273.955v5.727a.951.951,0,0,1-.955.955h-9.545a.951.951,0,0,1-.955-.955V80.462a.951.951,0,0,1,.955-.955h.318V77.6a4.455,4.455,0,0,1,8.909,0v1.909h.318a.951.951,0,0,1,.955.955Z" transform="translate(741.104 1198.857)"/></g></svg>