<svg xmlns="http://www.w3.org/2000/svg" width="15.5" height="15.5" viewBox="0 0 15.5 15.5"><defs><style>.a{fill:#fff;}</style></defs><path class="a" d="M9.25-12.5A1.25,1.25,0,0,0,8-13.75,1.25,1.25,0,0,0,6.75-12.5,1.25,1.25,0,0,0,8-11.25,1.25,1.25,0,0,0,9.25-12.5ZM8-.75A1.25,1.25,0,1,0,9.25.5,1.25,1.25,0,0,0,8-.75ZM15.75-6A1.25,1.25,0,0,0,14.5-7.25,1.25,1.25,0,0,0,13.25-6,1.25,1.25,0,0,0,14.5-4.75,1.25,1.25,0,0,0,15.75-6Zm-13,0A1.25,1.25,0,0,0,1.5-7.25,1.25,1.25,0,0,0,.25-6,1.25,1.25,0,0,0,1.5-4.75,1.25,1.25,0,0,0,2.75-6ZM3.4-11.846a1.25,1.25,0,0,0-1.25,1.25A1.25,1.25,0,0,0,3.4-9.346a1.25,1.25,0,0,0,1.25-1.25A1.25,1.25,0,0,0,3.4-11.846ZM12.6-2.654a1.25,1.25,0,0,0-1.25,1.25A1.25,1.25,0,0,0,12.6-.154a1.25,1.25,0,0,0,1.25-1.25A1.25,1.25,0,0,0,12.6-2.654Zm-9.192,0A1.25,1.25,0,0,0,2.154-1.4,1.25,1.25,0,0,0,3.4-.154,1.25,1.25,0,0,0,4.654-1.4,1.25,1.25,0,0,0,3.4-2.654Z" transform="translate(-0.25 13.75)"/></svg>