<svg xmlns="http://www.w3.org/2000/svg" width="98" height="98" viewBox="0 0 98 98"><defs><style>.a{fill:#fff;opacity:0;}.b,.c{fill:#bcbec3;}.c{stroke:#bcbec3;stroke-width:0.5px;}</style></defs><g transform="translate(-133 -334)"><rect class="a" width="98" height="98" transform="translate(133 334)"/><g transform="translate(-11.946 -7.964)"><path class="b" d="M142.592,240.073a21.3,21.3,0,0,0,.466-4.3,23.308,23.308,0,0,0-44.4-10.092A10.855,10.855,0,0,0,91.8,223.2a11.35,11.35,0,0,0-11.315,11.364,9.863,9.863,0,0,0,.437,2.863,16.38,16.38,0,0,0,1.281,32.7h54.955a15.525,15.525,0,0,0,5.434-30.054Zm-5.434,26.444H82.2a12.764,12.764,0,0,1-1-25.483l4.493-.359-1.329-4.309a6.076,6.076,0,0,1-.281-1.8,7.734,7.734,0,0,1,7.705-7.754,7.212,7.212,0,0,1,4.58,1.679l3.581,2.911,1.97-4.163a19.694,19.694,0,0,1,37.516,8.549,17.669,17.669,0,0,1-.388,3.571l-.621,3.028,2.892,1.087a11.9,11.9,0,0,1-4.163,23.038Z" transform="translate(85.1 150.7)"/><path class="c" d="M130.084,138.777l7.211-7.211a1.265,1.265,0,0,0,0-1.793l-.041-.04a1.271,1.271,0,0,0-1.8,0l-7.2,7.221-7.211-7.221a1.271,1.271,0,0,0-1.8,0l-.041.04a1.26,1.26,0,0,0-.01,1.8l7.211,7.211L119.187,146a1.265,1.265,0,0,0,0,1.793l.041.04a1.271,1.271,0,0,0,1.8,0l7.211-7.211,7.211,7.211a1.271,1.271,0,0,0,1.8,0l.041-.04a1.271,1.271,0,0,0,0-1.8l-7.211-7.211Z" transform="translate(66.954 259.136)"/></g></g></svg>