<?xml version="1.0" standalone="no"?><!DOCTYPE svg PUBLIC "-//W3C//DTD SVG 1.1//EN" "http://www.w3.org/Graphics/SVG/1.1/DTD/svg11.dtd"><svg t="1602863375171" class="icon" viewBox="0 0 1024 1024" version="1.1" xmlns="http://www.w3.org/2000/svg" p-id="1053" xmlns:xlink="http://www.w3.org/1999/xlink" width="200" height="200"><defs><style type="text/css"></style></defs><path d="M1000.852803 491.812108c-34.114135-42.642668-51.171202-116.556627-36.956979-170.570673 14.214223-51.171202-17.057067-105.185249-68.228269-119.399472s-108.028093-65.385425-127.928005-113.713782c-19.899912-51.171202-76.756803-73.913958-125.085161-54.014046-48.328357 19.899912-125.08516 11.371378-170.570673-17.057068-42.642668-28.428446-105.185249-14.214223-130.770849 28.428446-28.428446 45.485513-93.81387 85.285337-147.827917 88.128181-51.171202 2.842845-90.971026 48.328357-88.128181 102.342404s-28.428446 125.08516-68.22827 159.199295c-42.642668 34.114135-48.328357 96.656715-14.214223 136.456539 34.114135 42.642668 51.171202 116.556627 36.95698 170.570673-14.214223 51.171202 17.057067 105.185249 68.228269 119.399471 51.171202 14.214223 108.028093 65.385425 127.928005 116.556627s73.913958 73.913958 125.08516 54.014047c48.328357-19.899912 125.08516-11.371378 170.570674 17.057067 42.642668 28.428446 105.185249 14.214223 130.770849-28.428446 28.428446-45.485513 93.81387-85.285337 147.827917-88.128181 54.014047-2.842845 93.81387-48.328357 90.971026-102.342404-2.842845-54.014047 28.428446-125.08516 68.228269-159.199295 39.799824-36.956979 45.485513-99.499559 11.371378-139.299383z m-426.426683 440.640906C341.312867 966.567149 122.413836 807.367854 91.142546 574.2546s127.928005-449.16944 361.041258-483.283574 449.16944 127.928005 483.283574 361.041258C966.738669 682.282693 807.539374 901.181724 574.42612 932.453014z" fill="#AAAAAA" p-id="1054"></path><path d="M267.398908 415.055305l5.685689 25.585601 48.328358-14.214223-5.685689-25.585601-48.328358 14.214223z m42.642668-36.956979l-5.685689-25.585601-48.328357 14.214223 5.685689 25.585601 48.328357-14.214223z m-31.27129 187.62774l-14.214222-22.742756c5.685689-5.685689 8.528534-8.528534 8.528533-17.057067l-48.328357-176.256363 99.499559-25.585601 31.27129 122.242316-73.913958 19.899912 17.057067 59.699736c17.057067-8.528534 31.27129-19.899912 42.642669-28.428446l-17.057068-17.057067 17.057068-17.057068 51.171202 51.171202-17.057068 19.899912c-5.685689-5.685689-11.371378-14.214223-17.057067-19.899912-22.742756 17.057067-48.328357 34.114135-79.599648 51.171202z m176.256363-76.756803l-19.899912 5.68569-14.214223-22.742757 17.057067-2.842844c5.685689-2.842845 8.528534-5.685689 8.528534-14.214223l-34.114135-127.928005-34.114134 8.528533 51.171202 196.156275-25.585601 5.685689-59.699736-218.899031 85.285337-22.742756 42.642668 159.199295c8.528534 17.057067 2.842845 28.428446-17.057067 34.114134z m119.399471-116.556626l90.971026-25.585601-5.685689-22.742757 25.585601-5.685689 5.685689 22.742757 28.428445-8.528534 5.685689 25.585601-28.428445 8.528534 17.057067 59.699735c5.685689 17.057067-2.842845 28.428446-19.899912 34.114135l-34.114134 8.528534-11.371379-22.742757c11.371378-2.842845 19.899912-2.842845 31.271291-5.685689 5.685689-2.842845 8.528534-5.685689 8.528533-11.371378l-14.214223-54.014047-93.81387 22.742757-5.685689-25.585601z m-68.228269-108.028093l25.585601-5.68569 62.54258 230.270409-25.585601 5.68569-19.899912-73.913959c-11.371378 17.057067-19.899912 31.27129-31.27129 42.642668l-17.057067-22.742756c11.371378-11.371378 25.585601-31.27129 39.799823-54.014047l-34.114134-122.242315z m110.870937 127.928005c17.057067 11.371378 31.27129 19.899912 39.799824 28.428445l-17.057067 19.899912c-11.371378-8.528534-22.742756-19.899912-39.799824-31.27129l17.057067-17.057067z m-11.371378-110.870938c-8.528534 14.214223-17.057067 28.428446-31.27129 39.799824l-22.742756-17.057068c22.742756-19.899912 34.114135-39.799824 36.956979-62.54258l28.428445-2.842844c0 5.685689 0 8.528534-2.842844 11.371378l68.228269-14.214223 5.685689 22.742756c-2.842845 39.799824-34.114135 73.913958-96.656715 105.185249l-19.899912-19.899912c17.057067-8.528534 31.27129-17.057067 42.642669-22.742756-8.528534-2.842845-14.214223-5.685689-22.742757-8.528534l14.214223-19.899912c8.528534 2.842845 17.057067 8.528534 25.585601 11.371378 14.214223-11.371378 22.742756-25.585601 25.585601-36.956979l-51.171202 14.214223z m-119.399471 19.899912c14.214223 14.214223 28.428446 31.27129 39.799824 48.328357l-19.899912 14.214223c-14.214223-19.899912-28.428446-34.114135-39.799824-48.328357l19.899912-14.214223zM366.898468 568.568911l25.585601-8.528534 19.899911 73.913959 90.971026-25.585601 5.685689 25.585601-90.971025 25.585601 25.585601 96.656715 110.870937-28.428446 5.685689 25.585601-221.741875 59.699736-5.685689-25.585601 85.285337-22.742757-51.171202-196.156274z m292.812989 108.028093l5.685689 25.585601c-22.742756 14.214223-48.328357 31.27129-76.756803 45.485513l-11.371378-25.585601c34.114135-14.214223 59.699736-28.428446 82.442492-45.485513z m-96.656715-162.04214l28.428445 2.842845c-2.842845 31.27129-8.528534 59.699736-14.214222 79.599647l22.742756-8.528533c2.842845-8.528534 2.842845-19.899912 5.685689-31.27129l25.585601 2.842844c-8.528534 42.642668-19.899912 73.913958-28.428445 96.656715 14.214223-8.528534 28.428446-14.214223 42.642668-25.585601l5.685689 22.742757c-25.585601 17.057067-48.328357 28.428446-71.071114 39.799823l-14.214223-22.742756c2.842845-2.842845 8.528534-5.685689 8.528534-11.371378 5.685689-8.528534 11.371378-25.585601 17.057067-45.485513l-34.114134 14.214223-11.371378-22.742757c2.842845-2.842845 5.685689-5.685689 8.528533-11.371378 5.685689-25.585601 8.528534-51.171202 8.528534-79.599648z m181.942051-2.842844l11.371379 22.742756-59.699736 25.585601 8.528534 25.585601 59.699735-25.585601 11.371378 22.742757-59.699735 25.585601c0 2.842845 0 2.842845 2.842844 5.685689 5.685689 11.371378 11.371378 19.899912 14.214223 28.428445 8.528534-14.214223 14.214223-28.428446 19.899912-42.642668l25.585601 8.528534c-8.528534 19.899912-17.057067 39.799824-25.585601 56.856891 8.528534 8.528534 17.057067 11.371378 22.742756 11.371378s5.685689-14.214223 5.68569-36.956979l25.585601 8.528533c0 34.114135-5.685689 51.171202-19.899912 56.856892-14.214223 2.842845-25.585601 0-42.642669-14.214223l-5.685689-5.685689c-14.214223 17.057067-31.27129 31.27129-48.328357 42.642668l-19.899912-17.057067c19.899912-11.371378 36.956979-28.428446 51.171202-45.485513-8.528534-8.528534-14.214223-19.899912-19.899912-31.27129-2.842845-5.685689-5.685689-8.528534-5.685689-14.214223l-39.799824 17.057067-11.371378-22.742756 39.799824-17.057068-8.528534-25.585601-31.27129 14.214223-11.371378-22.742756 34.114134-14.214223-14.214222-54.014046 25.585601-5.68569 14.214222 48.328358 51.171202-25.585601z m-42.642668-34.114135c14.214223 8.528534 25.585601 14.214223 34.114135 22.742757l-17.057068 19.899912c-8.528534-8.528534-19.899912-14.214223-34.114134-22.742757l17.057067-19.899912z" fill="#AAAAAA" p-id="1055"></path></svg>