<?xml version="1.0" standalone="no"?><!DOCTYPE svg PUBLIC "-//W3C//DTD SVG 1.1//EN" "http://www.w3.org/Graphics/SVG/1.1/DTD/svg11.dtd"><svg t="1602863549277" class="icon" viewBox="0 0 1024 1024" version="1.1" xmlns="http://www.w3.org/2000/svg" p-id="2225" xmlns:xlink="http://www.w3.org/1999/xlink" width="200" height="200"><defs><style type="text/css"></style></defs><path d="M1024 0H393.008L1024 628.72V239.136L784 0h240z" fill="#333333" p-id="2226"></path><path d="M628.352 122.24l-15.104-5.52c0.48-0.992 0.992-2.448 1.472-4.416 0.496-1.968 0.88-3.552 1.104-4.784-15.952-8.096-27.872-13.376-35.728-15.84l2.576-13.632c3.92-0.496 7.728-2.592 11.424-6.272L656.736 9.136l38.688 38.688-47.168 47.168-9.584-9.584a1357.632 1357.632 0 0 1-10.32 36.832z m-3.664-42l12.512 3.68-16.224-16.208-18.032 18.048c5.392 2.448 11.168 5.28 17.312 8.464l1.104-3.312a102.56 102.56 0 0 0 3.328-10.672z m-6.64 54.528l79.952-79.952 34.624 34.64-54.528 54.528c-8.336 8.352-15.968 9.344-22.832 2.96l-11.424-11.424c4.16-5.152 7.488-9.696 9.936-13.632a20.8 20.8 0 0 0 3.68 4.416c1.712 2.224 3.056 3.808 4.048 4.784 2.224 2.208 4.672 1.968 7.376-0.736l41.264-41.264-12.16-12.16-68.912 68.912-11.024-11.072z m13.616-77.744l16.224 16.208 7.728-7.728-16.208-16.208-7.744 7.728z m33.92-1.472l7.728-7.728-16.224-16.208-7.728 7.728 16.224 16.208zM734.096 110.816l12.528 5.904c-0.976 1.968-2.448 5.152-4.4 9.584-3.2 7.104-5.664 12.528-7.376 16.208l30.576-30.576 11.44 11.424-85.488 85.488-11.44-11.424 24.688-24.688a15.888 15.888 0 0 1-2.576-0.368 237.28 237.28 0 0 0-19.888-2.208l9.936-18.064c3.92 0.976 9.712 2.096 17.328 3.328 4.656 0.736 8.224 1.344 10.688 1.84l9.936-9.952-11.792-5.904c2.224-4.16 5.28-9.936 9.232-17.312 3.168-6.16 5.392-10.576 6.608-13.28z m-12.896 73.328l10.32-10.32 37.216 37.216 9.584-9.584 11.424 11.424-9.584 9.584 8.464 8.48-10.32 10.32-8.464-8.48-16.224 16.208c-6.88 6.384-14 6.144-21.36-0.736a404.256 404.256 0 0 1-15.84-15.104 3.952 3.952 0 0 0 0.736-1.472c2.208-2.704 4.544-6.752 7.008-12.16l1.84 1.84c3.92 4.912 7.616 8.848 11.056 11.792 2.944 2.944 6.128 2.944 9.568 0l11.792-11.792-20.272-20.272c0 4.416-0.128 10.192-0.368 17.328l-16.944-2.208c0.72-4.672 1.344-10.928 1.824-18.8l0.016-2.944 9.936 1.104-11.408-11.424z m76.64-24.32l28.736 28.736-11.424 11.424c-14.992 2.704-28.864 1.6-41.632-3.312a211.184 211.184 0 0 1-34.64-17.68c1.216-4.672 2.096-9.712 2.576-15.104 9.088 6.128 17.312 10.672 24.688 13.632 0.48-4.912 0.864-8.96 1.104-12.16l13.632 1.84v16.208c8.128 2.224 15.712 2.96 22.864 2.224l-23.952-23.952c-7.632 0.256-14.736 0-21.376-0.736v-7.376a118.72 118.72 0 0 0-0.752-7.376c13.28 1.488 26.784 0.736 40.544-2.192l11.04 13.984-5.536 1.104c-2.688 0.24-4.64 0.48-5.872 0.736zM763.6 272.224l11.424-11.424 32.4 32.4 69.264-69.28 14.368 14.368-24.32 24.32 32.432 32.432-12.528 12.528-32.432-32.432-32.416 32.432 37.952 37.952-11.424 11.424-84.72-84.72zM858.64 367.264l9.216-13.632c1.232 0.736 2.944 1.968 5.136 3.664 8.352 6.4 18.944 14.272 31.712 23.616l-2.96 2.944a26.928 26.928 0 0 0-3.68 2.944 144.096 144.096 0 0 0 26.512 11.04c3.184-5.664 7.12-11.536 11.792-17.68l-16.224-13.28 9.216-12.16 16.576 13.648c0.992-0.992 2.336-2.576 4.064-4.784a27.2 27.2 0 0 0 4.032-4.816l-12.512-10.304 4.416-5.168c-15.472 3.68-28.752 6.368-39.792 8.112 1.472 0.976 3.44 2.464 5.888 4.416l8.848 6.64a40 40 0 0 0-5.888 5.168 74.128 74.128 0 0 0-5.872 5.168c-14.016-11.056-23.712-18.064-29.12-21.008l6.64-13.264c7.104 0.24 16.208-0.736 27.264-2.96-1.712-1.712-4.8-4.544-9.216-8.464a13.168 13.168 0 0 1-2.576-1.856l7.008-12.896c10.56-1.232 25.312-5.392 44.224-12.528l7.008 15.104a617.44 617.44 0 0 1-37.216 9.216l7.728 7.728c2.448-0.992 6.256-2.096 11.44-3.312-1.232 0.24-0.496 0 2.208-0.736l4.064 12.16 2.56-3.328 13.264 11.04c1.728-2.192 4.672-5.392 8.864-9.568 3.664-4.176 6.624-7.376 8.832-9.584l11.792 11.792a238.4 238.4 0 0 0-8.848 9.568l-8.112 8.112 16.96 14-1.104-5.536a174.464 174.464 0 0 0-2.592-15.104l12.912-1.84c2.464 7.376 4.544 14.864 6.272 22.48l-12.896 1.84 9.216 7.744-9.216 11.408-29.104-23.936c-0.24 0.256-3.072 3.312-8.464 9.2l30.944 24.32-9.584 11.792-11.792-9.584 1.472 14c-11.536 0.256-23.072-0.48-34.608-2.192a40.08 40.08 0 0 0-0.384 9.2c0.752 3.68 2.96 4.928 6.64 3.696a115.84 115.84 0 0 0 4.784-2.592c3.936-2.448 6.896-4.416 8.848-5.904l3.68 11.056c0.496 1.968 0.992 3.456 1.488 4.432-8.112 4.672-14.256 7.616-18.416 8.848-7.376 1.936-12.912 1.088-16.576-2.576-7.632-7.632-9.696-17.584-6.272-29.856-12.784-4.912-23.088-9.584-30.976-14 1.248-2.688 2.224-5.648 2.96-8.848-7.36-5.392-17.056-12.16-29.088-20.256a25.808 25.808 0 0 1-3.392-2.544z m108.704 36.48l-17.68-13.28a7.712 7.712 0 0 0-1.104 1.84c-1.712 2.688-3.936 5.888-6.624 9.584a129.616 129.616 0 0 0 25.408 1.856z" fill="#FFFFFF" p-id="2227"></path></svg>