<?xml version="1.0" standalone="no"?><!DOCTYPE svg PUBLIC "-//W3C//DTD SVG 1.1//EN" "http://www.w3.org/Graphics/SVG/1.1/DTD/svg11.dtd"><svg t="1602638315372" class="icon" viewBox="0 0 1024 1024" version="1.1" xmlns="http://www.w3.org/2000/svg" p-id="1370" xmlns:xlink="http://www.w3.org/1999/xlink" width="200" height="200"><defs><style type="text/css"></style></defs><path d="M582.652978 911.876796l17.634801 104.32976A511.978099 511.978099 0 0 1 119.711003 182.933757l3.356301-3.69762-63.883489-53.871473a11.377291 11.377291 0 0 1 4.437143-19.398281L298.960224 40.831391a8.817401 8.817401 0 0 1 11.377292 9.329379l-22.754583 243.075824a11.377291 11.377291 0 0 1-19.056962 7.793444L204.642481 248.068748l-3.185641 3.69762a405.998632 405.998632 0 0 0 381.139251 659.882883z m377.555404-7.224579l-64.566127-54.212792c2.844323-3.185642 5.688646-6.200624 8.646742-9.329379A511.978099 511.978099 0 0 0 420.754126 8.406112l17.634801 104.329759a405.998632 405.998632 0 0 1 384.779984 660.224201c-2.844323 3.356301-5.688646 6.371283-8.476082 9.556925l-63.71283-52.96129a11.377291 11.377291 0 0 0-19.056962 7.793444l-22.754583 242.734505a8.817401 8.817401 0 0 0 11.377292 9.329379l235.339266-64.452354a11.377291 11.377291 0 0 0 4.437143-20.137805z" fill="#FFFFFF" p-id="1371"></path></svg>