<svg xmlns="http://www.w3.org/2000/svg" width="16" height="16" viewBox="0 0 16 16"><defs><style>.ac{fill:#fff;opacity:0;}.bc{fill:#666;}</style></defs><rect class="ac" width="16" height="16"/><g transform="translate(3 2.457)"><path class="bc" d="M5.223,9.98l.45-.45a.273.273,0,0,0,0-.386L1.567,5.03,5.672.915a.273.273,0,0,0,0-.386L5.223.08a.273.273,0,0,0-.386,0L.08,4.837a.273.273,0,0,0,0,.386L4.837,9.98A.273.273,0,0,0,5.223,9.98Z" transform="translate(0 5.752) rotate(-90)"/><path class="bc" d="M5.223,9.98l.45-.45a.273.273,0,0,0,0-.386L1.567,5.03,5.672.915a.273.273,0,0,0,0-.386L5.223.08a.273.273,0,0,0-.386,0L.08,4.837a.273.273,0,0,0,0,.386L4.837,9.98A.273.273,0,0,0,5.223,9.98Z" transform="translate(0 10.543) rotate(-90)"/></g></svg>