<svg xmlns="http://www.w3.org/2000/svg" width="16" height="16" viewBox="0 0 16 16"><defs><style>._a{fill:#fff;opacity:0;}._b{fill:#666;}</style></defs><g transform="translate(-348 -344)"><rect class="_a" width="16" height="16" transform="translate(348 344)"/><g transform="translate(0 0.767)"><path class="_b" d="M5.223.08l.45.45a.273.273,0,0,1,0,.386L1.567,5.03l4.1,4.115a.273.273,0,0,1,0,.386l-.45.45a.273.273,0,0,1-.386,0L.08,5.223a.273.273,0,0,1,0-.386L4.837.08A.273.273,0,0,1,5.223.08Z" transform="translate(361.06 351.024) rotate(90)"/><path class="_b" d="M5.223.08l.45.45a.273.273,0,0,1,0,.386L1.567,5.03l4.1,4.115a.273.273,0,0,1,0,.386l-.45.45a.273.273,0,0,1-.386,0L.08,5.223a.273.273,0,0,1,0-.386L4.837.08A.273.273,0,0,1,5.223.08Z" transform="translate(361.06 346.233) rotate(90)"/></g></g></svg>