<svg xmlns="http://www.w3.org/2000/svg" width="20" height="20" viewBox="0 0 20 20"><defs><style>.a{fill:#767676;opacity:0;}.b{fill:#fff;}</style></defs><g transform="translate(-744 -308.5)"><rect class="a" width="20" height="20" transform="translate(744 308.5)"/><path class="b" d="M1.393,9.43l.057.007a.246.246,0,0,1,.183.183l.007.057V12.3H4.266a.246.246,0,0,1,.24.19l.007.057v.736a.246.246,0,0,1-.19.24l-.057.007H.656a.246.246,0,0,1-.24-.19L.41,13.289V9.676A.246.246,0,0,1,.6,9.437L.656,9.43h.737Zm11.9,0,.057.007a.246.246,0,0,1,.183.183l.007.057v3.613l-.007.057a.246.246,0,0,1-.183.183l-.057.007H9.68l-.057-.007a.246.246,0,0,1-.183-.183l-.007-.057v-.737L9.44,12.5a.246.246,0,0,1,.183-.183l.057-.007h2.627V9.676l.006-.057a.246.246,0,0,1,.131-.164l.052-.019.057-.007h.736ZM4.266.41a.246.246,0,0,1,.246.246v.737a.246.246,0,0,1-.246.246H1.638v2.63a.246.246,0,0,1-.189.24l-.057.007H.656A.246.246,0,0,1,.41,4.269V.656A.246.246,0,0,1,.656.41H4.266Zm9.023,0a.246.246,0,0,1,.24.19l.007.057V4.269a.246.246,0,0,1-.189.24l-.057.007h-.737L12.5,4.508a.246.246,0,0,1-.183-.183l-.007-.057V1.641l-2.627,0a.246.246,0,0,1-.24-.19l-.007-.057V.656a.246.246,0,0,1,.189-.24L9.68.41h3.609Z" transform="translate(747.027 311.215)"/></g></svg>