<svg xmlns="http://www.w3.org/2000/svg" width="98" height="98" viewBox="0 0 98 98"><defs><style>.a{fill:#fff;opacity:0;}.b{fill:#cecfd5;}</style></defs><g transform="translate(-138 -387)"><rect class="a" width="98" height="98" transform="translate(138 387)"/><g transform="translate(159.929 394.679)"><path class="b" d="M120.718,0H69.393A1.673,1.673,0,0,0,67.72,1.673V81.32a1.67,1.67,0,0,0,2.794,1.238L95.055,60.225,119.6,82.558a1.673,1.673,0,0,0,2.794-1.238V1.673A1.673,1.673,0,0,0,120.718,0ZM96.176,56.728a1.673,1.673,0,0,0-2.258,0L71.066,77.539V3.346h47.979V77.539Z" transform="translate(-67.72 0)"/><g transform="translate(8.856 11.971)"><g transform="translate(0)"><path class="b" d="M146.509,69.844a1.672,1.672,0,0,0-.965-.5l-10.707-1.556-4.851-9.619a1.673,1.673,0,0,0-2.994,0l-4.785,9.7L111.5,69.433a1.673,1.673,0,0,0-.92,2.861l7.8,7.461L116.6,90.495a1.673,1.673,0,0,0,2.426,1.757l9.569-5.019,9.569,5.019a1.673,1.673,0,0,0,2.426-1.757l-1.874-10.74,7.746-7.545A1.673,1.673,0,0,0,146.509,69.844Zm-10.751,8.237a1.673,1.673,0,0,0-.485,1.472l1.405,8.164-7.361-3.864a1.673,1.673,0,0,0-1.556,0l-7.344,3.864,1.405-8.181a1.673,1.673,0,0,0-.485-1.472L115.4,72.277l8.214-1.288a1.673,1.673,0,0,0,1.255-.92l3.68-7.444,3.68,7.444a1.673,1.673,0,0,0,1.255.92l8.214,1.188Z" transform="translate(-110.068 -57.247)"/></g></g></g></g></svg>