<svg xmlns="http://www.w3.org/2000/svg" width="18" height="18" viewBox="0 0 18 18"><defs><style>.a{fill:#bcbec3;opacity:0;}.b{fill:#ffe925;}</style></defs><rect class="a" width="18" height="18"/><path class="b" d="M6.729-10.048,5.021-6.687,1.2-6.146A.807.807,0,0,0,.734-4.76L3.5-2.145,2.846,1.549A.832.832,0,0,0,4.06,2.4L7.48.66,10.9,2.4a.833.833,0,0,0,1.214-.856l-.654-3.694L14.227-4.76a.807.807,0,0,0-.463-1.386L9.94-6.687,8.231-10.048A.85.85,0,0,0,6.729-10.048Z" transform="translate(1.52 12.5)"/></svg>