<?xml version="1.0" standalone="no"?><!DOCTYPE svg PUBLIC "-//W3C//DTD SVG 1.1//EN" "http://www.w3.org/Graphics/SVG/1.1/DTD/svg11.dtd"><svg t="1602346146856" class="icon" viewBox="0 0 1024 1024" version="1.1" xmlns="http://www.w3.org/2000/svg" p-id="826" xmlns:xlink="http://www.w3.org/1999/xlink" width="200" height="200"><defs><style type="text/css"></style></defs><path d="M88.832 580.8a52.736 52.736 0 0 1 53.376-52.736h104.64a53.312 53.312 0 0 1 53.376 52.736v317.44a52.736 52.736 0 0 1-53.376 52.736H142.208a53.312 53.312 0 0 1-53.376-52.736z m634.24-211.2a52.928 52.928 0 0 1 53.376-53.056h104.64a53.44 53.44 0 0 1 53.376 53.056v528.256a52.928 52.928 0 0 1-53.376 53.056h-104.704a53.44 53.44 0 0 1-53.376-53.056V369.6z m-327.04-226.432a53.824 53.824 0 0 1 54.336-53.888h106.752a54.016 54.016 0 0 1 54.336 53.888v753.92a53.824 53.824 0 0 1-54.336 53.888H450.368a54.016 54.016 0 0 1-54.336-53.888V143.168z" fill="#EB2121" p-id="827"></path></svg>