<svg xmlns="http://www.w3.org/2000/svg" width="18" height="18.001" viewBox="0 0 18 18.001"><defs><style>.a,.b{fill:#fff;}.a{opacity:0;}</style></defs><g transform="translate(-6604.919 -11100.918)"><rect class="a" width="14.303" height="14.303" transform="translate(6606.767 11102.768)"/><path class="b" d="M8.467,6.087,8.12,2.727h1.2A.682.682,0,0,0,10,2.046V.682A.682.682,0,0,0,9.319,0H1.591A.682.682,0,0,0,.909.682V2.046a.682.682,0,0,0,.682.682h1.2l-.348,3.36A3.749,3.749,0,0,0,0,9.319.682.682,0,0,0,.682,10H4.546v2.955a.227.227,0,0,0,.024.1l.682,1.364a.227.227,0,0,0,.407,0l.682-1.364a.27.27,0,0,0,.024-.1V10h3.864a.682.682,0,0,0,.682-.682A3.75,3.75,0,0,0,8.467,6.087Z" transform="translate(6604.919 11108.633) rotate(-45)"/></g></svg>