<svg xmlns="http://www.w3.org/2000/svg" width="16" height="15.997" viewBox="0 0 16 15.997"><defs><style>.a,.b{fill:#fff;}.a{opacity:0;}</style></defs><g transform="translate(-6606.997 -11103)"><rect class="a" width="15.997" height="15.997" transform="translate(6607 11103)"/><path class="b" d="M9.009,6.373,8.706,4H9.823a.737.737,0,0,0,.719-.75V.75A.737.737,0,0,0,9.823,0H1.677A.737.737,0,0,0,.958.75v2.5A.737.737,0,0,0,1.677,4H2.794l-.3,2.372A4.813,4.813,0,0,0,0,10.476a.491.491,0,0,0,.479.5H5.271v3.775a.359.359,0,0,0,.006.059l.24,1a.237.237,0,0,0,.464,0l.24-1a.2.2,0,0,0,.006-.059V10.976h4.792a.491.491,0,0,0,.479-.5A4.8,4.8,0,0,0,9.009,6.373ZM1,9.976A4.049,4.049,0,0,1,3.378,7.023L3.833,3H1.917V1H9.584V3H7.667l.458,4.025a4.059,4.059,0,0,1,2.381,2.953H1Z" transform="translate(6606.997 11116.747) rotate(-90)"/></g></svg>