<svg xmlns="http://www.w3.org/2000/svg" width="16" height="16" viewBox="0 0 16 16"><defs><style>.av,.bv{fill:#eb2121;}.av{opacity:0;}</style></defs><g transform="translate(-201 -560)"><rect class="av" width="16" height="16" transform="translate(201 560)"/><path class="bv" d="M7.955-6.75H1.131A1.131,1.131,0,0,0,0-5.619V1.2A1.131,1.131,0,0,0,1.131,2.336H7.955A1.131,1.131,0,0,0,9.086,1.2V-5.619A1.131,1.131,0,0,0,7.955-6.75Zm4.481.892L9.843-4.069V-.345l2.593,1.786a.759.759,0,0,0,1.193-.61V-5.248A.759.759,0,0,0,12.436-5.858Z" transform="translate(202.257 570.636)"/></g></svg>