<svg id="Icon_Regulated" xmlns="http://www.w3.org/2000/svg" width="27.294" height="27.274" viewBox="0 0 27.294 27.274">
  <path id="Path_5252" data-name="Path 5252" d="M27.2,32.439c0,.427.011.826,0,1.225a1.1,1.1,0,0,1-.541.985,1.043,1.043,0,0,1-.513.114c-1.322.011-2.643.006-3.965.006a1.089,1.089,0,0,1-1.2-1.191c-.006-.37,0-.741,0-1.139H13.745a3.054,3.054,0,0,1-1.885-.564,3.182,3.182,0,0,1-1.4-2.609c-.023-4.58-.011-9.165-.011-13.745,0-.587-.006-1.173.006-1.76A3.254,3.254,0,0,1,13.1,10.64a2.761,2.761,0,0,1,.53-.034q10.458,0,20.917-.006a3.235,3.235,0,0,1,3.161,2.985c.028.342.034.684.034,1.025V28.868a3.758,3.758,0,0,1-.285,1.584,3.114,3.114,0,0,1-3.025,1.982c-2.307.006-4.62,0-6.927,0C27.416,32.439,27.32,32.439,27.2,32.439Zm-3.116-4.3H34.531a.932.932,0,0,0,.968-.666,1.851,1.851,0,0,0,.1-.61q.009-6.425.006-12.851a1.133,1.133,0,0,0-1.276-1.287H13.637a.948.948,0,0,0-.946.649,1.689,1.689,0,0,0-.108.6q-.009,6.46-.006,12.919v.131A1.054,1.054,0,0,0,13.7,28.139Q18.895,28.147,24.084,28.144Z" transform="translate(-10.45 -10.6)" fill="#24a9e1"/>
  <path id="Path_5253" data-name="Path 5253" d="M102.633,454.225a2.236,2.236,0,0,1,.347-1.692.953.953,0,0,1,.82-.433c4.813.011,9.621.006,14.434.011a1.9,1.9,0,0,1,.666.125.706.706,0,0,1,.45.621c.028.45.006.9.006,1.367Z" transform="translate(-97.355 -426.951)" fill="#24a9e1"/>
  <path id="Path_5254" data-name="Path 5254" d="M94.482,95.4c-.063.108-.108.182-.154.262Q92.662,98.717,91,101.77a1.129,1.129,0,0,1-.678.6.669.669,0,0,1-.877-.308,4.355,4.355,0,0,1-.336-.672c-.461-1.134-.911-2.267-1.367-3.406-.028-.068-.057-.131-.1-.228-.319.347-.627.678-.928,1.008l-.94,1.042a1.178,1.178,0,0,1-1.606.12,1.161,1.161,0,0,1,0-1.606c.963-.968,1.931-1.931,2.894-2.9a.843.843,0,0,0,.142-.142,1.042,1.042,0,0,1,1.111-.433.664.664,0,0,1,.535.319,1.981,1.981,0,0,1,.205.393l1.31,3.173a1.476,1.476,0,0,0,.114-.177c.963-1.743,1.931-3.492,2.888-5.241a1.832,1.832,0,0,1,.8-.746.377.377,0,0,1,.313-.011,2.878,2.878,0,0,1,.661.433c.7.672,1.379,1.373,2.068,2.056.057.057.114.108.239.222a2.194,2.194,0,0,1,.148-.239c1.065-1.071,2.13-2.13,3.2-3.2a1.02,1.02,0,0,1,1.208-.3,1.3,1.3,0,0,1,.746,1.151,1.137,1.137,0,0,1-.359.854q-2.085,2.076-4.158,4.158a1.146,1.146,0,0,1-1.7-.034l-1.863-2.034C94.607,95.55,94.55,95.482,94.482,95.4Z" transform="translate(-79.657 -86.835)" fill="#24a9e1"/>
</svg>
