<svg id="Icon_Coins" xmlns="http://www.w3.org/2000/svg" width="29.318" height="29.336" viewBox="0 0 29.318 29.336">
  <path id="Path_5255" data-name="Path 5255" d="M35.6,30.379c.626-.158,1.2-.348,1.789-.449a16.113,16.113,0,0,1,7.524.329,5.172,5.172,0,0,1,1.688.847,2.219,2.219,0,0,1,.9,1.9c-.019,1.77,0,3.541,0,5.317,0,2.055,0,4.11-.019,6.164a1.36,1.36,0,0,1-.234.676,3.839,3.839,0,0,1-2.238,1.53,15.042,15.042,0,0,1-5.406.632,13.7,13.7,0,0,1-3.465-.575,5.476,5.476,0,0,1-1.8-.885.237.237,0,0,0-.215-.019,11.215,11.215,0,0,1-4.1,1.277,21.076,21.076,0,0,1-4.679.171,15.466,15.466,0,0,1-4.691-.961,4.447,4.447,0,0,1-2.188-1.625,1.426,1.426,0,0,1-.272-.8V36.233c0-4.7.019-9.408-.013-14.112a2.746,2.746,0,0,1,1.442-2.567A9.735,9.735,0,0,1,22.871,18.4a21.788,21.788,0,0,1,7.018-.177A12.232,12.232,0,0,1,33.6,19.245a4.268,4.268,0,0,1,1.359.955,2.343,2.343,0,0,1,.651,1.682c-.019,2.308-.006,4.609-.006,6.917,0,.443-.006.885-.006,1.328C35.6,30.214,35.6,30.3,35.6,30.379ZM33.48,31.624A20.213,20.213,0,0,1,20.3,31.618v.259c0,1.321.025,2.643-.013,3.958a.893.893,0,0,0,.556.936,3.739,3.739,0,0,0,.531.259,21.341,21.341,0,0,0,2.131.594,18.71,18.71,0,0,0,5.178.221,12.056,12.056,0,0,0,3.4-.689,9.684,9.684,0,0,0,1.195-.613.4.4,0,0,0,.2-.386c0-1.46.013-2.915.025-4.375C33.493,31.732,33.486,31.668,33.48,31.624ZM20.3,24.322v.234c0,1.385.006,2.763-.006,4.147a.633.633,0,0,0,.3.588,5.094,5.094,0,0,0,1.562.7,16.37,16.37,0,0,0,4.5.613,16.12,16.12,0,0,0,4.976-.62,11.262,11.262,0,0,0,1.5-.651.626.626,0,0,0,.36-.632c-.013-1.429-.006-2.858-.006-4.28a.184.184,0,0,0-.025-.089A20.034,20.034,0,0,1,20.3,24.322Zm0,14.624v.247c0,1.4.006,2.795-.006,4.192a.5.5,0,0,0,.253.493,11.2,11.2,0,0,0,1.423.67,14.321,14.321,0,0,0,4.166.67,17.437,17.437,0,0,0,5.241-.525,6.046,6.046,0,0,0,1.827-.771.6.6,0,0,0,.285-.556c-.013-1.372-.006-2.75-.006-4.122,0-.1-.013-.209-.013-.285A20.013,20.013,0,0,1,20.3,38.945Zm25.068-3.819a16.122,16.122,0,0,1-9.73.006,1.115,1.115,0,0,0-.025.126c0,1.031-.006,2.061.006,3.092a.374.374,0,0,0,.164.266,6.57,6.57,0,0,0,1.151.493,14.031,14.031,0,0,0,6.48.171,5.336,5.336,0,0,0,1.739-.613.4.4,0,0,0,.228-.386c-.006-1.012,0-2.029.006-3.047C45.385,35.2,45.379,35.158,45.373,35.127ZM35.63,40.943a.831.831,0,0,0-.019.095c0,.993-.006,1.985.006,2.978a.374.374,0,0,0,.171.266,6.57,6.57,0,0,0,1.151.493,13.957,13.957,0,0,0,6.259.215,5.851,5.851,0,0,0,1.96-.664.43.43,0,0,0,.24-.424c-.013-.91-.006-1.815-.006-2.725,0-.082-.006-.158-.013-.24A16.381,16.381,0,0,1,35.63,40.943ZM26.81,23.31a17.544,17.544,0,0,0,4.489-.518,5.727,5.727,0,0,0,1.909-.809c.322-.228.322-.291-.006-.525a5.534,5.534,0,0,0-1.8-.778,16.187,16.187,0,0,0-4.008-.531,17.427,17.427,0,0,0-5.172.575,4.907,4.907,0,0,0-1.707.8c-.228.177-.247.259.006.4a8.86,8.86,0,0,0,1.391.683A15.539,15.539,0,0,0,26.81,23.31Zm18.48,9.439a2.421,2.421,0,0,0-.354-.2,12.257,12.257,0,0,0-1.385-.462,13.833,13.833,0,0,0-5.248-.158,16.913,16.913,0,0,0-2.055.531,2.868,2.868,0,0,0-.518.266c0,.032-.006.063-.006.095a10.312,10.312,0,0,0,1.132.455,13.923,13.923,0,0,0,7.062.07A3.841,3.841,0,0,0,45.29,32.749Z" transform="translate(-18.192 -18.02)" fill="#24a9e1"/>
</svg>
