<svg id="Icon_Fast" xmlns="http://www.w3.org/2000/svg" width="27.827" height="27.782" viewBox="0 0 27.827 27.782">
  <path id="Path_5248" data-name="Path 5248" d="M31.579,25.162c-.419.244-.8.448-1.157.68a5.394,5.394,0,0,0-.5.4,1,1,0,0,1-1.506-.273,6.4,6.4,0,0,1-.762-3.476,6.536,6.536,0,0,1,1.57-4,6.669,6.669,0,0,1,3.889-2.285,6.877,6.877,0,0,1,2.942.047.3.3,0,0,0,.244-.064,17.443,17.443,0,0,1,6.668-4.215,16.687,16.687,0,0,1,3.918-.866,17.244,17.244,0,0,1,6.1.448,1.241,1.241,0,0,1,.959.953,16.62,16.62,0,0,1,.465,5.814A17.328,17.328,0,0,1,49.746,28.7c-.145.157-.337.273-.483.43a.377.377,0,0,0-.093.285,6.864,6.864,0,0,1,.163,2.151,6.717,6.717,0,0,1-1.628,3.913,6.569,6.569,0,0,1-3.663,2.174A6.873,6.873,0,0,1,39.52,37.1a1.044,1.044,0,0,1-.349-1.57A6.312,6.312,0,0,0,40.1,34.08c.029-.064.052-.128.087-.215-.453.058-.872.134-1.3.157-.721.041-1.442.07-2.163.064a.773.773,0,0,1-.483-.233c-1.57-1.552-3.128-3.116-4.686-4.674a.9.9,0,0,1-.25-.663,17.272,17.272,0,0,1,.262-3.145C31.573,25.325,31.567,25.278,31.579,25.162ZM41.782,35.7a4.74,4.74,0,0,0,3.552-.738,4.666,4.666,0,0,0,2.058-3.843,4.941,4.941,0,0,0-.285-1.715,1.079,1.079,0,0,1,.308-1.244c.244-.221.494-.448.721-.686a15.875,15.875,0,0,0,2.227-2.936,15.042,15.042,0,0,0,2.116-7.575,17.3,17.3,0,0,0-.256-3.192c-.035-.192-.076-.308-.3-.349a15.427,15.427,0,0,0-6.6.07,14.966,14.966,0,0,0-7.8,4.552,1.242,1.242,0,0,1-1.448.366,4.62,4.62,0,0,0-4.7.965,4.532,4.532,0,0,0-1.552,3.087,3.916,3.916,0,0,0,.064,1.372c.087-.047.157-.087.227-.122a6.532,6.532,0,0,1,2.854-.762.993.993,0,0,1,1.017,1.32,15.134,15.134,0,0,0-.541,3.639.435.435,0,0,0,.134.349q1.857,1.849,3.709,3.715a.45.45,0,0,0,.372.14,18.161,18.161,0,0,0,3.622-.535A1.364,1.364,0,0,1,42,31.6a1.008,1.008,0,0,1,.622,1.128,8.812,8.812,0,0,1-.256,1.407C42.223,34.661,41.991,35.155,41.782,35.7Z" transform="translate(-26.66 -11.019)" fill="#24a9e1"/>
  <path id="Path_5249" data-name="Path 5249" d="M10.7,361.19a.984.984,0,0,1,.308-.738q1.334-1.343,2.674-2.68a1.047,1.047,0,0,1,1.541.006,1.068,1.068,0,0,1-.041,1.494q-1.325,1.334-2.663,2.657a1.032,1.032,0,0,1-1.18.233A1.008,1.008,0,0,1,10.7,361.19Z" transform="translate(-10.696 -337.298)" fill="#24a9e1"/>
  <path id="Path_5250" data-name="Path 5250" d="M63.843,407.005a1.027,1.027,0,0,1-.273.785c-.93.936-1.86,1.878-2.8,2.8a1.048,1.048,0,0,1-1.442-1.517c.907-.918,1.825-1.825,2.738-2.738a.994.994,0,0,1,1.128-.215A1.035,1.035,0,0,1,63.843,407.005Z" transform="translate(-56.215 -383.066)" fill="#24a9e1"/>
  <path id="Path_5251" data-name="Path 5251" d="M289.844,99.393a3.523,3.523,0,1,1-3.5-3.5A3.517,3.517,0,0,1,289.844,99.393Zm-4.936-.006a1.419,1.419,0,0,0,2.837.07A1.451,1.451,0,0,0,286.326,98,1.433,1.433,0,0,0,284.908,99.388Z" transform="translate(-266.979 -90.959)" fill="#24a9e1"/>
</svg>
