<svg id="Icon_Stable" xmlns="http://www.w3.org/2000/svg" width="30.795" height="27.819" viewBox="0 0 30.795 27.819">
  <path id="Path_5247" data-name="Path 5247" d="M30,55.783h-.267q-6.683,0-13.367-.006c-.21,0-.3.051-.356.261a4.273,4.273,0,1,1-4.78-5.428,6.417,6.417,0,0,1,1.106-.038.333.333,0,0,0,.356-.191q3.318-5.768,6.648-11.524c.114-.2.311-.394.311-.591s-.2-.388-.311-.578a4.275,4.275,0,1,1,7.926-2.8,4.2,4.2,0,0,1-.775,3.184.26.26,0,0,0-.013.337q3.47,6,6.928,11.994a.283.283,0,0,0,.318.172,4.274,4.274,0,1,1-3.674,5.39A.69.69,0,0,0,30,55.783ZM14.7,51.556a4.544,4.544,0,0,1,1.252,1.805c.019.057.153.1.235.1q6.855.01,13.71.006a.266.266,0,0,0,.3-.2,3.924,3.924,0,0,1,1.074-1.583c.114-.108.108-.178.038-.305Q27.942,45.572,24.6,39.753a.224.224,0,0,0-.318-.127,3.967,3.967,0,0,1-2.415.006c-.2-.064-.286-.006-.388.165q-2.155,3.747-4.322,7.494C16.339,48.709,15.532,50.12,14.7,51.556Zm19.462,5.193a1.945,1.945,0,1,0-1.945-1.964A1.957,1.957,0,0,0,34.162,56.749Zm-22.24,0A1.951,1.951,0,1,0,9.964,54.76,1.973,1.973,0,0,0,11.922,56.749Zm9.185-21.217a1.951,1.951,0,1,0,1.97-1.951A1.952,1.952,0,0,0,21.106,35.533Z" transform="translate(-7.647 -31.279)" fill="#24a9e1"/>
</svg>
