<svg id="Icon_AnonymousTrading" xmlns="http://www.w3.org/2000/svg" width="30.42" height="30.497" viewBox="0 0 30.42 30.497">
  <path id="Path_5237" data-name="Path 5237" d="M22.765,36.884c-2.173-.069-4.026-.1-5.874-.194a55.463,55.463,0,0,1-7.045-.776c-.827-.15-1.641-.369-2.461-.551-.157-.038-.2-.113-.194-.269a10.978,10.978,0,0,1,1-4.227,4.385,4.385,0,0,1,2.167-2.236c.589-.25,1.221-.407,1.841-.6a32.49,32.49,0,0,0,4.377-1.566,8.749,8.749,0,0,0,1.177-.726A.792.792,0,0,0,18.094,25c-.019-.282.006-.564-.006-.852a.313.313,0,0,0-.1-.219A7.573,7.573,0,0,1,16,21.21c-.188-.388-.376-.789-.539-1.19a3.61,3.61,0,0,0-.532-.864,3.8,3.8,0,0,1-.946-2.38,2.406,2.406,0,0,1,.77-1.785.43.43,0,0,0,.144-.4,8.023,8.023,0,0,1,.006-2.323A6.264,6.264,0,0,1,18.7,7.19a9.049,9.049,0,0,1,7.464.006,6.227,6.227,0,0,1,3.757,4.941,9.021,9.021,0,0,1,.025,2.5.337.337,0,0,0,.075.269,2.643,2.643,0,0,1,.513,3.237,12.213,12.213,0,0,1-.77,1.2,4.17,4.17,0,0,0-.326.557,14.109,14.109,0,0,1-1.478,2.805,16.481,16.481,0,0,1-1.146,1.24.509.509,0,0,0-.132.288c-.019.225.006.451-.006.676a.982.982,0,0,0,.42.883,5.724,5.724,0,0,0,1.8.958c1.628.564,3.269,1.108,4.916,1.622a4.44,4.44,0,0,1,2.555,2.041,8.6,8.6,0,0,1,1.058,3.068c.088.52.113,1.052.182,1.578.025.188-.05.263-.219.3-1.039.219-2.079.476-3.125.658a43.488,43.488,0,0,1-5.254.582C26.817,36.734,24.631,36.809,22.765,36.884Zm-5.41-20.151c-.106-.125-.207-.276-.332-.4a.547.547,0,0,0-.639-.144.563.563,0,0,0-.382.557,1.568,1.568,0,0,0,.157.664c.219.369.5.708.751,1.065a1.755,1.755,0,0,1,.169.269c.319.689.62,1.39.952,2.073a4.568,4.568,0,0,0,1.728,2,5.006,5.006,0,0,0,3.212.7,4.356,4.356,0,0,0,3.407-1.96,20.354,20.354,0,0,0,1.108-2.142,3.984,3.984,0,0,1,.764-1.3,1.221,1.221,0,0,0,.269-.369,4.392,4.392,0,0,0,.332-.908.6.6,0,0,0-1.071-.451c-.1.113-.188.238-.282.357.15-.67.3-1.328.451-2.01a2.031,2.031,0,0,0-.238-.013,12.632,12.632,0,0,1-3.776-.539,10.086,10.086,0,0,1-4.07-2.261.419.419,0,0,0-.476-.106A4.941,4.941,0,0,0,17.3,13.251a1.142,1.142,0,0,0-.395,1.2c.044.157.044.332.075.495C17.1,15.543,17.229,16.144,17.355,16.733Zm2.774,8.341a.774.774,0,0,0-.025.144,2.584,2.584,0,0,1-.877,1.816A6.178,6.178,0,0,1,17.3,28.249a.324.324,0,0,0-.225.438,7.176,7.176,0,0,0,1.1,2.63,12.439,12.439,0,0,0,4,3.682.423.423,0,0,0,.495-.013,13.832,13.832,0,0,0,2.887-2.3,8.135,8.135,0,0,0,2.211-4.052.257.257,0,0,0-.169-.332,15.178,15.178,0,0,1-1.591-.889,2.794,2.794,0,0,1-1.346-2.223.243.243,0,0,0-.038-.088A7.514,7.514,0,0,1,20.129,25.074Zm-1.44,9.813a15.845,15.845,0,0,1-2.236-2.624,9.371,9.371,0,0,1-1.328-3.144.771.771,0,0,0-.138.031q-1.756.545-3.507,1.09a1.92,1.92,0,0,0-.927.62,6.076,6.076,0,0,0-1.19,2.881c-.031.144.05.169.163.188,1,.157,1.985.351,2.987.463,1.39.163,2.787.269,4.183.388C17.355,34.837,18.025,34.855,18.688,34.887Zm11.027-5.755a10.831,10.831,0,0,1-3.632,5.755,58.159,58.159,0,0,0,9.362-.983c-.025-.157-.05-.282-.075-.407a6.346,6.346,0,0,0-.964-2.43,2.18,2.18,0,0,0-1.234-.87c-.395-.1-.776-.232-1.165-.351C31.25,29.608,30.5,29.376,29.716,29.132Z" transform="translate(-7.191 -6.387)" fill="#24a9e1"/>
  <path id="Path_5238" data-name="Path 5238" d="M222.672,326.435a3.754,3.754,0,0,1-1.434,1.553c.125.313.25.614.376.908.313.745.626,1.5.952,2.242a.286.286,0,0,1-.05.351,6,6,0,0,1-1.7,1.478.441.441,0,0,1-.463-.006,5.742,5.742,0,0,1-1.741-1.553c-.044-.05-.025-.175.006-.25.382-.933.776-1.86,1.165-2.787.05-.119.094-.238.15-.376a3.391,3.391,0,0,1-1.146-1.083c-.276-.4-.238-.37.05-.745a1.557,1.557,0,0,1,1.559-.639c.369.044.751.006,1.133.012a.4.4,0,0,1,.238.075C222.07,325.878,222.365,326.16,222.672,326.435Z" transform="translate(-205.35 -305.526)" fill="#24a9e1"/>
</svg>
